<?xml version="1.0" encoding="utf-8" standalone="no"?>
<!DOCTYPE svg PUBLIC "-//W3C//DTD SVG 1.1//EN"
  "http://www.w3.org/Graphics/SVG/1.1/DTD/svg11.dtd">
<svg xmlns:xlink="http://www.w3.org/1999/xlink" width="1494.81pt" height="360pt" viewBox="0 0 1494.81 360" xmlns="http://www.w3.org/2000/svg" version="1.1">
 <metadata>
  <rdf:RDF xmlns:dc="http://purl.org/dc/elements/1.1/" xmlns:cc="http://creativecommons.org/ns#" xmlns:rdf="http://www.w3.org/1999/02/22-rdf-syntax-ns#">
   <cc:Work>
    <dc:type rdf:resource="http://purl.org/dc/dcmitype/StillImage"/>
    <dc:date>2023-12-21T15:36:39.799972</dc:date>
    <dc:format>image/svg+xml</dc:format>
    <dc:creator>
     <cc:Agent>
      <dc:title>Matplotlib v3.8.1, https://matplotlib.org/</dc:title>
     </cc:Agent>
    </dc:creator>
   </cc:Work>
  </rdf:RDF>
 </metadata>
 <defs>
  <style type="text/css">*{stroke-linejoin: round; stroke-linecap: butt}</style>
 </defs>
 <g id="figure_1">
  <g id="patch_1">
   <path d="M 0 360 
L 1494.81 360 
L 1494.81 0 
L 0 0 
z
" style="fill: #ffffff"/>
  </g>
  <g id="axes_1">
   <g id="patch_2">
    <path d="M 49.77 312.66 
L 299.722762 312.66 
L 299.722762 79.2 
L 49.77 79.2 
z
" style="fill: #eaeaf2"/>
   </g>
   <g id="matplotlib.axis_1">
    <g id="xtick_1">
     <g id="line2d_1">
      <path d="M 49.77 312.66 
L 49.77 79.2 
" clip-path="url(#p5cbbe21e89)" style="fill: none; stroke: #ffffff; stroke-linecap: round"/>
     </g>
     <g id="text_1">
      <!-- 0 -->
      <g style="fill: #262626" transform="translate(46.711484 330.033594) scale(0.11 -0.11)">
       <defs>
        <path id="ArialMT-30" d="M 266 2259 
Q 266 3072 433 3567 
Q 600 4063 929 4331 
Q 1259 4600 1759 4600 
Q 2128 4600 2406 4451 
Q 2684 4303 2865 4023 
Q 3047 3744 3150 3342 
Q 3253 2941 3253 2259 
Q 3253 1453 3087 958 
Q 2922 463 2592 192 
Q 2263 -78 1759 -78 
Q 1097 -78 719 397 
Q 266 969 266 2259 
z
M 844 2259 
Q 844 1131 1108 757 
Q 1372 384 1759 384 
Q 2147 384 2411 759 
Q 2675 1134 2675 2259 
Q 2675 3391 2411 3762 
Q 2147 4134 1753 4134 
Q 1366 4134 1134 3806 
Q 844 3388 844 2259 
z
" transform="scale(0.015625)"/>
       </defs>
       <use xlink:href="#ArialMT-30"/>
      </g>
     </g>
    </g>
    <g id="xtick_2">
     <g id="line2d_2">
      <path d="M 105.315058 312.66 
L 105.315058 79.2 
" clip-path="url(#p5cbbe21e89)" style="fill: none; stroke: #ffffff; stroke-linecap: round"/>
     </g>
     <g id="text_2">
      <!-- 20 -->
      <g style="fill: #262626" transform="translate(99.198027 330.033594) scale(0.11 -0.11)">
       <defs>
        <path id="ArialMT-32" d="M 3222 541 
L 3222 0 
L 194 0 
Q 188 203 259 391 
Q 375 700 629 1000 
Q 884 1300 1366 1694 
Q 2113 2306 2375 2664 
Q 2638 3022 2638 3341 
Q 2638 3675 2398 3904 
Q 2159 4134 1775 4134 
Q 1369 4134 1125 3890 
Q 881 3647 878 3216 
L 300 3275 
Q 359 3922 746 4261 
Q 1134 4600 1788 4600 
Q 2447 4600 2831 4234 
Q 3216 3869 3216 3328 
Q 3216 3053 3103 2787 
Q 2991 2522 2730 2228 
Q 2469 1934 1863 1422 
Q 1356 997 1212 845 
Q 1069 694 975 541 
L 3222 541 
z
" transform="scale(0.015625)"/>
       </defs>
       <use xlink:href="#ArialMT-32"/>
       <use xlink:href="#ArialMT-30" x="55.615234"/>
      </g>
     </g>
    </g>
    <g id="xtick_3">
     <g id="line2d_3">
      <path d="M 160.860116 312.66 
L 160.860116 79.2 
" clip-path="url(#p5cbbe21e89)" style="fill: none; stroke: #ffffff; stroke-linecap: round"/>
     </g>
     <g id="text_3">
      <!-- 40 -->
      <g style="fill: #262626" transform="translate(154.743085 330.033594) scale(0.11 -0.11)">
       <defs>
        <path id="ArialMT-34" d="M 2069 0 
L 2069 1097 
L 81 1097 
L 81 1613 
L 2172 4581 
L 2631 4581 
L 2631 1613 
L 3250 1613 
L 3250 1097 
L 2631 1097 
L 2631 0 
L 2069 0 
z
M 2069 1613 
L 2069 3678 
L 634 1613 
L 2069 1613 
z
" transform="scale(0.015625)"/>
       </defs>
       <use xlink:href="#ArialMT-34"/>
       <use xlink:href="#ArialMT-30" x="55.615234"/>
      </g>
     </g>
    </g>
    <g id="xtick_4">
     <g id="line2d_4">
      <path d="M 216.405175 312.66 
L 216.405175 79.2 
" clip-path="url(#p5cbbe21e89)" style="fill: none; stroke: #ffffff; stroke-linecap: round"/>
     </g>
     <g id="text_4">
      <!-- 60 -->
      <g style="fill: #262626" transform="translate(210.288143 330.033594) scale(0.11 -0.11)">
       <defs>
        <path id="ArialMT-36" d="M 3184 3459 
L 2625 3416 
Q 2550 3747 2413 3897 
Q 2184 4138 1850 4138 
Q 1581 4138 1378 3988 
Q 1113 3794 959 3422 
Q 806 3050 800 2363 
Q 1003 2672 1297 2822 
Q 1591 2972 1913 2972 
Q 2475 2972 2870 2558 
Q 3266 2144 3266 1488 
Q 3266 1056 3080 686 
Q 2894 316 2569 119 
Q 2244 -78 1831 -78 
Q 1128 -78 684 439 
Q 241 956 241 2144 
Q 241 3472 731 4075 
Q 1159 4600 1884 4600 
Q 2425 4600 2770 4297 
Q 3116 3994 3184 3459 
z
M 888 1484 
Q 888 1194 1011 928 
Q 1134 663 1356 523 
Q 1578 384 1822 384 
Q 2178 384 2434 671 
Q 2691 959 2691 1453 
Q 2691 1928 2437 2201 
Q 2184 2475 1800 2475 
Q 1419 2475 1153 2201 
Q 888 1928 888 1484 
z
" transform="scale(0.015625)"/>
       </defs>
       <use xlink:href="#ArialMT-36"/>
       <use xlink:href="#ArialMT-30" x="55.615234"/>
      </g>
     </g>
    </g>
    <g id="xtick_5">
     <g id="line2d_5">
      <path d="M 271.950233 312.66 
L 271.950233 79.2 
" clip-path="url(#p5cbbe21e89)" style="fill: none; stroke: #ffffff; stroke-linecap: round"/>
     </g>
     <g id="text_5">
      <!-- 80 -->
      <g style="fill: #262626" transform="translate(265.833201 330.033594) scale(0.11 -0.11)">
       <defs>
        <path id="ArialMT-38" d="M 1131 2484 
Q 781 2613 612 2850 
Q 444 3088 444 3419 
Q 444 3919 803 4259 
Q 1163 4600 1759 4600 
Q 2359 4600 2725 4251 
Q 3091 3903 3091 3403 
Q 3091 3084 2923 2848 
Q 2756 2613 2416 2484 
Q 2838 2347 3058 2040 
Q 3278 1734 3278 1309 
Q 3278 722 2862 322 
Q 2447 -78 1769 -78 
Q 1091 -78 675 323 
Q 259 725 259 1325 
Q 259 1772 486 2073 
Q 713 2375 1131 2484 
z
M 1019 3438 
Q 1019 3113 1228 2906 
Q 1438 2700 1772 2700 
Q 2097 2700 2305 2904 
Q 2513 3109 2513 3406 
Q 2513 3716 2298 3927 
Q 2084 4138 1766 4138 
Q 1444 4138 1231 3931 
Q 1019 3725 1019 3438 
z
M 838 1322 
Q 838 1081 952 856 
Q 1066 631 1291 507 
Q 1516 384 1775 384 
Q 2178 384 2440 643 
Q 2703 903 2703 1303 
Q 2703 1709 2433 1975 
Q 2163 2241 1756 2241 
Q 1359 2241 1098 1978 
Q 838 1716 838 1322 
z
" transform="scale(0.015625)"/>
       </defs>
       <use xlink:href="#ArialMT-38"/>
       <use xlink:href="#ArialMT-30" x="55.615234"/>
      </g>
     </g>
    </g>
    <g id="text_6">
     <!-- $\theta$° -->
     <g style="fill: #262626" transform="translate(168.626381 344.809219) scale(0.12 -0.12)">
      <defs>
       <path id="DejaVuSans-Oblique-3b8" d="M 2913 2219 
L 925 2219 
Q 791 1284 928 888 
Q 1100 400 1566 400 
Q 2034 400 2391 891 
Q 2703 1322 2913 2219 
z
M 3009 2750 
Q 3094 3638 2984 3950 
Q 2813 4444 2353 4444 
Q 1875 4444 1525 3956 
Q 1250 3563 1034 2750 
L 3009 2750 
z
M 2444 4913 
Q 3194 4913 3494 4250 
Q 3794 3591 3566 2422 
Q 3341 1256 2781 594 
Q 2225 -72 1475 -72 
Q 722 -72 425 594 
Q 128 1256 353 2422 
Q 581 3591 1134 4250 
Q 1691 4913 2444 4913 
z
" transform="scale(0.015625)"/>
       <path id="ArialMT-b0" d="M 400 3794 
Q 400 4153 654 4406 
Q 909 4659 1266 4659 
Q 1628 4659 1881 4406 
Q 2134 4153 2134 3794 
Q 2134 3434 1879 3179 
Q 1625 2925 1266 2925 
Q 909 2925 654 3178 
Q 400 3431 400 3794 
z
M 741 3794 
Q 741 3575 895 3420 
Q 1050 3266 1269 3266 
Q 1484 3266 1639 3420 
Q 1794 3575 1794 3794 
Q 1794 4013 1639 4167 
Q 1484 4322 1269 4322 
Q 1050 4322 895 4167 
Q 741 4013 741 3794 
z
" transform="scale(0.015625)"/>
      </defs>
      <use xlink:href="#DejaVuSans-Oblique-3b8" transform="translate(0 0.234375)"/>
      <use xlink:href="#ArialMT-b0" transform="translate(61.181641 0.234375)"/>
     </g>
    </g>
   </g>
   <g id="matplotlib.axis_2">
    <g id="ytick_1">
     <g id="line2d_6">
      <path d="M 49.77 312.66 
L 299.722762 312.66 
" clip-path="url(#p5cbbe21e89)" style="fill: none; stroke: #ffffff; stroke-linecap: round"/>
     </g>
     <g id="text_7">
      <!-- −6 -->
      <g style="fill: #262626" transform="translate(27.728281 316.596797) scale(0.11 -0.11)">
       <defs>
        <path id="ArialMT-2212" d="M 3381 1997 
L 356 1997 
L 356 2522 
L 3381 2522 
L 3381 1997 
z
" transform="scale(0.015625)"/>
       </defs>
       <use xlink:href="#ArialMT-2212"/>
       <use xlink:href="#ArialMT-36" x="58.398438"/>
      </g>
     </g>
    </g>
    <g id="ytick_2">
     <g id="line2d_7">
      <path d="M 49.77 293.205 
L 299.722762 293.205 
" clip-path="url(#p5cbbe21e89)" style="fill: none; stroke: #ffffff; stroke-linecap: round"/>
     </g>
     <g id="text_8">
      <!-- −5 -->
      <g style="fill: #262626" transform="translate(27.728281 297.141797) scale(0.11 -0.11)">
       <defs>
        <path id="ArialMT-35" d="M 266 1200 
L 856 1250 
Q 922 819 1161 601 
Q 1400 384 1738 384 
Q 2144 384 2425 690 
Q 2706 997 2706 1503 
Q 2706 1984 2436 2262 
Q 2166 2541 1728 2541 
Q 1456 2541 1237 2417 
Q 1019 2294 894 2097 
L 366 2166 
L 809 4519 
L 3088 4519 
L 3088 3981 
L 1259 3981 
L 1013 2750 
Q 1425 3038 1878 3038 
Q 2478 3038 2890 2622 
Q 3303 2206 3303 1553 
Q 3303 931 2941 478 
Q 2500 -78 1738 -78 
Q 1113 -78 717 272 
Q 322 622 266 1200 
z
" transform="scale(0.015625)"/>
       </defs>
       <use xlink:href="#ArialMT-2212"/>
       <use xlink:href="#ArialMT-35" x="58.398438"/>
      </g>
     </g>
    </g>
    <g id="ytick_3">
     <g id="line2d_8">
      <path d="M 49.77 273.75 
L 299.722762 273.75 
" clip-path="url(#p5cbbe21e89)" style="fill: none; stroke: #ffffff; stroke-linecap: round"/>
     </g>
     <g id="text_9">
      <!-- −4 -->
      <g style="fill: #262626" transform="translate(27.728281 277.686797) scale(0.11 -0.11)">
       <use xlink:href="#ArialMT-2212"/>
       <use xlink:href="#ArialMT-34" x="58.398438"/>
      </g>
     </g>
    </g>
    <g id="ytick_4">
     <g id="line2d_9">
      <path d="M 49.77 254.295 
L 299.722762 254.295 
" clip-path="url(#p5cbbe21e89)" style="fill: none; stroke: #ffffff; stroke-linecap: round"/>
     </g>
     <g id="text_10">
      <!-- −3 -->
      <g style="fill: #262626" transform="translate(27.728281 258.231797) scale(0.11 -0.11)">
       <defs>
        <path id="ArialMT-33" d="M 269 1209 
L 831 1284 
Q 928 806 1161 595 
Q 1394 384 1728 384 
Q 2125 384 2398 659 
Q 2672 934 2672 1341 
Q 2672 1728 2419 1979 
Q 2166 2231 1775 2231 
Q 1616 2231 1378 2169 
L 1441 2663 
Q 1497 2656 1531 2656 
Q 1891 2656 2178 2843 
Q 2466 3031 2466 3422 
Q 2466 3731 2256 3934 
Q 2047 4138 1716 4138 
Q 1388 4138 1169 3931 
Q 950 3725 888 3313 
L 325 3413 
Q 428 3978 793 4289 
Q 1159 4600 1703 4600 
Q 2078 4600 2393 4439 
Q 2709 4278 2876 4000 
Q 3044 3722 3044 3409 
Q 3044 3113 2884 2869 
Q 2725 2625 2413 2481 
Q 2819 2388 3044 2092 
Q 3269 1797 3269 1353 
Q 3269 753 2831 336 
Q 2394 -81 1725 -81 
Q 1122 -81 723 278 
Q 325 638 269 1209 
z
" transform="scale(0.015625)"/>
       </defs>
       <use xlink:href="#ArialMT-2212"/>
       <use xlink:href="#ArialMT-33" x="58.398438"/>
      </g>
     </g>
    </g>
    <g id="ytick_5">
     <g id="line2d_10">
      <path d="M 49.77 234.84 
L 299.722762 234.84 
" clip-path="url(#p5cbbe21e89)" style="fill: none; stroke: #ffffff; stroke-linecap: round"/>
     </g>
     <g id="text_11">
      <!-- −2 -->
      <g style="fill: #262626" transform="translate(27.728281 238.776797) scale(0.11 -0.11)">
       <use xlink:href="#ArialMT-2212"/>
       <use xlink:href="#ArialMT-32" x="58.398438"/>
      </g>
     </g>
    </g>
    <g id="ytick_6">
     <g id="line2d_11">
      <path d="M 49.77 215.385 
L 299.722762 215.385 
" clip-path="url(#p5cbbe21e89)" style="fill: none; stroke: #ffffff; stroke-linecap: round"/>
     </g>
     <g id="text_12">
      <!-- −1 -->
      <g style="fill: #262626" transform="translate(27.728281 219.321797) scale(0.11 -0.11)">
       <defs>
        <path id="ArialMT-31" d="M 2384 0 
L 1822 0 
L 1822 3584 
Q 1619 3391 1289 3197 
Q 959 3003 697 2906 
L 697 3450 
Q 1169 3672 1522 3987 
Q 1875 4303 2022 4600 
L 2384 4600 
L 2384 0 
z
" transform="scale(0.015625)"/>
       </defs>
       <use xlink:href="#ArialMT-2212"/>
       <use xlink:href="#ArialMT-31" x="58.398438"/>
      </g>
     </g>
    </g>
    <g id="ytick_7">
     <g id="line2d_12">
      <path d="M 49.77 195.93 
L 299.722762 195.93 
" clip-path="url(#p5cbbe21e89)" style="fill: none; stroke: #ffffff; stroke-linecap: round"/>
     </g>
     <g id="text_13">
      <!-- 0 -->
      <g style="fill: #262626" transform="translate(34.152969 199.866797) scale(0.11 -0.11)">
       <use xlink:href="#ArialMT-30"/>
      </g>
     </g>
    </g>
    <g id="ytick_8">
     <g id="line2d_13">
      <path d="M 49.77 176.475 
L 299.722762 176.475 
" clip-path="url(#p5cbbe21e89)" style="fill: none; stroke: #ffffff; stroke-linecap: round"/>
     </g>
     <g id="text_14">
      <!-- 1 -->
      <g style="fill: #262626" transform="translate(34.152969 180.411797) scale(0.11 -0.11)">
       <use xlink:href="#ArialMT-31"/>
      </g>
     </g>
    </g>
    <g id="ytick_9">
     <g id="line2d_14">
      <path d="M 49.77 157.02 
L 299.722762 157.02 
" clip-path="url(#p5cbbe21e89)" style="fill: none; stroke: #ffffff; stroke-linecap: round"/>
     </g>
     <g id="text_15">
      <!-- 2 -->
      <g style="fill: #262626" transform="translate(34.152969 160.956797) scale(0.11 -0.11)">
       <use xlink:href="#ArialMT-32"/>
      </g>
     </g>
    </g>
    <g id="ytick_10">
     <g id="line2d_15">
      <path d="M 49.77 137.565 
L 299.722762 137.565 
" clip-path="url(#p5cbbe21e89)" style="fill: none; stroke: #ffffff; stroke-linecap: round"/>
     </g>
     <g id="text_16">
      <!-- 3 -->
      <g style="fill: #262626" transform="translate(34.152969 141.501797) scale(0.11 -0.11)">
       <use xlink:href="#ArialMT-33"/>
      </g>
     </g>
    </g>
    <g id="ytick_11">
     <g id="line2d_16">
      <path d="M 49.77 118.11 
L 299.722762 118.11 
" clip-path="url(#p5cbbe21e89)" style="fill: none; stroke: #ffffff; stroke-linecap: round"/>
     </g>
     <g id="text_17">
      <!-- 4 -->
      <g style="fill: #262626" transform="translate(34.152969 122.046797) scale(0.11 -0.11)">
       <use xlink:href="#ArialMT-34"/>
      </g>
     </g>
    </g>
    <g id="ytick_12">
     <g id="line2d_17">
      <path d="M 49.77 98.655 
L 299.722762 98.655 
" clip-path="url(#p5cbbe21e89)" style="fill: none; stroke: #ffffff; stroke-linecap: round"/>
     </g>
     <g id="text_18">
      <!-- 5 -->
      <g style="fill: #262626" transform="translate(34.152969 102.591797) scale(0.11 -0.11)">
       <use xlink:href="#ArialMT-35"/>
      </g>
     </g>
    </g>
    <g id="ytick_13">
     <g id="line2d_18">
      <path d="M 49.77 79.2 
L 299.722762 79.2 
" clip-path="url(#p5cbbe21e89)" style="fill: none; stroke: #ffffff; stroke-linecap: round"/>
     </g>
     <g id="text_19">
      <!-- 6 -->
      <g style="fill: #262626" transform="translate(34.152969 83.136797) scale(0.11 -0.11)">
       <use xlink:href="#ArialMT-36"/>
      </g>
     </g>
    </g>
    <g id="text_20">
     <!-- dB(err) -->
     <g style="fill: #262626" transform="translate(21.202656 214.596563) rotate(-90) scale(0.12 -0.12)">
      <defs>
       <path id="ArialMT-64" d="M 2575 0 
L 2575 419 
Q 2259 -75 1647 -75 
Q 1250 -75 917 144 
Q 584 363 401 755 
Q 219 1147 219 1656 
Q 219 2153 384 2558 
Q 550 2963 881 3178 
Q 1213 3394 1622 3394 
Q 1922 3394 2156 3267 
Q 2391 3141 2538 2938 
L 2538 4581 
L 3097 4581 
L 3097 0 
L 2575 0 
z
M 797 1656 
Q 797 1019 1065 703 
Q 1334 388 1700 388 
Q 2069 388 2326 689 
Q 2584 991 2584 1609 
Q 2584 2291 2321 2609 
Q 2059 2928 1675 2928 
Q 1300 2928 1048 2622 
Q 797 2316 797 1656 
z
" transform="scale(0.015625)"/>
       <path id="ArialMT-42" d="M 469 0 
L 469 4581 
L 2188 4581 
Q 2713 4581 3030 4442 
Q 3347 4303 3526 4014 
Q 3706 3725 3706 3409 
Q 3706 3116 3547 2856 
Q 3388 2597 3066 2438 
Q 3481 2316 3704 2022 
Q 3928 1728 3928 1328 
Q 3928 1006 3792 729 
Q 3656 453 3456 303 
Q 3256 153 2954 76 
Q 2653 0 2216 0 
L 469 0 
z
M 1075 2656 
L 2066 2656 
Q 2469 2656 2644 2709 
Q 2875 2778 2992 2937 
Q 3109 3097 3109 3338 
Q 3109 3566 3000 3739 
Q 2891 3913 2687 3977 
Q 2484 4041 1991 4041 
L 1075 4041 
L 1075 2656 
z
M 1075 541 
L 2216 541 
Q 2509 541 2628 563 
Q 2838 600 2978 687 
Q 3119 775 3209 942 
Q 3300 1109 3300 1328 
Q 3300 1584 3169 1773 
Q 3038 1963 2805 2039 
Q 2572 2116 2134 2116 
L 1075 2116 
L 1075 541 
z
" transform="scale(0.015625)"/>
       <path id="ArialMT-28" d="M 1497 -1347 
Q 1031 -759 709 28 
Q 388 816 388 1659 
Q 388 2403 628 3084 
Q 909 3875 1497 4659 
L 1900 4659 
Q 1522 4009 1400 3731 
Q 1209 3300 1100 2831 
Q 966 2247 966 1656 
Q 966 153 1900 -1347 
L 1497 -1347 
z
" transform="scale(0.015625)"/>
       <path id="ArialMT-65" d="M 2694 1069 
L 3275 997 
Q 3138 488 2766 206 
Q 2394 -75 1816 -75 
Q 1088 -75 661 373 
Q 234 822 234 1631 
Q 234 2469 665 2931 
Q 1097 3394 1784 3394 
Q 2450 3394 2872 2941 
Q 3294 2488 3294 1666 
Q 3294 1616 3291 1516 
L 816 1516 
Q 847 969 1125 678 
Q 1403 388 1819 388 
Q 2128 388 2347 550 
Q 2566 713 2694 1069 
z
M 847 1978 
L 2700 1978 
Q 2663 2397 2488 2606 
Q 2219 2931 1791 2931 
Q 1403 2931 1139 2672 
Q 875 2413 847 1978 
z
" transform="scale(0.015625)"/>
       <path id="ArialMT-72" d="M 416 0 
L 416 3319 
L 922 3319 
L 922 2816 
Q 1116 3169 1280 3281 
Q 1444 3394 1641 3394 
Q 1925 3394 2219 3213 
L 2025 2691 
Q 1819 2813 1613 2813 
Q 1428 2813 1281 2702 
Q 1134 2591 1072 2394 
Q 978 2094 978 1738 
L 978 0 
L 416 0 
z
" transform="scale(0.015625)"/>
       <path id="ArialMT-29" d="M 791 -1347 
L 388 -1347 
Q 1322 153 1322 1656 
Q 1322 2244 1188 2822 
Q 1081 3291 891 3722 
Q 769 4003 388 4659 
L 791 4659 
Q 1378 3875 1659 3084 
Q 1900 2403 1900 1659 
Q 1900 816 1576 28 
Q 1253 -759 791 -1347 
z
" transform="scale(0.015625)"/>
      </defs>
      <use xlink:href="#ArialMT-64"/>
      <use xlink:href="#ArialMT-42" x="55.615234"/>
      <use xlink:href="#ArialMT-28" x="122.314453"/>
      <use xlink:href="#ArialMT-65" x="155.615234"/>
      <use xlink:href="#ArialMT-72" x="211.230469"/>
      <use xlink:href="#ArialMT-72" x="244.53125"/>
      <use xlink:href="#ArialMT-29" x="277.832031"/>
     </g>
    </g>
   </g>
   <g id="PolyCollection_1"/>
   <g id="PolyCollection_2"/>
   <g id="line2d_19">
    <path d="M 49.77 285.916058 
L 52.547253 285.923839 
L 55.324506 285.947175 
L 58.101759 285.986045 
L 60.879012 286.040412 
L 63.656265 286.110226 
L 66.433517 286.195421 
L 69.21077 286.295919 
L 71.988023 286.411624 
L 74.765276 286.542428 
L 77.542529 286.688207 
L 80.319782 286.848823 
L 83.097035 287.024121 
L 85.874288 287.213933 
L 88.651541 287.418076 
L 91.428794 287.63635 
L 94.206047 287.868542 
L 96.983299 288.114421 
L 99.760552 288.373743 
L 102.537805 288.646247 
L 105.315058 288.931658 
L 108.092311 289.229684 
L 110.869564 289.540018 
L 113.646817 289.862338 
L 116.42407 290.196307 
L 119.201323 290.541572 
L 121.978576 290.897765 
L 124.755829 291.264502 
L 127.533081 291.641387 
L 130.310334 292.028006 
L 133.087587 292.423934 
L 135.86484 292.828729 
L 138.642093 293.241937 
L 141.419346 293.663091 
L 144.196599 294.09171 
L 146.973852 294.527301 
L 149.751105 294.969358 
L 152.528358 295.417367 
L 155.305611 295.870799 
L 158.082863 296.329116 
L 160.860116 296.791773 
L 163.637369 297.258211 
L 166.414622 297.727869 
L 169.191875 298.200172 
L 171.969128 298.674544 
L 174.746381 299.150398 
L 177.523634 299.627147 
L 180.300887 300.104194 
L 183.07814 300.580944 
L 185.855393 301.056796 
L 188.632645 301.531148 
L 191.409898 302.003398 
L 194.187151 302.472944 
L 196.964404 302.939184 
L 199.741657 303.401519 
L 202.51891 303.859353 
L 205.296163 304.312093 
L 208.073416 304.759151 
L 210.850669 305.199946 
L 213.627922 305.633901 
L 216.405175 306.060449 
L 219.182427 306.47903 
L 221.95968 306.889094 
L 224.736933 307.2901 
L 227.514186 307.681519 
L 230.291439 308.062833 
L 233.068692 308.433537 
L 235.845945 308.79314 
L 238.623198 309.141164 
L 241.400451 309.477147 
L 244.177704 309.80064 
L 246.954957 310.111213 
L 249.732209 310.408451 
L 252.509462 310.691958 
L 255.286715 310.961356 
L 258.063968 311.216284 
L 260.841221 311.4564 
L 263.618474 311.681385 
L 266.395727 311.890936 
L 269.17298 312.084774 
L 271.950233 312.262637 
L 274.727486 312.424289 
L 277.504739 312.569513 
L 280.281991 312.698112 
L 283.059244 312.809917 
L 285.836497 312.904775 
L 288.61375 312.982561 
L 291.391003 313.043169 
L 294.168256 313.086519 
L 296.945509 313.112553 
L 299.722762 313.121234 
" clip-path="url(#p5cbbe21e89)" style="fill: none; stroke: #4c72b0; stroke-width: 0.7; stroke-linecap: round"/>
   </g>
   <g id="line2d_20">
    <path d="M 49.77 285.916058 
L 52.547253 285.923839 
L 55.324506 285.947175 
L 58.101759 285.986045 
L 60.879012 286.040412 
L 63.656265 286.110226 
L 66.433517 286.195421 
L 69.21077 286.295919 
L 71.988023 286.411624 
L 74.765276 286.542428 
L 77.542529 286.688207 
L 80.319782 286.848823 
L 83.097035 287.024121 
L 85.874288 287.213933 
L 88.651541 287.418076 
L 91.428794 287.63635 
L 94.206047 287.868542 
L 96.983299 288.114421 
L 99.760552 288.373743 
L 102.537805 288.646247 
L 105.315058 288.931658 
L 108.092311 289.229684 
L 110.869564 289.540018 
L 113.646817 289.862338 
L 116.42407 290.196307 
L 119.201323 290.541572 
L 121.978576 290.897765 
L 124.755829 291.264502 
L 127.533081 291.641387 
L 130.310334 292.028006 
L 133.087587 292.423934 
L 135.86484 292.828729 
L 138.642093 293.241937 
L 141.419346 293.663091 
L 144.196599 294.09171 
L 146.973852 294.527301 
L 149.751105 294.969358 
L 152.528358 295.417367 
L 155.305611 295.870799 
L 158.082863 296.329116 
L 160.860116 296.791773 
L 163.637369 297.258211 
L 166.414622 297.727869 
L 169.191875 298.200172 
L 171.969128 298.674544 
L 174.746381 299.150398 
L 177.523634 299.627147 
L 180.300887 300.104194 
L 183.07814 300.580944 
L 185.855393 301.056796 
L 188.632645 301.531148 
L 191.409898 302.003398 
L 194.187151 302.472944 
L 196.964404 302.939184 
L 199.741657 303.401519 
L 202.51891 303.859353 
L 205.296163 304.312093 
L 208.073416 304.759151 
L 210.850669 305.199946 
L 213.627922 305.633901 
L 216.405175 306.060449 
L 219.182427 306.47903 
L 221.95968 306.889094 
L 224.736933 307.2901 
L 227.514186 307.681519 
L 230.291439 308.062833 
L 233.068692 308.433537 
L 235.845945 308.79314 
L 238.623198 309.141164 
L 241.400451 309.477147 
L 244.177704 309.80064 
L 246.954957 310.111213 
L 249.732209 310.408451 
L 252.509462 310.691958 
L 255.286715 310.961356 
L 258.063968 311.216284 
L 260.841221 311.4564 
L 263.618474 311.681385 
L 266.395727 311.890936 
L 269.17298 312.084774 
L 271.950233 312.262637 
L 274.727486 312.424289 
L 277.504739 312.569513 
L 280.281991 312.698112 
L 283.059244 312.809917 
L 285.836497 312.904775 
L 288.61375 312.982561 
L 291.391003 313.043169 
L 294.168256 313.086519 
L 296.945509 313.112553 
L 299.722762 313.121234 
" clip-path="url(#p5cbbe21e89)" style="fill: none; stroke: #dd8452; stroke-width: 0.7; stroke-linecap: round"/>
   </g>
   <g id="line2d_21"/>
   <g id="line2d_22"/>
   <g id="line2d_23">
    <path d="M 49.77 195.93 
L 299.722762 195.93 
" clip-path="url(#p5cbbe21e89)" style="fill: none; stroke-dasharray: 5.55,2.4; stroke-dashoffset: 0; stroke: #ff0000; stroke-width: 1.5"/>
   </g>
   <g id="patch_3">
    <path d="M 49.77 312.66 
L 49.77 79.2 
" style="fill: none; stroke: #ffffff; stroke-width: 1.25; stroke-linejoin: miter; stroke-linecap: square"/>
   </g>
   <g id="patch_4">
    <path d="M 49.77 312.66 
L 299.722762 312.66 
" style="fill: none; stroke: #ffffff; stroke-width: 1.25; stroke-linejoin: miter; stroke-linecap: square"/>
   </g>
   <g id="text_21">
    <!-- fMHz = 30 -->
    <g style="fill: #262626" transform="translate(147.237318 73.2) scale(0.12 -0.12)">
     <defs>
      <path id="ArialMT-66" d="M 556 0 
L 556 2881 
L 59 2881 
L 59 3319 
L 556 3319 
L 556 3672 
Q 556 4006 616 4169 
Q 697 4388 901 4523 
Q 1106 4659 1475 4659 
Q 1713 4659 2000 4603 
L 1916 4113 
Q 1741 4144 1584 4144 
Q 1328 4144 1222 4034 
Q 1116 3925 1116 3625 
L 1116 3319 
L 1763 3319 
L 1763 2881 
L 1116 2881 
L 1116 0 
L 556 0 
z
" transform="scale(0.015625)"/>
      <path id="ArialMT-4d" d="M 475 0 
L 475 4581 
L 1388 4581 
L 2472 1338 
Q 2622 884 2691 659 
Q 2769 909 2934 1394 
L 4031 4581 
L 4847 4581 
L 4847 0 
L 4263 0 
L 4263 3834 
L 2931 0 
L 2384 0 
L 1059 3900 
L 1059 0 
L 475 0 
z
" transform="scale(0.015625)"/>
      <path id="ArialMT-48" d="M 513 0 
L 513 4581 
L 1119 4581 
L 1119 2700 
L 3500 2700 
L 3500 4581 
L 4106 4581 
L 4106 0 
L 3500 0 
L 3500 2159 
L 1119 2159 
L 1119 0 
L 513 0 
z
" transform="scale(0.015625)"/>
      <path id="ArialMT-7a" d="M 125 0 
L 125 456 
L 2238 2881 
Q 1878 2863 1603 2863 
L 250 2863 
L 250 3319 
L 2963 3319 
L 2963 2947 
L 1166 841 
L 819 456 
Q 1197 484 1528 484 
L 3063 484 
L 3063 0 
L 125 0 
z
" transform="scale(0.015625)"/>
      <path id="ArialMT-20" transform="scale(0.015625)"/>
      <path id="ArialMT-3d" d="M 3381 2694 
L 356 2694 
L 356 3219 
L 3381 3219 
L 3381 2694 
z
M 3381 1303 
L 356 1303 
L 356 1828 
L 3381 1828 
L 3381 1303 
z
" transform="scale(0.015625)"/>
     </defs>
     <use xlink:href="#ArialMT-66"/>
     <use xlink:href="#ArialMT-4d" x="27.783203"/>
     <use xlink:href="#ArialMT-48" x="111.083984"/>
     <use xlink:href="#ArialMT-7a" x="183.300781"/>
     <use xlink:href="#ArialMT-20" x="233.300781"/>
     <use xlink:href="#ArialMT-3d" x="261.083984"/>
     <use xlink:href="#ArialMT-20" x="319.482422"/>
     <use xlink:href="#ArialMT-33" x="347.265625"/>
     <use xlink:href="#ArialMT-30" x="402.880859"/>
    </g>
   </g>
  </g>
  <g id="axes_2">
   <g id="patch_5">
    <path d="M 312.682762 312.66 
L 562.635524 312.66 
L 562.635524 79.2 
L 312.682762 79.2 
z
" style="fill: #eaeaf2"/>
   </g>
   <g id="matplotlib.axis_3">
    <g id="xtick_6">
     <g id="line2d_24">
      <path d="M 312.682762 312.66 
L 312.682762 79.2 
" clip-path="url(#pbed5435463)" style="fill: none; stroke: #ffffff; stroke-linecap: round"/>
     </g>
     <g id="text_22">
      <!-- 0 -->
      <g style="fill: #262626" transform="translate(309.624246 330.033594) scale(0.11 -0.11)">
       <use xlink:href="#ArialMT-30"/>
      </g>
     </g>
    </g>
    <g id="xtick_7">
     <g id="line2d_25">
      <path d="M 368.22782 312.66 
L 368.22782 79.2 
" clip-path="url(#pbed5435463)" style="fill: none; stroke: #ffffff; stroke-linecap: round"/>
     </g>
     <g id="text_23">
      <!-- 20 -->
      <g style="fill: #262626" transform="translate(362.110789 330.033594) scale(0.11 -0.11)">
       <use xlink:href="#ArialMT-32"/>
       <use xlink:href="#ArialMT-30" x="55.615234"/>
      </g>
     </g>
    </g>
    <g id="xtick_8">
     <g id="line2d_26">
      <path d="M 423.772878 312.66 
L 423.772878 79.2 
" clip-path="url(#pbed5435463)" style="fill: none; stroke: #ffffff; stroke-linecap: round"/>
     </g>
     <g id="text_24">
      <!-- 40 -->
      <g style="fill: #262626" transform="translate(417.655847 330.033594) scale(0.11 -0.11)">
       <use xlink:href="#ArialMT-34"/>
       <use xlink:href="#ArialMT-30" x="55.615234"/>
      </g>
     </g>
    </g>
    <g id="xtick_9">
     <g id="line2d_27">
      <path d="M 479.317936 312.66 
L 479.317936 79.2 
" clip-path="url(#pbed5435463)" style="fill: none; stroke: #ffffff; stroke-linecap: round"/>
     </g>
     <g id="text_25">
      <!-- 60 -->
      <g style="fill: #262626" transform="translate(473.200905 330.033594) scale(0.11 -0.11)">
       <use xlink:href="#ArialMT-36"/>
       <use xlink:href="#ArialMT-30" x="55.615234"/>
      </g>
     </g>
    </g>
    <g id="xtick_10">
     <g id="line2d_28">
      <path d="M 534.862995 312.66 
L 534.862995 79.2 
" clip-path="url(#pbed5435463)" style="fill: none; stroke: #ffffff; stroke-linecap: round"/>
     </g>
     <g id="text_26">
      <!-- 80 -->
      <g style="fill: #262626" transform="translate(528.745963 330.033594) scale(0.11 -0.11)">
       <use xlink:href="#ArialMT-38"/>
       <use xlink:href="#ArialMT-30" x="55.615234"/>
      </g>
     </g>
    </g>
    <g id="text_27">
     <!-- $\theta$° -->
     <g style="fill: #262626" transform="translate(431.539143 344.809219) scale(0.12 -0.12)">
      <use xlink:href="#DejaVuSans-Oblique-3b8" transform="translate(0 0.234375)"/>
      <use xlink:href="#ArialMT-b0" transform="translate(61.181641 0.234375)"/>
     </g>
    </g>
   </g>
   <g id="matplotlib.axis_4">
    <g id="ytick_14">
     <g id="line2d_29">
      <path d="M 312.682762 312.66 
L 562.635524 312.66 
" clip-path="url(#pbed5435463)" style="fill: none; stroke: #ffffff; stroke-linecap: round"/>
     </g>
    </g>
    <g id="ytick_15">
     <g id="line2d_30">
      <path d="M 312.682762 293.205 
L 562.635524 293.205 
" clip-path="url(#pbed5435463)" style="fill: none; stroke: #ffffff; stroke-linecap: round"/>
     </g>
    </g>
    <g id="ytick_16">
     <g id="line2d_31">
      <path d="M 312.682762 273.75 
L 562.635524 273.75 
" clip-path="url(#pbed5435463)" style="fill: none; stroke: #ffffff; stroke-linecap: round"/>
     </g>
    </g>
    <g id="ytick_17">
     <g id="line2d_32">
      <path d="M 312.682762 254.295 
L 562.635524 254.295 
" clip-path="url(#pbed5435463)" style="fill: none; stroke: #ffffff; stroke-linecap: round"/>
     </g>
    </g>
    <g id="ytick_18">
     <g id="line2d_33">
      <path d="M 312.682762 234.84 
L 562.635524 234.84 
" clip-path="url(#pbed5435463)" style="fill: none; stroke: #ffffff; stroke-linecap: round"/>
     </g>
    </g>
    <g id="ytick_19">
     <g id="line2d_34">
      <path d="M 312.682762 215.385 
L 562.635524 215.385 
" clip-path="url(#pbed5435463)" style="fill: none; stroke: #ffffff; stroke-linecap: round"/>
     </g>
    </g>
    <g id="ytick_20">
     <g id="line2d_35">
      <path d="M 312.682762 195.93 
L 562.635524 195.93 
" clip-path="url(#pbed5435463)" style="fill: none; stroke: #ffffff; stroke-linecap: round"/>
     </g>
    </g>
    <g id="ytick_21">
     <g id="line2d_36">
      <path d="M 312.682762 176.475 
L 562.635524 176.475 
" clip-path="url(#pbed5435463)" style="fill: none; stroke: #ffffff; stroke-linecap: round"/>
     </g>
    </g>
    <g id="ytick_22">
     <g id="line2d_37">
      <path d="M 312.682762 157.02 
L 562.635524 157.02 
" clip-path="url(#pbed5435463)" style="fill: none; stroke: #ffffff; stroke-linecap: round"/>
     </g>
    </g>
    <g id="ytick_23">
     <g id="line2d_38">
      <path d="M 312.682762 137.565 
L 562.635524 137.565 
" clip-path="url(#pbed5435463)" style="fill: none; stroke: #ffffff; stroke-linecap: round"/>
     </g>
    </g>
    <g id="ytick_24">
     <g id="line2d_39">
      <path d="M 312.682762 118.11 
L 562.635524 118.11 
" clip-path="url(#pbed5435463)" style="fill: none; stroke: #ffffff; stroke-linecap: round"/>
     </g>
    </g>
    <g id="ytick_25">
     <g id="line2d_40">
      <path d="M 312.682762 98.655 
L 562.635524 98.655 
" clip-path="url(#pbed5435463)" style="fill: none; stroke: #ffffff; stroke-linecap: round"/>
     </g>
    </g>
    <g id="ytick_26">
     <g id="line2d_41">
      <path d="M 312.682762 79.2 
L 562.635524 79.2 
" clip-path="url(#pbed5435463)" style="fill: none; stroke: #ffffff; stroke-linecap: round"/>
     </g>
    </g>
   </g>
   <g id="PolyCollection_3"/>
   <g id="PolyCollection_4"/>
   <g id="line2d_42">
    <path d="M 312.682762 259.580882 
L 315.460015 259.570566 
L 318.237268 259.539564 
L 321.014521 259.487716 
L 323.791773 259.414755 
L 326.569026 259.320309 
L 329.346279 259.203906 
L 332.123532 259.064974 
L 334.900785 258.902849 
L 337.678038 258.716776 
L 340.455291 258.50592 
L 343.232544 258.26937 
L 346.009797 258.006148 
L 348.78705 257.715222 
L 351.564303 257.395514 
L 354.341555 257.045918 
L 357.118808 256.665312 
L 359.896061 256.252577 
L 362.673314 255.806618 
L 365.450567 255.326388 
L 368.22782 254.810912 
L 371.005073 254.654617 
L 373.782326 255.065843 
L 376.559579 255.468773 
L 379.336832 255.859309 
L 382.114085 256.2332 
L 384.891337 256.586071 
L 387.66859 256.913454 
L 390.445843 257.210841 
L 393.223096 257.47372 
L 396.000349 257.697637 
L 398.777602 257.878252 
L 401.554855 258.01141 
L 404.332108 258.093213 
L 407.109361 258.120107 
L 409.886614 258.088968 
L 412.663867 257.997206 
L 415.441119 257.842871 
L 418.218372 257.624773 
L 420.995625 257.342611 
L 423.772878 256.997104 
L 426.550131 256.590144 
L 429.327384 256.124936 
L 432.104637 255.606163 
L 434.88189 255.040131 
L 437.659143 254.434923 
L 440.436396 253.800525 
L 443.213649 253.148943 
L 445.990901 252.494269 
L 448.768154 251.852706 
L 451.545407 251.242516 
L 454.32266 250.683893 
L 457.099913 250.198717 
L 459.877166 249.810202 
L 462.654419 249.542401 
L 465.431672 249.419589 
L 468.208925 249.465515 
L 470.986178 249.702559 
L 473.763431 250.150828 
L 476.540683 250.827239 
L 479.317936 251.744664 
L 482.095189 252.911195 
L 484.872442 254.367416 
L 487.649695 257.196489 
L 490.426948 260.122006 
L 493.204201 263.121309 
L 495.981454 266.171774 
L 498.758707 269.251179 
L 501.53596 272.338001 
L 504.313213 275.411654 
L 507.090465 278.452658 
L 509.867718 281.442764 
L 512.644971 284.365016 
L 515.422224 287.203782 
L 518.199477 289.944753 
L 520.97673 292.574911 
L 523.753983 295.08248 
L 526.531236 297.45687 
L 529.308489 299.688608 
L 532.085742 301.769265 
L 534.862995 303.691385 
L 537.640247 305.448416 
L 540.4175 307.034638 
L 543.194753 308.44511 
L 545.972006 309.675602 
L 548.749259 310.722554 
L 551.526512 311.583027 
L 554.303765 312.254667 
L 557.081018 312.735674 
L 559.858271 313.024782 
L 562.635524 313.121234 
" clip-path="url(#pbed5435463)" style="fill: none; stroke: #4c72b0; stroke-width: 0.7; stroke-linecap: round"/>
   </g>
   <g id="line2d_43">
    <path d="M 312.682762 259.580882 
L 315.460015 259.570566 
L 318.237268 259.539564 
L 321.014521 259.487716 
L 323.791773 259.414755 
L 326.569026 259.320309 
L 329.346279 259.203906 
L 332.123532 259.064974 
L 334.900785 258.902849 
L 337.678038 258.716776 
L 340.455291 258.50592 
L 343.232544 258.26937 
L 346.009797 258.006148 
L 348.78705 257.715222 
L 351.564303 257.395514 
L 354.341555 257.045918 
L 357.118808 256.665312 
L 359.896061 256.252577 
L 362.673314 255.806618 
L 365.450567 255.326388 
L 368.22782 254.810912 
L 371.005073 254.654617 
L 373.782326 255.065843 
L 376.559579 255.468773 
L 379.336832 255.859309 
L 382.114085 256.2332 
L 384.891337 256.586071 
L 387.66859 256.913454 
L 390.445843 257.210841 
L 393.223096 257.47372 
L 396.000349 257.697637 
L 398.777602 257.878252 
L 401.554855 258.01141 
L 404.332108 258.093213 
L 407.109361 258.120107 
L 409.886614 258.088968 
L 412.663867 257.997206 
L 415.441119 257.842871 
L 418.218372 257.624773 
L 420.995625 257.342611 
L 423.772878 256.997104 
L 426.550131 256.590144 
L 429.327384 256.124936 
L 432.104637 255.606163 
L 434.88189 255.040131 
L 437.659143 254.434923 
L 440.436396 253.800525 
L 443.213649 253.148943 
L 445.990901 252.494269 
L 448.768154 251.852706 
L 451.545407 251.242516 
L 454.32266 250.683893 
L 457.099913 250.198717 
L 459.877166 249.810202 
L 462.654419 249.542401 
L 465.431672 249.419589 
L 468.208925 249.465515 
L 470.986178 249.702559 
L 473.763431 250.150828 
L 476.540683 250.827239 
L 479.317936 251.744664 
L 482.095189 252.911195 
L 484.872442 254.367416 
L 487.649695 257.196489 
L 490.426948 260.122006 
L 493.204201 263.121309 
L 495.981454 266.171774 
L 498.758707 269.251179 
L 501.53596 272.338001 
L 504.313213 275.411654 
L 507.090465 278.452658 
L 509.867718 281.442764 
L 512.644971 284.365016 
L 515.422224 287.203782 
L 518.199477 289.944753 
L 520.97673 292.574911 
L 523.753983 295.08248 
L 526.531236 297.45687 
L 529.308489 299.688608 
L 532.085742 301.769265 
L 534.862995 303.691385 
L 537.640247 305.448416 
L 540.4175 307.034638 
L 543.194753 308.44511 
L 545.972006 309.675602 
L 548.749259 310.722554 
L 551.526512 311.583027 
L 554.303765 312.254667 
L 557.081018 312.735674 
L 559.858271 313.024782 
L 562.635524 313.121234 
" clip-path="url(#pbed5435463)" style="fill: none; stroke: #dd8452; stroke-width: 0.7; stroke-linecap: round"/>
   </g>
   <g id="line2d_44">
    <path d="M 312.682762 195.93 
L 562.635524 195.93 
" clip-path="url(#pbed5435463)" style="fill: none; stroke-dasharray: 5.55,2.4; stroke-dashoffset: 0; stroke: #ff0000; stroke-width: 1.5"/>
   </g>
   <g id="patch_6">
    <path d="M 312.682762 312.66 
L 312.682762 79.2 
" style="fill: none; stroke: #ffffff; stroke-width: 1.25; stroke-linejoin: miter; stroke-linecap: square"/>
   </g>
   <g id="patch_7">
    <path d="M 312.682762 312.66 
L 562.635524 312.66 
" style="fill: none; stroke: #ffffff; stroke-width: 1.25; stroke-linejoin: miter; stroke-linecap: square"/>
   </g>
   <g id="text_28">
    <!-- fMHz = 100 -->
    <g style="fill: #262626" transform="translate(406.813518 73.2) scale(0.12 -0.12)">
     <use xlink:href="#ArialMT-66"/>
     <use xlink:href="#ArialMT-4d" x="27.783203"/>
     <use xlink:href="#ArialMT-48" x="111.083984"/>
     <use xlink:href="#ArialMT-7a" x="183.300781"/>
     <use xlink:href="#ArialMT-20" x="233.300781"/>
     <use xlink:href="#ArialMT-3d" x="261.083984"/>
     <use xlink:href="#ArialMT-20" x="319.482422"/>
     <use xlink:href="#ArialMT-31" x="347.265625"/>
     <use xlink:href="#ArialMT-30" x="402.880859"/>
     <use xlink:href="#ArialMT-30" x="458.496094"/>
    </g>
   </g>
  </g>
  <g id="axes_3">
   <g id="patch_8">
    <path d="M 575.595524 312.66 
L 825.548285 312.66 
L 825.548285 79.2 
L 575.595524 79.2 
z
" style="fill: #eaeaf2"/>
   </g>
   <g id="matplotlib.axis_5">
    <g id="xtick_11">
     <g id="line2d_45">
      <path d="M 575.595524 312.66 
L 575.595524 79.2 
" clip-path="url(#p499bdef941)" style="fill: none; stroke: #ffffff; stroke-linecap: round"/>
     </g>
     <g id="text_29">
      <!-- 0 -->
      <g style="fill: #262626" transform="translate(572.537008 330.033594) scale(0.11 -0.11)">
       <use xlink:href="#ArialMT-30"/>
      </g>
     </g>
    </g>
    <g id="xtick_12">
     <g id="line2d_46">
      <path d="M 631.140582 312.66 
L 631.140582 79.2 
" clip-path="url(#p499bdef941)" style="fill: none; stroke: #ffffff; stroke-linecap: round"/>
     </g>
     <g id="text_30">
      <!-- 20 -->
      <g style="fill: #262626" transform="translate(625.023551 330.033594) scale(0.11 -0.11)">
       <use xlink:href="#ArialMT-32"/>
       <use xlink:href="#ArialMT-30" x="55.615234"/>
      </g>
     </g>
    </g>
    <g id="xtick_13">
     <g id="line2d_47">
      <path d="M 686.68564 312.66 
L 686.68564 79.2 
" clip-path="url(#p499bdef941)" style="fill: none; stroke: #ffffff; stroke-linecap: round"/>
     </g>
     <g id="text_31">
      <!-- 40 -->
      <g style="fill: #262626" transform="translate(680.568609 330.033594) scale(0.11 -0.11)">
       <use xlink:href="#ArialMT-34"/>
       <use xlink:href="#ArialMT-30" x="55.615234"/>
      </g>
     </g>
    </g>
    <g id="xtick_14">
     <g id="line2d_48">
      <path d="M 742.230698 312.66 
L 742.230698 79.2 
" clip-path="url(#p499bdef941)" style="fill: none; stroke: #ffffff; stroke-linecap: round"/>
     </g>
     <g id="text_32">
      <!-- 60 -->
      <g style="fill: #262626" transform="translate(736.113667 330.033594) scale(0.11 -0.11)">
       <use xlink:href="#ArialMT-36"/>
       <use xlink:href="#ArialMT-30" x="55.615234"/>
      </g>
     </g>
    </g>
    <g id="xtick_15">
     <g id="line2d_49">
      <path d="M 797.775756 312.66 
L 797.775756 79.2 
" clip-path="url(#p499bdef941)" style="fill: none; stroke: #ffffff; stroke-linecap: round"/>
     </g>
     <g id="text_33">
      <!-- 80 -->
      <g style="fill: #262626" transform="translate(791.658725 330.033594) scale(0.11 -0.11)">
       <use xlink:href="#ArialMT-38"/>
       <use xlink:href="#ArialMT-30" x="55.615234"/>
      </g>
     </g>
    </g>
    <g id="text_34">
     <!-- $\theta$° -->
     <g style="fill: #262626" transform="translate(694.451905 344.809219) scale(0.12 -0.12)">
      <use xlink:href="#DejaVuSans-Oblique-3b8" transform="translate(0 0.234375)"/>
      <use xlink:href="#ArialMT-b0" transform="translate(61.181641 0.234375)"/>
     </g>
    </g>
   </g>
   <g id="matplotlib.axis_6">
    <g id="ytick_27">
     <g id="line2d_50">
      <path d="M 575.595524 312.66 
L 825.548285 312.66 
" clip-path="url(#p499bdef941)" style="fill: none; stroke: #ffffff; stroke-linecap: round"/>
     </g>
    </g>
    <g id="ytick_28">
     <g id="line2d_51">
      <path d="M 575.595524 293.205 
L 825.548285 293.205 
" clip-path="url(#p499bdef941)" style="fill: none; stroke: #ffffff; stroke-linecap: round"/>
     </g>
    </g>
    <g id="ytick_29">
     <g id="line2d_52">
      <path d="M 575.595524 273.75 
L 825.548285 273.75 
" clip-path="url(#p499bdef941)" style="fill: none; stroke: #ffffff; stroke-linecap: round"/>
     </g>
    </g>
    <g id="ytick_30">
     <g id="line2d_53">
      <path d="M 575.595524 254.295 
L 825.548285 254.295 
" clip-path="url(#p499bdef941)" style="fill: none; stroke: #ffffff; stroke-linecap: round"/>
     </g>
    </g>
    <g id="ytick_31">
     <g id="line2d_54">
      <path d="M 575.595524 234.84 
L 825.548285 234.84 
" clip-path="url(#p499bdef941)" style="fill: none; stroke: #ffffff; stroke-linecap: round"/>
     </g>
    </g>
    <g id="ytick_32">
     <g id="line2d_55">
      <path d="M 575.595524 215.385 
L 825.548285 215.385 
" clip-path="url(#p499bdef941)" style="fill: none; stroke: #ffffff; stroke-linecap: round"/>
     </g>
    </g>
    <g id="ytick_33">
     <g id="line2d_56">
      <path d="M 575.595524 195.93 
L 825.548285 195.93 
" clip-path="url(#p499bdef941)" style="fill: none; stroke: #ffffff; stroke-linecap: round"/>
     </g>
    </g>
    <g id="ytick_34">
     <g id="line2d_57">
      <path d="M 575.595524 176.475 
L 825.548285 176.475 
" clip-path="url(#p499bdef941)" style="fill: none; stroke: #ffffff; stroke-linecap: round"/>
     </g>
    </g>
    <g id="ytick_35">
     <g id="line2d_58">
      <path d="M 575.595524 157.02 
L 825.548285 157.02 
" clip-path="url(#p499bdef941)" style="fill: none; stroke: #ffffff; stroke-linecap: round"/>
     </g>
    </g>
    <g id="ytick_36">
     <g id="line2d_59">
      <path d="M 575.595524 137.565 
L 825.548285 137.565 
" clip-path="url(#p499bdef941)" style="fill: none; stroke: #ffffff; stroke-linecap: round"/>
     </g>
    </g>
    <g id="ytick_37">
     <g id="line2d_60">
      <path d="M 575.595524 118.11 
L 825.548285 118.11 
" clip-path="url(#p499bdef941)" style="fill: none; stroke: #ffffff; stroke-linecap: round"/>
     </g>
    </g>
    <g id="ytick_38">
     <g id="line2d_61">
      <path d="M 575.595524 98.655 
L 825.548285 98.655 
" clip-path="url(#p499bdef941)" style="fill: none; stroke: #ffffff; stroke-linecap: round"/>
     </g>
    </g>
    <g id="ytick_39">
     <g id="line2d_62">
      <path d="M 575.595524 79.2 
L 825.548285 79.2 
" clip-path="url(#p499bdef941)" style="fill: none; stroke: #ffffff; stroke-linecap: round"/>
     </g>
    </g>
   </g>
   <g id="PolyCollection_5"/>
   <g id="PolyCollection_6"/>
   <g id="line2d_63">
    <path d="M 575.595524 258.475053 
L 578.372777 258.471984 
L 581.150029 258.462558 
L 583.927282 258.446111 
L 586.704535 258.421547 
L 589.481788 258.387338 
L 592.259041 258.341537 
L 595.036294 258.2818 
L 597.813547 258.205409 
L 600.5908 258.109311 
L 603.368053 257.990171 
L 606.145306 257.844441 
L 608.922559 257.668449 
L 611.699811 257.458519 
L 614.477064 257.211112 
L 617.254317 256.923002 
L 620.03157 256.591493 
L 622.808823 256.214661 
L 625.586076 255.791638 
L 628.363329 255.322937 
L 631.140582 254.810789 
L 633.917835 254.654476 
L 636.695088 255.062324 
L 639.472341 255.45237 
L 642.249593 255.813659 
L 645.026846 256.134978 
L 647.804099 256.405352 
L 650.581352 256.614628 
L 653.358605 256.754112 
L 656.135858 256.817248 
L 658.913111 256.800302 
L 661.690364 256.703001 
L 664.467617 256.529076 
L 667.24487 256.286642 
L 670.022123 255.988325 
L 672.799375 255.651065 
L 675.576628 255.295498 
L 678.353881 254.944864 
L 681.131134 254.623421 
L 683.908387 254.942067 
L 686.68564 256.135135 
L 689.462893 257.290917 
L 692.240146 258.345344 
L 695.017399 259.233892 
L 697.794652 259.894874 
L 700.571905 260.272834 
L 703.349157 260.322026 
L 706.12641 260.010048 
L 708.903663 259.321692 
L 711.680916 258.263034 
L 714.458169 256.865653 
L 717.235422 255.190589 
L 720.012675 254.140298 
L 722.789928 253.580566 
L 725.567181 252.932888 
L 728.344434 252.265825 
L 731.121687 251.668215 
L 733.898939 251.241416 
L 736.676192 251.087009 
L 739.453445 251.2908 
L 742.230698 251.905519 
L 745.007951 252.935845 
L 747.785204 254.367429 
L 750.562457 257.164094 
L 753.33971 259.833631 
L 756.116963 262.122204 
L 758.894216 263.799994 
L 761.671469 264.672464 
L 764.448721 264.588039 
L 767.225974 263.445288 
L 770.003227 261.202909 
L 772.78048 257.895635 
L 775.557733 253.70971 
L 778.334986 249.658434 
L 781.112239 245.268832 
L 783.889492 241.066753 
L 786.666745 237.74784 
L 789.443998 236.092306 
L 792.221251 236.785602 
L 794.998503 240.192462 
L 797.775756 246.207169 
L 800.553009 254.397687 
L 803.330262 264.098843 
L 806.107515 274.046758 
L 808.884768 283.567814 
L 811.662021 292.169439 
L 814.439274 299.516517 
L 817.216527 305.392685 
L 819.99378 309.664433 
L 822.771033 312.253963 
L 825.548285 313.121234 
" clip-path="url(#p499bdef941)" style="fill: none; stroke: #4c72b0; stroke-width: 0.7; stroke-linecap: round"/>
   </g>
   <g id="line2d_64">
    <path d="M 575.595524 258.475053 
L 578.372777 258.471984 
L 581.150029 258.462558 
L 583.927282 258.446111 
L 586.704535 258.421547 
L 589.481788 258.387338 
L 592.259041 258.341537 
L 595.036294 258.2818 
L 597.813547 258.205409 
L 600.5908 258.109311 
L 603.368053 257.990171 
L 606.145306 257.844441 
L 608.922559 257.668449 
L 611.699811 257.458519 
L 614.477064 257.211112 
L 617.254317 256.923002 
L 620.03157 256.591493 
L 622.808823 256.214661 
L 625.586076 255.791638 
L 628.363329 255.322937 
L 631.140582 254.810789 
L 633.917835 254.654476 
L 636.695088 255.062324 
L 639.472341 255.45237 
L 642.249593 255.813659 
L 645.026846 256.134978 
L 647.804099 256.405352 
L 650.581352 256.614628 
L 653.358605 256.754112 
L 656.135858 256.817248 
L 658.913111 256.800302 
L 661.690364 256.703001 
L 664.467617 256.529076 
L 667.24487 256.286642 
L 670.022123 255.988325 
L 672.799375 255.651065 
L 675.576628 255.295498 
L 678.353881 254.944864 
L 681.131134 254.623421 
L 683.908387 254.942067 
L 686.68564 256.135135 
L 689.462893 257.290917 
L 692.240146 258.345344 
L 695.017399 259.233892 
L 697.794652 259.894874 
L 700.571905 260.272834 
L 703.349157 260.322026 
L 706.12641 260.010048 
L 708.903663 259.321692 
L 711.680916 258.263034 
L 714.458169 256.865653 
L 717.235422 255.190589 
L 720.012675 254.140298 
L 722.789928 253.580566 
L 725.567181 252.932888 
L 728.344434 252.265825 
L 731.121687 251.668215 
L 733.898939 251.241416 
L 736.676192 251.087009 
L 739.453445 251.2908 
L 742.230698 251.905519 
L 745.007951 252.935845 
L 747.785204 254.367429 
L 750.562457 257.164094 
L 753.33971 259.833631 
L 756.116963 262.122204 
L 758.894216 263.799994 
L 761.671469 264.672464 
L 764.448721 264.588039 
L 767.225974 263.445288 
L 770.003227 261.202909 
L 772.78048 257.895635 
L 775.557733 253.70971 
L 778.334986 249.658434 
L 781.112239 245.268832 
L 783.889492 241.066753 
L 786.666745 237.74784 
L 789.443998 236.092306 
L 792.221251 236.785602 
L 794.998503 240.192462 
L 797.775756 246.207169 
L 800.553009 254.397687 
L 803.330262 264.098843 
L 806.107515 274.046758 
L 808.884768 283.567814 
L 811.662021 292.169439 
L 814.439274 299.516517 
L 817.216527 305.392685 
L 819.99378 309.664433 
L 822.771033 312.253963 
L 825.548285 313.121234 
" clip-path="url(#p499bdef941)" style="fill: none; stroke: #dd8452; stroke-width: 0.7; stroke-linecap: round"/>
   </g>
   <g id="line2d_65">
    <path d="M 575.595524 195.93 
L 825.548285 195.93 
" clip-path="url(#p499bdef941)" style="fill: none; stroke-dasharray: 5.55,2.4; stroke-dashoffset: 0; stroke: #ff0000; stroke-width: 1.5"/>
   </g>
   <g id="patch_9">
    <path d="M 575.595524 312.66 
L 575.595524 79.2 
" style="fill: none; stroke: #ffffff; stroke-width: 1.25; stroke-linejoin: miter; stroke-linecap: square"/>
   </g>
   <g id="patch_10">
    <path d="M 575.595524 312.66 
L 825.548285 312.66 
" style="fill: none; stroke: #ffffff; stroke-width: 1.25; stroke-linejoin: miter; stroke-linecap: square"/>
   </g>
   <g id="text_35">
    <!-- fMHz = 300 -->
    <g style="fill: #262626" transform="translate(669.72628 73.2) scale(0.12 -0.12)">
     <use xlink:href="#ArialMT-66"/>
     <use xlink:href="#ArialMT-4d" x="27.783203"/>
     <use xlink:href="#ArialMT-48" x="111.083984"/>
     <use xlink:href="#ArialMT-7a" x="183.300781"/>
     <use xlink:href="#ArialMT-20" x="233.300781"/>
     <use xlink:href="#ArialMT-3d" x="261.083984"/>
     <use xlink:href="#ArialMT-20" x="319.482422"/>
     <use xlink:href="#ArialMT-33" x="347.265625"/>
     <use xlink:href="#ArialMT-30" x="402.880859"/>
     <use xlink:href="#ArialMT-30" x="458.496094"/>
    </g>
   </g>
  </g>
  <g id="axes_4">
   <g id="patch_11">
    <path d="M 838.508285 312.66 
L 1088.461047 312.66 
L 1088.461047 79.2 
L 838.508285 79.2 
z
" style="fill: #eaeaf2"/>
   </g>
   <g id="matplotlib.axis_7">
    <g id="xtick_16">
     <g id="line2d_66">
      <path d="M 838.508285 312.66 
L 838.508285 79.2 
" clip-path="url(#p50475ab9e3)" style="fill: none; stroke: #ffffff; stroke-linecap: round"/>
     </g>
     <g id="text_36">
      <!-- 0 -->
      <g style="fill: #262626" transform="translate(835.44977 330.033594) scale(0.11 -0.11)">
       <use xlink:href="#ArialMT-30"/>
      </g>
     </g>
    </g>
    <g id="xtick_17">
     <g id="line2d_67">
      <path d="M 894.053344 312.66 
L 894.053344 79.2 
" clip-path="url(#p50475ab9e3)" style="fill: none; stroke: #ffffff; stroke-linecap: round"/>
     </g>
     <g id="text_37">
      <!-- 20 -->
      <g style="fill: #262626" transform="translate(887.936312 330.033594) scale(0.11 -0.11)">
       <use xlink:href="#ArialMT-32"/>
       <use xlink:href="#ArialMT-30" x="55.615234"/>
      </g>
     </g>
    </g>
    <g id="xtick_18">
     <g id="line2d_68">
      <path d="M 949.598402 312.66 
L 949.598402 79.2 
" clip-path="url(#p50475ab9e3)" style="fill: none; stroke: #ffffff; stroke-linecap: round"/>
     </g>
     <g id="text_38">
      <!-- 40 -->
      <g style="fill: #262626" transform="translate(943.481371 330.033594) scale(0.11 -0.11)">
       <use xlink:href="#ArialMT-34"/>
       <use xlink:href="#ArialMT-30" x="55.615234"/>
      </g>
     </g>
    </g>
    <g id="xtick_19">
     <g id="line2d_69">
      <path d="M 1005.14346 312.66 
L 1005.14346 79.2 
" clip-path="url(#p50475ab9e3)" style="fill: none; stroke: #ffffff; stroke-linecap: round"/>
     </g>
     <g id="text_39">
      <!-- 60 -->
      <g style="fill: #262626" transform="translate(999.026429 330.033594) scale(0.11 -0.11)">
       <use xlink:href="#ArialMT-36"/>
       <use xlink:href="#ArialMT-30" x="55.615234"/>
      </g>
     </g>
    </g>
    <g id="xtick_20">
     <g id="line2d_70">
      <path d="M 1060.688518 312.66 
L 1060.688518 79.2 
" clip-path="url(#p50475ab9e3)" style="fill: none; stroke: #ffffff; stroke-linecap: round"/>
     </g>
     <g id="text_40">
      <!-- 80 -->
      <g style="fill: #262626" transform="translate(1054.571487 330.033594) scale(0.11 -0.11)">
       <use xlink:href="#ArialMT-38"/>
       <use xlink:href="#ArialMT-30" x="55.615234"/>
      </g>
     </g>
    </g>
    <g id="text_41">
     <!-- $\theta$° -->
     <g style="fill: #262626" transform="translate(957.364666 344.809219) scale(0.12 -0.12)">
      <use xlink:href="#DejaVuSans-Oblique-3b8" transform="translate(0 0.234375)"/>
      <use xlink:href="#ArialMT-b0" transform="translate(61.181641 0.234375)"/>
     </g>
    </g>
   </g>
   <g id="matplotlib.axis_8">
    <g id="ytick_40">
     <g id="line2d_71">
      <path d="M 838.508285 312.66 
L 1088.461047 312.66 
" clip-path="url(#p50475ab9e3)" style="fill: none; stroke: #ffffff; stroke-linecap: round"/>
     </g>
    </g>
    <g id="ytick_41">
     <g id="line2d_72">
      <path d="M 838.508285 293.205 
L 1088.461047 293.205 
" clip-path="url(#p50475ab9e3)" style="fill: none; stroke: #ffffff; stroke-linecap: round"/>
     </g>
    </g>
    <g id="ytick_42">
     <g id="line2d_73">
      <path d="M 838.508285 273.75 
L 1088.461047 273.75 
" clip-path="url(#p50475ab9e3)" style="fill: none; stroke: #ffffff; stroke-linecap: round"/>
     </g>
    </g>
    <g id="ytick_43">
     <g id="line2d_74">
      <path d="M 838.508285 254.295 
L 1088.461047 254.295 
" clip-path="url(#p50475ab9e3)" style="fill: none; stroke: #ffffff; stroke-linecap: round"/>
     </g>
    </g>
    <g id="ytick_44">
     <g id="line2d_75">
      <path d="M 838.508285 234.84 
L 1088.461047 234.84 
" clip-path="url(#p50475ab9e3)" style="fill: none; stroke: #ffffff; stroke-linecap: round"/>
     </g>
    </g>
    <g id="ytick_45">
     <g id="line2d_76">
      <path d="M 838.508285 215.385 
L 1088.461047 215.385 
" clip-path="url(#p50475ab9e3)" style="fill: none; stroke: #ffffff; stroke-linecap: round"/>
     </g>
    </g>
    <g id="ytick_46">
     <g id="line2d_77">
      <path d="M 838.508285 195.93 
L 1088.461047 195.93 
" clip-path="url(#p50475ab9e3)" style="fill: none; stroke: #ffffff; stroke-linecap: round"/>
     </g>
    </g>
    <g id="ytick_47">
     <g id="line2d_78">
      <path d="M 838.508285 176.475 
L 1088.461047 176.475 
" clip-path="url(#p50475ab9e3)" style="fill: none; stroke: #ffffff; stroke-linecap: round"/>
     </g>
    </g>
    <g id="ytick_48">
     <g id="line2d_79">
      <path d="M 838.508285 157.02 
L 1088.461047 157.02 
" clip-path="url(#p50475ab9e3)" style="fill: none; stroke: #ffffff; stroke-linecap: round"/>
     </g>
    </g>
    <g id="ytick_49">
     <g id="line2d_80">
      <path d="M 838.508285 137.565 
L 1088.461047 137.565 
" clip-path="url(#p50475ab9e3)" style="fill: none; stroke: #ffffff; stroke-linecap: round"/>
     </g>
    </g>
    <g id="ytick_50">
     <g id="line2d_81">
      <path d="M 838.508285 118.11 
L 1088.461047 118.11 
" clip-path="url(#p50475ab9e3)" style="fill: none; stroke: #ffffff; stroke-linecap: round"/>
     </g>
    </g>
    <g id="ytick_51">
     <g id="line2d_82">
      <path d="M 838.508285 98.655 
L 1088.461047 98.655 
" clip-path="url(#p50475ab9e3)" style="fill: none; stroke: #ffffff; stroke-linecap: round"/>
     </g>
    </g>
    <g id="ytick_52">
     <g id="line2d_83">
      <path d="M 838.508285 79.2 
L 1088.461047 79.2 
" clip-path="url(#p50475ab9e3)" style="fill: none; stroke: #ffffff; stroke-linecap: round"/>
     </g>
    </g>
   </g>
   <g id="PolyCollection_7"/>
   <g id="PolyCollection_8"/>
   <g id="line2d_84">
    <path d="M 838.508285 255.546632 
L 841.285538 255.540239 
L 844.062791 255.520408 
L 846.840044 255.485227 
L 849.617297 255.431679 
L 852.39455 255.355917 
L 855.171803 255.253712 
L 857.949056 255.121089 
L 860.726309 254.955198 
L 863.503562 254.755411 
L 866.280815 254.524583 
L 869.058067 254.73299 
L 871.83532 255.022677 
L 874.612573 255.309321 
L 877.389826 255.565695 
L 880.167079 255.758868 
L 882.944332 255.853525 
L 885.721585 255.817377 
L 888.498838 255.628559 
L 891.276091 255.284303 
L 894.053344 254.809376 
L 896.830597 254.652889 
L 899.607849 255.023128 
L 902.385102 255.27642 
L 905.162355 255.352658 
L 907.939608 255.22472 
L 910.716861 254.913109 
L 913.494114 254.490472 
L 916.271367 255.2041 
L 919.04862 255.783325 
L 921.825873 255.997177 
L 924.603126 255.733662 
L 927.380379 255.032262 
L 930.157631 254.616161 
L 932.934884 254.895893 
L 935.712137 254.958885 
L 938.48939 254.796082 
L 941.266643 254.502041 
L 944.043896 255.39751 
L 946.821149 256.097565 
L 949.598402 256.01681 
L 952.375655 255.127334 
L 955.152908 254.507948 
L 957.930161 254.547514 
L 960.707413 254.489923 
L 963.484666 254.434923 
L 966.261919 255.475781 
L 969.039172 256.351824 
L 971.816425 256.011377 
L 974.593678 254.589716 
L 977.370931 254.173857 
L 980.148184 254.026428 
L 982.925437 254.219373 
L 985.70269 255.514737 
L 988.479943 256.648617 
L 991.257195 256.069579 
L 994.034448 254.270656 
L 996.811701 253.563525 
L 999.588954 253.563421 
L 1002.366207 254.593605 
L 1005.14346 256.68114 
L 1007.920713 256.839185 
L 1010.697966 254.743702 
L 1013.475219 253.080385 
L 1016.252472 252.822532 
L 1019.029725 254.348815 
L 1021.806977 257.115818 
L 1024.58423 257.341498 
L 1027.361483 254.525624 
L 1030.138736 252.076357 
L 1032.915989 252.11282 
L 1035.693242 255.155901 
L 1038.470495 258.358282 
L 1041.247748 257.470244 
L 1044.025001 253.045905 
L 1046.802254 250.124714 
L 1049.579507 252.131048 
L 1052.356759 257.753872 
L 1055.134012 260.302606 
L 1057.911265 256.051758 
L 1060.688518 248.827694 
L 1063.465771 247.446876 
L 1066.243024 255.373138 
L 1069.020277 263.840929 
L 1071.79753 262.210801 
L 1074.574783 248.192676 
L 1077.352036 234.352618 
L 1080.129289 245.408783 
L 1082.906541 277.162822 
L 1085.683794 303.597369 
L 1088.461047 313.121234 
" clip-path="url(#p50475ab9e3)" style="fill: none; stroke: #4c72b0; stroke-width: 0.7; stroke-linecap: round"/>
   </g>
   <g id="line2d_85">
    <path d="M 838.508285 255.546632 
L 841.285538 255.540239 
L 844.062791 255.520408 
L 846.840044 255.485227 
L 849.617297 255.431679 
L 852.39455 255.355917 
L 855.171803 255.253712 
L 857.949056 255.121089 
L 860.726309 254.955198 
L 863.503562 254.755411 
L 866.280815 254.524583 
L 869.058067 254.73299 
L 871.83532 255.022677 
L 874.612573 255.309321 
L 877.389826 255.565695 
L 880.167079 255.758868 
L 882.944332 255.853525 
L 885.721585 255.817377 
L 888.498838 255.628559 
L 891.276091 255.284303 
L 894.053344 254.809376 
L 896.830597 254.652889 
L 899.607849 255.023128 
L 902.385102 255.27642 
L 905.162355 255.352658 
L 907.939608 255.22472 
L 910.716861 254.913109 
L 913.494114 254.490472 
L 916.271367 255.2041 
L 919.04862 255.783325 
L 921.825873 255.997177 
L 924.603126 255.733662 
L 927.380379 255.032262 
L 930.157631 254.616161 
L 932.934884 254.895893 
L 935.712137 254.958885 
L 938.48939 254.796082 
L 941.266643 254.502041 
L 944.043896 255.39751 
L 946.821149 256.097565 
L 949.598402 256.01681 
L 952.375655 255.127334 
L 955.152908 254.507948 
L 957.930161 254.547514 
L 960.707413 254.489923 
L 963.484666 254.434923 
L 966.261919 255.475781 
L 969.039172 256.351824 
L 971.816425 256.011377 
L 974.593678 254.589716 
L 977.370931 254.173857 
L 980.148184 254.026428 
L 982.925437 254.219373 
L 985.70269 255.514737 
L 988.479943 256.648617 
L 991.257195 256.069579 
L 994.034448 254.270656 
L 996.811701 253.563525 
L 999.588954 253.563421 
L 1002.366207 254.593605 
L 1005.14346 256.68114 
L 1007.920713 256.839185 
L 1010.697966 254.743702 
L 1013.475219 253.080385 
L 1016.252472 252.822532 
L 1019.029725 254.348815 
L 1021.806977 257.115818 
L 1024.58423 257.341498 
L 1027.361483 254.525624 
L 1030.138736 252.076357 
L 1032.915989 252.11282 
L 1035.693242 255.155901 
L 1038.470495 258.358282 
L 1041.247748 257.470244 
L 1044.025001 253.045905 
L 1046.802254 250.124714 
L 1049.579507 252.131048 
L 1052.356759 257.753872 
L 1055.134012 260.302606 
L 1057.911265 256.051758 
L 1060.688518 248.827694 
L 1063.465771 247.446876 
L 1066.243024 255.373138 
L 1069.020277 263.840929 
L 1071.79753 262.210801 
L 1074.574783 248.192676 
L 1077.352036 234.352618 
L 1080.129289 245.408783 
L 1082.906541 277.162822 
L 1085.683794 303.597369 
L 1088.461047 313.121234 
" clip-path="url(#p50475ab9e3)" style="fill: none; stroke: #dd8452; stroke-width: 0.7; stroke-linecap: round"/>
   </g>
   <g id="line2d_86">
    <path d="M 838.508285 195.93 
L 1088.461047 195.93 
" clip-path="url(#p50475ab9e3)" style="fill: none; stroke-dasharray: 5.55,2.4; stroke-dashoffset: 0; stroke: #ff0000; stroke-width: 1.5"/>
   </g>
   <g id="patch_12">
    <path d="M 838.508285 312.66 
L 838.508285 79.2 
" style="fill: none; stroke: #ffffff; stroke-width: 1.25; stroke-linejoin: miter; stroke-linecap: square"/>
   </g>
   <g id="patch_13">
    <path d="M 838.508285 312.66 
L 1088.461047 312.66 
" style="fill: none; stroke: #ffffff; stroke-width: 1.25; stroke-linejoin: miter; stroke-linecap: square"/>
   </g>
   <g id="text_42">
    <!-- fMHz = 1000 -->
    <g style="fill: #262626" transform="translate(929.302479 73.2) scale(0.12 -0.12)">
     <use xlink:href="#ArialMT-66"/>
     <use xlink:href="#ArialMT-4d" x="27.783203"/>
     <use xlink:href="#ArialMT-48" x="111.083984"/>
     <use xlink:href="#ArialMT-7a" x="183.300781"/>
     <use xlink:href="#ArialMT-20" x="233.300781"/>
     <use xlink:href="#ArialMT-3d" x="261.083984"/>
     <use xlink:href="#ArialMT-20" x="319.482422"/>
     <use xlink:href="#ArialMT-31" x="347.265625"/>
     <use xlink:href="#ArialMT-30" x="402.880859"/>
     <use xlink:href="#ArialMT-30" x="458.496094"/>
     <use xlink:href="#ArialMT-30" x="514.111328"/>
    </g>
   </g>
  </g>
  <g id="axes_5">
   <g id="patch_14">
    <path d="M 1101.421047 312.66 
L 1351.373809 312.66 
L 1351.373809 79.2 
L 1101.421047 79.2 
z
" style="fill: #eaeaf2"/>
   </g>
   <g id="matplotlib.axis_9">
    <g id="xtick_21">
     <g id="line2d_87">
      <path d="M 1101.421047 312.66 
L 1101.421047 79.2 
" clip-path="url(#p37a33ef03e)" style="fill: none; stroke: #ffffff; stroke-linecap: round"/>
     </g>
     <g id="text_43">
      <!-- 0 -->
      <g style="fill: #262626" transform="translate(1098.362532 330.033594) scale(0.11 -0.11)">
       <use xlink:href="#ArialMT-30"/>
      </g>
     </g>
    </g>
    <g id="xtick_22">
     <g id="line2d_88">
      <path d="M 1156.966105 312.66 
L 1156.966105 79.2 
" clip-path="url(#p37a33ef03e)" style="fill: none; stroke: #ffffff; stroke-linecap: round"/>
     </g>
     <g id="text_44">
      <!-- 20 -->
      <g style="fill: #262626" transform="translate(1150.849074 330.033594) scale(0.11 -0.11)">
       <use xlink:href="#ArialMT-32"/>
       <use xlink:href="#ArialMT-30" x="55.615234"/>
      </g>
     </g>
    </g>
    <g id="xtick_23">
     <g id="line2d_89">
      <path d="M 1212.511164 312.66 
L 1212.511164 79.2 
" clip-path="url(#p37a33ef03e)" style="fill: none; stroke: #ffffff; stroke-linecap: round"/>
     </g>
     <g id="text_45">
      <!-- 40 -->
      <g style="fill: #262626" transform="translate(1206.394132 330.033594) scale(0.11 -0.11)">
       <use xlink:href="#ArialMT-34"/>
       <use xlink:href="#ArialMT-30" x="55.615234"/>
      </g>
     </g>
    </g>
    <g id="xtick_24">
     <g id="line2d_90">
      <path d="M 1268.056222 312.66 
L 1268.056222 79.2 
" clip-path="url(#p37a33ef03e)" style="fill: none; stroke: #ffffff; stroke-linecap: round"/>
     </g>
     <g id="text_46">
      <!-- 60 -->
      <g style="fill: #262626" transform="translate(1261.939191 330.033594) scale(0.11 -0.11)">
       <use xlink:href="#ArialMT-36"/>
       <use xlink:href="#ArialMT-30" x="55.615234"/>
      </g>
     </g>
    </g>
    <g id="xtick_25">
     <g id="line2d_91">
      <path d="M 1323.60128 312.66 
L 1323.60128 79.2 
" clip-path="url(#p37a33ef03e)" style="fill: none; stroke: #ffffff; stroke-linecap: round"/>
     </g>
     <g id="text_47">
      <!-- 80 -->
      <g style="fill: #262626" transform="translate(1317.484249 330.033594) scale(0.11 -0.11)">
       <use xlink:href="#ArialMT-38"/>
       <use xlink:href="#ArialMT-30" x="55.615234"/>
      </g>
     </g>
    </g>
    <g id="text_48">
     <!-- $\theta$° -->
     <g style="fill: #262626" transform="translate(1220.277428 344.809219) scale(0.12 -0.12)">
      <use xlink:href="#DejaVuSans-Oblique-3b8" transform="translate(0 0.234375)"/>
      <use xlink:href="#ArialMT-b0" transform="translate(61.181641 0.234375)"/>
     </g>
    </g>
   </g>
   <g id="matplotlib.axis_10">
    <g id="ytick_53">
     <g id="line2d_92">
      <path d="M 1101.421047 312.66 
L 1351.373809 312.66 
" clip-path="url(#p37a33ef03e)" style="fill: none; stroke: #ffffff; stroke-linecap: round"/>
     </g>
    </g>
    <g id="ytick_54">
     <g id="line2d_93">
      <path d="M 1101.421047 293.205 
L 1351.373809 293.205 
" clip-path="url(#p37a33ef03e)" style="fill: none; stroke: #ffffff; stroke-linecap: round"/>
     </g>
    </g>
    <g id="ytick_55">
     <g id="line2d_94">
      <path d="M 1101.421047 273.75 
L 1351.373809 273.75 
" clip-path="url(#p37a33ef03e)" style="fill: none; stroke: #ffffff; stroke-linecap: round"/>
     </g>
    </g>
    <g id="ytick_56">
     <g id="line2d_95">
      <path d="M 1101.421047 254.295 
L 1351.373809 254.295 
" clip-path="url(#p37a33ef03e)" style="fill: none; stroke: #ffffff; stroke-linecap: round"/>
     </g>
    </g>
    <g id="ytick_57">
     <g id="line2d_96">
      <path d="M 1101.421047 234.84 
L 1351.373809 234.84 
" clip-path="url(#p37a33ef03e)" style="fill: none; stroke: #ffffff; stroke-linecap: round"/>
     </g>
    </g>
    <g id="ytick_58">
     <g id="line2d_97">
      <path d="M 1101.421047 215.385 
L 1351.373809 215.385 
" clip-path="url(#p37a33ef03e)" style="fill: none; stroke: #ffffff; stroke-linecap: round"/>
     </g>
    </g>
    <g id="ytick_59">
     <g id="line2d_98">
      <path d="M 1101.421047 195.93 
L 1351.373809 195.93 
" clip-path="url(#p37a33ef03e)" style="fill: none; stroke: #ffffff; stroke-linecap: round"/>
     </g>
    </g>
    <g id="ytick_60">
     <g id="line2d_99">
      <path d="M 1101.421047 176.475 
L 1351.373809 176.475 
" clip-path="url(#p37a33ef03e)" style="fill: none; stroke: #ffffff; stroke-linecap: round"/>
     </g>
    </g>
    <g id="ytick_61">
     <g id="line2d_100">
      <path d="M 1101.421047 157.02 
L 1351.373809 157.02 
" clip-path="url(#p37a33ef03e)" style="fill: none; stroke: #ffffff; stroke-linecap: round"/>
     </g>
    </g>
    <g id="ytick_62">
     <g id="line2d_101">
      <path d="M 1101.421047 137.565 
L 1351.373809 137.565 
" clip-path="url(#p37a33ef03e)" style="fill: none; stroke: #ffffff; stroke-linecap: round"/>
     </g>
    </g>
    <g id="ytick_63">
     <g id="line2d_102">
      <path d="M 1101.421047 118.11 
L 1351.373809 118.11 
" clip-path="url(#p37a33ef03e)" style="fill: none; stroke: #ffffff; stroke-linecap: round"/>
     </g>
    </g>
    <g id="ytick_64">
     <g id="line2d_103">
      <path d="M 1101.421047 98.655 
L 1351.373809 98.655 
" clip-path="url(#p37a33ef03e)" style="fill: none; stroke: #ffffff; stroke-linecap: round"/>
     </g>
    </g>
    <g id="ytick_65">
     <g id="line2d_104">
      <path d="M 1101.421047 79.2 
L 1351.373809 79.2 
" clip-path="url(#p37a33ef03e)" style="fill: none; stroke: #ffffff; stroke-linecap: round"/>
     </g>
    </g>
   </g>
   <g id="PolyCollection_9"/>
   <g id="PolyCollection_10"/>
   <g id="line2d_105">
    <path d="M 1101.421047 254.614035 
L 1104.1983 254.601285 
L 1106.975553 254.562797 
L 1109.752806 254.498575 
L 1112.530059 254.578084 
L 1115.307312 254.677891 
L 1118.084565 254.773196 
L 1120.861818 254.835314 
L 1123.639071 254.829004 
L 1126.416323 254.725394 
L 1129.193576 254.523863 
L 1131.970829 254.728394 
L 1134.748082 254.940329 
L 1137.525335 254.965356 
L 1140.302588 254.741488 
L 1143.079841 254.593641 
L 1145.857094 254.797933 
L 1148.634347 254.688901 
L 1151.4116 254.679412 
L 1154.188853 254.992705 
L 1156.966105 254.797726 
L 1159.743358 254.639082 
L 1162.520611 254.73778 
L 1165.297864 254.622879 
L 1168.075117 255.015049 
L 1170.85237 254.620903 
L 1173.629623 254.715914 
L 1176.406876 254.490079 
L 1179.184129 255.024544 
L 1181.961382 254.57767 
L 1184.738635 254.67536 
L 1187.515887 254.711901 
L 1190.29314 254.966779 
L 1193.070393 254.594693 
L 1195.847646 254.490734 
L 1198.624899 255.062869 
L 1201.402152 254.523884 
L 1204.179405 254.499899 
L 1206.956658 255.084169 
L 1209.733911 254.508731 
L 1212.511164 254.452984 
L 1215.288417 255.037317 
L 1218.065669 254.491443 
L 1220.842922 254.833653 
L 1223.620175 254.683004 
L 1226.397428 254.434923 
L 1229.174681 255.15741 
L 1231.951934 254.398494 
L 1234.729187 254.833246 
L 1237.50644 254.589541 
L 1240.283693 254.378114 
L 1243.060946 255.099076 
L 1245.838199 254.273729 
L 1248.615451 255.24461 
L 1251.392704 254.236204 
L 1254.169957 255.096754 
L 1256.94721 254.278997 
L 1259.724463 254.836873 
L 1262.501716 254.402985 
L 1265.278969 254.593594 
L 1268.056222 254.614196 
L 1270.833475 254.422134 
L 1273.610728 254.74243 
L 1276.387981 254.338197 
L 1279.165233 254.779722 
L 1281.942486 254.350151 
L 1284.719739 254.714436 
L 1287.496992 254.474499 
L 1290.274245 254.525615 
L 1293.051498 254.733788 
L 1295.828751 254.192041 
L 1298.606004 255.136587 
L 1301.383257 253.760518 
L 1304.16051 255.641786 
L 1306.937763 253.281489 
L 1309.715015 256.117945 
L 1312.492268 252.888503 
L 1315.269521 256.32461 
L 1318.046774 252.876655 
L 1320.824027 255.948398 
L 1323.60128 253.652484 
L 1326.378533 254.713618 
L 1329.155786 255.364212 
L 1331.933039 252.551231 
L 1334.710292 257.784221 
L 1337.487545 249.762506 
L 1340.264797 260.341851 
L 1343.04205 247.063184 
L 1345.819303 262.292021 
L 1348.596556 245.377039 
L 1351.373809 313.121234 
" clip-path="url(#p37a33ef03e)" style="fill: none; stroke: #4c72b0; stroke-width: 0.7; stroke-linecap: round"/>
   </g>
   <g id="line2d_106">
    <path d="M 1101.421047 254.614035 
L 1104.1983 254.601285 
L 1106.975553 254.562797 
L 1109.752806 254.498575 
L 1112.530059 254.578084 
L 1115.307312 254.677891 
L 1118.084565 254.773196 
L 1120.861818 254.835314 
L 1123.639071 254.829004 
L 1126.416323 254.725394 
L 1129.193576 254.523863 
L 1131.970829 254.728394 
L 1134.748082 254.940329 
L 1137.525335 254.965356 
L 1140.302588 254.741488 
L 1143.079841 254.593641 
L 1145.857094 254.797933 
L 1148.634347 254.688901 
L 1151.4116 254.679412 
L 1154.188853 254.992705 
L 1156.966105 254.797726 
L 1159.743358 254.639082 
L 1162.520611 254.73778 
L 1165.297864 254.622879 
L 1168.075117 255.015049 
L 1170.85237 254.620903 
L 1173.629623 254.715914 
L 1176.406876 254.490079 
L 1179.184129 255.024544 
L 1181.961382 254.57767 
L 1184.738635 254.67536 
L 1187.515887 254.711901 
L 1190.29314 254.966779 
L 1193.070393 254.594693 
L 1195.847646 254.490734 
L 1198.624899 255.062869 
L 1201.402152 254.523884 
L 1204.179405 254.499899 
L 1206.956658 255.084169 
L 1209.733911 254.508731 
L 1212.511164 254.452984 
L 1215.288417 255.037317 
L 1218.065669 254.491443 
L 1220.842922 254.833653 
L 1223.620175 254.683004 
L 1226.397428 254.434923 
L 1229.174681 255.15741 
L 1231.951934 254.398494 
L 1234.729187 254.833246 
L 1237.50644 254.589541 
L 1240.283693 254.378114 
L 1243.060946 255.099076 
L 1245.838199 254.273729 
L 1248.615451 255.24461 
L 1251.392704 254.236204 
L 1254.169957 255.096754 
L 1256.94721 254.278997 
L 1259.724463 254.836873 
L 1262.501716 254.402985 
L 1265.278969 254.593594 
L 1268.056222 254.614196 
L 1270.833475 254.422134 
L 1273.610728 254.74243 
L 1276.387981 254.338197 
L 1279.165233 254.779722 
L 1281.942486 254.350151 
L 1284.719739 254.714436 
L 1287.496992 254.474499 
L 1290.274245 254.525615 
L 1293.051498 254.733788 
L 1295.828751 254.192041 
L 1298.606004 255.136587 
L 1301.383257 253.760518 
L 1304.16051 255.641786 
L 1306.937763 253.281489 
L 1309.715015 256.117945 
L 1312.492268 252.888503 
L 1315.269521 256.32461 
L 1318.046774 252.876655 
L 1320.824027 255.948398 
L 1323.60128 253.652484 
L 1326.378533 254.713618 
L 1329.155786 255.364212 
L 1331.933039 252.551231 
L 1334.710292 257.784221 
L 1337.487545 249.762506 
L 1340.264797 260.341851 
L 1343.04205 247.063184 
L 1345.819303 262.292021 
L 1348.596556 245.377039 
L 1351.373809 313.121234 
" clip-path="url(#p37a33ef03e)" style="fill: none; stroke: #dd8452; stroke-width: 0.7; stroke-linecap: round"/>
   </g>
   <g id="line2d_107">
    <path d="M 1101.421047 195.93 
L 1351.373809 195.93 
" clip-path="url(#p37a33ef03e)" style="fill: none; stroke-dasharray: 5.55,2.4; stroke-dashoffset: 0; stroke: #ff0000; stroke-width: 1.5"/>
   </g>
   <g id="patch_15">
    <path d="M 1101.421047 312.66 
L 1101.421047 79.2 
" style="fill: none; stroke: #ffffff; stroke-width: 1.25; stroke-linejoin: miter; stroke-linecap: square"/>
   </g>
   <g id="patch_16">
    <path d="M 1101.421047 312.66 
L 1351.373809 312.66 
" style="fill: none; stroke: #ffffff; stroke-width: 1.25; stroke-linejoin: miter; stroke-linecap: square"/>
   </g>
   <g id="text_49">
    <!-- kind = S0 -->
    <g style="fill: #262626" transform="translate(1358.757864 170.746875) rotate(-270) scale(0.12 -0.12)">
     <defs>
      <path id="ArialMT-6b" d="M 425 0 
L 425 4581 
L 988 4581 
L 988 1969 
L 2319 3319 
L 3047 3319 
L 1778 2088 
L 3175 0 
L 2481 0 
L 1384 1697 
L 988 1316 
L 988 0 
L 425 0 
z
" transform="scale(0.015625)"/>
      <path id="ArialMT-69" d="M 425 3934 
L 425 4581 
L 988 4581 
L 988 3934 
L 425 3934 
z
M 425 0 
L 425 3319 
L 988 3319 
L 988 0 
L 425 0 
z
" transform="scale(0.015625)"/>
      <path id="ArialMT-6e" d="M 422 0 
L 422 3319 
L 928 3319 
L 928 2847 
Q 1294 3394 1984 3394 
Q 2284 3394 2536 3286 
Q 2788 3178 2913 3003 
Q 3038 2828 3088 2588 
Q 3119 2431 3119 2041 
L 3119 0 
L 2556 0 
L 2556 2019 
Q 2556 2363 2490 2533 
Q 2425 2703 2258 2804 
Q 2091 2906 1866 2906 
Q 1506 2906 1245 2678 
Q 984 2450 984 1813 
L 984 0 
L 422 0 
z
" transform="scale(0.015625)"/>
      <path id="ArialMT-53" d="M 288 1472 
L 859 1522 
Q 900 1178 1048 958 
Q 1197 738 1509 602 
Q 1822 466 2213 466 
Q 2559 466 2825 569 
Q 3091 672 3220 851 
Q 3350 1031 3350 1244 
Q 3350 1459 3225 1620 
Q 3100 1781 2813 1891 
Q 2628 1963 1997 2114 
Q 1366 2266 1113 2400 
Q 784 2572 623 2826 
Q 463 3081 463 3397 
Q 463 3744 659 4045 
Q 856 4347 1234 4503 
Q 1613 4659 2075 4659 
Q 2584 4659 2973 4495 
Q 3363 4331 3572 4012 
Q 3781 3694 3797 3291 
L 3216 3247 
Q 3169 3681 2898 3903 
Q 2628 4125 2100 4125 
Q 1550 4125 1298 3923 
Q 1047 3722 1047 3438 
Q 1047 3191 1225 3031 
Q 1400 2872 2139 2705 
Q 2878 2538 3153 2413 
Q 3553 2228 3743 1945 
Q 3934 1663 3934 1294 
Q 3934 928 3725 604 
Q 3516 281 3123 101 
Q 2731 -78 2241 -78 
Q 1619 -78 1198 103 
Q 778 284 539 648 
Q 300 1013 288 1472 
z
" transform="scale(0.015625)"/>
     </defs>
     <use xlink:href="#ArialMT-6b"/>
     <use xlink:href="#ArialMT-69" x="50"/>
     <use xlink:href="#ArialMT-6e" x="72.216797"/>
     <use xlink:href="#ArialMT-64" x="127.832031"/>
     <use xlink:href="#ArialMT-20" x="183.447266"/>
     <use xlink:href="#ArialMT-3d" x="211.230469"/>
     <use xlink:href="#ArialMT-20" x="269.628906"/>
     <use xlink:href="#ArialMT-53" x="297.412109"/>
     <use xlink:href="#ArialMT-30" x="364.111328"/>
    </g>
   </g>
   <g id="text_50">
    <!-- fMHz = 3000 -->
    <g style="fill: #262626" transform="translate(1192.215241 73.2) scale(0.12 -0.12)">
     <use xlink:href="#ArialMT-66"/>
     <use xlink:href="#ArialMT-4d" x="27.783203"/>
     <use xlink:href="#ArialMT-48" x="111.083984"/>
     <use xlink:href="#ArialMT-7a" x="183.300781"/>
     <use xlink:href="#ArialMT-20" x="233.300781"/>
     <use xlink:href="#ArialMT-3d" x="261.083984"/>
     <use xlink:href="#ArialMT-20" x="319.482422"/>
     <use xlink:href="#ArialMT-33" x="347.265625"/>
     <use xlink:href="#ArialMT-30" x="402.880859"/>
     <use xlink:href="#ArialMT-30" x="458.496094"/>
     <use xlink:href="#ArialMT-30" x="514.111328"/>
    </g>
   </g>
  </g>
  <g id="text_51">
   <!-- dB(err) for PEC ground, TM polarisation, 1 averaging point -->
   <g style="fill: #0000ff" transform="translate(514.466719 20.303437) scale(0.18 -0.18)">
    <defs>
     <path id="ArialMT-6f" d="M 213 1659 
Q 213 2581 725 3025 
Q 1153 3394 1769 3394 
Q 2453 3394 2887 2945 
Q 3322 2497 3322 1706 
Q 3322 1066 3130 698 
Q 2938 331 2570 128 
Q 2203 -75 1769 -75 
Q 1072 -75 642 372 
Q 213 819 213 1659 
z
M 791 1659 
Q 791 1022 1069 705 
Q 1347 388 1769 388 
Q 2188 388 2466 706 
Q 2744 1025 2744 1678 
Q 2744 2294 2464 2611 
Q 2184 2928 1769 2928 
Q 1347 2928 1069 2612 
Q 791 2297 791 1659 
z
" transform="scale(0.015625)"/>
     <path id="ArialMT-50" d="M 494 0 
L 494 4581 
L 2222 4581 
Q 2678 4581 2919 4538 
Q 3256 4481 3484 4323 
Q 3713 4166 3852 3881 
Q 3991 3597 3991 3256 
Q 3991 2672 3619 2267 
Q 3247 1863 2275 1863 
L 1100 1863 
L 1100 0 
L 494 0 
z
M 1100 2403 
L 2284 2403 
Q 2872 2403 3119 2622 
Q 3366 2841 3366 3238 
Q 3366 3525 3220 3729 
Q 3075 3934 2838 4000 
Q 2684 4041 2272 4041 
L 1100 4041 
L 1100 2403 
z
" transform="scale(0.015625)"/>
     <path id="ArialMT-45" d="M 506 0 
L 506 4581 
L 3819 4581 
L 3819 4041 
L 1113 4041 
L 1113 2638 
L 3647 2638 
L 3647 2100 
L 1113 2100 
L 1113 541 
L 3925 541 
L 3925 0 
L 506 0 
z
" transform="scale(0.015625)"/>
     <path id="ArialMT-43" d="M 3763 1606 
L 4369 1453 
Q 4178 706 3683 314 
Q 3188 -78 2472 -78 
Q 1731 -78 1267 223 
Q 803 525 561 1097 
Q 319 1669 319 2325 
Q 319 3041 592 3573 
Q 866 4106 1370 4382 
Q 1875 4659 2481 4659 
Q 3169 4659 3637 4309 
Q 4106 3959 4291 3325 
L 3694 3184 
Q 3534 3684 3231 3912 
Q 2928 4141 2469 4141 
Q 1941 4141 1586 3887 
Q 1231 3634 1087 3207 
Q 944 2781 944 2328 
Q 944 1744 1114 1308 
Q 1284 872 1643 656 
Q 2003 441 2422 441 
Q 2931 441 3284 734 
Q 3638 1028 3763 1606 
z
" transform="scale(0.015625)"/>
     <path id="ArialMT-67" d="M 319 -275 
L 866 -356 
Q 900 -609 1056 -725 
Q 1266 -881 1628 -881 
Q 2019 -881 2231 -725 
Q 2444 -569 2519 -288 
Q 2563 -116 2559 434 
Q 2191 0 1641 0 
Q 956 0 581 494 
Q 206 988 206 1678 
Q 206 2153 378 2554 
Q 550 2956 876 3175 
Q 1203 3394 1644 3394 
Q 2231 3394 2613 2919 
L 2613 3319 
L 3131 3319 
L 3131 450 
Q 3131 -325 2973 -648 
Q 2816 -972 2473 -1159 
Q 2131 -1347 1631 -1347 
Q 1038 -1347 672 -1080 
Q 306 -813 319 -275 
z
M 784 1719 
Q 784 1066 1043 766 
Q 1303 466 1694 466 
Q 2081 466 2343 764 
Q 2606 1063 2606 1700 
Q 2606 2309 2336 2618 
Q 2066 2928 1684 2928 
Q 1309 2928 1046 2623 
Q 784 2319 784 1719 
z
" transform="scale(0.015625)"/>
     <path id="ArialMT-75" d="M 2597 0 
L 2597 488 
Q 2209 -75 1544 -75 
Q 1250 -75 995 37 
Q 741 150 617 320 
Q 494 491 444 738 
Q 409 903 409 1263 
L 409 3319 
L 972 3319 
L 972 1478 
Q 972 1038 1006 884 
Q 1059 663 1231 536 
Q 1403 409 1656 409 
Q 1909 409 2131 539 
Q 2353 669 2445 892 
Q 2538 1116 2538 1541 
L 2538 3319 
L 3100 3319 
L 3100 0 
L 2597 0 
z
" transform="scale(0.015625)"/>
     <path id="ArialMT-2c" d="M 569 0 
L 569 641 
L 1209 641 
L 1209 0 
Q 1209 -353 1084 -570 
Q 959 -788 688 -906 
L 531 -666 
Q 709 -588 793 -436 
Q 878 -284 888 0 
L 569 0 
z
" transform="scale(0.015625)"/>
     <path id="ArialMT-54" d="M 1659 0 
L 1659 4041 
L 150 4041 
L 150 4581 
L 3781 4581 
L 3781 4041 
L 2266 4041 
L 2266 0 
L 1659 0 
z
" transform="scale(0.015625)"/>
     <path id="ArialMT-70" d="M 422 -1272 
L 422 3319 
L 934 3319 
L 934 2888 
Q 1116 3141 1344 3267 
Q 1572 3394 1897 3394 
Q 2322 3394 2647 3175 
Q 2972 2956 3137 2557 
Q 3303 2159 3303 1684 
Q 3303 1175 3120 767 
Q 2938 359 2589 142 
Q 2241 -75 1856 -75 
Q 1575 -75 1351 44 
Q 1128 163 984 344 
L 984 -1272 
L 422 -1272 
z
M 931 1641 
Q 931 1000 1190 694 
Q 1450 388 1819 388 
Q 2194 388 2461 705 
Q 2728 1022 2728 1688 
Q 2728 2322 2467 2637 
Q 2206 2953 1844 2953 
Q 1484 2953 1207 2617 
Q 931 2281 931 1641 
z
" transform="scale(0.015625)"/>
     <path id="ArialMT-6c" d="M 409 0 
L 409 4581 
L 972 4581 
L 972 0 
L 409 0 
z
" transform="scale(0.015625)"/>
     <path id="ArialMT-61" d="M 2588 409 
Q 2275 144 1986 34 
Q 1697 -75 1366 -75 
Q 819 -75 525 192 
Q 231 459 231 875 
Q 231 1119 342 1320 
Q 453 1522 633 1644 
Q 813 1766 1038 1828 
Q 1203 1872 1538 1913 
Q 2219 1994 2541 2106 
Q 2544 2222 2544 2253 
Q 2544 2597 2384 2738 
Q 2169 2928 1744 2928 
Q 1347 2928 1158 2789 
Q 969 2650 878 2297 
L 328 2372 
Q 403 2725 575 2942 
Q 747 3159 1072 3276 
Q 1397 3394 1825 3394 
Q 2250 3394 2515 3294 
Q 2781 3194 2906 3042 
Q 3031 2891 3081 2659 
Q 3109 2516 3109 2141 
L 3109 1391 
Q 3109 606 3145 398 
Q 3181 191 3288 0 
L 2700 0 
Q 2613 175 2588 409 
z
M 2541 1666 
Q 2234 1541 1622 1453 
Q 1275 1403 1131 1340 
Q 988 1278 909 1158 
Q 831 1038 831 891 
Q 831 666 1001 516 
Q 1172 366 1500 366 
Q 1825 366 2078 508 
Q 2331 650 2450 897 
Q 2541 1088 2541 1459 
L 2541 1666 
z
" transform="scale(0.015625)"/>
     <path id="ArialMT-73" d="M 197 991 
L 753 1078 
Q 800 744 1014 566 
Q 1228 388 1613 388 
Q 2000 388 2187 545 
Q 2375 703 2375 916 
Q 2375 1106 2209 1216 
Q 2094 1291 1634 1406 
Q 1016 1563 777 1677 
Q 538 1791 414 1992 
Q 291 2194 291 2438 
Q 291 2659 392 2848 
Q 494 3038 669 3163 
Q 800 3259 1026 3326 
Q 1253 3394 1513 3394 
Q 1903 3394 2198 3281 
Q 2494 3169 2634 2976 
Q 2775 2784 2828 2463 
L 2278 2388 
Q 2241 2644 2061 2787 
Q 1881 2931 1553 2931 
Q 1166 2931 1000 2803 
Q 834 2675 834 2503 
Q 834 2394 903 2306 
Q 972 2216 1119 2156 
Q 1203 2125 1616 2013 
Q 2213 1853 2448 1751 
Q 2684 1650 2818 1456 
Q 2953 1263 2953 975 
Q 2953 694 2789 445 
Q 2625 197 2315 61 
Q 2006 -75 1616 -75 
Q 969 -75 630 194 
Q 291 463 197 991 
z
" transform="scale(0.015625)"/>
     <path id="ArialMT-74" d="M 1650 503 
L 1731 6 
Q 1494 -44 1306 -44 
Q 1000 -44 831 53 
Q 663 150 594 308 
Q 525 466 525 972 
L 525 2881 
L 113 2881 
L 113 3319 
L 525 3319 
L 525 4141 
L 1084 4478 
L 1084 3319 
L 1650 3319 
L 1650 2881 
L 1084 2881 
L 1084 941 
Q 1084 700 1114 631 
Q 1144 563 1211 522 
Q 1278 481 1403 481 
Q 1497 481 1650 503 
z
" transform="scale(0.015625)"/>
     <path id="ArialMT-76" d="M 1344 0 
L 81 3319 
L 675 3319 
L 1388 1331 
Q 1503 1009 1600 663 
Q 1675 925 1809 1294 
L 2547 3319 
L 3125 3319 
L 1869 0 
L 1344 0 
z
" transform="scale(0.015625)"/>
    </defs>
    <use xlink:href="#ArialMT-64"/>
    <use xlink:href="#ArialMT-42" x="55.615234"/>
    <use xlink:href="#ArialMT-28" x="122.314453"/>
    <use xlink:href="#ArialMT-65" x="155.615234"/>
    <use xlink:href="#ArialMT-72" x="211.230469"/>
    <use xlink:href="#ArialMT-72" x="244.53125"/>
    <use xlink:href="#ArialMT-29" x="277.832031"/>
    <use xlink:href="#ArialMT-20" x="311.132812"/>
    <use xlink:href="#ArialMT-66" x="338.916016"/>
    <use xlink:href="#ArialMT-6f" x="366.699219"/>
    <use xlink:href="#ArialMT-72" x="422.314453"/>
    <use xlink:href="#ArialMT-20" x="455.615234"/>
    <use xlink:href="#ArialMT-50" x="483.398438"/>
    <use xlink:href="#ArialMT-45" x="550.097656"/>
    <use xlink:href="#ArialMT-43" x="616.796875"/>
    <use xlink:href="#ArialMT-20" x="689.013672"/>
    <use xlink:href="#ArialMT-67" x="716.796875"/>
    <use xlink:href="#ArialMT-72" x="772.412109"/>
    <use xlink:href="#ArialMT-6f" x="805.712891"/>
    <use xlink:href="#ArialMT-75" x="861.328125"/>
    <use xlink:href="#ArialMT-6e" x="916.943359"/>
    <use xlink:href="#ArialMT-64" x="972.558594"/>
    <use xlink:href="#ArialMT-2c" x="1028.173828"/>
    <use xlink:href="#ArialMT-20" x="1055.957031"/>
    <use xlink:href="#ArialMT-54" x="1081.990234"/>
    <use xlink:href="#ArialMT-4d" x="1143.074219"/>
    <use xlink:href="#ArialMT-20" x="1226.375"/>
    <use xlink:href="#ArialMT-70" x="1254.158203"/>
    <use xlink:href="#ArialMT-6f" x="1309.773438"/>
    <use xlink:href="#ArialMT-6c" x="1365.388672"/>
    <use xlink:href="#ArialMT-61" x="1387.605469"/>
    <use xlink:href="#ArialMT-72" x="1443.220703"/>
    <use xlink:href="#ArialMT-69" x="1476.521484"/>
    <use xlink:href="#ArialMT-73" x="1498.738281"/>
    <use xlink:href="#ArialMT-61" x="1548.738281"/>
    <use xlink:href="#ArialMT-74" x="1604.353516"/>
    <use xlink:href="#ArialMT-69" x="1632.136719"/>
    <use xlink:href="#ArialMT-6f" x="1654.353516"/>
    <use xlink:href="#ArialMT-6e" x="1709.96875"/>
    <use xlink:href="#ArialMT-2c" x="1765.583984"/>
    <use xlink:href="#ArialMT-20" x="1793.367188"/>
    <use xlink:href="#ArialMT-31" x="1821.150391"/>
    <use xlink:href="#ArialMT-20" x="1876.765625"/>
    <use xlink:href="#ArialMT-61" x="1904.548828"/>
    <use xlink:href="#ArialMT-76" x="1960.164062"/>
    <use xlink:href="#ArialMT-65" x="2010.164062"/>
    <use xlink:href="#ArialMT-72" x="2065.779297"/>
    <use xlink:href="#ArialMT-61" x="2099.080078"/>
    <use xlink:href="#ArialMT-67" x="2154.695312"/>
    <use xlink:href="#ArialMT-69" x="2210.310547"/>
    <use xlink:href="#ArialMT-6e" x="2232.527344"/>
    <use xlink:href="#ArialMT-67" x="2288.142578"/>
    <use xlink:href="#ArialMT-20" x="2343.757812"/>
    <use xlink:href="#ArialMT-70" x="2371.541016"/>
    <use xlink:href="#ArialMT-6f" x="2427.15625"/>
    <use xlink:href="#ArialMT-69" x="2482.771484"/>
    <use xlink:href="#ArialMT-6e" x="2504.988281"/>
    <use xlink:href="#ArialMT-74" x="2560.603516"/>
   </g>
  </g>
  <g id="legend_1">
   <g id="text_52">
    <!-- Si -->
    <g style="fill: #262626" transform="translate(1456.533984 167.542344) scale(0.12 -0.12)">
     <use xlink:href="#ArialMT-53"/>
     <use xlink:href="#ArialMT-69" x="66.699219"/>
    </g>
   </g>
   <g id="line2d_108">
    <path d="M 1438.828594 179.450938 
L 1449.828594 179.450938 
L 1460.828594 179.450938 
" style="fill: none; stroke: #4c72b0; stroke-width: 0.7; stroke-linecap: round"/>
   </g>
   <g id="text_53">
    <!-- SE -->
    <g style="fill: #262626" transform="translate(1469.628594 183.300938) scale(0.11 -0.11)">
     <use xlink:href="#ArialMT-53"/>
     <use xlink:href="#ArialMT-45" x="66.699219"/>
    </g>
   </g>
   <g id="line2d_109">
    <path d="M 1438.828594 195.010781 
L 1449.828594 195.010781 
L 1460.828594 195.010781 
" style="fill: none; stroke: #dd8452; stroke-width: 0.7; stroke-linecap: round"/>
   </g>
   <g id="text_54">
    <!-- SH -->
    <g style="fill: #262626" transform="translate(1469.628594 198.860781) scale(0.11 -0.11)">
     <use xlink:href="#ArialMT-53"/>
     <use xlink:href="#ArialMT-48" x="66.699219"/>
    </g>
   </g>
  </g>
 </g>
 <defs>
  <clipPath id="p5cbbe21e89">
   <rect x="49.77" y="79.2" width="249.952762" height="233.46"/>
  </clipPath>
  <clipPath id="pbed5435463">
   <rect x="312.682762" y="79.2" width="249.952762" height="233.46"/>
  </clipPath>
  <clipPath id="p499bdef941">
   <rect x="575.595524" y="79.2" width="249.952762" height="233.46"/>
  </clipPath>
  <clipPath id="p50475ab9e3">
   <rect x="838.508285" y="79.2" width="249.952762" height="233.46"/>
  </clipPath>
  <clipPath id="p37a33ef03e">
   <rect x="1101.421047" y="79.2" width="249.952762" height="233.46"/>
  </clipPath>
 </defs>
</svg>
