<?xml version="1.0" encoding="utf-8" standalone="no"?>
<!DOCTYPE svg PUBLIC "-//W3C//DTD SVG 1.1//EN"
  "http://www.w3.org/Graphics/SVG/1.1/DTD/svg11.dtd">
<svg xmlns:xlink="http://www.w3.org/1999/xlink" width="1494.81pt" height="360pt" viewBox="0 0 1494.81 360" xmlns="http://www.w3.org/2000/svg" version="1.1">
 <metadata>
  <rdf:RDF xmlns:dc="http://purl.org/dc/elements/1.1/" xmlns:cc="http://creativecommons.org/ns#" xmlns:rdf="http://www.w3.org/1999/02/22-rdf-syntax-ns#">
   <cc:Work>
    <dc:type rdf:resource="http://purl.org/dc/dcmitype/StillImage"/>
    <dc:date>2023-12-21T15:37:19.889781</dc:date>
    <dc:format>image/svg+xml</dc:format>
    <dc:creator>
     <cc:Agent>
      <dc:title>Matplotlib v3.8.1, https://matplotlib.org/</dc:title>
     </cc:Agent>
    </dc:creator>
   </cc:Work>
  </rdf:RDF>
 </metadata>
 <defs>
  <style type="text/css">*{stroke-linejoin: round; stroke-linecap: butt}</style>
 </defs>
 <g id="figure_1">
  <g id="patch_1">
   <path d="M 0 360 
L 1494.81 360 
L 1494.81 0 
L 0 0 
z
" style="fill: #ffffff"/>
  </g>
  <g id="axes_1">
   <g id="patch_2">
    <path d="M 49.5 312.66 
L 299.498932 312.66 
L 299.498932 79.2 
L 49.5 79.2 
z
" style="fill: #eaeaf2"/>
   </g>
   <g id="matplotlib.axis_1">
    <g id="xtick_1">
     <g id="line2d_1">
      <path d="M 49.5 312.66 
L 49.5 79.2 
" clip-path="url(#p8efc26f795)" style="fill: none; stroke: #ffffff; stroke-linecap: round"/>
     </g>
     <g id="text_1">
      <!-- 0 -->
      <g style="fill: #262626" transform="translate(46.441484 330.033594) scale(0.11 -0.11)">
       <defs>
        <path id="ArialMT-30" d="M 266 2259 
Q 266 3072 433 3567 
Q 600 4063 929 4331 
Q 1259 4600 1759 4600 
Q 2128 4600 2406 4451 
Q 2684 4303 2865 4023 
Q 3047 3744 3150 3342 
Q 3253 2941 3253 2259 
Q 3253 1453 3087 958 
Q 2922 463 2592 192 
Q 2263 -78 1759 -78 
Q 1097 -78 719 397 
Q 266 969 266 2259 
z
M 844 2259 
Q 844 1131 1108 757 
Q 1372 384 1759 384 
Q 2147 384 2411 759 
Q 2675 1134 2675 2259 
Q 2675 3391 2411 3762 
Q 2147 4134 1753 4134 
Q 1366 4134 1134 3806 
Q 844 3388 844 2259 
z
" transform="scale(0.015625)"/>
       </defs>
       <use xlink:href="#ArialMT-30"/>
      </g>
     </g>
    </g>
    <g id="xtick_2">
     <g id="line2d_2">
      <path d="M 105.055318 312.66 
L 105.055318 79.2 
" clip-path="url(#p8efc26f795)" style="fill: none; stroke: #ffffff; stroke-linecap: round"/>
     </g>
     <g id="text_2">
      <!-- 20 -->
      <g style="fill: #262626" transform="translate(98.938287 330.033594) scale(0.11 -0.11)">
       <defs>
        <path id="ArialMT-32" d="M 3222 541 
L 3222 0 
L 194 0 
Q 188 203 259 391 
Q 375 700 629 1000 
Q 884 1300 1366 1694 
Q 2113 2306 2375 2664 
Q 2638 3022 2638 3341 
Q 2638 3675 2398 3904 
Q 2159 4134 1775 4134 
Q 1369 4134 1125 3890 
Q 881 3647 878 3216 
L 300 3275 
Q 359 3922 746 4261 
Q 1134 4600 1788 4600 
Q 2447 4600 2831 4234 
Q 3216 3869 3216 3328 
Q 3216 3053 3103 2787 
Q 2991 2522 2730 2228 
Q 2469 1934 1863 1422 
Q 1356 997 1212 845 
Q 1069 694 975 541 
L 3222 541 
z
" transform="scale(0.015625)"/>
       </defs>
       <use xlink:href="#ArialMT-32"/>
       <use xlink:href="#ArialMT-30" x="55.615234"/>
      </g>
     </g>
    </g>
    <g id="xtick_3">
     <g id="line2d_3">
      <path d="M 160.610636 312.66 
L 160.610636 79.2 
" clip-path="url(#p8efc26f795)" style="fill: none; stroke: #ffffff; stroke-linecap: round"/>
     </g>
     <g id="text_3">
      <!-- 40 -->
      <g style="fill: #262626" transform="translate(154.493605 330.033594) scale(0.11 -0.11)">
       <defs>
        <path id="ArialMT-34" d="M 2069 0 
L 2069 1097 
L 81 1097 
L 81 1613 
L 2172 4581 
L 2631 4581 
L 2631 1613 
L 3250 1613 
L 3250 1097 
L 2631 1097 
L 2631 0 
L 2069 0 
z
M 2069 1613 
L 2069 3678 
L 634 1613 
L 2069 1613 
z
" transform="scale(0.015625)"/>
       </defs>
       <use xlink:href="#ArialMT-34"/>
       <use xlink:href="#ArialMT-30" x="55.615234"/>
      </g>
     </g>
    </g>
    <g id="xtick_4">
     <g id="line2d_4">
      <path d="M 216.165955 312.66 
L 216.165955 79.2 
" clip-path="url(#p8efc26f795)" style="fill: none; stroke: #ffffff; stroke-linecap: round"/>
     </g>
     <g id="text_4">
      <!-- 60 -->
      <g style="fill: #262626" transform="translate(210.048923 330.033594) scale(0.11 -0.11)">
       <defs>
        <path id="ArialMT-36" d="M 3184 3459 
L 2625 3416 
Q 2550 3747 2413 3897 
Q 2184 4138 1850 4138 
Q 1581 4138 1378 3988 
Q 1113 3794 959 3422 
Q 806 3050 800 2363 
Q 1003 2672 1297 2822 
Q 1591 2972 1913 2972 
Q 2475 2972 2870 2558 
Q 3266 2144 3266 1488 
Q 3266 1056 3080 686 
Q 2894 316 2569 119 
Q 2244 -78 1831 -78 
Q 1128 -78 684 439 
Q 241 956 241 2144 
Q 241 3472 731 4075 
Q 1159 4600 1884 4600 
Q 2425 4600 2770 4297 
Q 3116 3994 3184 3459 
z
M 888 1484 
Q 888 1194 1011 928 
Q 1134 663 1356 523 
Q 1578 384 1822 384 
Q 2178 384 2434 671 
Q 2691 959 2691 1453 
Q 2691 1928 2437 2201 
Q 2184 2475 1800 2475 
Q 1419 2475 1153 2201 
Q 888 1928 888 1484 
z
" transform="scale(0.015625)"/>
       </defs>
       <use xlink:href="#ArialMT-36"/>
       <use xlink:href="#ArialMT-30" x="55.615234"/>
      </g>
     </g>
    </g>
    <g id="xtick_5">
     <g id="line2d_5">
      <path d="M 271.721273 312.66 
L 271.721273 79.2 
" clip-path="url(#p8efc26f795)" style="fill: none; stroke: #ffffff; stroke-linecap: round"/>
     </g>
     <g id="text_5">
      <!-- 80 -->
      <g style="fill: #262626" transform="translate(265.604242 330.033594) scale(0.11 -0.11)">
       <defs>
        <path id="ArialMT-38" d="M 1131 2484 
Q 781 2613 612 2850 
Q 444 3088 444 3419 
Q 444 3919 803 4259 
Q 1163 4600 1759 4600 
Q 2359 4600 2725 4251 
Q 3091 3903 3091 3403 
Q 3091 3084 2923 2848 
Q 2756 2613 2416 2484 
Q 2838 2347 3058 2040 
Q 3278 1734 3278 1309 
Q 3278 722 2862 322 
Q 2447 -78 1769 -78 
Q 1091 -78 675 323 
Q 259 725 259 1325 
Q 259 1772 486 2073 
Q 713 2375 1131 2484 
z
M 1019 3438 
Q 1019 3113 1228 2906 
Q 1438 2700 1772 2700 
Q 2097 2700 2305 2904 
Q 2513 3109 2513 3406 
Q 2513 3716 2298 3927 
Q 2084 4138 1766 4138 
Q 1444 4138 1231 3931 
Q 1019 3725 1019 3438 
z
M 838 1322 
Q 838 1081 952 856 
Q 1066 631 1291 507 
Q 1516 384 1775 384 
Q 2178 384 2440 643 
Q 2703 903 2703 1303 
Q 2703 1709 2433 1975 
Q 2163 2241 1756 2241 
Q 1359 2241 1098 1978 
Q 838 1716 838 1322 
z
" transform="scale(0.015625)"/>
       </defs>
       <use xlink:href="#ArialMT-38"/>
       <use xlink:href="#ArialMT-30" x="55.615234"/>
      </g>
     </g>
    </g>
    <g id="text_6">
     <!-- $\theta$° -->
     <g style="fill: #262626" transform="translate(168.379466 344.809219) scale(0.12 -0.12)">
      <defs>
       <path id="DejaVuSans-Oblique-3b8" d="M 2913 2219 
L 925 2219 
Q 791 1284 928 888 
Q 1100 400 1566 400 
Q 2034 400 2391 891 
Q 2703 1322 2913 2219 
z
M 3009 2750 
Q 3094 3638 2984 3950 
Q 2813 4444 2353 4444 
Q 1875 4444 1525 3956 
Q 1250 3563 1034 2750 
L 3009 2750 
z
M 2444 4913 
Q 3194 4913 3494 4250 
Q 3794 3591 3566 2422 
Q 3341 1256 2781 594 
Q 2225 -72 1475 -72 
Q 722 -72 425 594 
Q 128 1256 353 2422 
Q 581 3591 1134 4250 
Q 1691 4913 2444 4913 
z
" transform="scale(0.015625)"/>
       <path id="ArialMT-b0" d="M 400 3794 
Q 400 4153 654 4406 
Q 909 4659 1266 4659 
Q 1628 4659 1881 4406 
Q 2134 4153 2134 3794 
Q 2134 3434 1879 3179 
Q 1625 2925 1266 2925 
Q 909 2925 654 3178 
Q 400 3431 400 3794 
z
M 741 3794 
Q 741 3575 895 3420 
Q 1050 3266 1269 3266 
Q 1484 3266 1639 3420 
Q 1794 3575 1794 3794 
Q 1794 4013 1639 4167 
Q 1484 4322 1269 4322 
Q 1050 4322 895 4167 
Q 741 4013 741 3794 
z
" transform="scale(0.015625)"/>
      </defs>
      <use xlink:href="#DejaVuSans-Oblique-3b8" transform="translate(0 0.234375)"/>
      <use xlink:href="#ArialMT-b0" transform="translate(61.181641 0.234375)"/>
     </g>
    </g>
   </g>
   <g id="matplotlib.axis_2">
    <g id="ytick_1">
     <g id="line2d_6">
      <path d="M 49.5 312.66 
L 299.498932 312.66 
" clip-path="url(#p8efc26f795)" style="fill: none; stroke: #ffffff; stroke-linecap: round"/>
     </g>
     <g id="text_7">
      <!-- −4 -->
      <g style="fill: #262626" transform="translate(27.458281 316.596797) scale(0.11 -0.11)">
       <defs>
        <path id="ArialMT-2212" d="M 3381 1997 
L 356 1997 
L 356 2522 
L 3381 2522 
L 3381 1997 
z
" transform="scale(0.015625)"/>
       </defs>
       <use xlink:href="#ArialMT-2212"/>
       <use xlink:href="#ArialMT-34" x="58.398438"/>
      </g>
     </g>
    </g>
    <g id="ytick_2">
     <g id="line2d_7">
      <path d="M 49.5 283.4775 
L 299.498932 283.4775 
" clip-path="url(#p8efc26f795)" style="fill: none; stroke: #ffffff; stroke-linecap: round"/>
     </g>
     <g id="text_8">
      <!-- −3 -->
      <g style="fill: #262626" transform="translate(27.458281 287.414297) scale(0.11 -0.11)">
       <defs>
        <path id="ArialMT-33" d="M 269 1209 
L 831 1284 
Q 928 806 1161 595 
Q 1394 384 1728 384 
Q 2125 384 2398 659 
Q 2672 934 2672 1341 
Q 2672 1728 2419 1979 
Q 2166 2231 1775 2231 
Q 1616 2231 1378 2169 
L 1441 2663 
Q 1497 2656 1531 2656 
Q 1891 2656 2178 2843 
Q 2466 3031 2466 3422 
Q 2466 3731 2256 3934 
Q 2047 4138 1716 4138 
Q 1388 4138 1169 3931 
Q 950 3725 888 3313 
L 325 3413 
Q 428 3978 793 4289 
Q 1159 4600 1703 4600 
Q 2078 4600 2393 4439 
Q 2709 4278 2876 4000 
Q 3044 3722 3044 3409 
Q 3044 3113 2884 2869 
Q 2725 2625 2413 2481 
Q 2819 2388 3044 2092 
Q 3269 1797 3269 1353 
Q 3269 753 2831 336 
Q 2394 -81 1725 -81 
Q 1122 -81 723 278 
Q 325 638 269 1209 
z
" transform="scale(0.015625)"/>
       </defs>
       <use xlink:href="#ArialMT-2212"/>
       <use xlink:href="#ArialMT-33" x="58.398438"/>
      </g>
     </g>
    </g>
    <g id="ytick_3">
     <g id="line2d_8">
      <path d="M 49.5 254.295 
L 299.498932 254.295 
" clip-path="url(#p8efc26f795)" style="fill: none; stroke: #ffffff; stroke-linecap: round"/>
     </g>
     <g id="text_9">
      <!-- −2 -->
      <g style="fill: #262626" transform="translate(27.458281 258.231797) scale(0.11 -0.11)">
       <use xlink:href="#ArialMT-2212"/>
       <use xlink:href="#ArialMT-32" x="58.398438"/>
      </g>
     </g>
    </g>
    <g id="ytick_4">
     <g id="line2d_9">
      <path d="M 49.5 225.1125 
L 299.498932 225.1125 
" clip-path="url(#p8efc26f795)" style="fill: none; stroke: #ffffff; stroke-linecap: round"/>
     </g>
     <g id="text_10">
      <!-- −1 -->
      <g style="fill: #262626" transform="translate(27.458281 229.049297) scale(0.11 -0.11)">
       <defs>
        <path id="ArialMT-31" d="M 2384 0 
L 1822 0 
L 1822 3584 
Q 1619 3391 1289 3197 
Q 959 3003 697 2906 
L 697 3450 
Q 1169 3672 1522 3987 
Q 1875 4303 2022 4600 
L 2384 4600 
L 2384 0 
z
" transform="scale(0.015625)"/>
       </defs>
       <use xlink:href="#ArialMT-2212"/>
       <use xlink:href="#ArialMT-31" x="58.398438"/>
      </g>
     </g>
    </g>
    <g id="ytick_5">
     <g id="line2d_10">
      <path d="M 49.5 195.93 
L 299.498932 195.93 
" clip-path="url(#p8efc26f795)" style="fill: none; stroke: #ffffff; stroke-linecap: round"/>
     </g>
     <g id="text_11">
      <!-- 0 -->
      <g style="fill: #262626" transform="translate(33.882969 199.866797) scale(0.11 -0.11)">
       <use xlink:href="#ArialMT-30"/>
      </g>
     </g>
    </g>
    <g id="ytick_6">
     <g id="line2d_11">
      <path d="M 49.5 166.7475 
L 299.498932 166.7475 
" clip-path="url(#p8efc26f795)" style="fill: none; stroke: #ffffff; stroke-linecap: round"/>
     </g>
     <g id="text_12">
      <!-- 1 -->
      <g style="fill: #262626" transform="translate(33.882969 170.684297) scale(0.11 -0.11)">
       <use xlink:href="#ArialMT-31"/>
      </g>
     </g>
    </g>
    <g id="ytick_7">
     <g id="line2d_12">
      <path d="M 49.5 137.565 
L 299.498932 137.565 
" clip-path="url(#p8efc26f795)" style="fill: none; stroke: #ffffff; stroke-linecap: round"/>
     </g>
     <g id="text_13">
      <!-- 2 -->
      <g style="fill: #262626" transform="translate(33.882969 141.501797) scale(0.11 -0.11)">
       <use xlink:href="#ArialMT-32"/>
      </g>
     </g>
    </g>
    <g id="ytick_8">
     <g id="line2d_13">
      <path d="M 49.5 108.3825 
L 299.498932 108.3825 
" clip-path="url(#p8efc26f795)" style="fill: none; stroke: #ffffff; stroke-linecap: round"/>
     </g>
     <g id="text_14">
      <!-- 3 -->
      <g style="fill: #262626" transform="translate(33.882969 112.319297) scale(0.11 -0.11)">
       <use xlink:href="#ArialMT-33"/>
      </g>
     </g>
    </g>
    <g id="ytick_9">
     <g id="line2d_14">
      <path d="M 49.5 79.2 
L 299.498932 79.2 
" clip-path="url(#p8efc26f795)" style="fill: none; stroke: #ffffff; stroke-linecap: round"/>
     </g>
     <g id="text_15">
      <!-- 4 -->
      <g style="fill: #262626" transform="translate(33.882969 83.136797) scale(0.11 -0.11)">
       <use xlink:href="#ArialMT-34"/>
      </g>
     </g>
    </g>
    <g id="text_16">
     <!-- dB(err) -->
     <g style="fill: #262626" transform="translate(20.932656 214.596563) rotate(-90) scale(0.12 -0.12)">
      <defs>
       <path id="ArialMT-64" d="M 2575 0 
L 2575 419 
Q 2259 -75 1647 -75 
Q 1250 -75 917 144 
Q 584 363 401 755 
Q 219 1147 219 1656 
Q 219 2153 384 2558 
Q 550 2963 881 3178 
Q 1213 3394 1622 3394 
Q 1922 3394 2156 3267 
Q 2391 3141 2538 2938 
L 2538 4581 
L 3097 4581 
L 3097 0 
L 2575 0 
z
M 797 1656 
Q 797 1019 1065 703 
Q 1334 388 1700 388 
Q 2069 388 2326 689 
Q 2584 991 2584 1609 
Q 2584 2291 2321 2609 
Q 2059 2928 1675 2928 
Q 1300 2928 1048 2622 
Q 797 2316 797 1656 
z
" transform="scale(0.015625)"/>
       <path id="ArialMT-42" d="M 469 0 
L 469 4581 
L 2188 4581 
Q 2713 4581 3030 4442 
Q 3347 4303 3526 4014 
Q 3706 3725 3706 3409 
Q 3706 3116 3547 2856 
Q 3388 2597 3066 2438 
Q 3481 2316 3704 2022 
Q 3928 1728 3928 1328 
Q 3928 1006 3792 729 
Q 3656 453 3456 303 
Q 3256 153 2954 76 
Q 2653 0 2216 0 
L 469 0 
z
M 1075 2656 
L 2066 2656 
Q 2469 2656 2644 2709 
Q 2875 2778 2992 2937 
Q 3109 3097 3109 3338 
Q 3109 3566 3000 3739 
Q 2891 3913 2687 3977 
Q 2484 4041 1991 4041 
L 1075 4041 
L 1075 2656 
z
M 1075 541 
L 2216 541 
Q 2509 541 2628 563 
Q 2838 600 2978 687 
Q 3119 775 3209 942 
Q 3300 1109 3300 1328 
Q 3300 1584 3169 1773 
Q 3038 1963 2805 2039 
Q 2572 2116 2134 2116 
L 1075 2116 
L 1075 541 
z
" transform="scale(0.015625)"/>
       <path id="ArialMT-28" d="M 1497 -1347 
Q 1031 -759 709 28 
Q 388 816 388 1659 
Q 388 2403 628 3084 
Q 909 3875 1497 4659 
L 1900 4659 
Q 1522 4009 1400 3731 
Q 1209 3300 1100 2831 
Q 966 2247 966 1656 
Q 966 153 1900 -1347 
L 1497 -1347 
z
" transform="scale(0.015625)"/>
       <path id="ArialMT-65" d="M 2694 1069 
L 3275 997 
Q 3138 488 2766 206 
Q 2394 -75 1816 -75 
Q 1088 -75 661 373 
Q 234 822 234 1631 
Q 234 2469 665 2931 
Q 1097 3394 1784 3394 
Q 2450 3394 2872 2941 
Q 3294 2488 3294 1666 
Q 3294 1616 3291 1516 
L 816 1516 
Q 847 969 1125 678 
Q 1403 388 1819 388 
Q 2128 388 2347 550 
Q 2566 713 2694 1069 
z
M 847 1978 
L 2700 1978 
Q 2663 2397 2488 2606 
Q 2219 2931 1791 2931 
Q 1403 2931 1139 2672 
Q 875 2413 847 1978 
z
" transform="scale(0.015625)"/>
       <path id="ArialMT-72" d="M 416 0 
L 416 3319 
L 922 3319 
L 922 2816 
Q 1116 3169 1280 3281 
Q 1444 3394 1641 3394 
Q 1925 3394 2219 3213 
L 2025 2691 
Q 1819 2813 1613 2813 
Q 1428 2813 1281 2702 
Q 1134 2591 1072 2394 
Q 978 2094 978 1738 
L 978 0 
L 416 0 
z
" transform="scale(0.015625)"/>
       <path id="ArialMT-29" d="M 791 -1347 
L 388 -1347 
Q 1322 153 1322 1656 
Q 1322 2244 1188 2822 
Q 1081 3291 891 3722 
Q 769 4003 388 4659 
L 791 4659 
Q 1378 3875 1659 3084 
Q 1900 2403 1900 1659 
Q 1900 816 1576 28 
Q 1253 -759 791 -1347 
z
" transform="scale(0.015625)"/>
      </defs>
      <use xlink:href="#ArialMT-64"/>
      <use xlink:href="#ArialMT-42" x="55.615234"/>
      <use xlink:href="#ArialMT-28" x="122.314453"/>
      <use xlink:href="#ArialMT-65" x="155.615234"/>
      <use xlink:href="#ArialMT-72" x="211.230469"/>
      <use xlink:href="#ArialMT-72" x="244.53125"/>
      <use xlink:href="#ArialMT-29" x="277.832031"/>
     </g>
    </g>
   </g>
   <g id="PolyCollection_1"/>
   <g id="PolyCollection_2"/>
   <g id="line2d_15">
    <path d="M 49.5 264.918914 
L 52.277766 264.921989 
L 55.055532 264.931191 
L 57.833298 264.946454 
L 60.611064 264.967665 
L 63.38883 264.994668 
L 66.166595 265.02726 
L 68.944361 265.065192 
L 71.722127 265.108171 
L 74.499893 265.155855 
L 77.277659 265.207855 
L 80.055425 265.263732 
L 82.833191 265.322999 
L 85.610957 265.38512 
L 88.388723 265.449504 
L 91.166489 265.51551 
L 93.944255 265.582441 
L 96.722021 265.649545 
L 99.499786 265.716015 
L 102.277552 265.780981 
L 105.055318 265.843516 
L 107.833084 265.902628 
L 110.61085 265.957261 
L 113.388616 266.006292 
L 116.166382 266.048528 
L 118.944148 266.082704 
L 121.721914 266.107479 
L 124.49968 266.121436 
L 127.277446 266.123072 
L 130.055211 266.110803 
L 132.832977 266.082952 
L 135.610743 266.03775 
L 138.388509 265.973329 
L 141.166275 265.887716 
L 143.944041 265.77883 
L 146.721807 265.644471 
L 149.499573 265.482318 
L 152.277339 265.289918 
L 155.055105 265.06468 
L 157.832871 264.80386 
L 160.610636 264.504557 
L 163.388402 264.163698 
L 166.166168 263.778023 
L 168.943934 263.344075 
L 171.7217 262.858178 
L 174.499466 262.31642 
L 177.277232 261.714635 
L 180.054998 261.048374 
L 182.832764 260.312881 
L 185.61053 259.503064 
L 188.388296 258.613455 
L 191.166062 257.638174 
L 193.943827 256.570885 
L 196.721593 255.404739 
L 199.499359 254.132319 
L 202.277125 252.745568 
L 205.054891 251.235712 
L 207.832657 249.593164 
L 210.610423 247.807419 
L 213.388189 245.866929 
L 216.165955 243.75895 
L 218.943721 241.469374 
L 221.721487 238.982517 
L 224.499252 236.280874 
L 227.277018 233.344827 
L 230.054784 230.152282 
L 232.83255 226.678246 
L 235.610316 222.894293 
L 238.388082 218.767919 
L 241.165848 214.261735 
L 243.943614 209.332461 
L 246.72138 203.92965 
L 249.499146 197.994062 
L 252.276912 192.075373 
L 255.054678 185.956933 
L 257.832443 178.98871 
L 260.610209 171.046292 
L 263.387975 161.976242 
L 266.165741 151.5865 
L 268.943507 139.632544 
L 271.721273 125.796881 
L 274.499039 109.657602 
L 277.276805 90.63823 
L 280.054571 67.923734 
L 282.832337 40.311122 
L 285.610103 5.922219 
L 286.043847 -1 
" clip-path="url(#p8efc26f795)" style="fill: none; stroke: #4c72b0; stroke-width: 0.7; stroke-linecap: round"/>
   </g>
   <g id="line2d_16">
    <path d="M 49.5 264.918914 
L 52.277766 264.921989 
L 55.055532 264.931191 
L 57.833298 264.946454 
L 60.611064 264.967665 
L 63.38883 264.994668 
L 66.166595 265.02726 
L 68.944361 265.065192 
L 71.722127 265.108171 
L 74.499893 265.155855 
L 77.277659 265.207855 
L 80.055425 265.263732 
L 82.833191 265.322999 
L 85.610957 265.38512 
L 88.388723 265.449504 
L 91.166489 265.51551 
L 93.944255 265.582441 
L 96.722021 265.649545 
L 99.499786 265.716015 
L 102.277552 265.780981 
L 105.055318 265.843516 
L 107.833084 265.902628 
L 110.61085 265.957261 
L 113.388616 266.006292 
L 116.166382 266.048528 
L 118.944148 266.082704 
L 121.721914 266.107479 
L 124.49968 266.121436 
L 127.277446 266.123072 
L 130.055211 266.110803 
L 132.832977 266.082952 
L 135.610743 266.03775 
L 138.388509 265.973329 
L 141.166275 265.887716 
L 143.944041 265.77883 
L 146.721807 265.644471 
L 149.499573 265.482318 
L 152.277339 265.289918 
L 155.055105 265.06468 
L 157.832871 264.80386 
L 160.610636 264.504557 
L 163.388402 264.163698 
L 166.166168 263.778023 
L 168.943934 263.344075 
L 171.7217 262.858178 
L 174.499466 262.31642 
L 177.277232 261.714635 
L 180.054998 261.048374 
L 182.832764 260.312881 
L 185.61053 259.503064 
L 188.388296 258.613455 
L 191.166062 257.638174 
L 193.943827 256.570885 
L 196.721593 255.404739 
L 199.499359 254.132319 
L 202.277125 252.745568 
L 205.054891 251.235712 
L 207.832657 249.593164 
L 210.610423 247.807419 
L 213.388189 245.866929 
L 216.165955 243.75895 
L 218.943721 241.469374 
L 221.721487 238.982517 
L 224.499252 236.280874 
L 227.277018 233.344827 
L 230.054784 230.152282 
L 232.83255 226.678246 
L 235.610316 222.894293 
L 238.388082 218.767919 
L 241.165848 214.261735 
L 243.943614 209.332461 
L 246.72138 203.92965 
L 249.499146 197.994062 
L 252.276912 192.075373 
L 255.054678 185.956933 
L 257.832443 178.98871 
L 260.610209 171.046292 
L 263.387975 161.976242 
L 266.165741 151.5865 
L 268.943507 139.632544 
L 271.721273 125.796881 
L 274.499039 109.657602 
L 277.276805 90.63823 
L 280.054571 67.923734 
L 282.832337 40.311122 
L 285.610103 5.922219 
L 286.043847 -1 
" clip-path="url(#p8efc26f795)" style="fill: none; stroke: #dd8452; stroke-width: 0.7; stroke-linecap: round"/>
   </g>
   <g id="line2d_17"/>
   <g id="line2d_18"/>
   <g id="line2d_19">
    <path d="M 49.5 195.93 
L 299.498932 195.93 
" clip-path="url(#p8efc26f795)" style="fill: none; stroke-dasharray: 5.55,2.4; stroke-dashoffset: 0; stroke: #ff0000; stroke-width: 1.5"/>
   </g>
   <g id="patch_3">
    <path d="M 49.5 312.66 
L 49.5 79.2 
" style="fill: none; stroke: #ffffff; stroke-width: 1.25; stroke-linejoin: miter; stroke-linecap: square"/>
   </g>
   <g id="patch_4">
    <path d="M 49.5 312.66 
L 299.498932 312.66 
" style="fill: none; stroke: #ffffff; stroke-width: 1.25; stroke-linejoin: miter; stroke-linecap: square"/>
   </g>
   <g id="text_17">
    <!-- fMHz = 30 -->
    <g style="fill: #262626" transform="translate(146.990404 73.2) scale(0.12 -0.12)">
     <defs>
      <path id="ArialMT-66" d="M 556 0 
L 556 2881 
L 59 2881 
L 59 3319 
L 556 3319 
L 556 3672 
Q 556 4006 616 4169 
Q 697 4388 901 4523 
Q 1106 4659 1475 4659 
Q 1713 4659 2000 4603 
L 1916 4113 
Q 1741 4144 1584 4144 
Q 1328 4144 1222 4034 
Q 1116 3925 1116 3625 
L 1116 3319 
L 1763 3319 
L 1763 2881 
L 1116 2881 
L 1116 0 
L 556 0 
z
" transform="scale(0.015625)"/>
      <path id="ArialMT-4d" d="M 475 0 
L 475 4581 
L 1388 4581 
L 2472 1338 
Q 2622 884 2691 659 
Q 2769 909 2934 1394 
L 4031 4581 
L 4847 4581 
L 4847 0 
L 4263 0 
L 4263 3834 
L 2931 0 
L 2384 0 
L 1059 3900 
L 1059 0 
L 475 0 
z
" transform="scale(0.015625)"/>
      <path id="ArialMT-48" d="M 513 0 
L 513 4581 
L 1119 4581 
L 1119 2700 
L 3500 2700 
L 3500 4581 
L 4106 4581 
L 4106 0 
L 3500 0 
L 3500 2159 
L 1119 2159 
L 1119 0 
L 513 0 
z
" transform="scale(0.015625)"/>
      <path id="ArialMT-7a" d="M 125 0 
L 125 456 
L 2238 2881 
Q 1878 2863 1603 2863 
L 250 2863 
L 250 3319 
L 2963 3319 
L 2963 2947 
L 1166 841 
L 819 456 
Q 1197 484 1528 484 
L 3063 484 
L 3063 0 
L 125 0 
z
" transform="scale(0.015625)"/>
      <path id="ArialMT-20" transform="scale(0.015625)"/>
      <path id="ArialMT-3d" d="M 3381 2694 
L 356 2694 
L 356 3219 
L 3381 3219 
L 3381 2694 
z
M 3381 1303 
L 356 1303 
L 356 1828 
L 3381 1828 
L 3381 1303 
z
" transform="scale(0.015625)"/>
     </defs>
     <use xlink:href="#ArialMT-66"/>
     <use xlink:href="#ArialMT-4d" x="27.783203"/>
     <use xlink:href="#ArialMT-48" x="111.083984"/>
     <use xlink:href="#ArialMT-7a" x="183.300781"/>
     <use xlink:href="#ArialMT-20" x="233.300781"/>
     <use xlink:href="#ArialMT-3d" x="261.083984"/>
     <use xlink:href="#ArialMT-20" x="319.482422"/>
     <use xlink:href="#ArialMT-33" x="347.265625"/>
     <use xlink:href="#ArialMT-30" x="402.880859"/>
    </g>
   </g>
  </g>
  <g id="axes_2">
   <g id="patch_5">
    <path d="M 312.458932 312.66 
L 562.457864 312.66 
L 562.457864 79.2 
L 312.458932 79.2 
z
" style="fill: #eaeaf2"/>
   </g>
   <g id="matplotlib.axis_3">
    <g id="xtick_6">
     <g id="line2d_20">
      <path d="M 312.458932 312.66 
L 312.458932 79.2 
" clip-path="url(#p01c5922548)" style="fill: none; stroke: #ffffff; stroke-linecap: round"/>
     </g>
     <g id="text_18">
      <!-- 0 -->
      <g style="fill: #262626" transform="translate(309.400416 330.033594) scale(0.11 -0.11)">
       <use xlink:href="#ArialMT-30"/>
      </g>
     </g>
    </g>
    <g id="xtick_7">
     <g id="line2d_21">
      <path d="M 368.01425 312.66 
L 368.01425 79.2 
" clip-path="url(#p01c5922548)" style="fill: none; stroke: #ffffff; stroke-linecap: round"/>
     </g>
     <g id="text_19">
      <!-- 20 -->
      <g style="fill: #262626" transform="translate(361.897219 330.033594) scale(0.11 -0.11)">
       <use xlink:href="#ArialMT-32"/>
       <use xlink:href="#ArialMT-30" x="55.615234"/>
      </g>
     </g>
    </g>
    <g id="xtick_8">
     <g id="line2d_22">
      <path d="M 423.569569 312.66 
L 423.569569 79.2 
" clip-path="url(#p01c5922548)" style="fill: none; stroke: #ffffff; stroke-linecap: round"/>
     </g>
     <g id="text_20">
      <!-- 40 -->
      <g style="fill: #262626" transform="translate(417.452537 330.033594) scale(0.11 -0.11)">
       <use xlink:href="#ArialMT-34"/>
       <use xlink:href="#ArialMT-30" x="55.615234"/>
      </g>
     </g>
    </g>
    <g id="xtick_9">
     <g id="line2d_23">
      <path d="M 479.124887 312.66 
L 479.124887 79.2 
" clip-path="url(#p01c5922548)" style="fill: none; stroke: #ffffff; stroke-linecap: round"/>
     </g>
     <g id="text_21">
      <!-- 60 -->
      <g style="fill: #262626" transform="translate(473.007856 330.033594) scale(0.11 -0.11)">
       <use xlink:href="#ArialMT-36"/>
       <use xlink:href="#ArialMT-30" x="55.615234"/>
      </g>
     </g>
    </g>
    <g id="xtick_10">
     <g id="line2d_24">
      <path d="M 534.680205 312.66 
L 534.680205 79.2 
" clip-path="url(#p01c5922548)" style="fill: none; stroke: #ffffff; stroke-linecap: round"/>
     </g>
     <g id="text_22">
      <!-- 80 -->
      <g style="fill: #262626" transform="translate(528.563174 330.033594) scale(0.11 -0.11)">
       <use xlink:href="#ArialMT-38"/>
       <use xlink:href="#ArialMT-30" x="55.615234"/>
      </g>
     </g>
    </g>
    <g id="text_23">
     <!-- $\theta$° -->
     <g style="fill: #262626" transform="translate(431.338398 344.809219) scale(0.12 -0.12)">
      <use xlink:href="#DejaVuSans-Oblique-3b8" transform="translate(0 0.234375)"/>
      <use xlink:href="#ArialMT-b0" transform="translate(61.181641 0.234375)"/>
     </g>
    </g>
   </g>
   <g id="matplotlib.axis_4">
    <g id="ytick_10">
     <g id="line2d_25">
      <path d="M 312.458932 312.66 
L 562.457864 312.66 
" clip-path="url(#p01c5922548)" style="fill: none; stroke: #ffffff; stroke-linecap: round"/>
     </g>
    </g>
    <g id="ytick_11">
     <g id="line2d_26">
      <path d="M 312.458932 283.4775 
L 562.457864 283.4775 
" clip-path="url(#p01c5922548)" style="fill: none; stroke: #ffffff; stroke-linecap: round"/>
     </g>
    </g>
    <g id="ytick_12">
     <g id="line2d_27">
      <path d="M 312.458932 254.295 
L 562.457864 254.295 
" clip-path="url(#p01c5922548)" style="fill: none; stroke: #ffffff; stroke-linecap: round"/>
     </g>
    </g>
    <g id="ytick_13">
     <g id="line2d_28">
      <path d="M 312.458932 225.1125 
L 562.457864 225.1125 
" clip-path="url(#p01c5922548)" style="fill: none; stroke: #ffffff; stroke-linecap: round"/>
     </g>
    </g>
    <g id="ytick_14">
     <g id="line2d_29">
      <path d="M 312.458932 195.93 
L 562.457864 195.93 
" clip-path="url(#p01c5922548)" style="fill: none; stroke: #ffffff; stroke-linecap: round"/>
     </g>
    </g>
    <g id="ytick_15">
     <g id="line2d_30">
      <path d="M 312.458932 166.7475 
L 562.457864 166.7475 
" clip-path="url(#p01c5922548)" style="fill: none; stroke: #ffffff; stroke-linecap: round"/>
     </g>
    </g>
    <g id="ytick_16">
     <g id="line2d_31">
      <path d="M 312.458932 137.565 
L 562.457864 137.565 
" clip-path="url(#p01c5922548)" style="fill: none; stroke: #ffffff; stroke-linecap: round"/>
     </g>
    </g>
    <g id="ytick_17">
     <g id="line2d_32">
      <path d="M 312.458932 108.3825 
L 562.457864 108.3825 
" clip-path="url(#p01c5922548)" style="fill: none; stroke: #ffffff; stroke-linecap: round"/>
     </g>
    </g>
    <g id="ytick_18">
     <g id="line2d_33">
      <path d="M 312.458932 79.2 
L 562.457864 79.2 
" clip-path="url(#p01c5922548)" style="fill: none; stroke: #ffffff; stroke-linecap: round"/>
     </g>
    </g>
   </g>
   <g id="PolyCollection_3"/>
   <g id="PolyCollection_4"/>
   <g id="line2d_34">
    <path d="M 312.458932 232.497546 
L 315.236698 232.479263 
L 318.014464 232.424351 
L 320.79223 232.332625 
L 323.569996 232.203772 
L 326.347762 232.037364 
L 329.125528 231.832857 
L 331.903293 231.589596 
L 334.681059 231.306828 
L 337.458825 230.983703 
L 340.236591 230.619294 
L 343.014357 230.212601 
L 345.792123 229.762573 
L 348.569889 229.268117 
L 351.347655 228.728127 
L 354.125421 228.141495 
L 356.903187 227.507146 
L 359.680953 226.824056 
L 362.458719 226.091291 
L 365.236484 225.308033 
L 368.01425 224.473626 
L 370.792016 224.023013 
L 373.569782 224.274227 
L 376.347548 224.500487 
L 379.125314 224.69651 
L 381.90308 224.856864 
L 384.680846 224.976015 
L 387.458612 225.04838 
L 390.236378 225.0684 
L 393.014144 225.030606 
L 395.791909 224.929703 
L 398.569675 224.760662 
L 401.347441 224.51882 
L 404.125207 224.199982 
L 406.902973 223.800542 
L 409.680739 223.317606 
L 412.458505 222.749117 
L 415.236271 222.093998 
L 418.014037 221.352285 
L 420.791803 220.525269 
L 423.569569 219.615635 
L 426.347334 218.62759 
L 429.1251 217.566983 
L 431.902866 216.441398 
L 434.680632 215.260227 
L 437.458398 214.034693 
L 440.236164 212.777828 
L 443.01393 211.504384 
L 445.791696 210.230664 
L 448.569462 208.974266 
L 451.347228 207.753719 
L 454.124994 206.588014 
L 456.90276 205.49602 
L 459.680525 204.495798 
L 462.458291 203.603814 
L 465.236057 202.834088 
L 468.013823 202.197309 
L 470.791589 201.699949 
L 473.569355 201.343428 
L 476.347121 201.123375 
L 479.124887 201.029025 
L 481.902653 201.042779 
L 484.680419 201.139949 
L 487.458185 201.842658 
L 490.23595 202.53669 
L 493.013716 203.038531 
L 495.791482 203.299255 
L 498.569248 203.266961 
L 501.347014 202.88637 
L 504.12478 202.098215 
L 506.902546 200.838387 
L 509.680312 199.036763 
L 512.458078 196.615653 
L 515.235844 193.748444 
L 518.01361 190.416099 
L 520.791376 186.197126 
L 523.569141 180.940571 
L 526.346907 174.46849 
L 529.124673 166.566409 
L 531.902439 156.969489 
L 534.680205 145.341978 
L 537.457971 131.245716 
L 540.235737 114.089893 
L 543.013503 93.046974 
L 545.791269 66.903205 
L 548.569035 33.771301 
L 550.800015 -1 
" clip-path="url(#p01c5922548)" style="fill: none; stroke: #4c72b0; stroke-width: 0.7; stroke-linecap: round"/>
   </g>
   <g id="line2d_35">
    <path d="M 312.458932 232.497546 
L 315.236698 232.479263 
L 318.014464 232.424351 
L 320.79223 232.332625 
L 323.569996 232.203772 
L 326.347762 232.037364 
L 329.125528 231.832857 
L 331.903293 231.589596 
L 334.681059 231.306828 
L 337.458825 230.983703 
L 340.236591 230.619294 
L 343.014357 230.212601 
L 345.792123 229.762573 
L 348.569889 229.268117 
L 351.347655 228.728127 
L 354.125421 228.141495 
L 356.903187 227.507146 
L 359.680953 226.824056 
L 362.458719 226.091291 
L 365.236484 225.308033 
L 368.01425 224.473626 
L 370.792016 224.023013 
L 373.569782 224.274227 
L 376.347548 224.500487 
L 379.125314 224.69651 
L 381.90308 224.856864 
L 384.680846 224.976015 
L 387.458612 225.04838 
L 390.236378 225.0684 
L 393.014144 225.030606 
L 395.791909 224.929703 
L 398.569675 224.760662 
L 401.347441 224.51882 
L 404.125207 224.199982 
L 406.902973 223.800542 
L 409.680739 223.317606 
L 412.458505 222.749117 
L 415.236271 222.093998 
L 418.014037 221.352285 
L 420.791803 220.525269 
L 423.569569 219.615635 
L 426.347334 218.62759 
L 429.1251 217.566983 
L 431.902866 216.441398 
L 434.680632 215.260227 
L 437.458398 214.034693 
L 440.236164 212.777828 
L 443.01393 211.504384 
L 445.791696 210.230664 
L 448.569462 208.974266 
L 451.347228 207.753719 
L 454.124994 206.588014 
L 456.90276 205.49602 
L 459.680525 204.495798 
L 462.458291 203.603814 
L 465.236057 202.834088 
L 468.013823 202.197309 
L 470.791589 201.699949 
L 473.569355 201.343428 
L 476.347121 201.123375 
L 479.124887 201.029025 
L 481.902653 201.042779 
L 484.680419 201.139949 
L 487.458185 201.842658 
L 490.23595 202.53669 
L 493.013716 203.038531 
L 495.791482 203.299255 
L 498.569248 203.266961 
L 501.347014 202.88637 
L 504.12478 202.098215 
L 506.902546 200.838387 
L 509.680312 199.036763 
L 512.458078 196.615653 
L 515.235844 193.748444 
L 518.01361 190.416099 
L 520.791376 186.197126 
L 523.569141 180.940571 
L 526.346907 174.46849 
L 529.124673 166.566409 
L 531.902439 156.969489 
L 534.680205 145.341978 
L 537.457971 131.245716 
L 540.235737 114.089893 
L 543.013503 93.046974 
L 545.791269 66.903205 
L 548.569035 33.771301 
L 550.800015 -1 
" clip-path="url(#p01c5922548)" style="fill: none; stroke: #dd8452; stroke-width: 0.7; stroke-linecap: round"/>
   </g>
   <g id="line2d_36">
    <path d="M 312.458932 195.93 
L 562.457864 195.93 
" clip-path="url(#p01c5922548)" style="fill: none; stroke-dasharray: 5.55,2.4; stroke-dashoffset: 0; stroke: #ff0000; stroke-width: 1.5"/>
   </g>
   <g id="patch_6">
    <path d="M 312.458932 312.66 
L 312.458932 79.2 
" style="fill: none; stroke: #ffffff; stroke-width: 1.25; stroke-linejoin: miter; stroke-linecap: square"/>
   </g>
   <g id="patch_7">
    <path d="M 312.458932 312.66 
L 562.457864 312.66 
" style="fill: none; stroke: #ffffff; stroke-width: 1.25; stroke-linejoin: miter; stroke-linecap: square"/>
   </g>
   <g id="text_24">
    <!-- fMHz = 100 -->
    <g style="fill: #262626" transform="translate(406.612773 73.2) scale(0.12 -0.12)">
     <use xlink:href="#ArialMT-66"/>
     <use xlink:href="#ArialMT-4d" x="27.783203"/>
     <use xlink:href="#ArialMT-48" x="111.083984"/>
     <use xlink:href="#ArialMT-7a" x="183.300781"/>
     <use xlink:href="#ArialMT-20" x="233.300781"/>
     <use xlink:href="#ArialMT-3d" x="261.083984"/>
     <use xlink:href="#ArialMT-20" x="319.482422"/>
     <use xlink:href="#ArialMT-31" x="347.265625"/>
     <use xlink:href="#ArialMT-30" x="402.880859"/>
     <use xlink:href="#ArialMT-30" x="458.496094"/>
    </g>
   </g>
  </g>
  <g id="axes_3">
   <g id="patch_8">
    <path d="M 575.417864 312.66 
L 825.416796 312.66 
L 825.416796 79.2 
L 575.417864 79.2 
z
" style="fill: #eaeaf2"/>
   </g>
   <g id="matplotlib.axis_5">
    <g id="xtick_11">
     <g id="line2d_37">
      <path d="M 575.417864 312.66 
L 575.417864 79.2 
" clip-path="url(#p55f8efc27c)" style="fill: none; stroke: #ffffff; stroke-linecap: round"/>
     </g>
     <g id="text_25">
      <!-- 0 -->
      <g style="fill: #262626" transform="translate(572.359349 330.033594) scale(0.11 -0.11)">
       <use xlink:href="#ArialMT-30"/>
      </g>
     </g>
    </g>
    <g id="xtick_12">
     <g id="line2d_38">
      <path d="M 630.973182 312.66 
L 630.973182 79.2 
" clip-path="url(#p55f8efc27c)" style="fill: none; stroke: #ffffff; stroke-linecap: round"/>
     </g>
     <g id="text_26">
      <!-- 20 -->
      <g style="fill: #262626" transform="translate(624.856151 330.033594) scale(0.11 -0.11)">
       <use xlink:href="#ArialMT-32"/>
       <use xlink:href="#ArialMT-30" x="55.615234"/>
      </g>
     </g>
    </g>
    <g id="xtick_13">
     <g id="line2d_39">
      <path d="M 686.528501 312.66 
L 686.528501 79.2 
" clip-path="url(#p55f8efc27c)" style="fill: none; stroke: #ffffff; stroke-linecap: round"/>
     </g>
     <g id="text_27">
      <!-- 40 -->
      <g style="fill: #262626" transform="translate(680.411469 330.033594) scale(0.11 -0.11)">
       <use xlink:href="#ArialMT-34"/>
       <use xlink:href="#ArialMT-30" x="55.615234"/>
      </g>
     </g>
    </g>
    <g id="xtick_14">
     <g id="line2d_40">
      <path d="M 742.083819 312.66 
L 742.083819 79.2 
" clip-path="url(#p55f8efc27c)" style="fill: none; stroke: #ffffff; stroke-linecap: round"/>
     </g>
     <g id="text_28">
      <!-- 60 -->
      <g style="fill: #262626" transform="translate(735.966788 330.033594) scale(0.11 -0.11)">
       <use xlink:href="#ArialMT-36"/>
       <use xlink:href="#ArialMT-30" x="55.615234"/>
      </g>
     </g>
    </g>
    <g id="xtick_15">
     <g id="line2d_41">
      <path d="M 797.639137 312.66 
L 797.639137 79.2 
" clip-path="url(#p55f8efc27c)" style="fill: none; stroke: #ffffff; stroke-linecap: round"/>
     </g>
     <g id="text_29">
      <!-- 80 -->
      <g style="fill: #262626" transform="translate(791.522106 330.033594) scale(0.11 -0.11)">
       <use xlink:href="#ArialMT-38"/>
       <use xlink:href="#ArialMT-30" x="55.615234"/>
      </g>
     </g>
    </g>
    <g id="text_30">
     <!-- $\theta$° -->
     <g style="fill: #262626" transform="translate(694.29733 344.809219) scale(0.12 -0.12)">
      <use xlink:href="#DejaVuSans-Oblique-3b8" transform="translate(0 0.234375)"/>
      <use xlink:href="#ArialMT-b0" transform="translate(61.181641 0.234375)"/>
     </g>
    </g>
   </g>
   <g id="matplotlib.axis_6">
    <g id="ytick_19">
     <g id="line2d_42">
      <path d="M 575.417864 312.66 
L 825.416796 312.66 
" clip-path="url(#p55f8efc27c)" style="fill: none; stroke: #ffffff; stroke-linecap: round"/>
     </g>
    </g>
    <g id="ytick_20">
     <g id="line2d_43">
      <path d="M 575.417864 283.4775 
L 825.416796 283.4775 
" clip-path="url(#p55f8efc27c)" style="fill: none; stroke: #ffffff; stroke-linecap: round"/>
     </g>
    </g>
    <g id="ytick_21">
     <g id="line2d_44">
      <path d="M 575.417864 254.295 
L 825.416796 254.295 
" clip-path="url(#p55f8efc27c)" style="fill: none; stroke: #ffffff; stroke-linecap: round"/>
     </g>
    </g>
    <g id="ytick_22">
     <g id="line2d_45">
      <path d="M 575.417864 225.1125 
L 825.416796 225.1125 
" clip-path="url(#p55f8efc27c)" style="fill: none; stroke: #ffffff; stroke-linecap: round"/>
     </g>
    </g>
    <g id="ytick_23">
     <g id="line2d_46">
      <path d="M 575.417864 195.93 
L 825.416796 195.93 
" clip-path="url(#p55f8efc27c)" style="fill: none; stroke: #ffffff; stroke-linecap: round"/>
     </g>
    </g>
    <g id="ytick_24">
     <g id="line2d_47">
      <path d="M 575.417864 166.7475 
L 825.416796 166.7475 
" clip-path="url(#p55f8efc27c)" style="fill: none; stroke: #ffffff; stroke-linecap: round"/>
     </g>
    </g>
    <g id="ytick_25">
     <g id="line2d_48">
      <path d="M 575.417864 137.565 
L 825.416796 137.565 
" clip-path="url(#p55f8efc27c)" style="fill: none; stroke: #ffffff; stroke-linecap: round"/>
     </g>
    </g>
    <g id="ytick_26">
     <g id="line2d_49">
      <path d="M 575.417864 108.3825 
L 825.416796 108.3825 
" clip-path="url(#p55f8efc27c)" style="fill: none; stroke: #ffffff; stroke-linecap: round"/>
     </g>
    </g>
    <g id="ytick_27">
     <g id="line2d_50">
      <path d="M 575.417864 79.2 
L 825.416796 79.2 
" clip-path="url(#p55f8efc27c)" style="fill: none; stroke: #ffffff; stroke-linecap: round"/>
     </g>
    </g>
   </g>
   <g id="PolyCollection_5"/>
   <g id="PolyCollection_6"/>
   <g id="line2d_51">
    <path d="M 575.417864 231.123852 
L 578.19563 231.114632 
L 580.973396 231.086694 
L 583.751162 231.039214 
L 586.528928 230.970821 
L 589.306694 230.879613 
L 592.08446 230.763173 
L 594.862226 230.618598 
L 597.639991 230.442535 
L 600.417757 230.231238 
L 603.195523 229.980638 
L 605.973289 229.686436 
L 608.751055 229.344229 
L 611.528821 228.949659 
L 614.306587 228.4986 
L 617.084353 227.987385 
L 619.862119 227.413069 
L 622.639885 226.77373 
L 625.417651 226.068817 
L 628.195417 225.299514 
L 630.973182 224.469136 
L 633.750948 224.018507 
L 636.528714 224.26568 
L 639.30648 224.476595 
L 642.084246 224.637901 
L 644.862012 224.736074 
L 647.639778 224.758042 
L 650.417544 224.691911 
L 653.19531 224.527748 
L 655.973076 224.25839 
L 658.750842 223.880239 
L 661.528607 223.393958 
L 664.306373 222.805031 
L 667.084139 222.124064 
L 669.861905 221.36677 
L 672.639671 220.553523 
L 675.417437 219.708431 
L 678.195203 218.857881 
L 680.972969 218.028575 
L 683.750735 217.896252 
L 686.528501 218.678881 
L 689.306267 219.385294 
L 692.084033 219.945348 
L 694.861798 220.290315 
L 697.639564 220.357074 
L 700.41733 220.092417 
L 703.195096 219.457371 
L 705.972862 218.431409 
L 708.750628 217.016391 
L 711.528394 215.239966 
L 714.30616 213.15796 
L 717.083926 210.855095 
L 719.861692 209.100533 
L 722.639458 207.877668 
L 725.417223 206.59054 
L 728.194989 205.306568 
L 730.972755 204.103051 
L 733.750521 203.057253 
L 736.528287 202.234331 
L 739.306053 201.674952 
L 742.083819 201.38506 
L 744.861585 201.330374 
L 747.639351 201.538186 
L 750.417117 202.376513 
L 753.194883 202.94942 
L 755.972648 203.117991 
L 758.750414 202.800367 
L 761.52818 201.988038 
L 764.305946 200.757245 
L 767.083712 199.273094 
L 769.861478 197.782167 
L 772.639244 196.588236 
L 775.41701 196.006989 
L 778.194776 196.301496 
L 780.972542 197.609885 
L 783.750308 199.885482 
L 786.528074 202.869644 
L 789.305839 206.105205 
L 792.083605 208.980368 
L 794.861371 210.780716 
L 797.639137 210.726675 
L 800.416903 207.981151 
L 803.194669 201.855742 
L 805.972435 191.227518 
L 808.750201 174.466942 
L 811.527967 149.507733 
L 814.305733 113.04503 
L 817.083499 59.014309 
L 819.042209 -1 
" clip-path="url(#p55f8efc27c)" style="fill: none; stroke: #4c72b0; stroke-width: 0.7; stroke-linecap: round"/>
   </g>
   <g id="line2d_52">
    <path d="M 575.417864 231.123852 
L 578.19563 231.114632 
L 580.973396 231.086694 
L 583.751162 231.039214 
L 586.528928 230.970821 
L 589.306694 230.879613 
L 592.08446 230.763173 
L 594.862226 230.618598 
L 597.639991 230.442535 
L 600.417757 230.231238 
L 603.195523 229.980638 
L 605.973289 229.686436 
L 608.751055 229.344229 
L 611.528821 228.949659 
L 614.306587 228.4986 
L 617.084353 227.987385 
L 619.862119 227.413069 
L 622.639885 226.77373 
L 625.417651 226.068817 
L 628.195417 225.299514 
L 630.973182 224.469136 
L 633.750948 224.018507 
L 636.528714 224.26568 
L 639.30648 224.476595 
L 642.084246 224.637901 
L 644.862012 224.736074 
L 647.639778 224.758042 
L 650.417544 224.691911 
L 653.19531 224.527748 
L 655.973076 224.25839 
L 658.750842 223.880239 
L 661.528607 223.393958 
L 664.306373 222.805031 
L 667.084139 222.124064 
L 669.861905 221.36677 
L 672.639671 220.553523 
L 675.417437 219.708431 
L 678.195203 218.857881 
L 680.972969 218.028575 
L 683.750735 217.896252 
L 686.528501 218.678881 
L 689.306267 219.385294 
L 692.084033 219.945348 
L 694.861798 220.290315 
L 697.639564 220.357074 
L 700.41733 220.092417 
L 703.195096 219.457371 
L 705.972862 218.431409 
L 708.750628 217.016391 
L 711.528394 215.239966 
L 714.30616 213.15796 
L 717.083926 210.855095 
L 719.861692 209.100533 
L 722.639458 207.877668 
L 725.417223 206.59054 
L 728.194989 205.306568 
L 730.972755 204.103051 
L 733.750521 203.057253 
L 736.528287 202.234331 
L 739.306053 201.674952 
L 742.083819 201.38506 
L 744.861585 201.330374 
L 747.639351 201.538186 
L 750.417117 202.376513 
L 753.194883 202.94942 
L 755.972648 203.117991 
L 758.750414 202.800367 
L 761.52818 201.988038 
L 764.305946 200.757245 
L 767.083712 199.273094 
L 769.861478 197.782167 
L 772.639244 196.588236 
L 775.41701 196.006989 
L 778.194776 196.301496 
L 780.972542 197.609885 
L 783.750308 199.885482 
L 786.528074 202.869644 
L 789.305839 206.105205 
L 792.083605 208.980368 
L 794.861371 210.780716 
L 797.639137 210.726675 
L 800.416903 207.981151 
L 803.194669 201.855742 
L 805.972435 191.227518 
L 808.750201 174.466942 
L 811.527967 149.507733 
L 814.305733 113.04503 
L 817.083499 59.014309 
L 819.042209 -1 
" clip-path="url(#p55f8efc27c)" style="fill: none; stroke: #dd8452; stroke-width: 0.7; stroke-linecap: round"/>
   </g>
   <g id="line2d_53">
    <path d="M 575.417864 195.93 
L 825.416796 195.93 
" clip-path="url(#p55f8efc27c)" style="fill: none; stroke-dasharray: 5.55,2.4; stroke-dashoffset: 0; stroke: #ff0000; stroke-width: 1.5"/>
   </g>
   <g id="patch_9">
    <path d="M 575.417864 312.66 
L 575.417864 79.2 
" style="fill: none; stroke: #ffffff; stroke-width: 1.25; stroke-linejoin: miter; stroke-linecap: square"/>
   </g>
   <g id="patch_10">
    <path d="M 575.417864 312.66 
L 825.416796 312.66 
" style="fill: none; stroke: #ffffff; stroke-width: 1.25; stroke-linejoin: miter; stroke-linecap: square"/>
   </g>
   <g id="text_31">
    <!-- fMHz = 300 -->
    <g style="fill: #262626" transform="translate(669.571705 73.2) scale(0.12 -0.12)">
     <use xlink:href="#ArialMT-66"/>
     <use xlink:href="#ArialMT-4d" x="27.783203"/>
     <use xlink:href="#ArialMT-48" x="111.083984"/>
     <use xlink:href="#ArialMT-7a" x="183.300781"/>
     <use xlink:href="#ArialMT-20" x="233.300781"/>
     <use xlink:href="#ArialMT-3d" x="261.083984"/>
     <use xlink:href="#ArialMT-20" x="319.482422"/>
     <use xlink:href="#ArialMT-33" x="347.265625"/>
     <use xlink:href="#ArialMT-30" x="402.880859"/>
     <use xlink:href="#ArialMT-30" x="458.496094"/>
    </g>
   </g>
  </g>
  <g id="axes_4">
   <g id="patch_11">
    <path d="M 838.376796 312.66 
L 1088.375728 312.66 
L 1088.375728 79.2 
L 838.376796 79.2 
z
" style="fill: #eaeaf2"/>
   </g>
   <g id="matplotlib.axis_7">
    <g id="xtick_16">
     <g id="line2d_54">
      <path d="M 838.376796 312.66 
L 838.376796 79.2 
" clip-path="url(#p62652d1bde)" style="fill: none; stroke: #ffffff; stroke-linecap: round"/>
     </g>
     <g id="text_32">
      <!-- 0 -->
      <g style="fill: #262626" transform="translate(835.318281 330.033594) scale(0.11 -0.11)">
       <use xlink:href="#ArialMT-30"/>
      </g>
     </g>
    </g>
    <g id="xtick_17">
     <g id="line2d_55">
      <path d="M 893.932115 312.66 
L 893.932115 79.2 
" clip-path="url(#p62652d1bde)" style="fill: none; stroke: #ffffff; stroke-linecap: round"/>
     </g>
     <g id="text_33">
      <!-- 20 -->
      <g style="fill: #262626" transform="translate(887.815083 330.033594) scale(0.11 -0.11)">
       <use xlink:href="#ArialMT-32"/>
       <use xlink:href="#ArialMT-30" x="55.615234"/>
      </g>
     </g>
    </g>
    <g id="xtick_18">
     <g id="line2d_56">
      <path d="M 949.487433 312.66 
L 949.487433 79.2 
" clip-path="url(#p62652d1bde)" style="fill: none; stroke: #ffffff; stroke-linecap: round"/>
     </g>
     <g id="text_34">
      <!-- 40 -->
      <g style="fill: #262626" transform="translate(943.370402 330.033594) scale(0.11 -0.11)">
       <use xlink:href="#ArialMT-34"/>
       <use xlink:href="#ArialMT-30" x="55.615234"/>
      </g>
     </g>
    </g>
    <g id="xtick_19">
     <g id="line2d_57">
      <path d="M 1005.042751 312.66 
L 1005.042751 79.2 
" clip-path="url(#p62652d1bde)" style="fill: none; stroke: #ffffff; stroke-linecap: round"/>
     </g>
     <g id="text_35">
      <!-- 60 -->
      <g style="fill: #262626" transform="translate(998.92572 330.033594) scale(0.11 -0.11)">
       <use xlink:href="#ArialMT-36"/>
       <use xlink:href="#ArialMT-30" x="55.615234"/>
      </g>
     </g>
    </g>
    <g id="xtick_20">
     <g id="line2d_58">
      <path d="M 1060.598069 312.66 
L 1060.598069 79.2 
" clip-path="url(#p62652d1bde)" style="fill: none; stroke: #ffffff; stroke-linecap: round"/>
     </g>
     <g id="text_36">
      <!-- 80 -->
      <g style="fill: #262626" transform="translate(1054.481038 330.033594) scale(0.11 -0.11)">
       <use xlink:href="#ArialMT-38"/>
       <use xlink:href="#ArialMT-30" x="55.615234"/>
      </g>
     </g>
    </g>
    <g id="text_37">
     <!-- $\theta$° -->
     <g style="fill: #262626" transform="translate(957.256262 344.809219) scale(0.12 -0.12)">
      <use xlink:href="#DejaVuSans-Oblique-3b8" transform="translate(0 0.234375)"/>
      <use xlink:href="#ArialMT-b0" transform="translate(61.181641 0.234375)"/>
     </g>
    </g>
   </g>
   <g id="matplotlib.axis_8">
    <g id="ytick_28">
     <g id="line2d_59">
      <path d="M 838.376796 312.66 
L 1088.375728 312.66 
" clip-path="url(#p62652d1bde)" style="fill: none; stroke: #ffffff; stroke-linecap: round"/>
     </g>
    </g>
    <g id="ytick_29">
     <g id="line2d_60">
      <path d="M 838.376796 283.4775 
L 1088.375728 283.4775 
" clip-path="url(#p62652d1bde)" style="fill: none; stroke: #ffffff; stroke-linecap: round"/>
     </g>
    </g>
    <g id="ytick_30">
     <g id="line2d_61">
      <path d="M 838.376796 254.295 
L 1088.375728 254.295 
" clip-path="url(#p62652d1bde)" style="fill: none; stroke: #ffffff; stroke-linecap: round"/>
     </g>
    </g>
    <g id="ytick_31">
     <g id="line2d_62">
      <path d="M 838.376796 225.1125 
L 1088.375728 225.1125 
" clip-path="url(#p62652d1bde)" style="fill: none; stroke: #ffffff; stroke-linecap: round"/>
     </g>
    </g>
    <g id="ytick_32">
     <g id="line2d_63">
      <path d="M 838.376796 195.93 
L 1088.375728 195.93 
" clip-path="url(#p62652d1bde)" style="fill: none; stroke: #ffffff; stroke-linecap: round"/>
     </g>
    </g>
    <g id="ytick_33">
     <g id="line2d_64">
      <path d="M 838.376796 166.7475 
L 1088.375728 166.7475 
" clip-path="url(#p62652d1bde)" style="fill: none; stroke: #ffffff; stroke-linecap: round"/>
     </g>
    </g>
    <g id="ytick_34">
     <g id="line2d_65">
      <path d="M 838.376796 137.565 
L 1088.375728 137.565 
" clip-path="url(#p62652d1bde)" style="fill: none; stroke: #ffffff; stroke-linecap: round"/>
     </g>
    </g>
    <g id="ytick_35">
     <g id="line2d_66">
      <path d="M 838.376796 108.3825 
L 1088.375728 108.3825 
" clip-path="url(#p62652d1bde)" style="fill: none; stroke: #ffffff; stroke-linecap: round"/>
     </g>
    </g>
    <g id="ytick_36">
     <g id="line2d_67">
      <path d="M 838.376796 79.2 
L 1088.375728 79.2 
" clip-path="url(#p62652d1bde)" style="fill: none; stroke: #ffffff; stroke-linecap: round"/>
     </g>
    </g>
   </g>
   <g id="PolyCollection_7"/>
   <g id="PolyCollection_8"/>
   <g id="line2d_68">
    <path d="M 838.376796 227.486695 
L 841.154562 227.473575 
L 843.932328 227.433412 
L 846.710094 227.363859 
L 849.48786 227.261217 
L 852.265626 227.120783 
L 855.043392 226.937404 
L 857.821158 226.706275 
L 860.598924 226.424009 
L 863.376689 226.089977 
L 866.154455 225.707836 
L 868.932221 225.881122 
L 871.709987 226.112056 
L 874.487753 226.327462 
L 877.265519 226.493984 
L 880.043285 226.571481 
L 882.821051 226.517176 
L 885.598817 226.292369 
L 888.376583 225.871487 
L 891.154349 225.252538 
L 893.932115 224.466948 
L 896.70988 224.016116 
L 899.487646 224.218416 
L 902.265412 224.266616 
L 905.043178 224.089989 
L 907.820944 223.658068 
L 910.59871 222.997509 
L 913.376476 222.198161 
L 916.154242 222.747328 
L 918.932008 223.086214 
L 921.709774 222.981653 
L 924.48754 222.30913 
L 927.265305 221.123061 
L 930.043071 220.211963 
L 932.820837 220.120701 
L 935.598603 219.766238 
L 938.376369 219.142573 
L 941.154135 218.359715 
L 943.931901 218.917411 
L 946.709667 219.187421 
L 949.487433 218.580934 
L 952.265199 217.090603 
L 955.042965 215.835262 
L 957.820731 215.317977 
L 960.598496 214.681149 
L 963.376262 214.030169 
L 966.154028 214.524455 
L 968.931794 214.756107 
L 971.70956 213.746217 
L 974.487326 211.686005 
L 977.265092 210.541283 
L 980.042858 209.707646 
L 982.820624 209.170709 
L 985.59839 209.658272 
L 988.376156 209.871729 
L 991.153921 208.569266 
L 993.931687 206.205365 
L 996.709453 204.867935 
L 999.487219 204.095054 
L 1002.264985 204.153007 
L 1005.042751 204.796687 
L 1007.820517 204.022516 
L 1010.598283 201.836462 
L 1013.376049 199.977809 
L 1016.153815 199.131626 
L 1018.931581 199.31485 
L 1021.709346 199.82314 
L 1024.487112 199.112819 
L 1027.264878 197.447784 
L 1030.042644 196.161805 
L 1032.82041 195.946247 
L 1035.598176 196.26223 
L 1038.375942 196.174929 
L 1041.153708 195.913101 
L 1043.931474 196.486056 
L 1046.70924 197.825094 
L 1049.487006 198.327405 
L 1052.264772 197.231921 
L 1055.042537 197.073882 
L 1057.820303 201.227361 
L 1060.598069 209.031605 
L 1063.375835 213.934647 
L 1066.153601 211.192508 
L 1068.931367 205.969881 
L 1071.709133 212.890249 
L 1074.486899 237.040924 
L 1077.264665 259.780894 
L 1080.042431 258.576986 
L 1082.820197 212.707046 
L 1085.597962 77.268706 
L 1085.708888 -1 
" clip-path="url(#p62652d1bde)" style="fill: none; stroke: #4c72b0; stroke-width: 0.7; stroke-linecap: round"/>
   </g>
   <g id="line2d_69">
    <path d="M 838.376796 227.486695 
L 841.154562 227.473575 
L 843.932328 227.433412 
L 846.710094 227.363859 
L 849.48786 227.261217 
L 852.265626 227.120783 
L 855.043392 226.937404 
L 857.821158 226.706275 
L 860.598924 226.424009 
L 863.376689 226.089977 
L 866.154455 225.707836 
L 868.932221 225.881122 
L 871.709987 226.112056 
L 874.487753 226.327462 
L 877.265519 226.493984 
L 880.043285 226.571481 
L 882.821051 226.517176 
L 885.598817 226.292369 
L 888.376583 225.871487 
L 891.154349 225.252538 
L 893.932115 224.466948 
L 896.70988 224.016116 
L 899.487646 224.218416 
L 902.265412 224.266616 
L 905.043178 224.089989 
L 907.820944 223.658068 
L 910.59871 222.997509 
L 913.376476 222.198161 
L 916.154242 222.747328 
L 918.932008 223.086214 
L 921.709774 222.981653 
L 924.48754 222.30913 
L 927.265305 221.123061 
L 930.043071 220.211963 
L 932.820837 220.120701 
L 935.598603 219.766238 
L 938.376369 219.142573 
L 941.154135 218.359715 
L 943.931901 218.917411 
L 946.709667 219.187421 
L 949.487433 218.580934 
L 952.265199 217.090603 
L 955.042965 215.835262 
L 957.820731 215.317977 
L 960.598496 214.681149 
L 963.376262 214.030169 
L 966.154028 214.524455 
L 968.931794 214.756107 
L 971.70956 213.746217 
L 974.487326 211.686005 
L 977.265092 210.541283 
L 980.042858 209.707646 
L 982.820624 209.170709 
L 985.59839 209.658272 
L 988.376156 209.871729 
L 991.153921 208.569266 
L 993.931687 206.205365 
L 996.709453 204.867935 
L 999.487219 204.095054 
L 1002.264985 204.153007 
L 1005.042751 204.796687 
L 1007.820517 204.022516 
L 1010.598283 201.836462 
L 1013.376049 199.977809 
L 1016.153815 199.131626 
L 1018.931581 199.31485 
L 1021.709346 199.82314 
L 1024.487112 199.112819 
L 1027.264878 197.447784 
L 1030.042644 196.161805 
L 1032.82041 195.946247 
L 1035.598176 196.26223 
L 1038.375942 196.174929 
L 1041.153708 195.913101 
L 1043.931474 196.486056 
L 1046.70924 197.825094 
L 1049.487006 198.327405 
L 1052.264772 197.231921 
L 1055.042537 197.073882 
L 1057.820303 201.227361 
L 1060.598069 209.031605 
L 1063.375835 213.934647 
L 1066.153601 211.192508 
L 1068.931367 205.969881 
L 1071.709133 212.890249 
L 1074.486899 237.040924 
L 1077.264665 259.780894 
L 1080.042431 258.576986 
L 1082.820197 212.707046 
L 1085.597962 77.268706 
L 1085.708888 -1 
" clip-path="url(#p62652d1bde)" style="fill: none; stroke: #dd8452; stroke-width: 0.7; stroke-linecap: round"/>
   </g>
   <g id="line2d_70">
    <path d="M 838.376796 195.93 
L 1088.375728 195.93 
" clip-path="url(#p62652d1bde)" style="fill: none; stroke-dasharray: 5.55,2.4; stroke-dashoffset: 0; stroke: #ff0000; stroke-width: 1.5"/>
   </g>
   <g id="patch_12">
    <path d="M 838.376796 312.66 
L 838.376796 79.2 
" style="fill: none; stroke: #ffffff; stroke-width: 1.25; stroke-linejoin: miter; stroke-linecap: square"/>
   </g>
   <g id="patch_13">
    <path d="M 838.376796 312.66 
L 1088.375728 312.66 
" style="fill: none; stroke: #ffffff; stroke-width: 1.25; stroke-linejoin: miter; stroke-linecap: square"/>
   </g>
   <g id="text_38">
    <!-- fMHz = 1000 -->
    <g style="fill: #262626" transform="translate(929.194075 73.2) scale(0.12 -0.12)">
     <use xlink:href="#ArialMT-66"/>
     <use xlink:href="#ArialMT-4d" x="27.783203"/>
     <use xlink:href="#ArialMT-48" x="111.083984"/>
     <use xlink:href="#ArialMT-7a" x="183.300781"/>
     <use xlink:href="#ArialMT-20" x="233.300781"/>
     <use xlink:href="#ArialMT-3d" x="261.083984"/>
     <use xlink:href="#ArialMT-20" x="319.482422"/>
     <use xlink:href="#ArialMT-31" x="347.265625"/>
     <use xlink:href="#ArialMT-30" x="402.880859"/>
     <use xlink:href="#ArialMT-30" x="458.496094"/>
     <use xlink:href="#ArialMT-30" x="514.111328"/>
    </g>
   </g>
  </g>
  <g id="axes_5">
   <g id="patch_14">
    <path d="M 1101.335728 312.66 
L 1351.33466 312.66 
L 1351.33466 79.2 
L 1101.335728 79.2 
z
" style="fill: #eaeaf2"/>
   </g>
   <g id="matplotlib.axis_9">
    <g id="xtick_21">
     <g id="line2d_71">
      <path d="M 1101.335728 312.66 
L 1101.335728 79.2 
" clip-path="url(#p94e8ae3b54)" style="fill: none; stroke: #ffffff; stroke-linecap: round"/>
     </g>
     <g id="text_39">
      <!-- 0 -->
      <g style="fill: #262626" transform="translate(1098.277213 330.033594) scale(0.11 -0.11)">
       <use xlink:href="#ArialMT-30"/>
      </g>
     </g>
    </g>
    <g id="xtick_22">
     <g id="line2d_72">
      <path d="M 1156.891047 312.66 
L 1156.891047 79.2 
" clip-path="url(#p94e8ae3b54)" style="fill: none; stroke: #ffffff; stroke-linecap: round"/>
     </g>
     <g id="text_40">
      <!-- 20 -->
      <g style="fill: #262626" transform="translate(1150.774015 330.033594) scale(0.11 -0.11)">
       <use xlink:href="#ArialMT-32"/>
       <use xlink:href="#ArialMT-30" x="55.615234"/>
      </g>
     </g>
    </g>
    <g id="xtick_23">
     <g id="line2d_73">
      <path d="M 1212.446365 312.66 
L 1212.446365 79.2 
" clip-path="url(#p94e8ae3b54)" style="fill: none; stroke: #ffffff; stroke-linecap: round"/>
     </g>
     <g id="text_41">
      <!-- 40 -->
      <g style="fill: #262626" transform="translate(1206.329334 330.033594) scale(0.11 -0.11)">
       <use xlink:href="#ArialMT-34"/>
       <use xlink:href="#ArialMT-30" x="55.615234"/>
      </g>
     </g>
    </g>
    <g id="xtick_24">
     <g id="line2d_74">
      <path d="M 1268.001683 312.66 
L 1268.001683 79.2 
" clip-path="url(#p94e8ae3b54)" style="fill: none; stroke: #ffffff; stroke-linecap: round"/>
     </g>
     <g id="text_42">
      <!-- 60 -->
      <g style="fill: #262626" transform="translate(1261.884652 330.033594) scale(0.11 -0.11)">
       <use xlink:href="#ArialMT-36"/>
       <use xlink:href="#ArialMT-30" x="55.615234"/>
      </g>
     </g>
    </g>
    <g id="xtick_25">
     <g id="line2d_75">
      <path d="M 1323.557001 312.66 
L 1323.557001 79.2 
" clip-path="url(#p94e8ae3b54)" style="fill: none; stroke: #ffffff; stroke-linecap: round"/>
     </g>
     <g id="text_43">
      <!-- 80 -->
      <g style="fill: #262626" transform="translate(1317.43997 330.033594) scale(0.11 -0.11)">
       <use xlink:href="#ArialMT-38"/>
       <use xlink:href="#ArialMT-30" x="55.615234"/>
      </g>
     </g>
    </g>
    <g id="text_44">
     <!-- $\theta$° -->
     <g style="fill: #262626" transform="translate(1220.215194 344.809219) scale(0.12 -0.12)">
      <use xlink:href="#DejaVuSans-Oblique-3b8" transform="translate(0 0.234375)"/>
      <use xlink:href="#ArialMT-b0" transform="translate(61.181641 0.234375)"/>
     </g>
    </g>
   </g>
   <g id="matplotlib.axis_10">
    <g id="ytick_37">
     <g id="line2d_76">
      <path d="M 1101.335728 312.66 
L 1351.33466 312.66 
" clip-path="url(#p94e8ae3b54)" style="fill: none; stroke: #ffffff; stroke-linecap: round"/>
     </g>
    </g>
    <g id="ytick_38">
     <g id="line2d_77">
      <path d="M 1101.335728 283.4775 
L 1351.33466 283.4775 
" clip-path="url(#p94e8ae3b54)" style="fill: none; stroke: #ffffff; stroke-linecap: round"/>
     </g>
    </g>
    <g id="ytick_39">
     <g id="line2d_78">
      <path d="M 1101.335728 254.295 
L 1351.33466 254.295 
" clip-path="url(#p94e8ae3b54)" style="fill: none; stroke: #ffffff; stroke-linecap: round"/>
     </g>
    </g>
    <g id="ytick_40">
     <g id="line2d_79">
      <path d="M 1101.335728 225.1125 
L 1351.33466 225.1125 
" clip-path="url(#p94e8ae3b54)" style="fill: none; stroke: #ffffff; stroke-linecap: round"/>
     </g>
    </g>
    <g id="ytick_41">
     <g id="line2d_80">
      <path d="M 1101.335728 195.93 
L 1351.33466 195.93 
" clip-path="url(#p94e8ae3b54)" style="fill: none; stroke: #ffffff; stroke-linecap: round"/>
     </g>
    </g>
    <g id="ytick_42">
     <g id="line2d_81">
      <path d="M 1101.335728 166.7475 
L 1351.33466 166.7475 
" clip-path="url(#p94e8ae3b54)" style="fill: none; stroke: #ffffff; stroke-linecap: round"/>
     </g>
    </g>
    <g id="ytick_43">
     <g id="line2d_82">
      <path d="M 1101.335728 137.565 
L 1351.33466 137.565 
" clip-path="url(#p94e8ae3b54)" style="fill: none; stroke: #ffffff; stroke-linecap: round"/>
     </g>
    </g>
    <g id="ytick_44">
     <g id="line2d_83">
      <path d="M 1101.335728 108.3825 
L 1351.33466 108.3825 
" clip-path="url(#p94e8ae3b54)" style="fill: none; stroke: #ffffff; stroke-linecap: round"/>
     </g>
    </g>
    <g id="ytick_45">
     <g id="line2d_84">
      <path d="M 1101.335728 79.2 
L 1351.33466 79.2 
" clip-path="url(#p94e8ae3b54)" style="fill: none; stroke: #ffffff; stroke-linecap: round"/>
     </g>
    </g>
   </g>
   <g id="PolyCollection_9"/>
   <g id="PolyCollection_10"/>
   <g id="line2d_85">
    <path d="M 1101.335728 226.372047 
L 1104.113494 226.351205 
L 1106.89126 226.288395 
L 1109.669026 226.183647 
L 1112.446792 226.211696 
L 1115.224558 226.287149 
L 1118.002324 226.346457 
L 1120.78009 226.354398 
L 1123.557856 226.267818 
L 1126.335622 226.051561 
L 1129.113388 225.705245 
L 1131.891153 225.877257 
L 1134.668919 226.013462 
L 1137.446685 225.910556 
L 1140.224451 225.494073 
L 1143.002217 225.124487 
L 1145.779983 225.204712 
L 1148.557749 224.894053 
L 1151.335515 224.727365 
L 1154.113281 224.901819 
L 1156.891047 224.45294 
L 1159.668813 223.999568 
L 1162.446578 223.878021 
L 1165.224344 223.526475 
L 1168.00211 223.726749 
L 1170.779876 222.982525 
L 1173.557642 222.764267 
L 1176.335408 222.200977 
L 1179.113174 222.539758 
L 1181.89094 221.6866 
L 1184.668706 221.411419 
L 1187.446472 221.133131 
L 1190.224238 221.048092 
L 1193.002003 220.187513 
L 1195.779769 219.662631 
L 1198.557535 219.927945 
L 1201.335301 218.838311 
L 1204.113067 218.356627 
L 1206.890833 218.575167 
L 1209.668599 217.40597 
L 1212.446365 216.88933 
L 1215.224131 216.994215 
L 1218.001897 215.81776 
L 1220.779663 215.671877 
L 1223.557429 214.937041 
L 1226.335194 214.030129 
L 1229.11296 214.205754 
L 1231.890726 212.751249 
L 1234.668492 212.591007 
L 1237.446258 211.685797 
L 1240.224024 210.733844 
L 1243.00179 210.769764 
L 1245.779556 209.220693 
L 1248.557322 209.422257 
L 1251.335088 207.709739 
L 1254.112854 207.75058 
L 1256.890619 206.212092 
L 1259.668385 205.951526 
L 1262.446151 204.818945 
L 1265.223917 204.157692 
L 1268.001683 203.365117 
L 1270.779449 202.431875 
L 1273.557215 201.835646 
L 1276.334981 200.807811 
L 1279.112747 200.282696 
L 1281.890513 199.321628 
L 1284.668279 198.783024 
L 1287.446045 198.024137 
L 1290.22381 197.447755 
L 1293.001576 196.980314 
L 1295.779342 196.443067 
L 1298.557108 196.268333 
L 1301.334874 196.009037 
L 1304.11264 195.999205 
L 1306.890406 196.449735 
L 1309.668172 196.385224 
L 1312.445938 198.069155 
L 1315.223704 197.872943 
L 1318.00147 201.062601 
L 1320.779235 201.294985 
L 1323.557001 205.451946 
L 1326.334767 207.885697 
L 1329.112533 211.216153 
L 1331.890299 218.957402 
L 1334.668065 218.708949 
L 1337.445831 235.274761 
L 1340.223597 229.22852 
L 1343.001363 256.648116 
L 1345.779129 245.262682 
L 1348.556895 282.300494 
L 1348.920375 -1 
" clip-path="url(#p94e8ae3b54)" style="fill: none; stroke: #4c72b0; stroke-width: 0.7; stroke-linecap: round"/>
   </g>
   <g id="line2d_86">
    <path d="M 1101.335728 226.372047 
L 1104.113494 226.351205 
L 1106.89126 226.288395 
L 1109.669026 226.183647 
L 1112.446792 226.211696 
L 1115.224558 226.287149 
L 1118.002324 226.346457 
L 1120.78009 226.354398 
L 1123.557856 226.267818 
L 1126.335622 226.051561 
L 1129.113388 225.705245 
L 1131.891153 225.877257 
L 1134.668919 226.013462 
L 1137.446685 225.910556 
L 1140.224451 225.494073 
L 1143.002217 225.124487 
L 1145.779983 225.204712 
L 1148.557749 224.894053 
L 1151.335515 224.727365 
L 1154.113281 224.901819 
L 1156.891047 224.45294 
L 1159.668813 223.999568 
L 1162.446578 223.878021 
L 1165.224344 223.526475 
L 1168.00211 223.726749 
L 1170.779876 222.982525 
L 1173.557642 222.764267 
L 1176.335408 222.200977 
L 1179.113174 222.539758 
L 1181.89094 221.6866 
L 1184.668706 221.411419 
L 1187.446472 221.133131 
L 1190.224238 221.048092 
L 1193.002003 220.187513 
L 1195.779769 219.662631 
L 1198.557535 219.927945 
L 1201.335301 218.838311 
L 1204.113067 218.356627 
L 1206.890833 218.575167 
L 1209.668599 217.40597 
L 1212.446365 216.88933 
L 1215.224131 216.994215 
L 1218.001897 215.81776 
L 1220.779663 215.671877 
L 1223.557429 214.937041 
L 1226.335194 214.030129 
L 1229.11296 214.205754 
L 1231.890726 212.751249 
L 1234.668492 212.591007 
L 1237.446258 211.685797 
L 1240.224024 210.733844 
L 1243.00179 210.769764 
L 1245.779556 209.220693 
L 1248.557322 209.422257 
L 1251.335088 207.709739 
L 1254.112854 207.75058 
L 1256.890619 206.212092 
L 1259.668385 205.951526 
L 1262.446151 204.818945 
L 1265.223917 204.157692 
L 1268.001683 203.365117 
L 1270.779449 202.431875 
L 1273.557215 201.835646 
L 1276.334981 200.807811 
L 1279.112747 200.282696 
L 1281.890513 199.321628 
L 1284.668279 198.783024 
L 1287.446045 198.024137 
L 1290.22381 197.447755 
L 1293.001576 196.980314 
L 1295.779342 196.443067 
L 1298.557108 196.268333 
L 1301.334874 196.009037 
L 1304.11264 195.999205 
L 1306.890406 196.449735 
L 1309.668172 196.385224 
L 1312.445938 198.069155 
L 1315.223704 197.872943 
L 1318.00147 201.062601 
L 1320.779235 201.294985 
L 1323.557001 205.451946 
L 1326.334767 207.885697 
L 1329.112533 211.216153 
L 1331.890299 218.957402 
L 1334.668065 218.708949 
L 1337.445831 235.274761 
L 1340.223597 229.22852 
L 1343.001363 256.648116 
L 1345.779129 245.262682 
L 1348.556895 282.300494 
L 1348.920375 -1 
" clip-path="url(#p94e8ae3b54)" style="fill: none; stroke: #dd8452; stroke-width: 0.7; stroke-linecap: round"/>
   </g>
   <g id="line2d_87">
    <path d="M 1101.335728 195.93 
L 1351.33466 195.93 
" clip-path="url(#p94e8ae3b54)" style="fill: none; stroke-dasharray: 5.55,2.4; stroke-dashoffset: 0; stroke: #ff0000; stroke-width: 1.5"/>
   </g>
   <g id="patch_15">
    <path d="M 1101.335728 312.66 
L 1101.335728 79.2 
" style="fill: none; stroke: #ffffff; stroke-width: 1.25; stroke-linejoin: miter; stroke-linecap: square"/>
   </g>
   <g id="patch_16">
    <path d="M 1101.335728 312.66 
L 1351.33466 312.66 
" style="fill: none; stroke: #ffffff; stroke-width: 1.25; stroke-linejoin: miter; stroke-linecap: square"/>
   </g>
   <g id="text_45">
    <!-- kind = S0 -->
    <g style="fill: #262626" transform="translate(1358.719639 170.746875) rotate(-270) scale(0.12 -0.12)">
     <defs>
      <path id="ArialMT-6b" d="M 425 0 
L 425 4581 
L 988 4581 
L 988 1969 
L 2319 3319 
L 3047 3319 
L 1778 2088 
L 3175 0 
L 2481 0 
L 1384 1697 
L 988 1316 
L 988 0 
L 425 0 
z
" transform="scale(0.015625)"/>
      <path id="ArialMT-69" d="M 425 3934 
L 425 4581 
L 988 4581 
L 988 3934 
L 425 3934 
z
M 425 0 
L 425 3319 
L 988 3319 
L 988 0 
L 425 0 
z
" transform="scale(0.015625)"/>
      <path id="ArialMT-6e" d="M 422 0 
L 422 3319 
L 928 3319 
L 928 2847 
Q 1294 3394 1984 3394 
Q 2284 3394 2536 3286 
Q 2788 3178 2913 3003 
Q 3038 2828 3088 2588 
Q 3119 2431 3119 2041 
L 3119 0 
L 2556 0 
L 2556 2019 
Q 2556 2363 2490 2533 
Q 2425 2703 2258 2804 
Q 2091 2906 1866 2906 
Q 1506 2906 1245 2678 
Q 984 2450 984 1813 
L 984 0 
L 422 0 
z
" transform="scale(0.015625)"/>
      <path id="ArialMT-53" d="M 288 1472 
L 859 1522 
Q 900 1178 1048 958 
Q 1197 738 1509 602 
Q 1822 466 2213 466 
Q 2559 466 2825 569 
Q 3091 672 3220 851 
Q 3350 1031 3350 1244 
Q 3350 1459 3225 1620 
Q 3100 1781 2813 1891 
Q 2628 1963 1997 2114 
Q 1366 2266 1113 2400 
Q 784 2572 623 2826 
Q 463 3081 463 3397 
Q 463 3744 659 4045 
Q 856 4347 1234 4503 
Q 1613 4659 2075 4659 
Q 2584 4659 2973 4495 
Q 3363 4331 3572 4012 
Q 3781 3694 3797 3291 
L 3216 3247 
Q 3169 3681 2898 3903 
Q 2628 4125 2100 4125 
Q 1550 4125 1298 3923 
Q 1047 3722 1047 3438 
Q 1047 3191 1225 3031 
Q 1400 2872 2139 2705 
Q 2878 2538 3153 2413 
Q 3553 2228 3743 1945 
Q 3934 1663 3934 1294 
Q 3934 928 3725 604 
Q 3516 281 3123 101 
Q 2731 -78 2241 -78 
Q 1619 -78 1198 103 
Q 778 284 539 648 
Q 300 1013 288 1472 
z
" transform="scale(0.015625)"/>
     </defs>
     <use xlink:href="#ArialMT-6b"/>
     <use xlink:href="#ArialMT-69" x="50"/>
     <use xlink:href="#ArialMT-6e" x="72.216797"/>
     <use xlink:href="#ArialMT-64" x="127.832031"/>
     <use xlink:href="#ArialMT-20" x="183.447266"/>
     <use xlink:href="#ArialMT-3d" x="211.230469"/>
     <use xlink:href="#ArialMT-20" x="269.628906"/>
     <use xlink:href="#ArialMT-53" x="297.412109"/>
     <use xlink:href="#ArialMT-30" x="364.111328"/>
    </g>
   </g>
   <g id="text_46">
    <!-- fMHz = 3000 -->
    <g style="fill: #262626" transform="translate(1192.153007 73.2) scale(0.12 -0.12)">
     <use xlink:href="#ArialMT-66"/>
     <use xlink:href="#ArialMT-4d" x="27.783203"/>
     <use xlink:href="#ArialMT-48" x="111.083984"/>
     <use xlink:href="#ArialMT-7a" x="183.300781"/>
     <use xlink:href="#ArialMT-20" x="233.300781"/>
     <use xlink:href="#ArialMT-3d" x="261.083984"/>
     <use xlink:href="#ArialMT-20" x="319.482422"/>
     <use xlink:href="#ArialMT-33" x="347.265625"/>
     <use xlink:href="#ArialMT-30" x="402.880859"/>
     <use xlink:href="#ArialMT-30" x="458.496094"/>
     <use xlink:href="#ArialMT-30" x="514.111328"/>
    </g>
   </g>
  </g>
  <g id="text_47">
   <!-- dB(err) for real ground, TM polarisation, 1 averaging point -->
   <g style="fill: #0000ff" transform="translate(517.966875 20.303437) scale(0.18 -0.18)">
    <defs>
     <path id="ArialMT-6f" d="M 213 1659 
Q 213 2581 725 3025 
Q 1153 3394 1769 3394 
Q 2453 3394 2887 2945 
Q 3322 2497 3322 1706 
Q 3322 1066 3130 698 
Q 2938 331 2570 128 
Q 2203 -75 1769 -75 
Q 1072 -75 642 372 
Q 213 819 213 1659 
z
M 791 1659 
Q 791 1022 1069 705 
Q 1347 388 1769 388 
Q 2188 388 2466 706 
Q 2744 1025 2744 1678 
Q 2744 2294 2464 2611 
Q 2184 2928 1769 2928 
Q 1347 2928 1069 2612 
Q 791 2297 791 1659 
z
" transform="scale(0.015625)"/>
     <path id="ArialMT-61" d="M 2588 409 
Q 2275 144 1986 34 
Q 1697 -75 1366 -75 
Q 819 -75 525 192 
Q 231 459 231 875 
Q 231 1119 342 1320 
Q 453 1522 633 1644 
Q 813 1766 1038 1828 
Q 1203 1872 1538 1913 
Q 2219 1994 2541 2106 
Q 2544 2222 2544 2253 
Q 2544 2597 2384 2738 
Q 2169 2928 1744 2928 
Q 1347 2928 1158 2789 
Q 969 2650 878 2297 
L 328 2372 
Q 403 2725 575 2942 
Q 747 3159 1072 3276 
Q 1397 3394 1825 3394 
Q 2250 3394 2515 3294 
Q 2781 3194 2906 3042 
Q 3031 2891 3081 2659 
Q 3109 2516 3109 2141 
L 3109 1391 
Q 3109 606 3145 398 
Q 3181 191 3288 0 
L 2700 0 
Q 2613 175 2588 409 
z
M 2541 1666 
Q 2234 1541 1622 1453 
Q 1275 1403 1131 1340 
Q 988 1278 909 1158 
Q 831 1038 831 891 
Q 831 666 1001 516 
Q 1172 366 1500 366 
Q 1825 366 2078 508 
Q 2331 650 2450 897 
Q 2541 1088 2541 1459 
L 2541 1666 
z
" transform="scale(0.015625)"/>
     <path id="ArialMT-6c" d="M 409 0 
L 409 4581 
L 972 4581 
L 972 0 
L 409 0 
z
" transform="scale(0.015625)"/>
     <path id="ArialMT-67" d="M 319 -275 
L 866 -356 
Q 900 -609 1056 -725 
Q 1266 -881 1628 -881 
Q 2019 -881 2231 -725 
Q 2444 -569 2519 -288 
Q 2563 -116 2559 434 
Q 2191 0 1641 0 
Q 956 0 581 494 
Q 206 988 206 1678 
Q 206 2153 378 2554 
Q 550 2956 876 3175 
Q 1203 3394 1644 3394 
Q 2231 3394 2613 2919 
L 2613 3319 
L 3131 3319 
L 3131 450 
Q 3131 -325 2973 -648 
Q 2816 -972 2473 -1159 
Q 2131 -1347 1631 -1347 
Q 1038 -1347 672 -1080 
Q 306 -813 319 -275 
z
M 784 1719 
Q 784 1066 1043 766 
Q 1303 466 1694 466 
Q 2081 466 2343 764 
Q 2606 1063 2606 1700 
Q 2606 2309 2336 2618 
Q 2066 2928 1684 2928 
Q 1309 2928 1046 2623 
Q 784 2319 784 1719 
z
" transform="scale(0.015625)"/>
     <path id="ArialMT-75" d="M 2597 0 
L 2597 488 
Q 2209 -75 1544 -75 
Q 1250 -75 995 37 
Q 741 150 617 320 
Q 494 491 444 738 
Q 409 903 409 1263 
L 409 3319 
L 972 3319 
L 972 1478 
Q 972 1038 1006 884 
Q 1059 663 1231 536 
Q 1403 409 1656 409 
Q 1909 409 2131 539 
Q 2353 669 2445 892 
Q 2538 1116 2538 1541 
L 2538 3319 
L 3100 3319 
L 3100 0 
L 2597 0 
z
" transform="scale(0.015625)"/>
     <path id="ArialMT-2c" d="M 569 0 
L 569 641 
L 1209 641 
L 1209 0 
Q 1209 -353 1084 -570 
Q 959 -788 688 -906 
L 531 -666 
Q 709 -588 793 -436 
Q 878 -284 888 0 
L 569 0 
z
" transform="scale(0.015625)"/>
     <path id="ArialMT-54" d="M 1659 0 
L 1659 4041 
L 150 4041 
L 150 4581 
L 3781 4581 
L 3781 4041 
L 2266 4041 
L 2266 0 
L 1659 0 
z
" transform="scale(0.015625)"/>
     <path id="ArialMT-70" d="M 422 -1272 
L 422 3319 
L 934 3319 
L 934 2888 
Q 1116 3141 1344 3267 
Q 1572 3394 1897 3394 
Q 2322 3394 2647 3175 
Q 2972 2956 3137 2557 
Q 3303 2159 3303 1684 
Q 3303 1175 3120 767 
Q 2938 359 2589 142 
Q 2241 -75 1856 -75 
Q 1575 -75 1351 44 
Q 1128 163 984 344 
L 984 -1272 
L 422 -1272 
z
M 931 1641 
Q 931 1000 1190 694 
Q 1450 388 1819 388 
Q 2194 388 2461 705 
Q 2728 1022 2728 1688 
Q 2728 2322 2467 2637 
Q 2206 2953 1844 2953 
Q 1484 2953 1207 2617 
Q 931 2281 931 1641 
z
" transform="scale(0.015625)"/>
     <path id="ArialMT-73" d="M 197 991 
L 753 1078 
Q 800 744 1014 566 
Q 1228 388 1613 388 
Q 2000 388 2187 545 
Q 2375 703 2375 916 
Q 2375 1106 2209 1216 
Q 2094 1291 1634 1406 
Q 1016 1563 777 1677 
Q 538 1791 414 1992 
Q 291 2194 291 2438 
Q 291 2659 392 2848 
Q 494 3038 669 3163 
Q 800 3259 1026 3326 
Q 1253 3394 1513 3394 
Q 1903 3394 2198 3281 
Q 2494 3169 2634 2976 
Q 2775 2784 2828 2463 
L 2278 2388 
Q 2241 2644 2061 2787 
Q 1881 2931 1553 2931 
Q 1166 2931 1000 2803 
Q 834 2675 834 2503 
Q 834 2394 903 2306 
Q 972 2216 1119 2156 
Q 1203 2125 1616 2013 
Q 2213 1853 2448 1751 
Q 2684 1650 2818 1456 
Q 2953 1263 2953 975 
Q 2953 694 2789 445 
Q 2625 197 2315 61 
Q 2006 -75 1616 -75 
Q 969 -75 630 194 
Q 291 463 197 991 
z
" transform="scale(0.015625)"/>
     <path id="ArialMT-74" d="M 1650 503 
L 1731 6 
Q 1494 -44 1306 -44 
Q 1000 -44 831 53 
Q 663 150 594 308 
Q 525 466 525 972 
L 525 2881 
L 113 2881 
L 113 3319 
L 525 3319 
L 525 4141 
L 1084 4478 
L 1084 3319 
L 1650 3319 
L 1650 2881 
L 1084 2881 
L 1084 941 
Q 1084 700 1114 631 
Q 1144 563 1211 522 
Q 1278 481 1403 481 
Q 1497 481 1650 503 
z
" transform="scale(0.015625)"/>
     <path id="ArialMT-76" d="M 1344 0 
L 81 3319 
L 675 3319 
L 1388 1331 
Q 1503 1009 1600 663 
Q 1675 925 1809 1294 
L 2547 3319 
L 3125 3319 
L 1869 0 
L 1344 0 
z
" transform="scale(0.015625)"/>
    </defs>
    <use xlink:href="#ArialMT-64"/>
    <use xlink:href="#ArialMT-42" x="55.615234"/>
    <use xlink:href="#ArialMT-28" x="122.314453"/>
    <use xlink:href="#ArialMT-65" x="155.615234"/>
    <use xlink:href="#ArialMT-72" x="211.230469"/>
    <use xlink:href="#ArialMT-72" x="244.53125"/>
    <use xlink:href="#ArialMT-29" x="277.832031"/>
    <use xlink:href="#ArialMT-20" x="311.132812"/>
    <use xlink:href="#ArialMT-66" x="338.916016"/>
    <use xlink:href="#ArialMT-6f" x="366.699219"/>
    <use xlink:href="#ArialMT-72" x="422.314453"/>
    <use xlink:href="#ArialMT-20" x="455.615234"/>
    <use xlink:href="#ArialMT-72" x="483.398438"/>
    <use xlink:href="#ArialMT-65" x="516.699219"/>
    <use xlink:href="#ArialMT-61" x="572.314453"/>
    <use xlink:href="#ArialMT-6c" x="627.929688"/>
    <use xlink:href="#ArialMT-20" x="650.146484"/>
    <use xlink:href="#ArialMT-67" x="677.929688"/>
    <use xlink:href="#ArialMT-72" x="733.544922"/>
    <use xlink:href="#ArialMT-6f" x="766.845703"/>
    <use xlink:href="#ArialMT-75" x="822.460938"/>
    <use xlink:href="#ArialMT-6e" x="878.076172"/>
    <use xlink:href="#ArialMT-64" x="933.691406"/>
    <use xlink:href="#ArialMT-2c" x="989.306641"/>
    <use xlink:href="#ArialMT-20" x="1017.089844"/>
    <use xlink:href="#ArialMT-54" x="1043.123047"/>
    <use xlink:href="#ArialMT-4d" x="1104.207031"/>
    <use xlink:href="#ArialMT-20" x="1187.507812"/>
    <use xlink:href="#ArialMT-70" x="1215.291016"/>
    <use xlink:href="#ArialMT-6f" x="1270.90625"/>
    <use xlink:href="#ArialMT-6c" x="1326.521484"/>
    <use xlink:href="#ArialMT-61" x="1348.738281"/>
    <use xlink:href="#ArialMT-72" x="1404.353516"/>
    <use xlink:href="#ArialMT-69" x="1437.654297"/>
    <use xlink:href="#ArialMT-73" x="1459.871094"/>
    <use xlink:href="#ArialMT-61" x="1509.871094"/>
    <use xlink:href="#ArialMT-74" x="1565.486328"/>
    <use xlink:href="#ArialMT-69" x="1593.269531"/>
    <use xlink:href="#ArialMT-6f" x="1615.486328"/>
    <use xlink:href="#ArialMT-6e" x="1671.101562"/>
    <use xlink:href="#ArialMT-2c" x="1726.716797"/>
    <use xlink:href="#ArialMT-20" x="1754.5"/>
    <use xlink:href="#ArialMT-31" x="1782.283203"/>
    <use xlink:href="#ArialMT-20" x="1837.898438"/>
    <use xlink:href="#ArialMT-61" x="1865.681641"/>
    <use xlink:href="#ArialMT-76" x="1921.296875"/>
    <use xlink:href="#ArialMT-65" x="1971.296875"/>
    <use xlink:href="#ArialMT-72" x="2026.912109"/>
    <use xlink:href="#ArialMT-61" x="2060.212891"/>
    <use xlink:href="#ArialMT-67" x="2115.828125"/>
    <use xlink:href="#ArialMT-69" x="2171.443359"/>
    <use xlink:href="#ArialMT-6e" x="2193.660156"/>
    <use xlink:href="#ArialMT-67" x="2249.275391"/>
    <use xlink:href="#ArialMT-20" x="2304.890625"/>
    <use xlink:href="#ArialMT-70" x="2332.673828"/>
    <use xlink:href="#ArialMT-6f" x="2388.289062"/>
    <use xlink:href="#ArialMT-69" x="2443.904297"/>
    <use xlink:href="#ArialMT-6e" x="2466.121094"/>
    <use xlink:href="#ArialMT-74" x="2521.736328"/>
   </g>
  </g>
  <g id="legend_1">
   <g id="text_48">
    <!-- Si -->
    <g style="fill: #262626" transform="translate(1456.533984 167.542344) scale(0.12 -0.12)">
     <use xlink:href="#ArialMT-53"/>
     <use xlink:href="#ArialMT-69" x="66.699219"/>
    </g>
   </g>
   <g id="line2d_88">
    <path d="M 1438.828594 179.450938 
L 1449.828594 179.450938 
L 1460.828594 179.450938 
" style="fill: none; stroke: #4c72b0; stroke-width: 0.7; stroke-linecap: round"/>
   </g>
   <g id="text_49">
    <!-- SE -->
    <g style="fill: #262626" transform="translate(1469.628594 183.300938) scale(0.11 -0.11)">
     <defs>
      <path id="ArialMT-45" d="M 506 0 
L 506 4581 
L 3819 4581 
L 3819 4041 
L 1113 4041 
L 1113 2638 
L 3647 2638 
L 3647 2100 
L 1113 2100 
L 1113 541 
L 3925 541 
L 3925 0 
L 506 0 
z
" transform="scale(0.015625)"/>
     </defs>
     <use xlink:href="#ArialMT-53"/>
     <use xlink:href="#ArialMT-45" x="66.699219"/>
    </g>
   </g>
   <g id="line2d_89">
    <path d="M 1438.828594 195.010781 
L 1449.828594 195.010781 
L 1460.828594 195.010781 
" style="fill: none; stroke: #dd8452; stroke-width: 0.7; stroke-linecap: round"/>
   </g>
   <g id="text_50">
    <!-- SH -->
    <g style="fill: #262626" transform="translate(1469.628594 198.860781) scale(0.11 -0.11)">
     <use xlink:href="#ArialMT-53"/>
     <use xlink:href="#ArialMT-48" x="66.699219"/>
    </g>
   </g>
  </g>
 </g>
 <defs>
  <clipPath id="p8efc26f795">
   <rect x="49.5" y="79.2" width="249.998932" height="233.46"/>
  </clipPath>
  <clipPath id="p01c5922548">
   <rect x="312.458932" y="79.2" width="249.998932" height="233.46"/>
  </clipPath>
  <clipPath id="p55f8efc27c">
   <rect x="575.417864" y="79.2" width="249.998932" height="233.46"/>
  </clipPath>
  <clipPath id="p62652d1bde">
   <rect x="838.376796" y="79.2" width="249.998932" height="233.46"/>
  </clipPath>
  <clipPath id="p94e8ae3b54">
   <rect x="1101.335728" y="79.2" width="249.998932" height="233.46"/>
  </clipPath>
 </defs>
</svg>
