<?xml version="1.0" encoding="utf-8" standalone="no"?>
<!DOCTYPE svg PUBLIC "-//W3C//DTD SVG 1.1//EN"
  "http://www.w3.org/Graphics/SVG/1.1/DTD/svg11.dtd">
<svg xmlns:xlink="http://www.w3.org/1999/xlink" width="1494.81pt" height="360pt" viewBox="0 0 1494.81 360" xmlns="http://www.w3.org/2000/svg" version="1.1">
 <metadata>
  <rdf:RDF xmlns:dc="http://purl.org/dc/elements/1.1/" xmlns:cc="http://creativecommons.org/ns#" xmlns:rdf="http://www.w3.org/1999/02/22-rdf-syntax-ns#">
   <cc:Work>
    <dc:type rdf:resource="http://purl.org/dc/dcmitype/StillImage"/>
    <dc:date>2024-01-29T14:44:39.714963</dc:date>
    <dc:format>image/svg+xml</dc:format>
    <dc:creator>
     <cc:Agent>
      <dc:title>Matplotlib v3.8.1, https://matplotlib.org/</dc:title>
     </cc:Agent>
    </dc:creator>
   </cc:Work>
  </rdf:RDF>
 </metadata>
 <defs>
  <style type="text/css">*{stroke-linejoin: round; stroke-linecap: butt}</style>
 </defs>
 <g id="figure_1">
  <g id="patch_1">
   <path d="M 0 360 
L 1494.81 360 
L 1494.81 0 
L 0 0 
z
" style="fill: #ffffff"/>
  </g>
  <g id="axes_1">
   <g id="patch_2">
    <path d="M 65.07 312.66 
L 311.967832 312.66 
L 311.967832 79.2 
L 65.07 79.2 
z
" style="fill: #eaeaf2"/>
   </g>
   <g id="matplotlib.axis_1">
    <g id="xtick_1">
     <g id="line2d_1">
      <path d="M 65.07 312.66 
L 65.07 79.2 
" clip-path="url(#p69ebfef5f2)" style="fill: none; stroke: #ffffff; stroke-linecap: round"/>
     </g>
     <g id="text_1">
      <!-- 0 -->
      <g style="fill: #262626" transform="translate(62.011484 330.033594) scale(0.11 -0.11)">
       <defs>
        <path id="ArialMT-30" d="M 266 2259 
Q 266 3072 433 3567 
Q 600 4063 929 4331 
Q 1259 4600 1759 4600 
Q 2128 4600 2406 4451 
Q 2684 4303 2865 4023 
Q 3047 3744 3150 3342 
Q 3253 2941 3253 2259 
Q 3253 1453 3087 958 
Q 2922 463 2592 192 
Q 2263 -78 1759 -78 
Q 1097 -78 719 397 
Q 266 969 266 2259 
z
M 844 2259 
Q 844 1131 1108 757 
Q 1372 384 1759 384 
Q 2147 384 2411 759 
Q 2675 1134 2675 2259 
Q 2675 3391 2411 3762 
Q 2147 4134 1753 4134 
Q 1366 4134 1134 3806 
Q 844 3388 844 2259 
z
" transform="scale(0.015625)"/>
       </defs>
       <use xlink:href="#ArialMT-30"/>
      </g>
     </g>
    </g>
    <g id="xtick_2">
     <g id="line2d_2">
      <path d="M 119.936185 312.66 
L 119.936185 79.2 
" clip-path="url(#p69ebfef5f2)" style="fill: none; stroke: #ffffff; stroke-linecap: round"/>
     </g>
     <g id="text_2">
      <!-- 20 -->
      <g style="fill: #262626" transform="translate(113.819154 330.033594) scale(0.11 -0.11)">
       <defs>
        <path id="ArialMT-32" d="M 3222 541 
L 3222 0 
L 194 0 
Q 188 203 259 391 
Q 375 700 629 1000 
Q 884 1300 1366 1694 
Q 2113 2306 2375 2664 
Q 2638 3022 2638 3341 
Q 2638 3675 2398 3904 
Q 2159 4134 1775 4134 
Q 1369 4134 1125 3890 
Q 881 3647 878 3216 
L 300 3275 
Q 359 3922 746 4261 
Q 1134 4600 1788 4600 
Q 2447 4600 2831 4234 
Q 3216 3869 3216 3328 
Q 3216 3053 3103 2787 
Q 2991 2522 2730 2228 
Q 2469 1934 1863 1422 
Q 1356 997 1212 845 
Q 1069 694 975 541 
L 3222 541 
z
" transform="scale(0.015625)"/>
       </defs>
       <use xlink:href="#ArialMT-32"/>
       <use xlink:href="#ArialMT-30" x="55.615234"/>
      </g>
     </g>
    </g>
    <g id="xtick_3">
     <g id="line2d_3">
      <path d="M 174.80237 312.66 
L 174.80237 79.2 
" clip-path="url(#p69ebfef5f2)" style="fill: none; stroke: #ffffff; stroke-linecap: round"/>
     </g>
     <g id="text_3">
      <!-- 40 -->
      <g style="fill: #262626" transform="translate(168.685339 330.033594) scale(0.11 -0.11)">
       <defs>
        <path id="ArialMT-34" d="M 2069 0 
L 2069 1097 
L 81 1097 
L 81 1613 
L 2172 4581 
L 2631 4581 
L 2631 1613 
L 3250 1613 
L 3250 1097 
L 2631 1097 
L 2631 0 
L 2069 0 
z
M 2069 1613 
L 2069 3678 
L 634 1613 
L 2069 1613 
z
" transform="scale(0.015625)"/>
       </defs>
       <use xlink:href="#ArialMT-34"/>
       <use xlink:href="#ArialMT-30" x="55.615234"/>
      </g>
     </g>
    </g>
    <g id="xtick_4">
     <g id="line2d_4">
      <path d="M 229.668555 312.66 
L 229.668555 79.2 
" clip-path="url(#p69ebfef5f2)" style="fill: none; stroke: #ffffff; stroke-linecap: round"/>
     </g>
     <g id="text_4">
      <!-- 60 -->
      <g style="fill: #262626" transform="translate(223.551524 330.033594) scale(0.11 -0.11)">
       <defs>
        <path id="ArialMT-36" d="M 3184 3459 
L 2625 3416 
Q 2550 3747 2413 3897 
Q 2184 4138 1850 4138 
Q 1581 4138 1378 3988 
Q 1113 3794 959 3422 
Q 806 3050 800 2363 
Q 1003 2672 1297 2822 
Q 1591 2972 1913 2972 
Q 2475 2972 2870 2558 
Q 3266 2144 3266 1488 
Q 3266 1056 3080 686 
Q 2894 316 2569 119 
Q 2244 -78 1831 -78 
Q 1128 -78 684 439 
Q 241 956 241 2144 
Q 241 3472 731 4075 
Q 1159 4600 1884 4600 
Q 2425 4600 2770 4297 
Q 3116 3994 3184 3459 
z
M 888 1484 
Q 888 1194 1011 928 
Q 1134 663 1356 523 
Q 1578 384 1822 384 
Q 2178 384 2434 671 
Q 2691 959 2691 1453 
Q 2691 1928 2437 2201 
Q 2184 2475 1800 2475 
Q 1419 2475 1153 2201 
Q 888 1928 888 1484 
z
" transform="scale(0.015625)"/>
       </defs>
       <use xlink:href="#ArialMT-36"/>
       <use xlink:href="#ArialMT-30" x="55.615234"/>
      </g>
     </g>
    </g>
    <g id="xtick_5">
     <g id="line2d_5">
      <path d="M 284.53474 312.66 
L 284.53474 79.2 
" clip-path="url(#p69ebfef5f2)" style="fill: none; stroke: #ffffff; stroke-linecap: round"/>
     </g>
     <g id="text_5">
      <!-- 80 -->
      <g style="fill: #262626" transform="translate(278.417709 330.033594) scale(0.11 -0.11)">
       <defs>
        <path id="ArialMT-38" d="M 1131 2484 
Q 781 2613 612 2850 
Q 444 3088 444 3419 
Q 444 3919 803 4259 
Q 1163 4600 1759 4600 
Q 2359 4600 2725 4251 
Q 3091 3903 3091 3403 
Q 3091 3084 2923 2848 
Q 2756 2613 2416 2484 
Q 2838 2347 3058 2040 
Q 3278 1734 3278 1309 
Q 3278 722 2862 322 
Q 2447 -78 1769 -78 
Q 1091 -78 675 323 
Q 259 725 259 1325 
Q 259 1772 486 2073 
Q 713 2375 1131 2484 
z
M 1019 3438 
Q 1019 3113 1228 2906 
Q 1438 2700 1772 2700 
Q 2097 2700 2305 2904 
Q 2513 3109 2513 3406 
Q 2513 3716 2298 3927 
Q 2084 4138 1766 4138 
Q 1444 4138 1231 3931 
Q 1019 3725 1019 3438 
z
M 838 1322 
Q 838 1081 952 856 
Q 1066 631 1291 507 
Q 1516 384 1775 384 
Q 2178 384 2440 643 
Q 2703 903 2703 1303 
Q 2703 1709 2433 1975 
Q 2163 2241 1756 2241 
Q 1359 2241 1098 1978 
Q 838 1716 838 1322 
z
" transform="scale(0.015625)"/>
       </defs>
       <use xlink:href="#ArialMT-38"/>
       <use xlink:href="#ArialMT-30" x="55.615234"/>
      </g>
     </g>
    </g>
    <g id="text_6">
     <!-- $\theta$° -->
     <g style="fill: #262626" transform="translate(182.398916 344.809219) scale(0.12 -0.12)">
      <defs>
       <path id="DejaVuSans-Oblique-3b8" d="M 2913 2219 
L 925 2219 
Q 791 1284 928 888 
Q 1100 400 1566 400 
Q 2034 400 2391 891 
Q 2703 1322 2913 2219 
z
M 3009 2750 
Q 3094 3638 2984 3950 
Q 2813 4444 2353 4444 
Q 1875 4444 1525 3956 
Q 1250 3563 1034 2750 
L 3009 2750 
z
M 2444 4913 
Q 3194 4913 3494 4250 
Q 3794 3591 3566 2422 
Q 3341 1256 2781 594 
Q 2225 -72 1475 -72 
Q 722 -72 425 594 
Q 128 1256 353 2422 
Q 581 3591 1134 4250 
Q 1691 4913 2444 4913 
z
" transform="scale(0.015625)"/>
       <path id="ArialMT-b0" d="M 400 3794 
Q 400 4153 654 4406 
Q 909 4659 1266 4659 
Q 1628 4659 1881 4406 
Q 2134 4153 2134 3794 
Q 2134 3434 1879 3179 
Q 1625 2925 1266 2925 
Q 909 2925 654 3178 
Q 400 3431 400 3794 
z
M 741 3794 
Q 741 3575 895 3420 
Q 1050 3266 1269 3266 
Q 1484 3266 1639 3420 
Q 1794 3575 1794 3794 
Q 1794 4013 1639 4167 
Q 1484 4322 1269 4322 
Q 1050 4322 895 4167 
Q 741 4013 741 3794 
z
" transform="scale(0.015625)"/>
      </defs>
      <use xlink:href="#DejaVuSans-Oblique-3b8" transform="translate(0 0.234375)"/>
      <use xlink:href="#ArialMT-b0" transform="translate(61.181641 0.234375)"/>
     </g>
    </g>
   </g>
   <g id="matplotlib.axis_2">
    <g id="ytick_1">
     <g id="line2d_6">
      <path d="M 65.07 312.66 
L 311.967832 312.66 
" clip-path="url(#p69ebfef5f2)" style="fill: none; stroke: #ffffff; stroke-linecap: round"/>
     </g>
     <g id="text_7">
      <!-- −12 -->
      <g style="fill: #262626" transform="translate(36.91125 316.596797) scale(0.11 -0.11)">
       <defs>
        <path id="ArialMT-2212" d="M 3381 1997 
L 356 1997 
L 356 2522 
L 3381 2522 
L 3381 1997 
z
" transform="scale(0.015625)"/>
        <path id="ArialMT-31" d="M 2384 0 
L 1822 0 
L 1822 3584 
Q 1619 3391 1289 3197 
Q 959 3003 697 2906 
L 697 3450 
Q 1169 3672 1522 3987 
Q 1875 4303 2022 4600 
L 2384 4600 
L 2384 0 
z
" transform="scale(0.015625)"/>
       </defs>
       <use xlink:href="#ArialMT-2212"/>
       <use xlink:href="#ArialMT-31" x="58.398438"/>
       <use xlink:href="#ArialMT-32" x="114.013672"/>
      </g>
     </g>
    </g>
    <g id="ytick_2">
     <g id="line2d_7">
      <path d="M 65.07 283.4775 
L 311.967832 283.4775 
" clip-path="url(#p69ebfef5f2)" style="fill: none; stroke: #ffffff; stroke-linecap: round"/>
     </g>
     <g id="text_8">
      <!-- −10 -->
      <g style="fill: #262626" transform="translate(36.91125 287.414297) scale(0.11 -0.11)">
       <use xlink:href="#ArialMT-2212"/>
       <use xlink:href="#ArialMT-31" x="58.398438"/>
       <use xlink:href="#ArialMT-30" x="114.013672"/>
      </g>
     </g>
    </g>
    <g id="ytick_3">
     <g id="line2d_8">
      <path d="M 65.07 254.295 
L 311.967832 254.295 
" clip-path="url(#p69ebfef5f2)" style="fill: none; stroke: #ffffff; stroke-linecap: round"/>
     </g>
     <g id="text_9">
      <!-- −8 -->
      <g style="fill: #262626" transform="translate(43.028281 258.231797) scale(0.11 -0.11)">
       <use xlink:href="#ArialMT-2212"/>
       <use xlink:href="#ArialMT-38" x="58.398438"/>
      </g>
     </g>
    </g>
    <g id="ytick_4">
     <g id="line2d_9">
      <path d="M 65.07 225.1125 
L 311.967832 225.1125 
" clip-path="url(#p69ebfef5f2)" style="fill: none; stroke: #ffffff; stroke-linecap: round"/>
     </g>
     <g id="text_10">
      <!-- −6 -->
      <g style="fill: #262626" transform="translate(43.028281 229.049297) scale(0.11 -0.11)">
       <use xlink:href="#ArialMT-2212"/>
       <use xlink:href="#ArialMT-36" x="58.398438"/>
      </g>
     </g>
    </g>
    <g id="ytick_5">
     <g id="line2d_10">
      <path d="M 65.07 195.93 
L 311.967832 195.93 
" clip-path="url(#p69ebfef5f2)" style="fill: none; stroke: #ffffff; stroke-linecap: round"/>
     </g>
     <g id="text_11">
      <!-- −4 -->
      <g style="fill: #262626" transform="translate(43.028281 199.866797) scale(0.11 -0.11)">
       <use xlink:href="#ArialMT-2212"/>
       <use xlink:href="#ArialMT-34" x="58.398438"/>
      </g>
     </g>
    </g>
    <g id="ytick_6">
     <g id="line2d_11">
      <path d="M 65.07 166.7475 
L 311.967832 166.7475 
" clip-path="url(#p69ebfef5f2)" style="fill: none; stroke: #ffffff; stroke-linecap: round"/>
     </g>
     <g id="text_12">
      <!-- −2 -->
      <g style="fill: #262626" transform="translate(43.028281 170.684297) scale(0.11 -0.11)">
       <use xlink:href="#ArialMT-2212"/>
       <use xlink:href="#ArialMT-32" x="58.398438"/>
      </g>
     </g>
    </g>
    <g id="ytick_7">
     <g id="line2d_12">
      <path d="M 65.07 137.565 
L 311.967832 137.565 
" clip-path="url(#p69ebfef5f2)" style="fill: none; stroke: #ffffff; stroke-linecap: round"/>
     </g>
     <g id="text_13">
      <!-- 0 -->
      <g style="fill: #262626" transform="translate(49.452969 141.501797) scale(0.11 -0.11)">
       <use xlink:href="#ArialMT-30"/>
      </g>
     </g>
    </g>
    <g id="ytick_8">
     <g id="line2d_13">
      <path d="M 65.07 108.3825 
L 311.967832 108.3825 
" clip-path="url(#p69ebfef5f2)" style="fill: none; stroke: #ffffff; stroke-linecap: round"/>
     </g>
     <g id="text_14">
      <!-- 2 -->
      <g style="fill: #262626" transform="translate(49.452969 112.319297) scale(0.11 -0.11)">
       <use xlink:href="#ArialMT-32"/>
      </g>
     </g>
    </g>
    <g id="ytick_9">
     <g id="line2d_14">
      <path d="M 65.07 79.2 
L 311.967832 79.2 
" clip-path="url(#p69ebfef5f2)" style="fill: none; stroke: #ffffff; stroke-linecap: round"/>
     </g>
     <g id="text_15">
      <!-- 4 -->
      <g style="fill: #262626" transform="translate(49.452969 83.136797) scale(0.11 -0.11)">
       <use xlink:href="#ArialMT-34"/>
      </g>
     </g>
    </g>
    <g id="text_16">
     <!-- dB(err) -->
     <g style="fill: #262626" transform="translate(30.385625 214.596563) rotate(-90) scale(0.12 -0.12)">
      <defs>
       <path id="ArialMT-64" d="M 2575 0 
L 2575 419 
Q 2259 -75 1647 -75 
Q 1250 -75 917 144 
Q 584 363 401 755 
Q 219 1147 219 1656 
Q 219 2153 384 2558 
Q 550 2963 881 3178 
Q 1213 3394 1622 3394 
Q 1922 3394 2156 3267 
Q 2391 3141 2538 2938 
L 2538 4581 
L 3097 4581 
L 3097 0 
L 2575 0 
z
M 797 1656 
Q 797 1019 1065 703 
Q 1334 388 1700 388 
Q 2069 388 2326 689 
Q 2584 991 2584 1609 
Q 2584 2291 2321 2609 
Q 2059 2928 1675 2928 
Q 1300 2928 1048 2622 
Q 797 2316 797 1656 
z
" transform="scale(0.015625)"/>
       <path id="ArialMT-42" d="M 469 0 
L 469 4581 
L 2188 4581 
Q 2713 4581 3030 4442 
Q 3347 4303 3526 4014 
Q 3706 3725 3706 3409 
Q 3706 3116 3547 2856 
Q 3388 2597 3066 2438 
Q 3481 2316 3704 2022 
Q 3928 1728 3928 1328 
Q 3928 1006 3792 729 
Q 3656 453 3456 303 
Q 3256 153 2954 76 
Q 2653 0 2216 0 
L 469 0 
z
M 1075 2656 
L 2066 2656 
Q 2469 2656 2644 2709 
Q 2875 2778 2992 2937 
Q 3109 3097 3109 3338 
Q 3109 3566 3000 3739 
Q 2891 3913 2687 3977 
Q 2484 4041 1991 4041 
L 1075 4041 
L 1075 2656 
z
M 1075 541 
L 2216 541 
Q 2509 541 2628 563 
Q 2838 600 2978 687 
Q 3119 775 3209 942 
Q 3300 1109 3300 1328 
Q 3300 1584 3169 1773 
Q 3038 1963 2805 2039 
Q 2572 2116 2134 2116 
L 1075 2116 
L 1075 541 
z
" transform="scale(0.015625)"/>
       <path id="ArialMT-28" d="M 1497 -1347 
Q 1031 -759 709 28 
Q 388 816 388 1659 
Q 388 2403 628 3084 
Q 909 3875 1497 4659 
L 1900 4659 
Q 1522 4009 1400 3731 
Q 1209 3300 1100 2831 
Q 966 2247 966 1656 
Q 966 153 1900 -1347 
L 1497 -1347 
z
" transform="scale(0.015625)"/>
       <path id="ArialMT-65" d="M 2694 1069 
L 3275 997 
Q 3138 488 2766 206 
Q 2394 -75 1816 -75 
Q 1088 -75 661 373 
Q 234 822 234 1631 
Q 234 2469 665 2931 
Q 1097 3394 1784 3394 
Q 2450 3394 2872 2941 
Q 3294 2488 3294 1666 
Q 3294 1616 3291 1516 
L 816 1516 
Q 847 969 1125 678 
Q 1403 388 1819 388 
Q 2128 388 2347 550 
Q 2566 713 2694 1069 
z
M 847 1978 
L 2700 1978 
Q 2663 2397 2488 2606 
Q 2219 2931 1791 2931 
Q 1403 2931 1139 2672 
Q 875 2413 847 1978 
z
" transform="scale(0.015625)"/>
       <path id="ArialMT-72" d="M 416 0 
L 416 3319 
L 922 3319 
L 922 2816 
Q 1116 3169 1280 3281 
Q 1444 3394 1641 3394 
Q 1925 3394 2219 3213 
L 2025 2691 
Q 1819 2813 1613 2813 
Q 1428 2813 1281 2702 
Q 1134 2591 1072 2394 
Q 978 2094 978 1738 
L 978 0 
L 416 0 
z
" transform="scale(0.015625)"/>
       <path id="ArialMT-29" d="M 791 -1347 
L 388 -1347 
Q 1322 153 1322 1656 
Q 1322 2244 1188 2822 
Q 1081 3291 891 3722 
Q 769 4003 388 4659 
L 791 4659 
Q 1378 3875 1659 3084 
Q 1900 2403 1900 1659 
Q 1900 816 1576 28 
Q 1253 -759 791 -1347 
z
" transform="scale(0.015625)"/>
      </defs>
      <use xlink:href="#ArialMT-64"/>
      <use xlink:href="#ArialMT-42" x="55.615234"/>
      <use xlink:href="#ArialMT-28" x="122.314453"/>
      <use xlink:href="#ArialMT-65" x="155.615234"/>
      <use xlink:href="#ArialMT-72" x="211.230469"/>
      <use xlink:href="#ArialMT-72" x="244.53125"/>
      <use xlink:href="#ArialMT-29" x="277.832031"/>
     </g>
    </g>
   </g>
   <g id="PolyCollection_1"/>
   <g id="PolyCollection_2"/>
   <g id="line2d_15">
    <path d="M 65.07 141.777297 
L 67.813309 141.783738 
L 70.556618 141.803049 
L 73.299928 141.835197 
L 76.043237 141.880125 
L 78.786546 141.937754 
L 81.529855 142.007986 
L 84.273165 142.090698 
L 87.016474 142.185746 
L 89.759783 142.292967 
L 92.503092 142.412175 
L 95.246402 142.54317 
L 97.989711 142.685723 
L 100.73302 142.839596 
L 103.476329 143.004529 
L 106.219639 143.180244 
L 108.962948 143.366449 
L 111.706257 143.562836 
L 114.449566 143.769082 
L 117.192876 143.98485 
L 119.936185 144.209792 
L 122.679494 144.443545 
L 125.422803 144.685737 
L 128.166113 144.935988 
L 130.909422 145.193905 
L 133.652731 145.459089 
L 136.39604 145.731134 
L 139.13935 146.009628 
L 141.882659 146.294152 
L 144.625968 146.584284 
L 147.369277 146.879599 
L 150.112587 147.179667 
L 152.855896 147.484059 
L 155.599205 147.792344 
L 158.342514 148.10409 
L 161.085824 148.418865 
L 163.829133 148.736242 
L 166.572442 149.055792 
L 169.315751 149.37709 
L 172.059061 149.699716 
L 174.80237 150.02325 
L 177.545679 150.347281 
L 180.288988 150.6714 
L 183.032298 150.995203 
L 185.775607 151.318296 
L 188.518916 151.640287 
L 191.262225 151.960793 
L 194.005535 152.279437 
L 196.748844 152.59585 
L 199.492153 152.909672 
L 202.235462 153.220548 
L 204.978772 153.528134 
L 207.722081 153.832093 
L 210.46539 154.132097 
L 213.208699 154.427826 
L 215.952009 154.718972 
L 218.695318 155.005231 
L 221.438627 155.286312 
L 224.181936 155.561931 
L 226.925246 155.831816 
L 229.668555 156.0957 
L 232.411864 156.353328 
L 235.155173 156.604455 
L 237.898483 156.848843 
L 240.641792 157.086264 
L 243.385101 157.316499 
L 246.12841 157.539339 
L 248.87172 157.754584 
L 251.615029 157.962041 
L 254.358338 158.161528 
L 257.101647 158.352872 
L 259.844957 158.535907 
L 262.588266 158.710476 
L 265.331575 158.876434 
L 268.074884 159.033639 
L 270.818194 159.181961 
L 273.561503 159.321279 
L 276.304812 159.451478 
L 279.048121 159.572453 
L 281.791431 159.684105 
L 284.53474 159.786346 
L 287.278049 159.879093 
L 290.021358 159.962274 
L 292.764668 160.035823 
L 295.507977 160.099681 
L 298.251286 160.1538 
L 300.994595 160.198136 
L 303.737905 160.232655 
L 306.481214 160.257331 
L 309.224523 160.272144 
L 311.967832 137.565 
" clip-path="url(#p69ebfef5f2)" style="fill: none; stroke: #4c72b0; stroke-width: 0.7; stroke-linecap: round"/>
   </g>
   <g id="line2d_16">
    <path d="M 65.07 176.814053 
L 67.813309 176.777595 
L 70.556618 176.668418 
L 73.299928 176.48711 
L 76.043237 176.234643 
L 78.786546 175.912357 
L 81.529855 175.52194 
L 84.273165 175.065408 
L 87.016474 174.545071 
L 89.759783 173.963508 
L 92.503092 173.323531 
L 95.246402 172.628149 
L 97.989711 171.880539 
L 100.73302 171.084001 
L 103.476329 170.241932 
L 106.219639 169.357791 
L 108.962948 168.435064 
L 111.706257 167.477238 
L 114.449566 166.487777 
L 117.192876 165.470092 
L 119.936185 164.427528 
L 122.679494 163.363336 
L 125.422803 162.28067 
L 128.166113 161.182565 
L 130.909422 160.071929 
L 133.652731 158.951542 
L 136.39604 157.82404 
L 139.13935 156.691921 
L 141.882659 155.557539 
L 144.625968 154.423104 
L 147.369277 153.290686 
L 150.112587 152.162214 
L 152.855896 151.039481 
L 155.599205 149.924149 
L 158.342514 148.817753 
L 161.085824 147.721703 
L 163.829133 146.637296 
L 166.572442 145.565716 
L 169.315751 144.508042 
L 172.059061 143.465255 
L 174.80237 142.438242 
L 177.545679 141.427801 
L 180.288988 140.43465 
L 183.032298 139.459431 
L 185.775607 138.502713 
L 188.518916 137.565 
L 191.262225 136.646736 
L 194.005535 135.748309 
L 196.748844 134.870052 
L 199.492153 134.012256 
L 202.235462 133.175163 
L 204.978772 132.358978 
L 207.722081 131.56387 
L 210.46539 130.789976 
L 213.208699 130.0374 
L 215.952009 129.306221 
L 218.695318 128.596496 
L 221.438627 127.908258 
L 224.181936 127.24152 
L 226.925246 126.596281 
L 229.668555 125.972523 
L 232.411864 125.370215 
L 235.155173 124.789315 
L 237.898483 124.229771 
L 240.641792 123.691524 
L 243.385101 123.174506 
L 246.12841 122.678646 
L 248.87172 122.203866 
L 251.615029 121.750086 
L 254.358338 121.317224 
L 257.101647 120.905195 
L 259.844957 120.513915 
L 262.588266 120.143299 
L 265.331575 119.793263 
L 268.074884 119.463726 
L 270.818194 119.154607 
L 273.561503 118.865828 
L 276.304812 118.597314 
L 279.048121 118.348995 
L 281.791431 118.120802 
L 284.53474 117.912674 
L 287.278049 117.724551 
L 290.021358 117.556379 
L 292.764668 117.408109 
L 295.507977 117.279698 
L 298.251286 117.171109 
L 300.994595 117.082308 
L 303.737905 117.013268 
L 306.481214 116.963969 
L 309.224523 116.934395 
L 311.967832 137.565 
" clip-path="url(#p69ebfef5f2)" style="fill: none; stroke: #dd8452; stroke-width: 0.7; stroke-linecap: round"/>
   </g>
   <g id="line2d_17"/>
   <g id="line2d_18"/>
   <g id="line2d_19">
    <path d="M 65.07 137.565 
L 311.967832 137.565 
" clip-path="url(#p69ebfef5f2)" style="fill: none; stroke-dasharray: 5.55,2.4; stroke-dashoffset: 0; stroke: #ff0000; stroke-width: 1.5"/>
   </g>
   <g id="patch_3">
    <path d="M 65.07 312.66 
L 65.07 79.2 
" style="fill: none; stroke: #ffffff; stroke-width: 1.25; stroke-linejoin: miter; stroke-linecap: square"/>
   </g>
   <g id="patch_4">
    <path d="M 65.07 312.66 
L 311.967832 312.66 
" style="fill: none; stroke: #ffffff; stroke-width: 1.25; stroke-linejoin: miter; stroke-linecap: square"/>
   </g>
   <g id="text_17">
    <!-- fMHz = 30 -->
    <g style="fill: #262626" transform="translate(161.009854 73.2) scale(0.12 -0.12)">
     <defs>
      <path id="ArialMT-66" d="M 556 0 
L 556 2881 
L 59 2881 
L 59 3319 
L 556 3319 
L 556 3672 
Q 556 4006 616 4169 
Q 697 4388 901 4523 
Q 1106 4659 1475 4659 
Q 1713 4659 2000 4603 
L 1916 4113 
Q 1741 4144 1584 4144 
Q 1328 4144 1222 4034 
Q 1116 3925 1116 3625 
L 1116 3319 
L 1763 3319 
L 1763 2881 
L 1116 2881 
L 1116 0 
L 556 0 
z
" transform="scale(0.015625)"/>
      <path id="ArialMT-4d" d="M 475 0 
L 475 4581 
L 1388 4581 
L 2472 1338 
Q 2622 884 2691 659 
Q 2769 909 2934 1394 
L 4031 4581 
L 4847 4581 
L 4847 0 
L 4263 0 
L 4263 3834 
L 2931 0 
L 2384 0 
L 1059 3900 
L 1059 0 
L 475 0 
z
" transform="scale(0.015625)"/>
      <path id="ArialMT-48" d="M 513 0 
L 513 4581 
L 1119 4581 
L 1119 2700 
L 3500 2700 
L 3500 4581 
L 4106 4581 
L 4106 0 
L 3500 0 
L 3500 2159 
L 1119 2159 
L 1119 0 
L 513 0 
z
" transform="scale(0.015625)"/>
      <path id="ArialMT-7a" d="M 125 0 
L 125 456 
L 2238 2881 
Q 1878 2863 1603 2863 
L 250 2863 
L 250 3319 
L 2963 3319 
L 2963 2947 
L 1166 841 
L 819 456 
Q 1197 484 1528 484 
L 3063 484 
L 3063 0 
L 125 0 
z
" transform="scale(0.015625)"/>
      <path id="ArialMT-20" transform="scale(0.015625)"/>
      <path id="ArialMT-3d" d="M 3381 2694 
L 356 2694 
L 356 3219 
L 3381 3219 
L 3381 2694 
z
M 3381 1303 
L 356 1303 
L 356 1828 
L 3381 1828 
L 3381 1303 
z
" transform="scale(0.015625)"/>
      <path id="ArialMT-33" d="M 269 1209 
L 831 1284 
Q 928 806 1161 595 
Q 1394 384 1728 384 
Q 2125 384 2398 659 
Q 2672 934 2672 1341 
Q 2672 1728 2419 1979 
Q 2166 2231 1775 2231 
Q 1616 2231 1378 2169 
L 1441 2663 
Q 1497 2656 1531 2656 
Q 1891 2656 2178 2843 
Q 2466 3031 2466 3422 
Q 2466 3731 2256 3934 
Q 2047 4138 1716 4138 
Q 1388 4138 1169 3931 
Q 950 3725 888 3313 
L 325 3413 
Q 428 3978 793 4289 
Q 1159 4600 1703 4600 
Q 2078 4600 2393 4439 
Q 2709 4278 2876 4000 
Q 3044 3722 3044 3409 
Q 3044 3113 2884 2869 
Q 2725 2625 2413 2481 
Q 2819 2388 3044 2092 
Q 3269 1797 3269 1353 
Q 3269 753 2831 336 
Q 2394 -81 1725 -81 
Q 1122 -81 723 278 
Q 325 638 269 1209 
z
" transform="scale(0.015625)"/>
     </defs>
     <use xlink:href="#ArialMT-66"/>
     <use xlink:href="#ArialMT-4d" x="27.783203"/>
     <use xlink:href="#ArialMT-48" x="111.083984"/>
     <use xlink:href="#ArialMT-7a" x="183.300781"/>
     <use xlink:href="#ArialMT-20" x="233.300781"/>
     <use xlink:href="#ArialMT-3d" x="261.083984"/>
     <use xlink:href="#ArialMT-20" x="319.482422"/>
     <use xlink:href="#ArialMT-33" x="347.265625"/>
     <use xlink:href="#ArialMT-30" x="402.880859"/>
    </g>
   </g>
  </g>
  <g id="axes_2">
   <g id="patch_5">
    <path d="M 324.927832 312.66 
L 571.825665 312.66 
L 571.825665 79.2 
L 324.927832 79.2 
z
" style="fill: #eaeaf2"/>
   </g>
   <g id="matplotlib.axis_3">
    <g id="xtick_6">
     <g id="line2d_20">
      <path d="M 324.927832 312.66 
L 324.927832 79.2 
" clip-path="url(#peb1ef9d827)" style="fill: none; stroke: #ffffff; stroke-linecap: round"/>
     </g>
     <g id="text_18">
      <!-- 0 -->
      <g style="fill: #262626" transform="translate(321.869317 330.033594) scale(0.11 -0.11)">
       <use xlink:href="#ArialMT-30"/>
      </g>
     </g>
    </g>
    <g id="xtick_7">
     <g id="line2d_21">
      <path d="M 379.794017 312.66 
L 379.794017 79.2 
" clip-path="url(#peb1ef9d827)" style="fill: none; stroke: #ffffff; stroke-linecap: round"/>
     </g>
     <g id="text_19">
      <!-- 20 -->
      <g style="fill: #262626" transform="translate(373.676986 330.033594) scale(0.11 -0.11)">
       <use xlink:href="#ArialMT-32"/>
       <use xlink:href="#ArialMT-30" x="55.615234"/>
      </g>
     </g>
    </g>
    <g id="xtick_8">
     <g id="line2d_22">
      <path d="M 434.660202 312.66 
L 434.660202 79.2 
" clip-path="url(#peb1ef9d827)" style="fill: none; stroke: #ffffff; stroke-linecap: round"/>
     </g>
     <g id="text_20">
      <!-- 40 -->
      <g style="fill: #262626" transform="translate(428.543171 330.033594) scale(0.11 -0.11)">
       <use xlink:href="#ArialMT-34"/>
       <use xlink:href="#ArialMT-30" x="55.615234"/>
      </g>
     </g>
    </g>
    <g id="xtick_9">
     <g id="line2d_23">
      <path d="M 489.526387 312.66 
L 489.526387 79.2 
" clip-path="url(#peb1ef9d827)" style="fill: none; stroke: #ffffff; stroke-linecap: round"/>
     </g>
     <g id="text_21">
      <!-- 60 -->
      <g style="fill: #262626" transform="translate(483.409356 330.033594) scale(0.11 -0.11)">
       <use xlink:href="#ArialMT-36"/>
       <use xlink:href="#ArialMT-30" x="55.615234"/>
      </g>
     </g>
    </g>
    <g id="xtick_10">
     <g id="line2d_24">
      <path d="M 544.392572 312.66 
L 544.392572 79.2 
" clip-path="url(#peb1ef9d827)" style="fill: none; stroke: #ffffff; stroke-linecap: round"/>
     </g>
     <g id="text_22">
      <!-- 80 -->
      <g style="fill: #262626" transform="translate(538.275541 330.033594) scale(0.11 -0.11)">
       <use xlink:href="#ArialMT-38"/>
       <use xlink:href="#ArialMT-30" x="55.615234"/>
      </g>
     </g>
    </g>
    <g id="text_23">
     <!-- $\theta$° -->
     <g style="fill: #262626" transform="translate(442.256749 344.809219) scale(0.12 -0.12)">
      <use xlink:href="#DejaVuSans-Oblique-3b8" transform="translate(0 0.234375)"/>
      <use xlink:href="#ArialMT-b0" transform="translate(61.181641 0.234375)"/>
     </g>
    </g>
   </g>
   <g id="matplotlib.axis_4">
    <g id="ytick_10">
     <g id="line2d_25">
      <path d="M 324.927832 312.66 
L 571.825665 312.66 
" clip-path="url(#peb1ef9d827)" style="fill: none; stroke: #ffffff; stroke-linecap: round"/>
     </g>
    </g>
    <g id="ytick_11">
     <g id="line2d_26">
      <path d="M 324.927832 283.4775 
L 571.825665 283.4775 
" clip-path="url(#peb1ef9d827)" style="fill: none; stroke: #ffffff; stroke-linecap: round"/>
     </g>
    </g>
    <g id="ytick_12">
     <g id="line2d_27">
      <path d="M 324.927832 254.295 
L 571.825665 254.295 
" clip-path="url(#peb1ef9d827)" style="fill: none; stroke: #ffffff; stroke-linecap: round"/>
     </g>
    </g>
    <g id="ytick_13">
     <g id="line2d_28">
      <path d="M 324.927832 225.1125 
L 571.825665 225.1125 
" clip-path="url(#peb1ef9d827)" style="fill: none; stroke: #ffffff; stroke-linecap: round"/>
     </g>
    </g>
    <g id="ytick_14">
     <g id="line2d_29">
      <path d="M 324.927832 195.93 
L 571.825665 195.93 
" clip-path="url(#peb1ef9d827)" style="fill: none; stroke: #ffffff; stroke-linecap: round"/>
     </g>
    </g>
    <g id="ytick_15">
     <g id="line2d_30">
      <path d="M 324.927832 166.7475 
L 571.825665 166.7475 
" clip-path="url(#peb1ef9d827)" style="fill: none; stroke: #ffffff; stroke-linecap: round"/>
     </g>
    </g>
    <g id="ytick_16">
     <g id="line2d_31">
      <path d="M 324.927832 137.565 
L 571.825665 137.565 
" clip-path="url(#peb1ef9d827)" style="fill: none; stroke: #ffffff; stroke-linecap: round"/>
     </g>
    </g>
    <g id="ytick_17">
     <g id="line2d_32">
      <path d="M 324.927832 108.3825 
L 571.825665 108.3825 
" clip-path="url(#peb1ef9d827)" style="fill: none; stroke: #ffffff; stroke-linecap: round"/>
     </g>
    </g>
    <g id="ytick_18">
     <g id="line2d_33">
      <path d="M 324.927832 79.2 
L 571.825665 79.2 
" clip-path="url(#peb1ef9d827)" style="fill: none; stroke: #ffffff; stroke-linecap: round"/>
     </g>
    </g>
   </g>
   <g id="PolyCollection_3"/>
   <g id="PolyCollection_4"/>
   <g id="line2d_34">
    <path d="M 324.927832 248.778636 
L 327.671142 248.789163 
L 330.414451 248.819204 
L 333.15776 248.864124 
L 335.901069 248.91616 
L 338.644379 248.964371 
L 341.387688 248.994587 
L 344.130997 248.989384 
L 346.874306 248.928102 
L 349.617616 248.78695 
L 352.360925 248.539235 
L 355.104234 248.155747 
L 357.847543 247.605353 
L 360.590853 246.855819 
L 363.334162 245.874868 
L 366.077471 244.631459 
L 368.82078 243.097232 
L 371.56409 241.248016 
L 374.307399 239.065286 
L 377.050708 236.537411 
L 379.794017 233.660555 
L 382.537327 230.672553 
L 385.280636 227.747272 
L 388.023945 224.52861 
L 390.767254 221.040322 
L 393.510564 217.311087 
L 396.253873 213.373056 
L 398.997182 209.260373 
L 401.740491 205.007814 
L 404.483801 200.649605 
L 407.22711 196.218493 
L 409.970419 191.745045 
L 412.713728 187.257199 
L 415.457038 182.780008 
L 418.200347 178.335553 
L 420.943656 173.942979 
L 423.686965 169.61862 
L 426.430275 165.37619 
L 429.173584 161.226998 
L 431.916893 157.180182 
L 434.660202 153.24295 
L 437.403512 149.420803 
L 440.146821 145.717753 
L 442.89013 142.136523 
L 445.633439 138.678726 
L 448.376749 135.345031 
L 451.120058 132.135302 
L 453.863367 129.048736 
L 456.606676 126.083968 
L 459.349986 123.239176 
L 462.093295 120.512164 
L 464.836604 117.900439 
L 467.579913 115.401281 
L 470.323223 113.011791 
L 473.066532 110.728947 
L 475.809841 108.549643 
L 478.55315 106.470728 
L 481.29646 104.489031 
L 484.039769 102.601393 
L 486.783078 100.804686 
L 489.526387 99.095828 
L 492.269697 97.471804 
L 495.013006 95.929677 
L 497.756315 95.318572 
L 500.499624 94.799227 
L 503.242934 94.344652 
L 505.986243 93.948742 
L 508.729552 93.60577 
L 511.472861 93.310392 
L 514.216171 93.05763 
L 516.95948 92.842867 
L 519.702789 92.66183 
L 522.446098 92.510576 
L 525.189408 92.385478 
L 527.932717 92.283209 
L 530.676026 92.200724 
L 533.419335 92.135247 
L 536.162645 92.084253 
L 538.905954 92.045459 
L 541.649263 92.016802 
L 544.392572 91.996434 
L 547.135881 91.982706 
L 549.879191 91.97416 
L 552.6225 91.969514 
L 555.365809 91.967661 
L 558.109118 91.967655 
L 560.852428 91.968706 
L 563.595737 91.970177 
L 566.339046 91.971576 
L 569.082355 91.972554 
L 571.825665 137.565 
" clip-path="url(#peb1ef9d827)" style="fill: none; stroke: #4c72b0; stroke-width: 0.7; stroke-linecap: round"/>
   </g>
   <g id="line2d_35">
    <path d="M 324.927832 102.77679 
L 327.671142 102.784258 
L 330.414451 102.806844 
L 333.15776 102.845091 
L 335.901069 102.899901 
L 338.644379 102.972532 
L 341.387688 103.064588 
L 344.130997 103.178018 
L 346.874306 103.315099 
L 349.617616 103.478428 
L 352.360925 103.670908 
L 355.104234 103.895727 
L 357.847543 104.156343 
L 360.590853 104.456457 
L 363.334162 104.799986 
L 366.077471 105.191029 
L 368.82078 105.633827 
L 371.56409 106.132717 
L 374.307399 106.692072 
L 377.050708 107.316235 
L 379.794017 108.009435 
L 382.537327 109.009107 
L 385.280636 110.480202 
L 388.023945 112.049609 
L 390.767254 113.716794 
L 393.510564 115.479989 
L 396.253873 117.335965 
L 398.997182 119.279791 
L 401.740491 121.304572 
L 404.483801 123.401175 
L 407.22711 125.557941 
L 409.970419 127.76041 
L 412.713728 129.991064 
L 415.457038 132.229118 
L 418.200347 134.450397 
L 420.943656 136.627327 
L 423.686965 138.729094 
L 426.430275 140.722034 
L 429.173584 142.570262 
L 431.916893 144.236616 
L 434.660202 145.683881 
L 437.403512 146.876285 
L 440.146821 147.781176 
L 442.89013 148.37075 
L 445.633439 148.623662 
L 448.376749 148.526343 
L 451.120058 148.073857 
L 453.863367 147.270177 
L 456.606676 146.127855 
L 459.349986 144.667128 
L 462.093295 142.914581 
L 464.836604 140.901542 
L 467.579913 138.662381 
L 470.323223 136.232888 
L 473.066532 133.648837 
L 475.809841 130.944826 
L 478.55315 128.153404 
L 481.29646 125.304491 
L 484.039769 122.42504 
L 486.783078 119.538917 
L 489.526387 116.666929 
L 492.269697 113.826962 
L 495.013006 111.0342 
L 497.756315 109.153345 
L 500.499624 107.358439 
L 503.242934 105.63377 
L 505.986243 103.982745 
L 508.729552 102.40762 
L 511.472861 100.909708 
L 514.216171 99.489565 
L 516.95948 98.147143 
L 519.702789 96.881928 
L 522.446098 95.69305 
L 525.189408 94.579382 
L 527.932717 93.539615 
L 530.676026 92.572325 
L 533.419335 91.676025 
L 536.162645 90.849207 
L 538.905954 90.090381 
L 541.649263 89.398096 
L 544.392572 88.77097 
L 547.135881 88.2077 
L 549.879191 87.707081 
L 552.6225 87.268015 
L 555.365809 86.88952 
L 558.109118 86.570734 
L 560.852428 86.310922 
L 563.595737 86.109478 
L 566.339046 85.965928 
L 569.082355 85.879934 
L 571.825665 137.565 
" clip-path="url(#peb1ef9d827)" style="fill: none; stroke: #dd8452; stroke-width: 0.7; stroke-linecap: round"/>
   </g>
   <g id="line2d_36">
    <path d="M 324.927832 137.565 
L 571.825665 137.565 
" clip-path="url(#peb1ef9d827)" style="fill: none; stroke-dasharray: 5.55,2.4; stroke-dashoffset: 0; stroke: #ff0000; stroke-width: 1.5"/>
   </g>
   <g id="patch_6">
    <path d="M 324.927832 312.66 
L 324.927832 79.2 
" style="fill: none; stroke: #ffffff; stroke-width: 1.25; stroke-linejoin: miter; stroke-linecap: square"/>
   </g>
   <g id="patch_7">
    <path d="M 324.927832 312.66 
L 571.825665 312.66 
" style="fill: none; stroke: #ffffff; stroke-width: 1.25; stroke-linejoin: miter; stroke-linecap: square"/>
   </g>
   <g id="text_24">
    <!-- fMHz = 100 -->
    <g style="fill: #262626" transform="translate(417.531124 73.2) scale(0.12 -0.12)">
     <use xlink:href="#ArialMT-66"/>
     <use xlink:href="#ArialMT-4d" x="27.783203"/>
     <use xlink:href="#ArialMT-48" x="111.083984"/>
     <use xlink:href="#ArialMT-7a" x="183.300781"/>
     <use xlink:href="#ArialMT-20" x="233.300781"/>
     <use xlink:href="#ArialMT-3d" x="261.083984"/>
     <use xlink:href="#ArialMT-20" x="319.482422"/>
     <use xlink:href="#ArialMT-31" x="347.265625"/>
     <use xlink:href="#ArialMT-30" x="402.880859"/>
     <use xlink:href="#ArialMT-30" x="458.496094"/>
    </g>
   </g>
  </g>
  <g id="axes_3">
   <g id="patch_8">
    <path d="M 584.785665 312.66 
L 831.683497 312.66 
L 831.683497 79.2 
L 584.785665 79.2 
z
" style="fill: #eaeaf2"/>
   </g>
   <g id="matplotlib.axis_5">
    <g id="xtick_11">
     <g id="line2d_37">
      <path d="M 584.785665 312.66 
L 584.785665 79.2 
" clip-path="url(#pedb2036198)" style="fill: none; stroke: #ffffff; stroke-linecap: round"/>
     </g>
     <g id="text_25">
      <!-- 0 -->
      <g style="fill: #262626" transform="translate(581.727149 330.033594) scale(0.11 -0.11)">
       <use xlink:href="#ArialMT-30"/>
      </g>
     </g>
    </g>
    <g id="xtick_12">
     <g id="line2d_38">
      <path d="M 639.65185 312.66 
L 639.65185 79.2 
" clip-path="url(#pedb2036198)" style="fill: none; stroke: #ffffff; stroke-linecap: round"/>
     </g>
     <g id="text_26">
      <!-- 20 -->
      <g style="fill: #262626" transform="translate(633.534818 330.033594) scale(0.11 -0.11)">
       <use xlink:href="#ArialMT-32"/>
       <use xlink:href="#ArialMT-30" x="55.615234"/>
      </g>
     </g>
    </g>
    <g id="xtick_13">
     <g id="line2d_39">
      <path d="M 694.518035 312.66 
L 694.518035 79.2 
" clip-path="url(#pedb2036198)" style="fill: none; stroke: #ffffff; stroke-linecap: round"/>
     </g>
     <g id="text_27">
      <!-- 40 -->
      <g style="fill: #262626" transform="translate(688.401003 330.033594) scale(0.11 -0.11)">
       <use xlink:href="#ArialMT-34"/>
       <use xlink:href="#ArialMT-30" x="55.615234"/>
      </g>
     </g>
    </g>
    <g id="xtick_14">
     <g id="line2d_40">
      <path d="M 749.38422 312.66 
L 749.38422 79.2 
" clip-path="url(#pedb2036198)" style="fill: none; stroke: #ffffff; stroke-linecap: round"/>
     </g>
     <g id="text_28">
      <!-- 60 -->
      <g style="fill: #262626" transform="translate(743.267188 330.033594) scale(0.11 -0.11)">
       <use xlink:href="#ArialMT-36"/>
       <use xlink:href="#ArialMT-30" x="55.615234"/>
      </g>
     </g>
    </g>
    <g id="xtick_15">
     <g id="line2d_41">
      <path d="M 804.250405 312.66 
L 804.250405 79.2 
" clip-path="url(#pedb2036198)" style="fill: none; stroke: #ffffff; stroke-linecap: round"/>
     </g>
     <g id="text_29">
      <!-- 80 -->
      <g style="fill: #262626" transform="translate(798.133373 330.033594) scale(0.11 -0.11)">
       <use xlink:href="#ArialMT-38"/>
       <use xlink:href="#ArialMT-30" x="55.615234"/>
      </g>
     </g>
    </g>
    <g id="text_30">
     <!-- $\theta$° -->
     <g style="fill: #262626" transform="translate(702.114581 344.809219) scale(0.12 -0.12)">
      <use xlink:href="#DejaVuSans-Oblique-3b8" transform="translate(0 0.234375)"/>
      <use xlink:href="#ArialMT-b0" transform="translate(61.181641 0.234375)"/>
     </g>
    </g>
   </g>
   <g id="matplotlib.axis_6">
    <g id="ytick_19">
     <g id="line2d_42">
      <path d="M 584.785665 312.66 
L 831.683497 312.66 
" clip-path="url(#pedb2036198)" style="fill: none; stroke: #ffffff; stroke-linecap: round"/>
     </g>
    </g>
    <g id="ytick_20">
     <g id="line2d_43">
      <path d="M 584.785665 283.4775 
L 831.683497 283.4775 
" clip-path="url(#pedb2036198)" style="fill: none; stroke: #ffffff; stroke-linecap: round"/>
     </g>
    </g>
    <g id="ytick_21">
     <g id="line2d_44">
      <path d="M 584.785665 254.295 
L 831.683497 254.295 
" clip-path="url(#pedb2036198)" style="fill: none; stroke: #ffffff; stroke-linecap: round"/>
     </g>
    </g>
    <g id="ytick_22">
     <g id="line2d_45">
      <path d="M 584.785665 225.1125 
L 831.683497 225.1125 
" clip-path="url(#pedb2036198)" style="fill: none; stroke: #ffffff; stroke-linecap: round"/>
     </g>
    </g>
    <g id="ytick_23">
     <g id="line2d_46">
      <path d="M 584.785665 195.93 
L 831.683497 195.93 
" clip-path="url(#pedb2036198)" style="fill: none; stroke: #ffffff; stroke-linecap: round"/>
     </g>
    </g>
    <g id="ytick_24">
     <g id="line2d_47">
      <path d="M 584.785665 166.7475 
L 831.683497 166.7475 
" clip-path="url(#pedb2036198)" style="fill: none; stroke: #ffffff; stroke-linecap: round"/>
     </g>
    </g>
    <g id="ytick_25">
     <g id="line2d_48">
      <path d="M 584.785665 137.565 
L 831.683497 137.565 
" clip-path="url(#pedb2036198)" style="fill: none; stroke: #ffffff; stroke-linecap: round"/>
     </g>
    </g>
    <g id="ytick_26">
     <g id="line2d_49">
      <path d="M 584.785665 108.3825 
L 831.683497 108.3825 
" clip-path="url(#pedb2036198)" style="fill: none; stroke: #ffffff; stroke-linecap: round"/>
     </g>
    </g>
    <g id="ytick_27">
     <g id="line2d_50">
      <path d="M 584.785665 79.2 
L 831.683497 79.2 
" clip-path="url(#pedb2036198)" style="fill: none; stroke: #ffffff; stroke-linecap: round"/>
     </g>
    </g>
   </g>
   <g id="PolyCollection_5"/>
   <g id="PolyCollection_6"/>
   <g id="line2d_51">
    <path d="M 584.785665 248.064133 
L 587.528974 248.087963 
L 590.272283 248.145253 
L 593.015592 248.193274 
L 595.758902 248.160594 
L 598.502211 247.947596 
L 601.24552 247.428833 
L 603.988829 246.458698 
L 606.732139 244.881729 
L 609.475448 242.548005 
L 612.218757 239.332302 
L 614.962066 235.153447 
L 617.705376 229.98886 
L 620.448685 223.879779 
L 623.191994 216.925507 
L 625.935303 209.268785 
L 628.678613 201.077005 
L 631.421922 192.524257 
L 634.165231 183.777564 
L 636.90854 174.98845 
L 639.65185 166.289302 
L 642.395159 158.02642 
L 645.138468 150.45208 
L 647.881777 143.261023 
L 650.625087 136.50766 
L 653.368396 130.235707 
L 656.111705 124.481065 
L 658.855014 119.274424 
L 661.598324 114.643656 
L 664.341633 110.616058 
L 667.084942 107.220554 
L 669.828251 104.489968 
L 672.571561 102.463466 
L 675.31487 101.189323 
L 678.058179 100.728134 
L 680.801488 101.156699 
L 683.544798 102.572812 
L 686.288107 105.101324 
L 689.031416 108.902 
L 691.774725 114.565879 
L 694.518035 122.526476 
L 697.261344 132.517979 
L 700.004653 144.939148 
L 702.747962 160.333267 
L 705.491272 179.431801 
L 708.234581 203.143684 
L 710.97789 232.174459 
L 713.721199 264.760999 
L 716.464509 288.537451 
L 719.207818 280.895432 
L 721.951127 249.121346 
L 724.694436 215.201837 
L 727.437746 186.917007 
L 730.181055 164.474243 
L 732.924364 146.543293 
L 735.667673 132.262688 
L 738.410983 120.977966 
L 741.154292 112.227042 
L 743.897601 105.705561 
L 746.64091 101.242434 
L 749.38422 98.788651 
L 752.127529 98.418512 
L 754.870838 100.368759 
L 757.614147 105.824601 
L 760.357457 114.456421 
L 763.100766 127.050481 
L 765.844075 144.831187 
L 768.587384 169.783519 
L 771.330694 205.409938 
L 774.074003 258.589182 
L 776.817312 338.894263 
L 779.560621 352.282281 
L 782.303931 272.672201 
L 785.04724 219.163342 
L 787.790549 183.821931 
L 790.533858 158.896992 
L 793.277168 140.500055 
L 796.020477 126.494549 
L 798.763786 115.594874 
L 801.507095 106.974942 
L 804.250405 100.078553 
L 806.993714 94.602564 
L 809.737023 90.438444 
L 812.480332 87.118154 
L 815.223642 84.482199 
L 817.966951 82.412043 
L 820.71026 80.819709 
L 823.453569 79.640653 
L 826.196879 78.828862 
L 828.940188 78.353551 
L 831.683497 137.565 
" clip-path="url(#pedb2036198)" style="fill: none; stroke: #4c72b0; stroke-width: 0.7; stroke-linecap: round"/>
   </g>
   <g id="line2d_52">
    <path d="M 584.785665 102.095118 
L 587.528974 102.106595 
L 590.272283 102.142334 
L 593.015592 102.206239 
L 595.758902 102.30478 
L 598.502211 102.446934 
L 601.24552 102.644104 
L 603.988829 102.910029 
L 606.732139 103.260673 
L 609.475448 103.714106 
L 612.218757 104.290371 
L 614.962066 105.011331 
L 617.705376 105.9005 
L 620.448685 106.982823 
L 623.191994 108.284402 
L 625.935303 109.832112 
L 628.678613 111.653067 
L 631.421922 113.773839 
L 634.165231 116.219339 
L 636.90854 119.011191 
L 639.65185 122.165399 
L 642.395159 125.922263 
L 645.138468 130.431997 
L 647.881777 135.28227 
L 650.625087 140.404597 
L 653.368396 145.691973 
L 656.111705 150.989911 
L 658.855014 156.090161 
L 661.598324 160.731905 
L 664.341633 164.616933 
L 667.084942 167.444183 
L 669.828251 168.962515 
L 672.571561 169.028823 
L 675.31487 167.648967 
L 678.058179 164.982122 
L 680.801488 161.306702 
L 683.544798 156.965081 
L 686.288107 152.310077 
L 689.031416 147.66794 
L 691.774725 143.706354 
L 694.518035 140.827413 
L 697.261344 138.608816 
L 700.004653 137.143654 
L 702.747962 136.483535 
L 705.491272 136.637502 
L 708.234581 137.565 
L 710.97789 139.162597 
L 713.721199 141.246176 
L 716.464509 143.534417 
L 719.207818 145.645942 
L 721.951127 147.128771 
L 724.694436 147.537597 
L 727.437746 147.092287 
L 730.181055 145.506382 
L 732.924364 142.455017 
L 735.667673 138.28305 
L 738.410983 133.453966 
L 741.154292 128.444812 
L 743.897601 123.686127 
L 746.64091 119.548529 
L 749.38422 116.35946 
L 752.127529 114.433644 
L 754.870838 114.132779 
L 757.614147 116.656527 
L 760.357457 121.559417 
L 763.100766 129.316465 
L 765.844075 140.482179 
L 768.587384 155.606005 
L 771.330694 174.916715 
L 774.074003 197.323118 
L 776.817312 217.966298 
L 779.560621 226.583702 
L 782.303931 217.025917 
L 785.04724 197.263502 
L 787.790549 176.000084 
L 790.533858 157.128136 
L 793.277168 141.36221 
L 796.020477 128.415798 
L 798.763786 117.808467 
L 801.507095 109.094901 
L 804.250405 101.912588 
L 806.993714 96.063095 
L 809.737023 91.497388 
L 812.480332 87.782637 
L 815.223642 84.78087 
L 817.966951 82.38704 
L 820.71026 80.521775 
L 823.453569 79.12606 
L 826.196879 78.157413 
L 828.940188 77.587213 
L 831.683497 137.565 
" clip-path="url(#pedb2036198)" style="fill: none; stroke: #dd8452; stroke-width: 0.7; stroke-linecap: round"/>
   </g>
   <g id="line2d_53">
    <path d="M 584.785665 137.565 
L 831.683497 137.565 
" clip-path="url(#pedb2036198)" style="fill: none; stroke-dasharray: 5.55,2.4; stroke-dashoffset: 0; stroke: #ff0000; stroke-width: 1.5"/>
   </g>
   <g id="patch_9">
    <path d="M 584.785665 312.66 
L 584.785665 79.2 
" style="fill: none; stroke: #ffffff; stroke-width: 1.25; stroke-linejoin: miter; stroke-linecap: square"/>
   </g>
   <g id="patch_10">
    <path d="M 584.785665 312.66 
L 831.683497 312.66 
" style="fill: none; stroke: #ffffff; stroke-width: 1.25; stroke-linejoin: miter; stroke-linecap: square"/>
   </g>
   <g id="text_31">
    <!-- fMHz = 300 -->
    <g style="fill: #262626" transform="translate(677.388956 73.2) scale(0.12 -0.12)">
     <use xlink:href="#ArialMT-66"/>
     <use xlink:href="#ArialMT-4d" x="27.783203"/>
     <use xlink:href="#ArialMT-48" x="111.083984"/>
     <use xlink:href="#ArialMT-7a" x="183.300781"/>
     <use xlink:href="#ArialMT-20" x="233.300781"/>
     <use xlink:href="#ArialMT-3d" x="261.083984"/>
     <use xlink:href="#ArialMT-20" x="319.482422"/>
     <use xlink:href="#ArialMT-33" x="347.265625"/>
     <use xlink:href="#ArialMT-30" x="402.880859"/>
     <use xlink:href="#ArialMT-30" x="458.496094"/>
    </g>
   </g>
  </g>
  <g id="axes_4">
   <g id="patch_11">
    <path d="M 844.643497 312.66 
L 1091.541329 312.66 
L 1091.541329 79.2 
L 844.643497 79.2 
z
" style="fill: #eaeaf2"/>
   </g>
   <g id="matplotlib.axis_7">
    <g id="xtick_16">
     <g id="line2d_54">
      <path d="M 844.643497 312.66 
L 844.643497 79.2 
" clip-path="url(#pa36efc5aa7)" style="fill: none; stroke: #ffffff; stroke-linecap: round"/>
     </g>
     <g id="text_32">
      <!-- 0 -->
      <g style="fill: #262626" transform="translate(841.584981 330.033594) scale(0.11 -0.11)">
       <use xlink:href="#ArialMT-30"/>
      </g>
     </g>
    </g>
    <g id="xtick_17">
     <g id="line2d_55">
      <path d="M 899.509682 312.66 
L 899.509682 79.2 
" clip-path="url(#pa36efc5aa7)" style="fill: none; stroke: #ffffff; stroke-linecap: round"/>
     </g>
     <g id="text_33">
      <!-- 20 -->
      <g style="fill: #262626" transform="translate(893.392651 330.033594) scale(0.11 -0.11)">
       <use xlink:href="#ArialMT-32"/>
       <use xlink:href="#ArialMT-30" x="55.615234"/>
      </g>
     </g>
    </g>
    <g id="xtick_18">
     <g id="line2d_56">
      <path d="M 954.375867 312.66 
L 954.375867 79.2 
" clip-path="url(#pa36efc5aa7)" style="fill: none; stroke: #ffffff; stroke-linecap: round"/>
     </g>
     <g id="text_34">
      <!-- 40 -->
      <g style="fill: #262626" transform="translate(948.258836 330.033594) scale(0.11 -0.11)">
       <use xlink:href="#ArialMT-34"/>
       <use xlink:href="#ArialMT-30" x="55.615234"/>
      </g>
     </g>
    </g>
    <g id="xtick_19">
     <g id="line2d_57">
      <path d="M 1009.242052 312.66 
L 1009.242052 79.2 
" clip-path="url(#pa36efc5aa7)" style="fill: none; stroke: #ffffff; stroke-linecap: round"/>
     </g>
     <g id="text_35">
      <!-- 60 -->
      <g style="fill: #262626" transform="translate(1003.125021 330.033594) scale(0.11 -0.11)">
       <use xlink:href="#ArialMT-36"/>
       <use xlink:href="#ArialMT-30" x="55.615234"/>
      </g>
     </g>
    </g>
    <g id="xtick_20">
     <g id="line2d_58">
      <path d="M 1064.108237 312.66 
L 1064.108237 79.2 
" clip-path="url(#pa36efc5aa7)" style="fill: none; stroke: #ffffff; stroke-linecap: round"/>
     </g>
     <g id="text_36">
      <!-- 80 -->
      <g style="fill: #262626" transform="translate(1057.991206 330.033594) scale(0.11 -0.11)">
       <use xlink:href="#ArialMT-38"/>
       <use xlink:href="#ArialMT-30" x="55.615234"/>
      </g>
     </g>
    </g>
    <g id="text_37">
     <!-- $\theta$° -->
     <g style="fill: #262626" transform="translate(961.972413 344.809219) scale(0.12 -0.12)">
      <use xlink:href="#DejaVuSans-Oblique-3b8" transform="translate(0 0.234375)"/>
      <use xlink:href="#ArialMT-b0" transform="translate(61.181641 0.234375)"/>
     </g>
    </g>
   </g>
   <g id="matplotlib.axis_8">
    <g id="ytick_28">
     <g id="line2d_59">
      <path d="M 844.643497 312.66 
L 1091.541329 312.66 
" clip-path="url(#pa36efc5aa7)" style="fill: none; stroke: #ffffff; stroke-linecap: round"/>
     </g>
    </g>
    <g id="ytick_29">
     <g id="line2d_60">
      <path d="M 844.643497 283.4775 
L 1091.541329 283.4775 
" clip-path="url(#pa36efc5aa7)" style="fill: none; stroke: #ffffff; stroke-linecap: round"/>
     </g>
    </g>
    <g id="ytick_30">
     <g id="line2d_61">
      <path d="M 844.643497 254.295 
L 1091.541329 254.295 
" clip-path="url(#pa36efc5aa7)" style="fill: none; stroke: #ffffff; stroke-linecap: round"/>
     </g>
    </g>
    <g id="ytick_31">
     <g id="line2d_62">
      <path d="M 844.643497 225.1125 
L 1091.541329 225.1125 
" clip-path="url(#pa36efc5aa7)" style="fill: none; stroke: #ffffff; stroke-linecap: round"/>
     </g>
    </g>
    <g id="ytick_32">
     <g id="line2d_63">
      <path d="M 844.643497 195.93 
L 1091.541329 195.93 
" clip-path="url(#pa36efc5aa7)" style="fill: none; stroke: #ffffff; stroke-linecap: round"/>
     </g>
    </g>
    <g id="ytick_33">
     <g id="line2d_64">
      <path d="M 844.643497 166.7475 
L 1091.541329 166.7475 
" clip-path="url(#pa36efc5aa7)" style="fill: none; stroke: #ffffff; stroke-linecap: round"/>
     </g>
    </g>
    <g id="ytick_34">
     <g id="line2d_65">
      <path d="M 844.643497 137.565 
L 1091.541329 137.565 
" clip-path="url(#pa36efc5aa7)" style="fill: none; stroke: #ffffff; stroke-linecap: round"/>
     </g>
    </g>
    <g id="ytick_35">
     <g id="line2d_66">
      <path d="M 844.643497 108.3825 
L 1091.541329 108.3825 
" clip-path="url(#pa36efc5aa7)" style="fill: none; stroke: #ffffff; stroke-linecap: round"/>
     </g>
    </g>
    <g id="ytick_36">
     <g id="line2d_67">
      <path d="M 844.643497 79.2 
L 1091.541329 79.2 
" clip-path="url(#pa36efc5aa7)" style="fill: none; stroke: #ffffff; stroke-linecap: round"/>
     </g>
    </g>
   </g>
   <g id="PolyCollection_7"/>
   <g id="PolyCollection_8"/>
   <g id="line2d_68">
    <path d="M 844.643497 245.999907 
L 847.386806 246.119197 
L 850.130116 246.320917 
L 852.873425 246.133142 
L 855.616734 244.786642 
L 858.360043 241.333602 
L 861.103353 234.934629 
L 863.846662 225.236341 
L 866.589971 212.577002 
L 869.33328 197.837814 
L 872.07659 182.084835 
L 874.819899 166.57822 
L 877.563208 151.804149 
L 880.306517 138.254003 
L 883.049827 126.296889 
L 885.793136 116.219353 
L 888.536445 108.28003 
L 891.279754 102.755203 
L 894.023064 99.981483 
L 896.766373 100.403564 
L 899.509682 104.637533 
L 902.252991 113.797128 
L 904.996301 129.29075 
L 907.73961 152.589795 
L 910.482919 186.28003 
L 913.226228 230.495381 
L 915.969538 257.127297 
L 918.712847 221.83845 
L 921.456156 174.291023 
L 924.199465 138.875561 
L 926.942775 115.450845 
L 929.686084 102.217925 
L 932.429393 98.497171 
L 935.172702 105.157081 
L 937.916012 124.308937 
L 940.659321 159.646486 
L 943.40263 218.86316 
L 946.145939 269.36759 
L 948.889249 206.433115 
L 951.632558 148.049712 
L 954.375867 114.438938 
L 957.119176 99.069485 
L 959.862486 100.044265 
L 962.605795 118.51397 
L 965.349104 159.914208 
L 968.092413 239.664914 
L 970.835723 262.89806 
L 973.579032 171.039755 
L 976.322341 120.795609 
L 979.06565 99.109403 
L 981.80896 100.137375 
L 984.552269 123.708922 
L 987.295578 180.796656 
L 990.038887 294.716849 
L 992.782197 210.372691 
L 995.525506 133.614398 
L 998.268815 101.671311 
L 1001.012124 98.619977 
L 1003.755434 121.970213 
L 1006.498743 186.260691 
L 1009.242052 323.195811 
L 1011.985361 189.647762 
L 1014.728671 120.669018 
L 1017.47198 97.80171 
L 1020.215289 104.799734 
L 1022.958598 146.259455 
L 1025.701907 266.73455 
L 1028.445217 243.764075 
L 1031.188526 137.171022 
L 1033.931835 101.404987 
L 1036.675144 100.332413 
L 1039.418454 134.282488 
L 1042.161763 243.607154 
L 1044.905072 268.381557 
L 1047.648381 142.09107 
L 1050.391691 102.692454 
L 1053.135 99.853677 
L 1055.878309 135.017613 
L 1058.621618 260.961276 
L 1061.364928 251.033524 
L 1064.108237 137.045035 
L 1066.851546 101.55715 
L 1069.594855 100.599881 
L 1072.338165 143.421909 
L 1075.081474 329.678889 
L 1077.824783 216.906479 
L 1080.568092 132.216347 
L 1083.311402 100.258098 
L 1086.054711 85.377351 
L 1088.79802 78.448318 
L 1091.541329 137.565 
" clip-path="url(#pa36efc5aa7)" style="fill: none; stroke: #4c72b0; stroke-width: 0.7; stroke-linecap: round"/>
   </g>
   <g id="line2d_69">
    <path d="M 844.643497 100.301444 
L 847.386806 100.303011 
L 850.130116 100.323009 
L 852.873425 100.40718 
L 855.616734 100.631326 
L 858.360043 101.100916 
L 861.103353 101.950985 
L 863.846662 103.346737 
L 866.589971 105.485205 
L 869.33328 108.598247 
L 872.07659 112.956733 
L 874.819899 119.174638 
L 877.563208 127.352375 
L 880.306517 137.823472 
L 883.049827 150.895133 
L 885.793136 166.601124 
L 888.536445 184.077904 
L 891.279754 200.181681 
L 894.023064 208.299011 
L 896.766373 202.417355 
L 899.509682 185.034145 
L 902.252991 164.11914 
L 904.996301 145.16174 
L 907.73961 129.935981 
L 910.482919 119.105888 
L 913.226228 112.870901 
L 915.969538 111.367815 
L 918.712847 114.774405 
L 921.456156 123.942533 
L 924.199465 137.562477 
L 926.942775 153.374387 
L 929.686084 165.85186 
L 932.429393 167.645742 
L 935.172702 158.11131 
L 937.916012 144.458909 
L 940.659321 132.614409 
L 943.40263 125.516481 
L 946.145939 123.946998 
L 948.889249 128.292569 
L 951.632558 135.852571 
L 954.375867 142.846989 
L 957.119176 145.496056 
L 959.862486 143.626066 
L 962.605795 140.22246 
L 965.349104 137.898597 
L 968.092413 137.829402 
L 970.835723 139.477597 
L 973.579032 139.319167 
L 976.322341 135.486528 
L 979.06565 130.577846 
L 981.80896 129.921869 
L 984.552269 135.338987 
L 987.295578 146.076534 
L 990.038887 155.829649 
L 992.782197 152.176119 
L 995.525506 135.91778 
L 998.268815 121.71155 
L 1001.012124 119.329077 
L 1003.755434 130.849747 
L 1006.498743 155.909275 
L 1009.242052 177.455934 
L 1011.985361 159.273646 
L 1014.728671 127.484156 
L 1017.47198 111.667256 
L 1020.215289 115.887934 
L 1022.958598 142.997174 
L 1025.701907 191.811419 
L 1028.445217 189.221841 
L 1031.188526 137.220394 
L 1033.931835 109.180302 
L 1036.675144 107.504443 
L 1039.418454 134.821214 
L 1042.161763 204.054365 
L 1044.905072 217.928603 
L 1047.648381 141.481524 
L 1050.391691 106.579451 
L 1053.135 103.306457 
L 1055.878309 134.970139 
L 1058.621618 232.69795 
L 1061.364928 230.983001 
L 1064.108237 137.227092 
L 1066.851546 102.9631 
L 1069.594855 101.592469 
L 1072.338165 142.892543 
L 1075.081474 304.887679 
L 1077.824783 214.676554 
L 1080.568092 132.275428 
L 1083.311402 100.340189 
L 1086.054711 85.343579 
L 1088.79802 78.325283 
L 1091.541329 137.565 
" clip-path="url(#pa36efc5aa7)" style="fill: none; stroke: #dd8452; stroke-width: 0.7; stroke-linecap: round"/>
   </g>
   <g id="line2d_70">
    <path d="M 844.643497 137.565 
L 1091.541329 137.565 
" clip-path="url(#pa36efc5aa7)" style="fill: none; stroke-dasharray: 5.55,2.4; stroke-dashoffset: 0; stroke: #ff0000; stroke-width: 1.5"/>
   </g>
   <g id="patch_12">
    <path d="M 844.643497 312.66 
L 844.643497 79.2 
" style="fill: none; stroke: #ffffff; stroke-width: 1.25; stroke-linejoin: miter; stroke-linecap: square"/>
   </g>
   <g id="patch_13">
    <path d="M 844.643497 312.66 
L 1091.541329 312.66 
" style="fill: none; stroke: #ffffff; stroke-width: 1.25; stroke-linejoin: miter; stroke-linecap: square"/>
   </g>
   <g id="text_38">
    <!-- fMHz = 1000 -->
    <g style="fill: #262626" transform="translate(933.910226 73.2) scale(0.12 -0.12)">
     <use xlink:href="#ArialMT-66"/>
     <use xlink:href="#ArialMT-4d" x="27.783203"/>
     <use xlink:href="#ArialMT-48" x="111.083984"/>
     <use xlink:href="#ArialMT-7a" x="183.300781"/>
     <use xlink:href="#ArialMT-20" x="233.300781"/>
     <use xlink:href="#ArialMT-3d" x="261.083984"/>
     <use xlink:href="#ArialMT-20" x="319.482422"/>
     <use xlink:href="#ArialMT-31" x="347.265625"/>
     <use xlink:href="#ArialMT-30" x="402.880859"/>
     <use xlink:href="#ArialMT-30" x="458.496094"/>
     <use xlink:href="#ArialMT-30" x="514.111328"/>
    </g>
   </g>
  </g>
  <g id="axes_5">
   <g id="patch_14">
    <path d="M 1104.501329 312.66 
L 1351.399162 312.66 
L 1351.399162 79.2 
L 1104.501329 79.2 
z
" style="fill: #eaeaf2"/>
   </g>
   <g id="matplotlib.axis_9">
    <g id="xtick_21">
     <g id="line2d_71">
      <path d="M 1104.501329 312.66 
L 1104.501329 79.2 
" clip-path="url(#p34458c6cda)" style="fill: none; stroke: #ffffff; stroke-linecap: round"/>
     </g>
     <g id="text_39">
      <!-- 0 -->
      <g style="fill: #262626" transform="translate(1101.442814 330.033594) scale(0.11 -0.11)">
       <use xlink:href="#ArialMT-30"/>
      </g>
     </g>
    </g>
    <g id="xtick_22">
     <g id="line2d_72">
      <path d="M 1159.367514 312.66 
L 1159.367514 79.2 
" clip-path="url(#p34458c6cda)" style="fill: none; stroke: #ffffff; stroke-linecap: round"/>
     </g>
     <g id="text_40">
      <!-- 20 -->
      <g style="fill: #262626" transform="translate(1153.250483 330.033594) scale(0.11 -0.11)">
       <use xlink:href="#ArialMT-32"/>
       <use xlink:href="#ArialMT-30" x="55.615234"/>
      </g>
     </g>
    </g>
    <g id="xtick_23">
     <g id="line2d_73">
      <path d="M 1214.233699 312.66 
L 1214.233699 79.2 
" clip-path="url(#p34458c6cda)" style="fill: none; stroke: #ffffff; stroke-linecap: round"/>
     </g>
     <g id="text_41">
      <!-- 40 -->
      <g style="fill: #262626" transform="translate(1208.116668 330.033594) scale(0.11 -0.11)">
       <use xlink:href="#ArialMT-34"/>
       <use xlink:href="#ArialMT-30" x="55.615234"/>
      </g>
     </g>
    </g>
    <g id="xtick_24">
     <g id="line2d_74">
      <path d="M 1269.099884 312.66 
L 1269.099884 79.2 
" clip-path="url(#p34458c6cda)" style="fill: none; stroke: #ffffff; stroke-linecap: round"/>
     </g>
     <g id="text_42">
      <!-- 60 -->
      <g style="fill: #262626" transform="translate(1262.982853 330.033594) scale(0.11 -0.11)">
       <use xlink:href="#ArialMT-36"/>
       <use xlink:href="#ArialMT-30" x="55.615234"/>
      </g>
     </g>
    </g>
    <g id="xtick_25">
     <g id="line2d_75">
      <path d="M 1323.966069 312.66 
L 1323.966069 79.2 
" clip-path="url(#p34458c6cda)" style="fill: none; stroke: #ffffff; stroke-linecap: round"/>
     </g>
     <g id="text_43">
      <!-- 80 -->
      <g style="fill: #262626" transform="translate(1317.849038 330.033594) scale(0.11 -0.11)">
       <use xlink:href="#ArialMT-38"/>
       <use xlink:href="#ArialMT-30" x="55.615234"/>
      </g>
     </g>
    </g>
    <g id="text_44">
     <!-- $\theta$° -->
     <g style="fill: #262626" transform="translate(1221.830246 344.809219) scale(0.12 -0.12)">
      <use xlink:href="#DejaVuSans-Oblique-3b8" transform="translate(0 0.234375)"/>
      <use xlink:href="#ArialMT-b0" transform="translate(61.181641 0.234375)"/>
     </g>
    </g>
   </g>
   <g id="matplotlib.axis_10">
    <g id="ytick_37">
     <g id="line2d_76">
      <path d="M 1104.501329 312.66 
L 1351.399162 312.66 
" clip-path="url(#p34458c6cda)" style="fill: none; stroke: #ffffff; stroke-linecap: round"/>
     </g>
    </g>
    <g id="ytick_38">
     <g id="line2d_77">
      <path d="M 1104.501329 283.4775 
L 1351.399162 283.4775 
" clip-path="url(#p34458c6cda)" style="fill: none; stroke: #ffffff; stroke-linecap: round"/>
     </g>
    </g>
    <g id="ytick_39">
     <g id="line2d_78">
      <path d="M 1104.501329 254.295 
L 1351.399162 254.295 
" clip-path="url(#p34458c6cda)" style="fill: none; stroke: #ffffff; stroke-linecap: round"/>
     </g>
    </g>
    <g id="ytick_40">
     <g id="line2d_79">
      <path d="M 1104.501329 225.1125 
L 1351.399162 225.1125 
" clip-path="url(#p34458c6cda)" style="fill: none; stroke: #ffffff; stroke-linecap: round"/>
     </g>
    </g>
    <g id="ytick_41">
     <g id="line2d_80">
      <path d="M 1104.501329 195.93 
L 1351.399162 195.93 
" clip-path="url(#p34458c6cda)" style="fill: none; stroke: #ffffff; stroke-linecap: round"/>
     </g>
    </g>
    <g id="ytick_42">
     <g id="line2d_81">
      <path d="M 1104.501329 166.7475 
L 1351.399162 166.7475 
" clip-path="url(#p34458c6cda)" style="fill: none; stroke: #ffffff; stroke-linecap: round"/>
     </g>
    </g>
    <g id="ytick_43">
     <g id="line2d_82">
      <path d="M 1104.501329 137.565 
L 1351.399162 137.565 
" clip-path="url(#p34458c6cda)" style="fill: none; stroke: #ffffff; stroke-linecap: round"/>
     </g>
    </g>
    <g id="ytick_44">
     <g id="line2d_83">
      <path d="M 1104.501329 108.3825 
L 1351.399162 108.3825 
" clip-path="url(#p34458c6cda)" style="fill: none; stroke: #ffffff; stroke-linecap: round"/>
     </g>
    </g>
    <g id="ytick_45">
     <g id="line2d_84">
      <path d="M 1104.501329 79.2 
L 1351.399162 79.2 
" clip-path="url(#p34458c6cda)" style="fill: none; stroke: #ffffff; stroke-linecap: round"/>
     </g>
    </g>
   </g>
   <g id="PolyCollection_9"/>
   <g id="PolyCollection_10"/>
   <g id="line2d_85">
    <path d="M 1104.501329 243.324269 
L 1107.244639 244.254064 
L 1109.987948 245.706774 
L 1112.731257 243.492446 
L 1115.474566 232.183812 
L 1118.217876 210.340571 
L 1120.961185 182.71206 
L 1123.704494 155.11932 
L 1126.447803 131.212833 
L 1129.191113 112.994081 
L 1131.934422 101.959356 
L 1134.677731 100.216486 
L 1137.42104 110.32765 
L 1140.16435 137.434615 
L 1142.907659 191.188492 
L 1145.650968 249.288522 
L 1148.394277 184.358833 
L 1151.137587 125.595371 
L 1153.880896 100.843474 
L 1156.624205 107.044476 
L 1159.367514 152.407666 
L 1162.110824 248.494645 
L 1164.854133 173.061934 
L 1167.597442 109.534054 
L 1170.340751 102.298278 
L 1173.084061 153.43737 
L 1175.82737 255.053374 
L 1178.570679 137.196837 
L 1181.313988 98.786853 
L 1184.057298 135.395741 
L 1186.800607 261.166346 
L 1189.543916 132.099634 
L 1192.287225 99.344103 
L 1195.030535 168.127936 
L 1197.773844 206.535216 
L 1200.517153 103.034311 
L 1203.260462 126.044502 
L 1206.003772 264.916388 
L 1208.747081 112.637952 
L 1211.49039 115.249781 
L 1214.233699 274.423968 
L 1216.977009 112.442293 
L 1219.720318 120.003478 
L 1222.463627 262.056424 
L 1225.206936 102.513103 
L 1227.950246 146.303119 
L 1230.693555 188.236346 
L 1233.436864 97.433119 
L 1236.180173 232.010317 
L 1238.923483 120.691089 
L 1241.666792 122.814919 
L 1244.410101 217.800224 
L 1247.15341 96.791235 
L 1249.89672 255.57109 
L 1252.640029 109.605475 
L 1255.383338 150.029541 
L 1258.126647 153.423921 
L 1260.869957 109.647287 
L 1263.613266 236.681544 
L 1266.356575 96.39382 
L 1269.099884 321.829398 
L 1271.843194 97.185043 
L 1274.586503 237.114877 
L 1277.329812 105.698126 
L 1280.073121 183.096187 
L 1282.816431 117.849469 
L 1285.55974 154.684868 
L 1288.303049 130.467492 
L 1291.046358 139.238518 
L 1293.789668 140.933984 
L 1296.532977 131.343142 
L 1299.276286 147.29448 
L 1302.019595 128.496688 
L 1304.762905 148.572255 
L 1307.506214 129.534584 
L 1310.249523 144.971818 
L 1312.992832 134.040911 
L 1315.736142 137.730066 
L 1318.479451 142.177561 
L 1321.22276 128.643582 
L 1323.966069 154.721229 
L 1326.709379 119.504497 
L 1329.452688 173.2207 
L 1332.195997 111.658842 
L 1334.939306 200.890758 
L 1337.682616 105.806188 
L 1340.425925 245.035245 
L 1343.169234 102.07579 
L 1345.912543 328.002614 
L 1348.655853 100.297543 
L 1351.399162 137.565 
" clip-path="url(#p34458c6cda)" style="fill: none; stroke: #4c72b0; stroke-width: 0.7; stroke-linecap: round"/>
   </g>
   <g id="line2d_86">
    <path d="M 1104.501329 99.960964 
L 1107.244639 99.87349 
L 1109.987948 99.752564 
L 1112.731257 100.021181 
L 1115.474566 101.471123 
L 1118.217876 105.062595 
L 1120.961185 112.128058 
L 1123.704494 124.516521 
L 1126.447803 144.798832 
L 1129.191113 176.084183 
L 1131.934422 215.979246 
L 1134.677731 225.363905 
L 1137.42104 181.377566 
L 1140.16435 138.199482 
L 1142.907659 111.847093 
L 1145.650968 103.324172 
L 1148.394277 114.585641 
L 1151.137587 149.885354 
L 1153.880896 202.134681 
L 1156.624205 180.915126 
L 1159.367514 128.386397 
L 1162.110824 107.322067 
L 1164.854133 120.783503 
L 1167.597442 168.764251 
L 1170.340751 182.129655 
L 1173.084061 129.205316 
L 1175.82737 111.280999 
L 1178.570679 137.787215 
L 1181.313988 178.707337 
L 1184.057298 138.80765 
L 1186.800607 115.181953 
L 1189.543916 140.424061 
L 1192.287225 166.513141 
L 1195.030535 128.618056 
L 1197.773844 123.519122 
L 1200.517153 155.881744 
L 1203.260462 141.766788 
L 1206.003772 124.069186 
L 1208.747081 145.576658 
L 1211.49039 143.605705 
L 1214.233699 128.49882 
L 1216.977009 142.082912 
L 1219.720318 140.037597 
L 1222.463627 133.887996 
L 1225.206936 139.22893 
L 1227.950246 137.78719 
L 1230.693555 138.778813 
L 1233.436864 133.993172 
L 1236.180173 142.894733 
L 1238.923483 134.911335 
L 1241.666792 134.831321 
L 1244.410101 147.732395 
L 1247.15341 125.238652 
L 1249.89672 154.230041 
L 1252.640029 127.713027 
L 1255.383338 141.44015 
L 1258.126647 143.159186 
L 1260.869957 124.610845 
L 1263.613266 164.563645 
L 1266.356575 114.857545 
L 1269.099884 178.096143 
L 1271.843194 113.007802 
L 1274.586503 174.566053 
L 1277.329812 116.930369 
L 1280.073121 161.494192 
L 1282.816431 124.173764 
L 1285.55974 148.408691 
L 1288.303049 132.498044 
L 1291.046358 138.7041 
L 1293.789668 139.959157 
L 1296.532977 132.717856 
L 1299.276286 144.953832 
L 1302.019595 130.14324 
L 1304.762905 146.344416 
L 1307.506214 130.734339 
L 1310.249523 143.699047 
L 1312.992832 134.493226 
L 1315.736142 137.508939 
L 1318.479451 141.788405 
L 1321.22276 129.104859 
L 1323.966069 153.508624 
L 1326.709379 120.18685 
L 1329.452688 171.269561 
L 1332.195997 112.23274 
L 1334.939306 198.329016 
L 1337.682616 106.127101 
L 1340.425925 242.019357 
L 1343.169234 102.149854 
L 1345.912543 324.707382 
L 1348.655853 100.226043 
L 1351.399162 137.565 
" clip-path="url(#p34458c6cda)" style="fill: none; stroke: #dd8452; stroke-width: 0.7; stroke-linecap: round"/>
   </g>
   <g id="line2d_87">
    <path d="M 1104.501329 137.565 
L 1351.399162 137.565 
" clip-path="url(#p34458c6cda)" style="fill: none; stroke-dasharray: 5.55,2.4; stroke-dashoffset: 0; stroke: #ff0000; stroke-width: 1.5"/>
   </g>
   <g id="patch_15">
    <path d="M 1104.501329 312.66 
L 1104.501329 79.2 
" style="fill: none; stroke: #ffffff; stroke-width: 1.25; stroke-linejoin: miter; stroke-linecap: square"/>
   </g>
   <g id="patch_16">
    <path d="M 1104.501329 312.66 
L 1351.399162 312.66 
" style="fill: none; stroke: #ffffff; stroke-width: 1.25; stroke-linejoin: miter; stroke-linecap: square"/>
   </g>
   <g id="text_45">
    <!-- kind = 1.5m -->
    <g style="fill: #262626" transform="translate(1358.722118 164.747813) rotate(-270) scale(0.12 -0.12)">
     <defs>
      <path id="ArialMT-6b" d="M 425 0 
L 425 4581 
L 988 4581 
L 988 1969 
L 2319 3319 
L 3047 3319 
L 1778 2088 
L 3175 0 
L 2481 0 
L 1384 1697 
L 988 1316 
L 988 0 
L 425 0 
z
" transform="scale(0.015625)"/>
      <path id="ArialMT-69" d="M 425 3934 
L 425 4581 
L 988 4581 
L 988 3934 
L 425 3934 
z
M 425 0 
L 425 3319 
L 988 3319 
L 988 0 
L 425 0 
z
" transform="scale(0.015625)"/>
      <path id="ArialMT-6e" d="M 422 0 
L 422 3319 
L 928 3319 
L 928 2847 
Q 1294 3394 1984 3394 
Q 2284 3394 2536 3286 
Q 2788 3178 2913 3003 
Q 3038 2828 3088 2588 
Q 3119 2431 3119 2041 
L 3119 0 
L 2556 0 
L 2556 2019 
Q 2556 2363 2490 2533 
Q 2425 2703 2258 2804 
Q 2091 2906 1866 2906 
Q 1506 2906 1245 2678 
Q 984 2450 984 1813 
L 984 0 
L 422 0 
z
" transform="scale(0.015625)"/>
      <path id="ArialMT-2e" d="M 581 0 
L 581 641 
L 1222 641 
L 1222 0 
L 581 0 
z
" transform="scale(0.015625)"/>
      <path id="ArialMT-35" d="M 266 1200 
L 856 1250 
Q 922 819 1161 601 
Q 1400 384 1738 384 
Q 2144 384 2425 690 
Q 2706 997 2706 1503 
Q 2706 1984 2436 2262 
Q 2166 2541 1728 2541 
Q 1456 2541 1237 2417 
Q 1019 2294 894 2097 
L 366 2166 
L 809 4519 
L 3088 4519 
L 3088 3981 
L 1259 3981 
L 1013 2750 
Q 1425 3038 1878 3038 
Q 2478 3038 2890 2622 
Q 3303 2206 3303 1553 
Q 3303 931 2941 478 
Q 2500 -78 1738 -78 
Q 1113 -78 717 272 
Q 322 622 266 1200 
z
" transform="scale(0.015625)"/>
      <path id="ArialMT-6d" d="M 422 0 
L 422 3319 
L 925 3319 
L 925 2853 
Q 1081 3097 1340 3245 
Q 1600 3394 1931 3394 
Q 2300 3394 2536 3241 
Q 2772 3088 2869 2813 
Q 3263 3394 3894 3394 
Q 4388 3394 4653 3120 
Q 4919 2847 4919 2278 
L 4919 0 
L 4359 0 
L 4359 2091 
Q 4359 2428 4304 2576 
Q 4250 2725 4106 2815 
Q 3963 2906 3769 2906 
Q 3419 2906 3187 2673 
Q 2956 2441 2956 1928 
L 2956 0 
L 2394 0 
L 2394 2156 
Q 2394 2531 2256 2718 
Q 2119 2906 1806 2906 
Q 1569 2906 1367 2781 
Q 1166 2656 1075 2415 
Q 984 2175 984 1722 
L 984 0 
L 422 0 
z
" transform="scale(0.015625)"/>
     </defs>
     <use xlink:href="#ArialMT-6b"/>
     <use xlink:href="#ArialMT-69" x="50"/>
     <use xlink:href="#ArialMT-6e" x="72.216797"/>
     <use xlink:href="#ArialMT-64" x="127.832031"/>
     <use xlink:href="#ArialMT-20" x="183.447266"/>
     <use xlink:href="#ArialMT-3d" x="211.230469"/>
     <use xlink:href="#ArialMT-20" x="269.628906"/>
     <use xlink:href="#ArialMT-31" x="297.412109"/>
     <use xlink:href="#ArialMT-2e" x="353.027344"/>
     <use xlink:href="#ArialMT-35" x="380.810547"/>
     <use xlink:href="#ArialMT-6d" x="436.425781"/>
    </g>
   </g>
   <g id="text_46">
    <!-- fMHz = 3000 -->
    <g style="fill: #262626" transform="translate(1193.768058 73.2) scale(0.12 -0.12)">
     <use xlink:href="#ArialMT-66"/>
     <use xlink:href="#ArialMT-4d" x="27.783203"/>
     <use xlink:href="#ArialMT-48" x="111.083984"/>
     <use xlink:href="#ArialMT-7a" x="183.300781"/>
     <use xlink:href="#ArialMT-20" x="233.300781"/>
     <use xlink:href="#ArialMT-3d" x="261.083984"/>
     <use xlink:href="#ArialMT-20" x="319.482422"/>
     <use xlink:href="#ArialMT-33" x="347.265625"/>
     <use xlink:href="#ArialMT-30" x="402.880859"/>
     <use xlink:href="#ArialMT-30" x="458.496094"/>
     <use xlink:href="#ArialMT-30" x="514.111328"/>
    </g>
   </g>
  </g>
  <g id="text_47">
   <!-- dB(err) for real ground, TE polarisation, 1 averaging point -->
   <g style="fill: #0000ff" transform="translate(519.460312 20.303437) scale(0.18 -0.18)">
    <defs>
     <path id="ArialMT-6f" d="M 213 1659 
Q 213 2581 725 3025 
Q 1153 3394 1769 3394 
Q 2453 3394 2887 2945 
Q 3322 2497 3322 1706 
Q 3322 1066 3130 698 
Q 2938 331 2570 128 
Q 2203 -75 1769 -75 
Q 1072 -75 642 372 
Q 213 819 213 1659 
z
M 791 1659 
Q 791 1022 1069 705 
Q 1347 388 1769 388 
Q 2188 388 2466 706 
Q 2744 1025 2744 1678 
Q 2744 2294 2464 2611 
Q 2184 2928 1769 2928 
Q 1347 2928 1069 2612 
Q 791 2297 791 1659 
z
" transform="scale(0.015625)"/>
     <path id="ArialMT-61" d="M 2588 409 
Q 2275 144 1986 34 
Q 1697 -75 1366 -75 
Q 819 -75 525 192 
Q 231 459 231 875 
Q 231 1119 342 1320 
Q 453 1522 633 1644 
Q 813 1766 1038 1828 
Q 1203 1872 1538 1913 
Q 2219 1994 2541 2106 
Q 2544 2222 2544 2253 
Q 2544 2597 2384 2738 
Q 2169 2928 1744 2928 
Q 1347 2928 1158 2789 
Q 969 2650 878 2297 
L 328 2372 
Q 403 2725 575 2942 
Q 747 3159 1072 3276 
Q 1397 3394 1825 3394 
Q 2250 3394 2515 3294 
Q 2781 3194 2906 3042 
Q 3031 2891 3081 2659 
Q 3109 2516 3109 2141 
L 3109 1391 
Q 3109 606 3145 398 
Q 3181 191 3288 0 
L 2700 0 
Q 2613 175 2588 409 
z
M 2541 1666 
Q 2234 1541 1622 1453 
Q 1275 1403 1131 1340 
Q 988 1278 909 1158 
Q 831 1038 831 891 
Q 831 666 1001 516 
Q 1172 366 1500 366 
Q 1825 366 2078 508 
Q 2331 650 2450 897 
Q 2541 1088 2541 1459 
L 2541 1666 
z
" transform="scale(0.015625)"/>
     <path id="ArialMT-6c" d="M 409 0 
L 409 4581 
L 972 4581 
L 972 0 
L 409 0 
z
" transform="scale(0.015625)"/>
     <path id="ArialMT-67" d="M 319 -275 
L 866 -356 
Q 900 -609 1056 -725 
Q 1266 -881 1628 -881 
Q 2019 -881 2231 -725 
Q 2444 -569 2519 -288 
Q 2563 -116 2559 434 
Q 2191 0 1641 0 
Q 956 0 581 494 
Q 206 988 206 1678 
Q 206 2153 378 2554 
Q 550 2956 876 3175 
Q 1203 3394 1644 3394 
Q 2231 3394 2613 2919 
L 2613 3319 
L 3131 3319 
L 3131 450 
Q 3131 -325 2973 -648 
Q 2816 -972 2473 -1159 
Q 2131 -1347 1631 -1347 
Q 1038 -1347 672 -1080 
Q 306 -813 319 -275 
z
M 784 1719 
Q 784 1066 1043 766 
Q 1303 466 1694 466 
Q 2081 466 2343 764 
Q 2606 1063 2606 1700 
Q 2606 2309 2336 2618 
Q 2066 2928 1684 2928 
Q 1309 2928 1046 2623 
Q 784 2319 784 1719 
z
" transform="scale(0.015625)"/>
     <path id="ArialMT-75" d="M 2597 0 
L 2597 488 
Q 2209 -75 1544 -75 
Q 1250 -75 995 37 
Q 741 150 617 320 
Q 494 491 444 738 
Q 409 903 409 1263 
L 409 3319 
L 972 3319 
L 972 1478 
Q 972 1038 1006 884 
Q 1059 663 1231 536 
Q 1403 409 1656 409 
Q 1909 409 2131 539 
Q 2353 669 2445 892 
Q 2538 1116 2538 1541 
L 2538 3319 
L 3100 3319 
L 3100 0 
L 2597 0 
z
" transform="scale(0.015625)"/>
     <path id="ArialMT-2c" d="M 569 0 
L 569 641 
L 1209 641 
L 1209 0 
Q 1209 -353 1084 -570 
Q 959 -788 688 -906 
L 531 -666 
Q 709 -588 793 -436 
Q 878 -284 888 0 
L 569 0 
z
" transform="scale(0.015625)"/>
     <path id="ArialMT-54" d="M 1659 0 
L 1659 4041 
L 150 4041 
L 150 4581 
L 3781 4581 
L 3781 4041 
L 2266 4041 
L 2266 0 
L 1659 0 
z
" transform="scale(0.015625)"/>
     <path id="ArialMT-45" d="M 506 0 
L 506 4581 
L 3819 4581 
L 3819 4041 
L 1113 4041 
L 1113 2638 
L 3647 2638 
L 3647 2100 
L 1113 2100 
L 1113 541 
L 3925 541 
L 3925 0 
L 506 0 
z
" transform="scale(0.015625)"/>
     <path id="ArialMT-70" d="M 422 -1272 
L 422 3319 
L 934 3319 
L 934 2888 
Q 1116 3141 1344 3267 
Q 1572 3394 1897 3394 
Q 2322 3394 2647 3175 
Q 2972 2956 3137 2557 
Q 3303 2159 3303 1684 
Q 3303 1175 3120 767 
Q 2938 359 2589 142 
Q 2241 -75 1856 -75 
Q 1575 -75 1351 44 
Q 1128 163 984 344 
L 984 -1272 
L 422 -1272 
z
M 931 1641 
Q 931 1000 1190 694 
Q 1450 388 1819 388 
Q 2194 388 2461 705 
Q 2728 1022 2728 1688 
Q 2728 2322 2467 2637 
Q 2206 2953 1844 2953 
Q 1484 2953 1207 2617 
Q 931 2281 931 1641 
z
" transform="scale(0.015625)"/>
     <path id="ArialMT-73" d="M 197 991 
L 753 1078 
Q 800 744 1014 566 
Q 1228 388 1613 388 
Q 2000 388 2187 545 
Q 2375 703 2375 916 
Q 2375 1106 2209 1216 
Q 2094 1291 1634 1406 
Q 1016 1563 777 1677 
Q 538 1791 414 1992 
Q 291 2194 291 2438 
Q 291 2659 392 2848 
Q 494 3038 669 3163 
Q 800 3259 1026 3326 
Q 1253 3394 1513 3394 
Q 1903 3394 2198 3281 
Q 2494 3169 2634 2976 
Q 2775 2784 2828 2463 
L 2278 2388 
Q 2241 2644 2061 2787 
Q 1881 2931 1553 2931 
Q 1166 2931 1000 2803 
Q 834 2675 834 2503 
Q 834 2394 903 2306 
Q 972 2216 1119 2156 
Q 1203 2125 1616 2013 
Q 2213 1853 2448 1751 
Q 2684 1650 2818 1456 
Q 2953 1263 2953 975 
Q 2953 694 2789 445 
Q 2625 197 2315 61 
Q 2006 -75 1616 -75 
Q 969 -75 630 194 
Q 291 463 197 991 
z
" transform="scale(0.015625)"/>
     <path id="ArialMT-74" d="M 1650 503 
L 1731 6 
Q 1494 -44 1306 -44 
Q 1000 -44 831 53 
Q 663 150 594 308 
Q 525 466 525 972 
L 525 2881 
L 113 2881 
L 113 3319 
L 525 3319 
L 525 4141 
L 1084 4478 
L 1084 3319 
L 1650 3319 
L 1650 2881 
L 1084 2881 
L 1084 941 
Q 1084 700 1114 631 
Q 1144 563 1211 522 
Q 1278 481 1403 481 
Q 1497 481 1650 503 
z
" transform="scale(0.015625)"/>
     <path id="ArialMT-76" d="M 1344 0 
L 81 3319 
L 675 3319 
L 1388 1331 
Q 1503 1009 1600 663 
Q 1675 925 1809 1294 
L 2547 3319 
L 3125 3319 
L 1869 0 
L 1344 0 
z
" transform="scale(0.015625)"/>
    </defs>
    <use xlink:href="#ArialMT-64"/>
    <use xlink:href="#ArialMT-42" x="55.615234"/>
    <use xlink:href="#ArialMT-28" x="122.314453"/>
    <use xlink:href="#ArialMT-65" x="155.615234"/>
    <use xlink:href="#ArialMT-72" x="211.230469"/>
    <use xlink:href="#ArialMT-72" x="244.53125"/>
    <use xlink:href="#ArialMT-29" x="277.832031"/>
    <use xlink:href="#ArialMT-20" x="311.132812"/>
    <use xlink:href="#ArialMT-66" x="338.916016"/>
    <use xlink:href="#ArialMT-6f" x="366.699219"/>
    <use xlink:href="#ArialMT-72" x="422.314453"/>
    <use xlink:href="#ArialMT-20" x="455.615234"/>
    <use xlink:href="#ArialMT-72" x="483.398438"/>
    <use xlink:href="#ArialMT-65" x="516.699219"/>
    <use xlink:href="#ArialMT-61" x="572.314453"/>
    <use xlink:href="#ArialMT-6c" x="627.929688"/>
    <use xlink:href="#ArialMT-20" x="650.146484"/>
    <use xlink:href="#ArialMT-67" x="677.929688"/>
    <use xlink:href="#ArialMT-72" x="733.544922"/>
    <use xlink:href="#ArialMT-6f" x="766.845703"/>
    <use xlink:href="#ArialMT-75" x="822.460938"/>
    <use xlink:href="#ArialMT-6e" x="878.076172"/>
    <use xlink:href="#ArialMT-64" x="933.691406"/>
    <use xlink:href="#ArialMT-2c" x="989.306641"/>
    <use xlink:href="#ArialMT-20" x="1017.089844"/>
    <use xlink:href="#ArialMT-54" x="1043.123047"/>
    <use xlink:href="#ArialMT-45" x="1104.207031"/>
    <use xlink:href="#ArialMT-20" x="1170.90625"/>
    <use xlink:href="#ArialMT-70" x="1198.689453"/>
    <use xlink:href="#ArialMT-6f" x="1254.304688"/>
    <use xlink:href="#ArialMT-6c" x="1309.919922"/>
    <use xlink:href="#ArialMT-61" x="1332.136719"/>
    <use xlink:href="#ArialMT-72" x="1387.751953"/>
    <use xlink:href="#ArialMT-69" x="1421.052734"/>
    <use xlink:href="#ArialMT-73" x="1443.269531"/>
    <use xlink:href="#ArialMT-61" x="1493.269531"/>
    <use xlink:href="#ArialMT-74" x="1548.884766"/>
    <use xlink:href="#ArialMT-69" x="1576.667969"/>
    <use xlink:href="#ArialMT-6f" x="1598.884766"/>
    <use xlink:href="#ArialMT-6e" x="1654.5"/>
    <use xlink:href="#ArialMT-2c" x="1710.115234"/>
    <use xlink:href="#ArialMT-20" x="1737.898438"/>
    <use xlink:href="#ArialMT-31" x="1765.681641"/>
    <use xlink:href="#ArialMT-20" x="1821.296875"/>
    <use xlink:href="#ArialMT-61" x="1849.080078"/>
    <use xlink:href="#ArialMT-76" x="1904.695312"/>
    <use xlink:href="#ArialMT-65" x="1954.695312"/>
    <use xlink:href="#ArialMT-72" x="2010.310547"/>
    <use xlink:href="#ArialMT-61" x="2043.611328"/>
    <use xlink:href="#ArialMT-67" x="2099.226562"/>
    <use xlink:href="#ArialMT-69" x="2154.841797"/>
    <use xlink:href="#ArialMT-6e" x="2177.058594"/>
    <use xlink:href="#ArialMT-67" x="2232.673828"/>
    <use xlink:href="#ArialMT-20" x="2288.289062"/>
    <use xlink:href="#ArialMT-70" x="2316.072266"/>
    <use xlink:href="#ArialMT-6f" x="2371.6875"/>
    <use xlink:href="#ArialMT-69" x="2427.302734"/>
    <use xlink:href="#ArialMT-6e" x="2449.519531"/>
    <use xlink:href="#ArialMT-74" x="2505.134766"/>
   </g>
  </g>
  <g id="legend_1">
   <g id="text_48">
    <!-- Si -->
    <g style="fill: #262626" transform="translate(1456.533984 167.542344) scale(0.12 -0.12)">
     <defs>
      <path id="ArialMT-53" d="M 288 1472 
L 859 1522 
Q 900 1178 1048 958 
Q 1197 738 1509 602 
Q 1822 466 2213 466 
Q 2559 466 2825 569 
Q 3091 672 3220 851 
Q 3350 1031 3350 1244 
Q 3350 1459 3225 1620 
Q 3100 1781 2813 1891 
Q 2628 1963 1997 2114 
Q 1366 2266 1113 2400 
Q 784 2572 623 2826 
Q 463 3081 463 3397 
Q 463 3744 659 4045 
Q 856 4347 1234 4503 
Q 1613 4659 2075 4659 
Q 2584 4659 2973 4495 
Q 3363 4331 3572 4012 
Q 3781 3694 3797 3291 
L 3216 3247 
Q 3169 3681 2898 3903 
Q 2628 4125 2100 4125 
Q 1550 4125 1298 3923 
Q 1047 3722 1047 3438 
Q 1047 3191 1225 3031 
Q 1400 2872 2139 2705 
Q 2878 2538 3153 2413 
Q 3553 2228 3743 1945 
Q 3934 1663 3934 1294 
Q 3934 928 3725 604 
Q 3516 281 3123 101 
Q 2731 -78 2241 -78 
Q 1619 -78 1198 103 
Q 778 284 539 648 
Q 300 1013 288 1472 
z
" transform="scale(0.015625)"/>
     </defs>
     <use xlink:href="#ArialMT-53"/>
     <use xlink:href="#ArialMT-69" x="66.699219"/>
    </g>
   </g>
   <g id="line2d_88">
    <path d="M 1438.828594 179.450938 
L 1449.828594 179.450938 
L 1460.828594 179.450938 
" style="fill: none; stroke: #4c72b0; stroke-width: 0.7; stroke-linecap: round"/>
   </g>
   <g id="text_49">
    <!-- SE -->
    <g style="fill: #262626" transform="translate(1469.628594 183.300938) scale(0.11 -0.11)">
     <use xlink:href="#ArialMT-53"/>
     <use xlink:href="#ArialMT-45" x="66.699219"/>
    </g>
   </g>
   <g id="line2d_89">
    <path d="M 1438.828594 195.010781 
L 1449.828594 195.010781 
L 1460.828594 195.010781 
" style="fill: none; stroke: #dd8452; stroke-width: 0.7; stroke-linecap: round"/>
   </g>
   <g id="text_50">
    <!-- SH -->
    <g style="fill: #262626" transform="translate(1469.628594 198.860781) scale(0.11 -0.11)">
     <use xlink:href="#ArialMT-53"/>
     <use xlink:href="#ArialMT-48" x="66.699219"/>
    </g>
   </g>
  </g>
 </g>
 <defs>
  <clipPath id="p69ebfef5f2">
   <rect x="65.07" y="79.2" width="246.897832" height="233.46"/>
  </clipPath>
  <clipPath id="peb1ef9d827">
   <rect x="324.927832" y="79.2" width="246.897832" height="233.46"/>
  </clipPath>
  <clipPath id="pedb2036198">
   <rect x="584.785665" y="79.2" width="246.897832" height="233.46"/>
  </clipPath>
  <clipPath id="pa36efc5aa7">
   <rect x="844.643497" y="79.2" width="246.897832" height="233.46"/>
  </clipPath>
  <clipPath id="p34458c6cda">
   <rect x="1104.501329" y="79.2" width="246.897832" height="233.46"/>
  </clipPath>
 </defs>
</svg>
