<?xml version="1.0" encoding="utf-8" standalone="no"?>
<!DOCTYPE svg PUBLIC "-//W3C//DTD SVG 1.1//EN"
  "http://www.w3.org/Graphics/SVG/1.1/DTD/svg11.dtd">
<svg xmlns:xlink="http://www.w3.org/1999/xlink" width="1494.81pt" height="360pt" viewBox="0 0 1494.81 360" xmlns="http://www.w3.org/2000/svg" version="1.1">
 <metadata>
  <rdf:RDF xmlns:dc="http://purl.org/dc/elements/1.1/" xmlns:cc="http://creativecommons.org/ns#" xmlns:rdf="http://www.w3.org/1999/02/22-rdf-syntax-ns#">
   <cc:Work>
    <dc:type rdf:resource="http://purl.org/dc/dcmitype/StillImage"/>
    <dc:date>2024-01-29T14:53:33.368532</dc:date>
    <dc:format>image/svg+xml</dc:format>
    <dc:creator>
     <cc:Agent>
      <dc:title>Matplotlib v3.8.1, https://matplotlib.org/</dc:title>
     </cc:Agent>
    </dc:creator>
   </cc:Work>
  </rdf:RDF>
 </metadata>
 <defs>
  <style type="text/css">*{stroke-linejoin: round; stroke-linecap: butt}</style>
 </defs>
 <g id="figure_1">
  <g id="patch_1">
   <path d="M 0 360 
L 1494.81 360 
L 1494.81 0 
L 0 0 
z
" style="fill: #ffffff"/>
  </g>
  <g id="axes_1">
   <g id="patch_2">
    <path d="M 55.89 312.66 
L 304.616227 312.66 
L 304.616227 79.2 
L 55.89 79.2 
z
" style="fill: #eaeaf2"/>
   </g>
   <g id="matplotlib.axis_1">
    <g id="xtick_1">
     <g id="line2d_1">
      <path d="M 55.89 312.66 
L 55.89 79.2 
" clip-path="url(#pc9ce5e9dd3)" style="fill: none; stroke: #ffffff; stroke-linecap: round"/>
     </g>
     <g id="text_1">
      <!-- 0 -->
      <g style="fill: #262626" transform="translate(52.831484 330.033594) scale(0.11 -0.11)">
       <defs>
        <path id="ArialMT-30" d="M 266 2259 
Q 266 3072 433 3567 
Q 600 4063 929 4331 
Q 1259 4600 1759 4600 
Q 2128 4600 2406 4451 
Q 2684 4303 2865 4023 
Q 3047 3744 3150 3342 
Q 3253 2941 3253 2259 
Q 3253 1453 3087 958 
Q 2922 463 2592 192 
Q 2263 -78 1759 -78 
Q 1097 -78 719 397 
Q 266 969 266 2259 
z
M 844 2259 
Q 844 1131 1108 757 
Q 1372 384 1759 384 
Q 2147 384 2411 759 
Q 2675 1134 2675 2259 
Q 2675 3391 2411 3762 
Q 2147 4134 1753 4134 
Q 1366 4134 1134 3806 
Q 844 3388 844 2259 
z
" transform="scale(0.015625)"/>
       </defs>
       <use xlink:href="#ArialMT-30"/>
      </g>
     </g>
    </g>
    <g id="xtick_2">
     <g id="line2d_2">
      <path d="M 111.162495 312.66 
L 111.162495 79.2 
" clip-path="url(#pc9ce5e9dd3)" style="fill: none; stroke: #ffffff; stroke-linecap: round"/>
     </g>
     <g id="text_2">
      <!-- 20 -->
      <g style="fill: #262626" transform="translate(105.045464 330.033594) scale(0.11 -0.11)">
       <defs>
        <path id="ArialMT-32" d="M 3222 541 
L 3222 0 
L 194 0 
Q 188 203 259 391 
Q 375 700 629 1000 
Q 884 1300 1366 1694 
Q 2113 2306 2375 2664 
Q 2638 3022 2638 3341 
Q 2638 3675 2398 3904 
Q 2159 4134 1775 4134 
Q 1369 4134 1125 3890 
Q 881 3647 878 3216 
L 300 3275 
Q 359 3922 746 4261 
Q 1134 4600 1788 4600 
Q 2447 4600 2831 4234 
Q 3216 3869 3216 3328 
Q 3216 3053 3103 2787 
Q 2991 2522 2730 2228 
Q 2469 1934 1863 1422 
Q 1356 997 1212 845 
Q 1069 694 975 541 
L 3222 541 
z
" transform="scale(0.015625)"/>
       </defs>
       <use xlink:href="#ArialMT-32"/>
       <use xlink:href="#ArialMT-30" x="55.615234"/>
      </g>
     </g>
    </g>
    <g id="xtick_3">
     <g id="line2d_3">
      <path d="M 166.43499 312.66 
L 166.43499 79.2 
" clip-path="url(#pc9ce5e9dd3)" style="fill: none; stroke: #ffffff; stroke-linecap: round"/>
     </g>
     <g id="text_3">
      <!-- 40 -->
      <g style="fill: #262626" transform="translate(160.317958 330.033594) scale(0.11 -0.11)">
       <defs>
        <path id="ArialMT-34" d="M 2069 0 
L 2069 1097 
L 81 1097 
L 81 1613 
L 2172 4581 
L 2631 4581 
L 2631 1613 
L 3250 1613 
L 3250 1097 
L 2631 1097 
L 2631 0 
L 2069 0 
z
M 2069 1613 
L 2069 3678 
L 634 1613 
L 2069 1613 
z
" transform="scale(0.015625)"/>
       </defs>
       <use xlink:href="#ArialMT-34"/>
       <use xlink:href="#ArialMT-30" x="55.615234"/>
      </g>
     </g>
    </g>
    <g id="xtick_4">
     <g id="line2d_4">
      <path d="M 221.707484 312.66 
L 221.707484 79.2 
" clip-path="url(#pc9ce5e9dd3)" style="fill: none; stroke: #ffffff; stroke-linecap: round"/>
     </g>
     <g id="text_4">
      <!-- 60 -->
      <g style="fill: #262626" transform="translate(215.590453 330.033594) scale(0.11 -0.11)">
       <defs>
        <path id="ArialMT-36" d="M 3184 3459 
L 2625 3416 
Q 2550 3747 2413 3897 
Q 2184 4138 1850 4138 
Q 1581 4138 1378 3988 
Q 1113 3794 959 3422 
Q 806 3050 800 2363 
Q 1003 2672 1297 2822 
Q 1591 2972 1913 2972 
Q 2475 2972 2870 2558 
Q 3266 2144 3266 1488 
Q 3266 1056 3080 686 
Q 2894 316 2569 119 
Q 2244 -78 1831 -78 
Q 1128 -78 684 439 
Q 241 956 241 2144 
Q 241 3472 731 4075 
Q 1159 4600 1884 4600 
Q 2425 4600 2770 4297 
Q 3116 3994 3184 3459 
z
M 888 1484 
Q 888 1194 1011 928 
Q 1134 663 1356 523 
Q 1578 384 1822 384 
Q 2178 384 2434 671 
Q 2691 959 2691 1453 
Q 2691 1928 2437 2201 
Q 2184 2475 1800 2475 
Q 1419 2475 1153 2201 
Q 888 1928 888 1484 
z
" transform="scale(0.015625)"/>
       </defs>
       <use xlink:href="#ArialMT-36"/>
       <use xlink:href="#ArialMT-30" x="55.615234"/>
      </g>
     </g>
    </g>
    <g id="xtick_5">
     <g id="line2d_5">
      <path d="M 276.979979 312.66 
L 276.979979 79.2 
" clip-path="url(#pc9ce5e9dd3)" style="fill: none; stroke: #ffffff; stroke-linecap: round"/>
     </g>
     <g id="text_5">
      <!-- 80 -->
      <g style="fill: #262626" transform="translate(270.862948 330.033594) scale(0.11 -0.11)">
       <defs>
        <path id="ArialMT-38" d="M 1131 2484 
Q 781 2613 612 2850 
Q 444 3088 444 3419 
Q 444 3919 803 4259 
Q 1163 4600 1759 4600 
Q 2359 4600 2725 4251 
Q 3091 3903 3091 3403 
Q 3091 3084 2923 2848 
Q 2756 2613 2416 2484 
Q 2838 2347 3058 2040 
Q 3278 1734 3278 1309 
Q 3278 722 2862 322 
Q 2447 -78 1769 -78 
Q 1091 -78 675 323 
Q 259 725 259 1325 
Q 259 1772 486 2073 
Q 713 2375 1131 2484 
z
M 1019 3438 
Q 1019 3113 1228 2906 
Q 1438 2700 1772 2700 
Q 2097 2700 2305 2904 
Q 2513 3109 2513 3406 
Q 2513 3716 2298 3927 
Q 2084 4138 1766 4138 
Q 1444 4138 1231 3931 
Q 1019 3725 1019 3438 
z
M 838 1322 
Q 838 1081 952 856 
Q 1066 631 1291 507 
Q 1516 384 1775 384 
Q 2178 384 2440 643 
Q 2703 903 2703 1303 
Q 2703 1709 2433 1975 
Q 2163 2241 1756 2241 
Q 1359 2241 1098 1978 
Q 838 1716 838 1322 
z
" transform="scale(0.015625)"/>
       </defs>
       <use xlink:href="#ArialMT-38"/>
       <use xlink:href="#ArialMT-30" x="55.615234"/>
      </g>
     </g>
    </g>
    <g id="text_6">
     <!-- $\theta$° -->
     <g style="fill: #262626" transform="translate(174.133113 344.809219) scale(0.12 -0.12)">
      <defs>
       <path id="DejaVuSans-Oblique-3b8" d="M 2913 2219 
L 925 2219 
Q 791 1284 928 888 
Q 1100 400 1566 400 
Q 2034 400 2391 891 
Q 2703 1322 2913 2219 
z
M 3009 2750 
Q 3094 3638 2984 3950 
Q 2813 4444 2353 4444 
Q 1875 4444 1525 3956 
Q 1250 3563 1034 2750 
L 3009 2750 
z
M 2444 4913 
Q 3194 4913 3494 4250 
Q 3794 3591 3566 2422 
Q 3341 1256 2781 594 
Q 2225 -72 1475 -72 
Q 722 -72 425 594 
Q 128 1256 353 2422 
Q 581 3591 1134 4250 
Q 1691 4913 2444 4913 
z
" transform="scale(0.015625)"/>
       <path id="ArialMT-b0" d="M 400 3794 
Q 400 4153 654 4406 
Q 909 4659 1266 4659 
Q 1628 4659 1881 4406 
Q 2134 4153 2134 3794 
Q 2134 3434 1879 3179 
Q 1625 2925 1266 2925 
Q 909 2925 654 3178 
Q 400 3431 400 3794 
z
M 741 3794 
Q 741 3575 895 3420 
Q 1050 3266 1269 3266 
Q 1484 3266 1639 3420 
Q 1794 3575 1794 3794 
Q 1794 4013 1639 4167 
Q 1484 4322 1269 4322 
Q 1050 4322 895 4167 
Q 741 4013 741 3794 
z
" transform="scale(0.015625)"/>
      </defs>
      <use xlink:href="#DejaVuSans-Oblique-3b8" transform="translate(0 0.234375)"/>
      <use xlink:href="#ArialMT-b0" transform="translate(61.181641 0.234375)"/>
     </g>
    </g>
   </g>
   <g id="matplotlib.axis_2">
    <g id="ytick_1">
     <g id="line2d_6">
      <path d="M 55.89 312.66 
L 304.616227 312.66 
" clip-path="url(#pc9ce5e9dd3)" style="fill: none; stroke: #ffffff; stroke-linecap: round"/>
     </g>
     <g id="text_7">
      <!-- −12 -->
      <g style="fill: #262626" transform="translate(27.73125 316.596797) scale(0.11 -0.11)">
       <defs>
        <path id="ArialMT-2212" d="M 3381 1997 
L 356 1997 
L 356 2522 
L 3381 2522 
L 3381 1997 
z
" transform="scale(0.015625)"/>
        <path id="ArialMT-31" d="M 2384 0 
L 1822 0 
L 1822 3584 
Q 1619 3391 1289 3197 
Q 959 3003 697 2906 
L 697 3450 
Q 1169 3672 1522 3987 
Q 1875 4303 2022 4600 
L 2384 4600 
L 2384 0 
z
" transform="scale(0.015625)"/>
       </defs>
       <use xlink:href="#ArialMT-2212"/>
       <use xlink:href="#ArialMT-31" x="58.398438"/>
       <use xlink:href="#ArialMT-32" x="114.013672"/>
      </g>
     </g>
    </g>
    <g id="ytick_2">
     <g id="line2d_7">
      <path d="M 55.89 283.4775 
L 304.616227 283.4775 
" clip-path="url(#pc9ce5e9dd3)" style="fill: none; stroke: #ffffff; stroke-linecap: round"/>
     </g>
     <g id="text_8">
      <!-- −10 -->
      <g style="fill: #262626" transform="translate(27.73125 287.414297) scale(0.11 -0.11)">
       <use xlink:href="#ArialMT-2212"/>
       <use xlink:href="#ArialMT-31" x="58.398438"/>
       <use xlink:href="#ArialMT-30" x="114.013672"/>
      </g>
     </g>
    </g>
    <g id="ytick_3">
     <g id="line2d_8">
      <path d="M 55.89 254.295 
L 304.616227 254.295 
" clip-path="url(#pc9ce5e9dd3)" style="fill: none; stroke: #ffffff; stroke-linecap: round"/>
     </g>
     <g id="text_9">
      <!-- −8 -->
      <g style="fill: #262626" transform="translate(33.848281 258.231797) scale(0.11 -0.11)">
       <use xlink:href="#ArialMT-2212"/>
       <use xlink:href="#ArialMT-38" x="58.398438"/>
      </g>
     </g>
    </g>
    <g id="ytick_4">
     <g id="line2d_9">
      <path d="M 55.89 225.1125 
L 304.616227 225.1125 
" clip-path="url(#pc9ce5e9dd3)" style="fill: none; stroke: #ffffff; stroke-linecap: round"/>
     </g>
     <g id="text_10">
      <!-- −6 -->
      <g style="fill: #262626" transform="translate(33.848281 229.049297) scale(0.11 -0.11)">
       <use xlink:href="#ArialMT-2212"/>
       <use xlink:href="#ArialMT-36" x="58.398438"/>
      </g>
     </g>
    </g>
    <g id="ytick_5">
     <g id="line2d_10">
      <path d="M 55.89 195.93 
L 304.616227 195.93 
" clip-path="url(#pc9ce5e9dd3)" style="fill: none; stroke: #ffffff; stroke-linecap: round"/>
     </g>
     <g id="text_11">
      <!-- −4 -->
      <g style="fill: #262626" transform="translate(33.848281 199.866797) scale(0.11 -0.11)">
       <use xlink:href="#ArialMT-2212"/>
       <use xlink:href="#ArialMT-34" x="58.398438"/>
      </g>
     </g>
    </g>
    <g id="ytick_6">
     <g id="line2d_11">
      <path d="M 55.89 166.7475 
L 304.616227 166.7475 
" clip-path="url(#pc9ce5e9dd3)" style="fill: none; stroke: #ffffff; stroke-linecap: round"/>
     </g>
     <g id="text_12">
      <!-- −2 -->
      <g style="fill: #262626" transform="translate(33.848281 170.684297) scale(0.11 -0.11)">
       <use xlink:href="#ArialMT-2212"/>
       <use xlink:href="#ArialMT-32" x="58.398438"/>
      </g>
     </g>
    </g>
    <g id="ytick_7">
     <g id="line2d_12">
      <path d="M 55.89 137.565 
L 304.616227 137.565 
" clip-path="url(#pc9ce5e9dd3)" style="fill: none; stroke: #ffffff; stroke-linecap: round"/>
     </g>
     <g id="text_13">
      <!-- 0 -->
      <g style="fill: #262626" transform="translate(40.272969 141.501797) scale(0.11 -0.11)">
       <use xlink:href="#ArialMT-30"/>
      </g>
     </g>
    </g>
    <g id="ytick_8">
     <g id="line2d_13">
      <path d="M 55.89 108.3825 
L 304.616227 108.3825 
" clip-path="url(#pc9ce5e9dd3)" style="fill: none; stroke: #ffffff; stroke-linecap: round"/>
     </g>
     <g id="text_14">
      <!-- 2 -->
      <g style="fill: #262626" transform="translate(40.272969 112.319297) scale(0.11 -0.11)">
       <use xlink:href="#ArialMT-32"/>
      </g>
     </g>
    </g>
    <g id="ytick_9">
     <g id="line2d_14">
      <path d="M 55.89 79.2 
L 304.616227 79.2 
" clip-path="url(#pc9ce5e9dd3)" style="fill: none; stroke: #ffffff; stroke-linecap: round"/>
     </g>
     <g id="text_15">
      <!-- 4 -->
      <g style="fill: #262626" transform="translate(40.272969 83.136797) scale(0.11 -0.11)">
       <use xlink:href="#ArialMT-34"/>
      </g>
     </g>
    </g>
    <g id="text_16">
     <!-- dB(err) -->
     <g style="fill: #262626" transform="translate(21.205625 214.596563) rotate(-90) scale(0.12 -0.12)">
      <defs>
       <path id="ArialMT-64" d="M 2575 0 
L 2575 419 
Q 2259 -75 1647 -75 
Q 1250 -75 917 144 
Q 584 363 401 755 
Q 219 1147 219 1656 
Q 219 2153 384 2558 
Q 550 2963 881 3178 
Q 1213 3394 1622 3394 
Q 1922 3394 2156 3267 
Q 2391 3141 2538 2938 
L 2538 4581 
L 3097 4581 
L 3097 0 
L 2575 0 
z
M 797 1656 
Q 797 1019 1065 703 
Q 1334 388 1700 388 
Q 2069 388 2326 689 
Q 2584 991 2584 1609 
Q 2584 2291 2321 2609 
Q 2059 2928 1675 2928 
Q 1300 2928 1048 2622 
Q 797 2316 797 1656 
z
" transform="scale(0.015625)"/>
       <path id="ArialMT-42" d="M 469 0 
L 469 4581 
L 2188 4581 
Q 2713 4581 3030 4442 
Q 3347 4303 3526 4014 
Q 3706 3725 3706 3409 
Q 3706 3116 3547 2856 
Q 3388 2597 3066 2438 
Q 3481 2316 3704 2022 
Q 3928 1728 3928 1328 
Q 3928 1006 3792 729 
Q 3656 453 3456 303 
Q 3256 153 2954 76 
Q 2653 0 2216 0 
L 469 0 
z
M 1075 2656 
L 2066 2656 
Q 2469 2656 2644 2709 
Q 2875 2778 2992 2937 
Q 3109 3097 3109 3338 
Q 3109 3566 3000 3739 
Q 2891 3913 2687 3977 
Q 2484 4041 1991 4041 
L 1075 4041 
L 1075 2656 
z
M 1075 541 
L 2216 541 
Q 2509 541 2628 563 
Q 2838 600 2978 687 
Q 3119 775 3209 942 
Q 3300 1109 3300 1328 
Q 3300 1584 3169 1773 
Q 3038 1963 2805 2039 
Q 2572 2116 2134 2116 
L 1075 2116 
L 1075 541 
z
" transform="scale(0.015625)"/>
       <path id="ArialMT-28" d="M 1497 -1347 
Q 1031 -759 709 28 
Q 388 816 388 1659 
Q 388 2403 628 3084 
Q 909 3875 1497 4659 
L 1900 4659 
Q 1522 4009 1400 3731 
Q 1209 3300 1100 2831 
Q 966 2247 966 1656 
Q 966 153 1900 -1347 
L 1497 -1347 
z
" transform="scale(0.015625)"/>
       <path id="ArialMT-65" d="M 2694 1069 
L 3275 997 
Q 3138 488 2766 206 
Q 2394 -75 1816 -75 
Q 1088 -75 661 373 
Q 234 822 234 1631 
Q 234 2469 665 2931 
Q 1097 3394 1784 3394 
Q 2450 3394 2872 2941 
Q 3294 2488 3294 1666 
Q 3294 1616 3291 1516 
L 816 1516 
Q 847 969 1125 678 
Q 1403 388 1819 388 
Q 2128 388 2347 550 
Q 2566 713 2694 1069 
z
M 847 1978 
L 2700 1978 
Q 2663 2397 2488 2606 
Q 2219 2931 1791 2931 
Q 1403 2931 1139 2672 
Q 875 2413 847 1978 
z
" transform="scale(0.015625)"/>
       <path id="ArialMT-72" d="M 416 0 
L 416 3319 
L 922 3319 
L 922 2816 
Q 1116 3169 1280 3281 
Q 1444 3394 1641 3394 
Q 1925 3394 2219 3213 
L 2025 2691 
Q 1819 2813 1613 2813 
Q 1428 2813 1281 2702 
Q 1134 2591 1072 2394 
Q 978 2094 978 1738 
L 978 0 
L 416 0 
z
" transform="scale(0.015625)"/>
       <path id="ArialMT-29" d="M 791 -1347 
L 388 -1347 
Q 1322 153 1322 1656 
Q 1322 2244 1188 2822 
Q 1081 3291 891 3722 
Q 769 4003 388 4659 
L 791 4659 
Q 1378 3875 1659 3084 
Q 1900 2403 1900 1659 
Q 1900 816 1576 28 
Q 1253 -759 791 -1347 
z
" transform="scale(0.015625)"/>
      </defs>
      <use xlink:href="#ArialMT-64"/>
      <use xlink:href="#ArialMT-42" x="55.615234"/>
      <use xlink:href="#ArialMT-28" x="122.314453"/>
      <use xlink:href="#ArialMT-65" x="155.615234"/>
      <use xlink:href="#ArialMT-72" x="211.230469"/>
      <use xlink:href="#ArialMT-72" x="244.53125"/>
      <use xlink:href="#ArialMT-29" x="277.832031"/>
     </g>
    </g>
   </g>
   <g id="PolyCollection_1"/>
   <g id="PolyCollection_2"/>
   <g id="line2d_15">
    <path d="M 55.89 141.777297 
L 58.653625 141.801348 
L 61.417249 141.873432 
L 64.180874 141.993338 
L 66.944499 142.160716 
L 69.708124 142.375071 
L 72.471748 142.635759 
L 75.235373 142.941989 
L 77.998998 143.29281 
L 80.762623 143.687108 
L 83.526247 144.1236 
L 86.289872 144.600829 
L 89.053497 145.11715 
L 91.817122 145.670726 
L 94.580746 146.259521 
L 97.344371 146.881286 
L 100.107996 147.533554 
L 102.871621 148.213635 
L 105.635245 148.918601 
L 108.39887 149.645289 
L 111.162495 150.390291 
L 113.92612 151.149955 
L 116.689744 151.920381 
L 119.453369 152.697431 
L 122.216994 153.476731 
L 124.980618 154.253684 
L 127.744243 155.023488 
L 130.507868 155.781153 
L 133.271493 156.521533 
L 136.035117 157.239359 
L 138.798742 157.929275 
L 141.562367 158.585887 
L 144.325992 159.203815 
L 147.089616 159.777749 
L 149.853241 160.302514 
L 152.616866 160.773134 
L 155.380491 161.184902 
L 158.144115 161.533448 
L 160.90774 161.814809 
L 163.671365 162.025496 
L 166.43499 162.162547 
L 169.198614 162.22359 
L 171.962239 162.206879 
L 174.725864 162.111329 
L 177.489489 161.93654 
L 180.253113 161.682802 
L 183.016738 161.351092 
L 185.780363 160.943055 
L 188.543987 160.460974 
L 191.307612 159.907731 
L 194.071237 159.286753 
L 196.834862 158.601956 
L 199.598486 157.857681 
L 202.362111 157.058623 
L 205.125736 156.209769 
L 207.889361 155.31632 
L 210.652985 154.383631 
L 213.41661 153.417145 
L 216.180235 152.422334 
L 218.94386 151.404647 
L 221.707484 150.369462 
L 224.471109 149.322042 
L 227.234734 148.267506 
L 229.998359 147.210795 
L 232.761983 146.156655 
L 235.525608 145.109611 
L 238.289233 144.073965 
L 241.052858 143.053781 
L 243.816482 142.052881 
L 246.580107 141.074849 
L 249.343732 140.12303 
L 252.107356 139.200534 
L 254.870981 138.31024 
L 257.634606 137.764717 
L 260.398231 137.499986 
L 263.161855 137.243832 
L 265.92548 136.9978 
L 268.689105 136.763286 
L 271.45273 136.541554 
L 274.216354 136.333739 
L 276.979979 136.140854 
L 279.743604 135.9638 
L 282.507229 135.803372 
L 285.270853 135.660263 
L 288.034478 135.535071 
L 290.798103 135.428305 
L 293.561728 135.340387 
L 296.325352 135.271659 
L 299.088977 135.222383 
L 301.852602 135.192743 
L 304.616227 137.565 
" clip-path="url(#pc9ce5e9dd3)" style="fill: none; stroke: #4c72b0; stroke-width: 0.7; stroke-linecap: round"/>
   </g>
   <g id="line2d_16">
    <path d="M 55.89 176.814053 
L 58.653625 176.797807 
L 61.417249 176.749104 
L 64.180874 176.668049 
L 66.944499 176.554819 
L 69.708124 176.409658 
L 72.471748 176.23288 
L 75.235373 176.024863 
L 77.998998 175.786055 
L 80.762623 175.516963 
L 83.526247 175.218158 
L 86.289872 174.890272 
L 89.053497 174.533989 
L 91.817122 174.150052 
L 94.580746 173.739252 
L 97.344371 173.302431 
L 100.107996 172.840473 
L 102.871621 172.354305 
L 105.635245 171.844894 
L 108.39887 171.31324 
L 111.162495 170.760376 
L 113.92612 170.18736 
L 116.689744 169.595277 
L 119.453369 168.985232 
L 122.216994 168.358346 
L 124.980618 167.715755 
L 127.744243 167.058604 
L 130.507868 166.388046 
L 133.271493 165.705236 
L 136.035117 165.011331 
L 138.798742 164.307483 
L 141.562367 163.594841 
L 144.325992 162.874543 
L 147.089616 162.147719 
L 149.853241 161.415483 
L 152.616866 160.678935 
L 155.380491 159.939156 
L 158.144115 159.197208 
L 160.90774 158.454131 
L 163.671365 157.710943 
L 166.43499 156.968637 
L 169.198614 156.228179 
L 171.962239 155.490509 
L 174.725864 154.756542 
L 177.489489 154.027159 
L 180.253113 153.303218 
L 183.016738 152.585544 
L 185.780363 151.874931 
L 188.543987 151.172148 
L 191.307612 150.477928 
L 194.071237 149.792979 
L 196.834862 149.117976 
L 199.598486 148.453566 
L 202.362111 147.800366 
L 205.125736 147.158965 
L 207.889361 146.529922 
L 210.652985 145.913769 
L 213.41661 145.311014 
L 216.180235 144.722132 
L 218.94386 144.14758 
L 221.707484 143.587783 
L 224.471109 143.043146 
L 227.234734 142.51405 
L 229.998359 142.000851 
L 232.761983 141.503888 
L 235.525608 141.023473 
L 238.289233 140.559903 
L 241.052858 140.113454 
L 243.816482 139.684383 
L 246.580107 139.272929 
L 249.343732 138.879315 
L 252.107356 138.50375 
L 254.870981 138.146423 
L 257.634606 138.11742 
L 260.398231 138.350476 
L 263.161855 138.571287 
L 265.92548 138.779481 
L 268.689105 138.974721 
L 271.45273 139.156693 
L 274.216354 139.325113 
L 276.979979 139.479721 
L 279.743604 139.620287 
L 282.507229 139.746601 
L 285.270853 139.858479 
L 288.034478 139.955759 
L 290.798103 140.038305 
L 293.561728 140.105998 
L 296.325352 140.158746 
L 299.088977 140.196475 
L 301.852602 140.219134 
L 304.616227 137.565 
" clip-path="url(#pc9ce5e9dd3)" style="fill: none; stroke: #dd8452; stroke-width: 0.7; stroke-linecap: round"/>
   </g>
   <g id="line2d_17"/>
   <g id="line2d_18"/>
   <g id="line2d_19">
    <path d="M 55.89 137.565 
L 304.616227 137.565 
" clip-path="url(#pc9ce5e9dd3)" style="fill: none; stroke-dasharray: 5.55,2.4; stroke-dashoffset: 0; stroke: #ff0000; stroke-width: 1.5"/>
   </g>
   <g id="patch_3">
    <path d="M 55.89 312.66 
L 55.89 79.2 
" style="fill: none; stroke: #ffffff; stroke-width: 1.25; stroke-linejoin: miter; stroke-linecap: square"/>
   </g>
   <g id="patch_4">
    <path d="M 55.89 312.66 
L 304.616227 312.66 
" style="fill: none; stroke: #ffffff; stroke-width: 1.25; stroke-linejoin: miter; stroke-linecap: square"/>
   </g>
   <g id="text_17">
    <!-- fMHz = 30 -->
    <g style="fill: #262626" transform="translate(152.744051 73.2) scale(0.12 -0.12)">
     <defs>
      <path id="ArialMT-66" d="M 556 0 
L 556 2881 
L 59 2881 
L 59 3319 
L 556 3319 
L 556 3672 
Q 556 4006 616 4169 
Q 697 4388 901 4523 
Q 1106 4659 1475 4659 
Q 1713 4659 2000 4603 
L 1916 4113 
Q 1741 4144 1584 4144 
Q 1328 4144 1222 4034 
Q 1116 3925 1116 3625 
L 1116 3319 
L 1763 3319 
L 1763 2881 
L 1116 2881 
L 1116 0 
L 556 0 
z
" transform="scale(0.015625)"/>
      <path id="ArialMT-4d" d="M 475 0 
L 475 4581 
L 1388 4581 
L 2472 1338 
Q 2622 884 2691 659 
Q 2769 909 2934 1394 
L 4031 4581 
L 4847 4581 
L 4847 0 
L 4263 0 
L 4263 3834 
L 2931 0 
L 2384 0 
L 1059 3900 
L 1059 0 
L 475 0 
z
" transform="scale(0.015625)"/>
      <path id="ArialMT-48" d="M 513 0 
L 513 4581 
L 1119 4581 
L 1119 2700 
L 3500 2700 
L 3500 4581 
L 4106 4581 
L 4106 0 
L 3500 0 
L 3500 2159 
L 1119 2159 
L 1119 0 
L 513 0 
z
" transform="scale(0.015625)"/>
      <path id="ArialMT-7a" d="M 125 0 
L 125 456 
L 2238 2881 
Q 1878 2863 1603 2863 
L 250 2863 
L 250 3319 
L 2963 3319 
L 2963 2947 
L 1166 841 
L 819 456 
Q 1197 484 1528 484 
L 3063 484 
L 3063 0 
L 125 0 
z
" transform="scale(0.015625)"/>
      <path id="ArialMT-20" transform="scale(0.015625)"/>
      <path id="ArialMT-3d" d="M 3381 2694 
L 356 2694 
L 356 3219 
L 3381 3219 
L 3381 2694 
z
M 3381 1303 
L 356 1303 
L 356 1828 
L 3381 1828 
L 3381 1303 
z
" transform="scale(0.015625)"/>
      <path id="ArialMT-33" d="M 269 1209 
L 831 1284 
Q 928 806 1161 595 
Q 1394 384 1728 384 
Q 2125 384 2398 659 
Q 2672 934 2672 1341 
Q 2672 1728 2419 1979 
Q 2166 2231 1775 2231 
Q 1616 2231 1378 2169 
L 1441 2663 
Q 1497 2656 1531 2656 
Q 1891 2656 2178 2843 
Q 2466 3031 2466 3422 
Q 2466 3731 2256 3934 
Q 2047 4138 1716 4138 
Q 1388 4138 1169 3931 
Q 950 3725 888 3313 
L 325 3413 
Q 428 3978 793 4289 
Q 1159 4600 1703 4600 
Q 2078 4600 2393 4439 
Q 2709 4278 2876 4000 
Q 3044 3722 3044 3409 
Q 3044 3113 2884 2869 
Q 2725 2625 2413 2481 
Q 2819 2388 3044 2092 
Q 3269 1797 3269 1353 
Q 3269 753 2831 336 
Q 2394 -81 1725 -81 
Q 1122 -81 723 278 
Q 325 638 269 1209 
z
" transform="scale(0.015625)"/>
     </defs>
     <use xlink:href="#ArialMT-66"/>
     <use xlink:href="#ArialMT-4d" x="27.783203"/>
     <use xlink:href="#ArialMT-48" x="111.083984"/>
     <use xlink:href="#ArialMT-7a" x="183.300781"/>
     <use xlink:href="#ArialMT-20" x="233.300781"/>
     <use xlink:href="#ArialMT-3d" x="261.083984"/>
     <use xlink:href="#ArialMT-20" x="319.482422"/>
     <use xlink:href="#ArialMT-33" x="347.265625"/>
     <use xlink:href="#ArialMT-30" x="402.880859"/>
    </g>
   </g>
  </g>
  <g id="axes_2">
   <g id="patch_5">
    <path d="M 317.576227 312.66 
L 566.302453 312.66 
L 566.302453 79.2 
L 317.576227 79.2 
z
" style="fill: #eaeaf2"/>
   </g>
   <g id="matplotlib.axis_3">
    <g id="xtick_6">
     <g id="line2d_20">
      <path d="M 317.576227 312.66 
L 317.576227 79.2 
" clip-path="url(#p1502ff92e3)" style="fill: none; stroke: #ffffff; stroke-linecap: round"/>
     </g>
     <g id="text_18">
      <!-- 0 -->
      <g style="fill: #262626" transform="translate(314.517711 330.033594) scale(0.11 -0.11)">
       <use xlink:href="#ArialMT-30"/>
      </g>
     </g>
    </g>
    <g id="xtick_7">
     <g id="line2d_21">
      <path d="M 372.848721 312.66 
L 372.848721 79.2 
" clip-path="url(#p1502ff92e3)" style="fill: none; stroke: #ffffff; stroke-linecap: round"/>
     </g>
     <g id="text_19">
      <!-- 20 -->
      <g style="fill: #262626" transform="translate(366.73169 330.033594) scale(0.11 -0.11)">
       <use xlink:href="#ArialMT-32"/>
       <use xlink:href="#ArialMT-30" x="55.615234"/>
      </g>
     </g>
    </g>
    <g id="xtick_8">
     <g id="line2d_22">
      <path d="M 428.121216 312.66 
L 428.121216 79.2 
" clip-path="url(#p1502ff92e3)" style="fill: none; stroke: #ffffff; stroke-linecap: round"/>
     </g>
     <g id="text_20">
      <!-- 40 -->
      <g style="fill: #262626" transform="translate(422.004185 330.033594) scale(0.11 -0.11)">
       <use xlink:href="#ArialMT-34"/>
       <use xlink:href="#ArialMT-30" x="55.615234"/>
      </g>
     </g>
    </g>
    <g id="xtick_9">
     <g id="line2d_23">
      <path d="M 483.393711 312.66 
L 483.393711 79.2 
" clip-path="url(#p1502ff92e3)" style="fill: none; stroke: #ffffff; stroke-linecap: round"/>
     </g>
     <g id="text_21">
      <!-- 60 -->
      <g style="fill: #262626" transform="translate(477.27668 330.033594) scale(0.11 -0.11)">
       <use xlink:href="#ArialMT-36"/>
       <use xlink:href="#ArialMT-30" x="55.615234"/>
      </g>
     </g>
    </g>
    <g id="xtick_10">
     <g id="line2d_24">
      <path d="M 538.666206 312.66 
L 538.666206 79.2 
" clip-path="url(#p1502ff92e3)" style="fill: none; stroke: #ffffff; stroke-linecap: round"/>
     </g>
     <g id="text_22">
      <!-- 80 -->
      <g style="fill: #262626" transform="translate(532.549174 330.033594) scale(0.11 -0.11)">
       <use xlink:href="#ArialMT-38"/>
       <use xlink:href="#ArialMT-30" x="55.615234"/>
      </g>
     </g>
    </g>
    <g id="text_23">
     <!-- $\theta$° -->
     <g style="fill: #262626" transform="translate(435.81934 344.809219) scale(0.12 -0.12)">
      <use xlink:href="#DejaVuSans-Oblique-3b8" transform="translate(0 0.234375)"/>
      <use xlink:href="#ArialMT-b0" transform="translate(61.181641 0.234375)"/>
     </g>
    </g>
   </g>
   <g id="matplotlib.axis_4">
    <g id="ytick_10">
     <g id="line2d_25">
      <path d="M 317.576227 312.66 
L 566.302453 312.66 
" clip-path="url(#p1502ff92e3)" style="fill: none; stroke: #ffffff; stroke-linecap: round"/>
     </g>
    </g>
    <g id="ytick_11">
     <g id="line2d_26">
      <path d="M 317.576227 283.4775 
L 566.302453 283.4775 
" clip-path="url(#p1502ff92e3)" style="fill: none; stroke: #ffffff; stroke-linecap: round"/>
     </g>
    </g>
    <g id="ytick_12">
     <g id="line2d_27">
      <path d="M 317.576227 254.295 
L 566.302453 254.295 
" clip-path="url(#p1502ff92e3)" style="fill: none; stroke: #ffffff; stroke-linecap: round"/>
     </g>
    </g>
    <g id="ytick_13">
     <g id="line2d_28">
      <path d="M 317.576227 225.1125 
L 566.302453 225.1125 
" clip-path="url(#p1502ff92e3)" style="fill: none; stroke: #ffffff; stroke-linecap: round"/>
     </g>
    </g>
    <g id="ytick_14">
     <g id="line2d_29">
      <path d="M 317.576227 195.93 
L 566.302453 195.93 
" clip-path="url(#p1502ff92e3)" style="fill: none; stroke: #ffffff; stroke-linecap: round"/>
     </g>
    </g>
    <g id="ytick_15">
     <g id="line2d_30">
      <path d="M 317.576227 166.7475 
L 566.302453 166.7475 
" clip-path="url(#p1502ff92e3)" style="fill: none; stroke: #ffffff; stroke-linecap: round"/>
     </g>
    </g>
    <g id="ytick_16">
     <g id="line2d_31">
      <path d="M 317.576227 137.565 
L 566.302453 137.565 
" clip-path="url(#p1502ff92e3)" style="fill: none; stroke: #ffffff; stroke-linecap: round"/>
     </g>
    </g>
    <g id="ytick_17">
     <g id="line2d_32">
      <path d="M 317.576227 108.3825 
L 566.302453 108.3825 
" clip-path="url(#p1502ff92e3)" style="fill: none; stroke: #ffffff; stroke-linecap: round"/>
     </g>
    </g>
    <g id="ytick_18">
     <g id="line2d_33">
      <path d="M 317.576227 79.2 
L 566.302453 79.2 
" clip-path="url(#p1502ff92e3)" style="fill: none; stroke: #ffffff; stroke-linecap: round"/>
     </g>
    </g>
   </g>
   <g id="PolyCollection_3"/>
   <g id="PolyCollection_4"/>
   <g id="line2d_34">
    <path d="M 317.576227 248.778636 
L 320.339851 248.585651 
L 323.103476 248.008657 
L 325.867101 247.053499 
L 328.630725 245.729769 
L 331.39435 244.050583 
L 334.157975 242.032285 
L 336.9216 239.69408 
L 339.685224 237.057617 
L 342.448849 234.146528 
L 345.212474 230.985961 
L 347.976099 227.602095 
L 350.739723 224.021691 
L 353.503348 220.271664 
L 356.266973 216.37871 
L 359.030598 212.368979 
L 361.794222 208.267817 
L 364.557847 204.099567 
L 367.321472 199.887424 
L 370.085097 195.653351 
L 372.848721 191.41804 
L 375.612346 187.418622 
L 378.375971 183.832422 
L 381.139596 180.313053 
L 383.90322 176.873629 
L 386.666845 173.526021 
L 389.43047 170.280951 
L 392.194094 167.148117 
L 394.957719 164.136297 
L 397.721344 161.253474 
L 400.484969 158.506949 
L 403.248593 155.903448 
L 406.012218 153.449233 
L 408.775843 151.1502 
L 411.539468 149.011961 
L 414.303092 147.03993 
L 417.066717 145.239381 
L 419.830342 143.615495 
L 422.593967 142.173385 
L 425.357591 140.918096 
L 428.121216 139.854567 
L 430.884841 138.987559 
L 433.648466 138.321534 
L 436.41209 137.860461 
L 439.175715 137.60757 
L 441.93934 137.565 
L 444.702965 137.733363 
L 447.466589 138.111187 
L 450.230214 138.69425 
L 452.993839 139.474791 
L 455.757463 140.44063 
L 458.521088 141.574216 
L 461.284713 142.851696 
L 464.048338 144.242088 
L 466.811962 145.706732 
L 469.575587 147.199196 
L 472.339212 148.665875 
L 475.102837 150.047483 
L 477.866461 151.28158 
L 480.630086 152.30611 
L 483.393711 153.063733 
L 486.157336 153.506447 
L 488.92096 153.59982 
L 491.684585 153.60308 
L 494.44821 153.228883 
L 497.211835 152.426123 
L 499.975459 151.229325 
L 502.739084 149.686011 
L 505.502709 147.852104 
L 508.266333 145.787408 
L 511.029958 143.551709 
L 513.793583 141.201804 
L 516.557208 138.789507 
L 519.320832 136.490908 
L 522.084457 134.38562 
L 524.848082 132.353734 
L 527.611707 130.415271 
L 530.375331 128.58549 
L 533.138956 126.87565 
L 535.902581 125.293753 
L 538.666206 123.845208 
L 541.42983 122.533425 
L 544.193455 121.360319 
L 546.95708 120.32672 
L 549.720705 119.432721 
L 552.484329 118.677946 
L 555.247954 118.061767 
L 558.011579 117.583471 
L 560.775204 117.242385 
L 563.538828 117.037966 
L 566.302453 137.565 
" clip-path="url(#p1502ff92e3)" style="fill: none; stroke: #4c72b0; stroke-width: 0.7; stroke-linecap: round"/>
   </g>
   <g id="line2d_35">
    <path d="M 317.576227 102.77679 
L 320.339851 102.771545 
L 323.103476 102.75594 
L 325.867101 102.730371 
L 328.630725 102.695493 
L 331.39435 102.652226 
L 334.157975 102.601749 
L 336.9216 102.545508 
L 339.685224 102.485206 
L 342.448849 102.42281 
L 345.212474 102.36055 
L 347.976099 102.300922 
L 350.739723 102.246685 
L 353.503348 102.200867 
L 356.266973 102.166771 
L 359.030598 102.147975 
L 361.794222 102.148341 
L 364.557847 102.172022 
L 367.321472 102.223472 
L 370.085097 102.307455 
L 372.848721 102.429057 
L 375.612346 102.811403 
L 378.375971 103.619394 
L 381.139596 104.495743 
L 383.90322 105.444127 
L 386.666845 106.468346 
L 389.43047 107.572341 
L 392.194094 108.760199 
L 394.957719 110.036166 
L 397.721344 111.404659 
L 400.484969 112.870269 
L 403.248593 114.437758 
L 406.012218 116.112054 
L 408.775843 117.898223 
L 411.539468 119.801421 
L 414.303092 121.826828 
L 417.066717 123.979534 
L 419.830342 126.264383 
L 422.593967 128.68575 
L 425.357591 131.247235 
L 428.121216 133.951254 
L 430.884841 136.79849 
L 433.648466 139.787185 
L 436.41209 142.912233 
L 439.175715 146.164045 
L 441.93934 149.527172 
L 444.702965 152.978685 
L 447.466589 156.486377 
L 450.230214 160.006904 
L 452.993839 163.484129 
L 455.757463 166.848057 
L 458.521088 170.014936 
L 461.284713 172.8892 
L 464.048338 175.367917 
L 466.811962 177.348076 
L 469.575587 178.736397 
L 472.339212 179.460391 
L 475.102837 179.478498 
L 477.866461 178.786813 
L 480.630086 177.420485 
L 483.393711 175.449325 
L 486.157336 172.968815 
L 488.92096 170.088849 
L 491.684585 167.199665 
L 494.44821 164.121217 
L 497.211835 160.880469 
L 499.975459 157.559954 
L 502.739084 154.227948 
L 505.502709 150.93888 
L 508.266333 147.734673 
L 511.029958 144.646507 
L 513.793583 141.696684 
L 516.557208 138.900377 
L 519.320832 136.397539 
L 522.084457 134.233839 
L 524.848082 132.258569 
L 527.611707 130.464493 
L 530.375331 128.843211 
L 533.138956 127.38574 
L 535.902581 126.08296 
L 538.666206 124.925934 
L 541.42983 123.906147 
L 544.193455 123.015672 
L 546.95708 122.247279 
L 549.720705 121.594515 
L 552.484329 121.051749 
L 555.247954 120.614196 
L 558.011579 120.277942 
L 560.775204 120.039935 
L 563.538828 119.898001 
L 566.302453 137.565 
" clip-path="url(#p1502ff92e3)" style="fill: none; stroke: #dd8452; stroke-width: 0.7; stroke-linecap: round"/>
   </g>
   <g id="line2d_36">
    <path d="M 317.576227 137.565 
L 566.302453 137.565 
" clip-path="url(#p1502ff92e3)" style="fill: none; stroke-dasharray: 5.55,2.4; stroke-dashoffset: 0; stroke: #ff0000; stroke-width: 1.5"/>
   </g>
   <g id="patch_6">
    <path d="M 317.576227 312.66 
L 317.576227 79.2 
" style="fill: none; stroke: #ffffff; stroke-width: 1.25; stroke-linejoin: miter; stroke-linecap: square"/>
   </g>
   <g id="patch_7">
    <path d="M 317.576227 312.66 
L 566.302453 312.66 
" style="fill: none; stroke: #ffffff; stroke-width: 1.25; stroke-linejoin: miter; stroke-linecap: square"/>
   </g>
   <g id="text_24">
    <!-- fMHz = 100 -->
    <g style="fill: #262626" transform="translate(411.093715 73.2) scale(0.12 -0.12)">
     <use xlink:href="#ArialMT-66"/>
     <use xlink:href="#ArialMT-4d" x="27.783203"/>
     <use xlink:href="#ArialMT-48" x="111.083984"/>
     <use xlink:href="#ArialMT-7a" x="183.300781"/>
     <use xlink:href="#ArialMT-20" x="233.300781"/>
     <use xlink:href="#ArialMT-3d" x="261.083984"/>
     <use xlink:href="#ArialMT-20" x="319.482422"/>
     <use xlink:href="#ArialMT-31" x="347.265625"/>
     <use xlink:href="#ArialMT-30" x="402.880859"/>
     <use xlink:href="#ArialMT-30" x="458.496094"/>
    </g>
   </g>
  </g>
  <g id="axes_3">
   <g id="patch_8">
    <path d="M 579.262453 312.66 
L 827.98868 312.66 
L 827.98868 79.2 
L 579.262453 79.2 
z
" style="fill: #eaeaf2"/>
   </g>
   <g id="matplotlib.axis_5">
    <g id="xtick_11">
     <g id="line2d_37">
      <path d="M 579.262453 312.66 
L 579.262453 79.2 
" clip-path="url(#p23ffda674b)" style="fill: none; stroke: #ffffff; stroke-linecap: round"/>
     </g>
     <g id="text_25">
      <!-- 0 -->
      <g style="fill: #262626" transform="translate(576.203937 330.033594) scale(0.11 -0.11)">
       <use xlink:href="#ArialMT-30"/>
      </g>
     </g>
    </g>
    <g id="xtick_12">
     <g id="line2d_38">
      <path d="M 634.534948 312.66 
L 634.534948 79.2 
" clip-path="url(#p23ffda674b)" style="fill: none; stroke: #ffffff; stroke-linecap: round"/>
     </g>
     <g id="text_26">
      <!-- 20 -->
      <g style="fill: #262626" transform="translate(628.417917 330.033594) scale(0.11 -0.11)">
       <use xlink:href="#ArialMT-32"/>
       <use xlink:href="#ArialMT-30" x="55.615234"/>
      </g>
     </g>
    </g>
    <g id="xtick_13">
     <g id="line2d_39">
      <path d="M 689.807443 312.66 
L 689.807443 79.2 
" clip-path="url(#p23ffda674b)" style="fill: none; stroke: #ffffff; stroke-linecap: round"/>
     </g>
     <g id="text_27">
      <!-- 40 -->
      <g style="fill: #262626" transform="translate(683.690411 330.033594) scale(0.11 -0.11)">
       <use xlink:href="#ArialMT-34"/>
       <use xlink:href="#ArialMT-30" x="55.615234"/>
      </g>
     </g>
    </g>
    <g id="xtick_14">
     <g id="line2d_40">
      <path d="M 745.079937 312.66 
L 745.079937 79.2 
" clip-path="url(#p23ffda674b)" style="fill: none; stroke: #ffffff; stroke-linecap: round"/>
     </g>
     <g id="text_28">
      <!-- 60 -->
      <g style="fill: #262626" transform="translate(738.962906 330.033594) scale(0.11 -0.11)">
       <use xlink:href="#ArialMT-36"/>
       <use xlink:href="#ArialMT-30" x="55.615234"/>
      </g>
     </g>
    </g>
    <g id="xtick_15">
     <g id="line2d_41">
      <path d="M 800.352432 312.66 
L 800.352432 79.2 
" clip-path="url(#p23ffda674b)" style="fill: none; stroke: #ffffff; stroke-linecap: round"/>
     </g>
     <g id="text_29">
      <!-- 80 -->
      <g style="fill: #262626" transform="translate(794.235401 330.033594) scale(0.11 -0.11)">
       <use xlink:href="#ArialMT-38"/>
       <use xlink:href="#ArialMT-30" x="55.615234"/>
      </g>
     </g>
    </g>
    <g id="text_30">
     <!-- $\theta$° -->
     <g style="fill: #262626" transform="translate(697.505566 344.809219) scale(0.12 -0.12)">
      <use xlink:href="#DejaVuSans-Oblique-3b8" transform="translate(0 0.234375)"/>
      <use xlink:href="#ArialMT-b0" transform="translate(61.181641 0.234375)"/>
     </g>
    </g>
   </g>
   <g id="matplotlib.axis_6">
    <g id="ytick_19">
     <g id="line2d_42">
      <path d="M 579.262453 312.66 
L 827.98868 312.66 
" clip-path="url(#p23ffda674b)" style="fill: none; stroke: #ffffff; stroke-linecap: round"/>
     </g>
    </g>
    <g id="ytick_20">
     <g id="line2d_43">
      <path d="M 579.262453 283.4775 
L 827.98868 283.4775 
" clip-path="url(#p23ffda674b)" style="fill: none; stroke: #ffffff; stroke-linecap: round"/>
     </g>
    </g>
    <g id="ytick_21">
     <g id="line2d_44">
      <path d="M 579.262453 254.295 
L 827.98868 254.295 
" clip-path="url(#p23ffda674b)" style="fill: none; stroke: #ffffff; stroke-linecap: round"/>
     </g>
    </g>
    <g id="ytick_22">
     <g id="line2d_45">
      <path d="M 579.262453 225.1125 
L 827.98868 225.1125 
" clip-path="url(#p23ffda674b)" style="fill: none; stroke: #ffffff; stroke-linecap: round"/>
     </g>
    </g>
    <g id="ytick_23">
     <g id="line2d_46">
      <path d="M 579.262453 195.93 
L 827.98868 195.93 
" clip-path="url(#p23ffda674b)" style="fill: none; stroke: #ffffff; stroke-linecap: round"/>
     </g>
    </g>
    <g id="ytick_24">
     <g id="line2d_47">
      <path d="M 579.262453 166.7475 
L 827.98868 166.7475 
" clip-path="url(#p23ffda674b)" style="fill: none; stroke: #ffffff; stroke-linecap: round"/>
     </g>
    </g>
    <g id="ytick_25">
     <g id="line2d_48">
      <path d="M 579.262453 137.565 
L 827.98868 137.565 
" clip-path="url(#p23ffda674b)" style="fill: none; stroke: #ffffff; stroke-linecap: round"/>
     </g>
    </g>
    <g id="ytick_26">
     <g id="line2d_49">
      <path d="M 579.262453 108.3825 
L 827.98868 108.3825 
" clip-path="url(#p23ffda674b)" style="fill: none; stroke: #ffffff; stroke-linecap: round"/>
     </g>
    </g>
    <g id="ytick_27">
     <g id="line2d_50">
      <path d="M 579.262453 79.2 
L 827.98868 79.2 
" clip-path="url(#p23ffda674b)" style="fill: none; stroke: #ffffff; stroke-linecap: round"/>
     </g>
    </g>
   </g>
   <g id="PolyCollection_5"/>
   <g id="PolyCollection_6"/>
   <g id="line2d_51">
    <path d="M 579.262453 248.064132 
L 582.026078 247.884206 
L 584.789702 247.333554 
L 587.553327 246.380857 
L 590.316952 244.978248 
L 593.080577 243.067694 
L 595.844201 240.589507 
L 598.607826 237.49212 
L 601.371451 233.741738 
L 604.135076 229.33015 
L 606.8987 224.279113 
L 609.662325 218.640453 
L 612.42595 212.492087 
L 615.189575 205.931125 
L 617.953199 199.065774 
L 620.716824 192.007612 
L 623.480449 184.865386 
L 626.244074 177.740772 
L 629.007698 170.726079 
L 631.771323 163.903531 
L 634.534948 157.345663 
L 637.298573 151.333864 
L 640.062197 146.079422 
L 642.825822 141.260081 
L 645.589447 136.907592 
L 648.353071 133.048186 
L 651.116696 129.703543 
L 653.880321 126.891473 
L 656.643946 124.626268 
L 659.40757 122.918624 
L 662.171195 121.775068 
L 664.93482 121.196738 
L 667.698445 121.177389 
L 670.462069 121.700489 
L 673.225694 122.73532 
L 675.989319 124.232164 
L 678.752944 126.116975 
L 681.516568 128.286485 
L 684.280193 130.605488 
L 687.043818 133.234416 
L 689.807443 136.087001 
L 692.571067 138.475361 
L 695.334692 140.204339 
L 698.098317 141.143461 
L 700.861942 141.253426 
L 703.625566 140.595893 
L 706.389191 139.323177 
L 709.152816 137.652648 
L 711.91644 135.835496 
L 714.680065 134.1287 
L 717.44369 132.77439 
L 720.207315 131.985969 
L 722.970939 132.266046 
L 725.734564 133.661854 
L 728.498189 135.855763 
L 731.261814 138.768747 
L 734.025438 142.211948 
L 736.789063 145.864336 
L 739.552688 149.272173 
L 742.316313 151.898445 
L 745.079937 153.241178 
L 747.843562 152.995068 
L 750.607187 151.223876 
L 753.370812 148.495987 
L 756.134436 144.955153 
L 758.898061 141.165777 
L 761.661686 137.639937 
L 764.425311 134.786824 
L 767.188935 132.902629 
L 769.95256 132.169332 
L 772.716185 132.638677 
L 775.479809 134.189957 
L 778.243434 136.468345 
L 781.007059 138.842762 
L 783.770684 140.462684 
L 786.534308 140.487669 
L 789.297933 138.431511 
L 792.061558 134.380267 
L 794.825183 128.893446 
L 797.588807 122.696328 
L 800.352432 116.416599 
L 803.116057 110.48025 
L 805.879682 105.243425 
L 808.643306 100.796291 
L 811.406931 97.058159 
L 814.170556 93.999457 
L 816.934181 91.576274 
L 819.697805 89.743938 
L 822.46143 88.464049 
L 825.225055 87.707866 
L 827.98868 137.565 
" clip-path="url(#p23ffda674b)" style="fill: none; stroke: #4c72b0; stroke-width: 0.7; stroke-linecap: round"/>
   </g>
   <g id="line2d_52">
    <path d="M 579.262453 102.095118 
L 582.026078 102.093558 
L 584.789702 102.090159 
L 587.553327 102.088759 
L 590.316952 102.095746 
L 593.080577 102.120051 
L 595.844201 102.173139 
L 598.607826 102.269008 
L 601.371451 102.424199 
L 604.135076 102.657828 
L 606.8987 102.991644 
L 609.662325 103.450119 
L 612.42595 104.0606 
L 615.189575 104.853497 
L 617.953199 105.862556 
L 620.716824 107.125206 
L 623.480449 108.682987 
L 626.244074 110.582086 
L 629.007698 112.873956 
L 631.771323 115.616029 
L 634.534948 118.872474 
L 637.298573 122.932418 
L 640.062197 128.030159 
L 642.825822 133.880335 
L 645.589447 140.56305 
L 648.353071 148.159723 
L 651.116696 156.744771 
L 653.880321 166.367481 
L 656.643946 177.014685 
L 659.40757 188.53766 
L 662.171195 200.519456 
L 664.93482 212.06983 
L 667.698445 221.623188 
L 670.462069 227.049324 
L 673.225694 226.51468 
L 675.989319 219.752725 
L 678.752944 208.309687 
L 681.516568 194.428709 
L 684.280193 179.959448 
L 687.043818 166.378008 
L 689.807443 154.387283 
L 692.571067 143.762029 
L 695.334692 134.570019 
L 698.098317 126.801797 
L 700.861942 120.419801 
L 703.625566 115.384124 
L 706.389191 111.666073 
L 709.152816 109.255345 
L 711.91644 108.163617 
L 714.680065 108.425482 
L 717.44369 110.09643 
L 720.207315 113.24626 
L 722.970939 118.273338 
L 725.734564 125.14398 
L 728.498189 133.448935 
L 731.261814 142.943514 
L 734.025438 153.094569 
L 736.789063 162.926221 
L 739.552688 170.96548 
L 742.316313 175.550569 
L 745.079937 175.622523 
L 747.843562 171.44023 
L 750.607187 164.457162 
L 753.370812 156.608416 
L 756.134436 148.852233 
L 758.898061 142.017871 
L 761.661686 136.555595 
L 764.425311 132.682288 
L 767.188935 130.479299 
L 769.95256 129.931978 
L 772.716185 130.917538 
L 775.479809 133.150155 
L 778.243434 136.104345 
L 781.007059 138.973195 
L 783.770684 140.7627 
L 786.534308 140.594187 
L 789.297933 138.09274 
L 792.061558 133.546595 
L 794.825183 127.687515 
L 797.588807 121.314974 
L 800.352432 115.047445 
L 803.116057 109.26303 
L 805.879682 104.264191 
L 808.643306 100.095856 
L 811.406931 96.643562 
L 814.170556 93.853967 
L 816.934181 91.666964 
L 819.697805 90.027076 
L 822.46143 88.888877 
L 825.225055 88.219275 
L 827.98868 137.565 
" clip-path="url(#p23ffda674b)" style="fill: none; stroke: #dd8452; stroke-width: 0.7; stroke-linecap: round"/>
   </g>
   <g id="line2d_53">
    <path d="M 579.262453 137.565 
L 827.98868 137.565 
" clip-path="url(#p23ffda674b)" style="fill: none; stroke-dasharray: 5.55,2.4; stroke-dashoffset: 0; stroke: #ff0000; stroke-width: 1.5"/>
   </g>
   <g id="patch_9">
    <path d="M 579.262453 312.66 
L 579.262453 79.2 
" style="fill: none; stroke: #ffffff; stroke-width: 1.25; stroke-linejoin: miter; stroke-linecap: square"/>
   </g>
   <g id="patch_10">
    <path d="M 579.262453 312.66 
L 827.98868 312.66 
" style="fill: none; stroke: #ffffff; stroke-width: 1.25; stroke-linejoin: miter; stroke-linecap: square"/>
   </g>
   <g id="text_31">
    <!-- fMHz = 300 -->
    <g style="fill: #262626" transform="translate(672.779941 73.2) scale(0.12 -0.12)">
     <use xlink:href="#ArialMT-66"/>
     <use xlink:href="#ArialMT-4d" x="27.783203"/>
     <use xlink:href="#ArialMT-48" x="111.083984"/>
     <use xlink:href="#ArialMT-7a" x="183.300781"/>
     <use xlink:href="#ArialMT-20" x="233.300781"/>
     <use xlink:href="#ArialMT-3d" x="261.083984"/>
     <use xlink:href="#ArialMT-20" x="319.482422"/>
     <use xlink:href="#ArialMT-33" x="347.265625"/>
     <use xlink:href="#ArialMT-30" x="402.880859"/>
     <use xlink:href="#ArialMT-30" x="458.496094"/>
    </g>
   </g>
  </g>
  <g id="axes_4">
   <g id="patch_11">
    <path d="M 840.94868 312.66 
L 1089.674906 312.66 
L 1089.674906 79.2 
L 840.94868 79.2 
z
" style="fill: #eaeaf2"/>
   </g>
   <g id="matplotlib.axis_7">
    <g id="xtick_16">
     <g id="line2d_54">
      <path d="M 840.94868 312.66 
L 840.94868 79.2 
" clip-path="url(#pa8985f3b98)" style="fill: none; stroke: #ffffff; stroke-linecap: round"/>
     </g>
     <g id="text_32">
      <!-- 0 -->
      <g style="fill: #262626" transform="translate(837.890164 330.033594) scale(0.11 -0.11)">
       <use xlink:href="#ArialMT-30"/>
      </g>
     </g>
    </g>
    <g id="xtick_17">
     <g id="line2d_55">
      <path d="M 896.221174 312.66 
L 896.221174 79.2 
" clip-path="url(#pa8985f3b98)" style="fill: none; stroke: #ffffff; stroke-linecap: round"/>
     </g>
     <g id="text_33">
      <!-- 20 -->
      <g style="fill: #262626" transform="translate(890.104143 330.033594) scale(0.11 -0.11)">
       <use xlink:href="#ArialMT-32"/>
       <use xlink:href="#ArialMT-30" x="55.615234"/>
      </g>
     </g>
    </g>
    <g id="xtick_18">
     <g id="line2d_56">
      <path d="M 951.493669 312.66 
L 951.493669 79.2 
" clip-path="url(#pa8985f3b98)" style="fill: none; stroke: #ffffff; stroke-linecap: round"/>
     </g>
     <g id="text_34">
      <!-- 40 -->
      <g style="fill: #262626" transform="translate(945.376638 330.033594) scale(0.11 -0.11)">
       <use xlink:href="#ArialMT-34"/>
       <use xlink:href="#ArialMT-30" x="55.615234"/>
      </g>
     </g>
    </g>
    <g id="xtick_19">
     <g id="line2d_57">
      <path d="M 1006.766164 312.66 
L 1006.766164 79.2 
" clip-path="url(#pa8985f3b98)" style="fill: none; stroke: #ffffff; stroke-linecap: round"/>
     </g>
     <g id="text_35">
      <!-- 60 -->
      <g style="fill: #262626" transform="translate(1000.649133 330.033594) scale(0.11 -0.11)">
       <use xlink:href="#ArialMT-36"/>
       <use xlink:href="#ArialMT-30" x="55.615234"/>
      </g>
     </g>
    </g>
    <g id="xtick_20">
     <g id="line2d_58">
      <path d="M 1062.038659 312.66 
L 1062.038659 79.2 
" clip-path="url(#pa8985f3b98)" style="fill: none; stroke: #ffffff; stroke-linecap: round"/>
     </g>
     <g id="text_36">
      <!-- 80 -->
      <g style="fill: #262626" transform="translate(1055.921627 330.033594) scale(0.11 -0.11)">
       <use xlink:href="#ArialMT-38"/>
       <use xlink:href="#ArialMT-30" x="55.615234"/>
      </g>
     </g>
    </g>
    <g id="text_37">
     <!-- $\theta$° -->
     <g style="fill: #262626" transform="translate(959.191793 344.809219) scale(0.12 -0.12)">
      <use xlink:href="#DejaVuSans-Oblique-3b8" transform="translate(0 0.234375)"/>
      <use xlink:href="#ArialMT-b0" transform="translate(61.181641 0.234375)"/>
     </g>
    </g>
   </g>
   <g id="matplotlib.axis_8">
    <g id="ytick_28">
     <g id="line2d_59">
      <path d="M 840.94868 312.66 
L 1089.674906 312.66 
" clip-path="url(#pa8985f3b98)" style="fill: none; stroke: #ffffff; stroke-linecap: round"/>
     </g>
    </g>
    <g id="ytick_29">
     <g id="line2d_60">
      <path d="M 840.94868 283.4775 
L 1089.674906 283.4775 
" clip-path="url(#pa8985f3b98)" style="fill: none; stroke: #ffffff; stroke-linecap: round"/>
     </g>
    </g>
    <g id="ytick_30">
     <g id="line2d_61">
      <path d="M 840.94868 254.295 
L 1089.674906 254.295 
" clip-path="url(#pa8985f3b98)" style="fill: none; stroke: #ffffff; stroke-linecap: round"/>
     </g>
    </g>
    <g id="ytick_31">
     <g id="line2d_62">
      <path d="M 840.94868 225.1125 
L 1089.674906 225.1125 
" clip-path="url(#pa8985f3b98)" style="fill: none; stroke: #ffffff; stroke-linecap: round"/>
     </g>
    </g>
    <g id="ytick_32">
     <g id="line2d_63">
      <path d="M 840.94868 195.93 
L 1089.674906 195.93 
" clip-path="url(#pa8985f3b98)" style="fill: none; stroke: #ffffff; stroke-linecap: round"/>
     </g>
    </g>
    <g id="ytick_33">
     <g id="line2d_64">
      <path d="M 840.94868 166.7475 
L 1089.674906 166.7475 
" clip-path="url(#pa8985f3b98)" style="fill: none; stroke: #ffffff; stroke-linecap: round"/>
     </g>
    </g>
    <g id="ytick_34">
     <g id="line2d_65">
      <path d="M 840.94868 137.565 
L 1089.674906 137.565 
" clip-path="url(#pa8985f3b98)" style="fill: none; stroke: #ffffff; stroke-linecap: round"/>
     </g>
    </g>
    <g id="ytick_35">
     <g id="line2d_66">
      <path d="M 840.94868 108.3825 
L 1089.674906 108.3825 
" clip-path="url(#pa8985f3b98)" style="fill: none; stroke: #ffffff; stroke-linecap: round"/>
     </g>
    </g>
    <g id="ytick_36">
     <g id="line2d_67">
      <path d="M 840.94868 79.2 
L 1089.674906 79.2 
" clip-path="url(#pa8985f3b98)" style="fill: none; stroke: #ffffff; stroke-linecap: round"/>
     </g>
    </g>
   </g>
   <g id="PolyCollection_7"/>
   <g id="PolyCollection_8"/>
   <g id="line2d_68">
    <path d="M 840.94868 245.999907 
L 843.712304 245.914368 
L 846.475929 245.502674 
L 849.239554 244.314228 
L 852.003178 241.67055 
L 854.766803 236.835065 
L 857.530428 229.286913 
L 860.294053 218.976502 
L 863.057677 206.380518 
L 865.821302 192.31747 
L 868.584927 177.680225 
L 871.348552 163.548409 
L 874.112176 150.276117 
L 876.875801 138.272461 
L 879.639426 127.854925 
L 882.403051 119.27193 
L 885.166675 112.741778 
L 887.9303 108.483463 
L 890.693925 106.740899 
L 893.45755 107.800178 
L 896.221174 111.993314 
L 898.984799 119.881856 
L 901.748424 131.8021 
L 904.512049 147.010984 
L 907.275673 163.65211 
L 910.039298 176.856818 
L 912.802923 179.534584 
L 915.566547 169.629597 
L 918.330172 154.008888 
L 921.093797 138.755542 
L 923.857422 127.300393 
L 926.621046 120.856006 
L 929.384671 119.723938 
L 932.148296 124.004751 
L 934.911921 132.902226 
L 937.675545 143.361114 
L 940.43917 151.053037 
L 943.202795 151.982194 
L 945.96642 147.181644 
L 948.730044 140.128982 
L 951.493669 134.575249 
L 954.257294 132.279761 
L 957.020919 133.437479 
L 959.784543 136.346416 
L 962.548168 138.079858 
L 965.311793 137.565 
L 968.075418 136.717056 
L 970.839042 137.237174 
L 973.602667 139.819042 
L 976.366292 143.076459 
L 979.129916 144.085325 
L 981.893541 139.822264 
L 984.657166 132.743733 
L 987.420791 128.630284 
L 990.184415 130.762743 
L 992.94804 139.06093 
L 995.711665 149.070348 
L 998.47529 151.552542 
L 1001.238914 141.986423 
L 1004.002539 130.02186 
L 1006.766164 125.280269 
L 1009.529789 130.227911 
L 1012.293413 142.534037 
L 1015.057038 152.641328 
L 1017.820663 148.553937 
L 1020.584288 135.943719 
L 1023.347912 128.074861 
L 1026.111537 129.484379 
L 1028.875162 137.695721 
L 1031.638787 144.465567 
L 1034.402411 142.950664 
L 1037.166036 137.914598 
L 1039.929661 136.710842 
L 1042.693285 139.013805 
L 1045.45691 137.968463 
L 1048.220535 131.571813 
L 1050.98416 128.302622 
L 1053.747784 136.890618 
L 1056.511409 157.14593 
L 1059.275034 162.743318 
L 1062.038659 137.482576 
L 1064.802283 114.913722 
L 1067.565908 112.188491 
L 1070.329533 141.25486 
L 1073.093158 216.91753 
L 1075.856782 195.969001 
L 1078.620407 132.860758 
L 1081.384032 101.970465 
L 1084.147657 86.71562 
L 1086.911281 79.505029 
L 1089.674906 137.565 
" clip-path="url(#pa8985f3b98)" style="fill: none; stroke: #4c72b0; stroke-width: 0.7; stroke-linecap: round"/>
   </g>
   <g id="line2d_69">
    <path d="M 840.94868 100.301444 
L 843.712304 100.288314 
L 846.475929 100.264222 
L 849.239554 100.275055 
L 852.003178 100.397316 
L 854.766803 100.738437 
L 857.530428 101.437721 
L 860.294053 102.668445 
L 863.057677 104.641785 
L 865.821302 107.613422 
L 868.584927 111.893928 
L 871.348552 118.161237 
L 874.112176 126.630991 
L 876.875801 137.845495 
L 879.639426 152.498757 
L 882.403051 171.353944 
L 885.166675 194.808274 
L 887.9303 220.903852 
L 890.693925 239.537675 
L 893.45755 233.322497 
L 896.221174 205.417443 
L 898.984799 173.984217 
L 901.748424 147.441517 
L 904.512049 126.976799 
L 907.275673 112.502996 
L 910.039298 103.844711 
L 912.802923 101.111297 
L 915.566547 104.820871 
L 918.330172 116.687629 
L 921.093797 137.552781 
L 923.857422 169.329841 
L 926.621046 209.752807 
L 929.384671 228.046625 
L 932.148296 194.324131 
L 934.911921 153.128821 
L 937.675545 123.977242 
L 940.43917 107.41542 
L 943.202795 102.539136 
L 945.96642 110.215629 
L 948.730044 131.089732 
L 951.493669 166.897971 
L 954.257294 208.893596 
L 957.020919 204.056596 
L 959.784543 159.409845 
L 962.548168 124.949272 
L 965.311793 107.51993 
L 968.075418 106.654308 
L 970.839042 121.83605 
L 973.602667 153.73652 
L 976.366292 193.680555 
L 979.129916 191.301007 
L 981.893541 150.025866 
L 984.657166 119.789088 
L 987.420791 108.868011 
L 990.184415 116.082226 
L 992.94804 140.477147 
L 995.711665 174.782354 
L 998.47529 180.747952 
L 1001.238914 148.553491 
L 1004.002539 122.274615 
L 1006.766164 114.331486 
L 1009.529789 123.671783 
L 1012.293413 146.519954 
L 1015.057038 166.203355 
L 1017.820663 156.795637 
L 1020.584288 134.949677 
L 1023.347912 123.514278 
L 1026.111537 125.91757 
L 1028.875162 137.62252 
L 1031.638787 147.065482 
L 1034.402411 144.665974 
L 1037.166036 137.885743 
L 1039.929661 136.383453 
L 1042.693285 139.221345 
L 1045.45691 137.914572 
L 1048.220535 130.515306 
L 1050.98416 127.023844 
L 1053.747784 136.792712 
L 1056.511409 159.461772 
L 1059.275034 165.176115 
L 1062.038659 137.247223 
L 1064.802283 113.745055 
L 1067.565908 111.269124 
L 1070.329533 141.4622 
L 1073.093158 220.8786 
L 1075.856782 197.226911 
L 1078.620407 132.631974 
L 1081.384032 101.712222 
L 1084.147657 86.568974 
L 1086.911281 79.446293 
L 1089.674906 137.565 
" clip-path="url(#pa8985f3b98)" style="fill: none; stroke: #dd8452; stroke-width: 0.7; stroke-linecap: round"/>
   </g>
   <g id="line2d_70">
    <path d="M 840.94868 137.565 
L 1089.674906 137.565 
" clip-path="url(#pa8985f3b98)" style="fill: none; stroke-dasharray: 5.55,2.4; stroke-dashoffset: 0; stroke: #ff0000; stroke-width: 1.5"/>
   </g>
   <g id="patch_12">
    <path d="M 840.94868 312.66 
L 840.94868 79.2 
" style="fill: none; stroke: #ffffff; stroke-width: 1.25; stroke-linejoin: miter; stroke-linecap: square"/>
   </g>
   <g id="patch_13">
    <path d="M 840.94868 312.66 
L 1089.674906 312.66 
" style="fill: none; stroke: #ffffff; stroke-width: 1.25; stroke-linejoin: miter; stroke-linecap: square"/>
   </g>
   <g id="text_38">
    <!-- fMHz = 1000 -->
    <g style="fill: #262626" transform="translate(931.129605 73.2) scale(0.12 -0.12)">
     <use xlink:href="#ArialMT-66"/>
     <use xlink:href="#ArialMT-4d" x="27.783203"/>
     <use xlink:href="#ArialMT-48" x="111.083984"/>
     <use xlink:href="#ArialMT-7a" x="183.300781"/>
     <use xlink:href="#ArialMT-20" x="233.300781"/>
     <use xlink:href="#ArialMT-3d" x="261.083984"/>
     <use xlink:href="#ArialMT-20" x="319.482422"/>
     <use xlink:href="#ArialMT-31" x="347.265625"/>
     <use xlink:href="#ArialMT-30" x="402.880859"/>
     <use xlink:href="#ArialMT-30" x="458.496094"/>
     <use xlink:href="#ArialMT-30" x="514.111328"/>
    </g>
   </g>
  </g>
  <g id="axes_5">
   <g id="patch_14">
    <path d="M 1102.634906 312.66 
L 1351.361133 312.66 
L 1351.361133 79.2 
L 1102.634906 79.2 
z
" style="fill: #eaeaf2"/>
   </g>
   <g id="matplotlib.axis_9">
    <g id="xtick_21">
     <g id="line2d_71">
      <path d="M 1102.634906 312.66 
L 1102.634906 79.2 
" clip-path="url(#pd976ede3c9)" style="fill: none; stroke: #ffffff; stroke-linecap: round"/>
     </g>
     <g id="text_39">
      <!-- 0 -->
      <g style="fill: #262626" transform="translate(1099.57639 330.033594) scale(0.11 -0.11)">
       <use xlink:href="#ArialMT-30"/>
      </g>
     </g>
    </g>
    <g id="xtick_22">
     <g id="line2d_72">
      <path d="M 1157.907401 312.66 
L 1157.907401 79.2 
" clip-path="url(#pd976ede3c9)" style="fill: none; stroke: #ffffff; stroke-linecap: round"/>
     </g>
     <g id="text_40">
      <!-- 20 -->
      <g style="fill: #262626" transform="translate(1151.79037 330.033594) scale(0.11 -0.11)">
       <use xlink:href="#ArialMT-32"/>
       <use xlink:href="#ArialMT-30" x="55.615234"/>
      </g>
     </g>
    </g>
    <g id="xtick_23">
     <g id="line2d_73">
      <path d="M 1213.179896 312.66 
L 1213.179896 79.2 
" clip-path="url(#pd976ede3c9)" style="fill: none; stroke: #ffffff; stroke-linecap: round"/>
     </g>
     <g id="text_41">
      <!-- 40 -->
      <g style="fill: #262626" transform="translate(1207.062864 330.033594) scale(0.11 -0.11)">
       <use xlink:href="#ArialMT-34"/>
       <use xlink:href="#ArialMT-30" x="55.615234"/>
      </g>
     </g>
    </g>
    <g id="xtick_24">
     <g id="line2d_74">
      <path d="M 1268.45239 312.66 
L 1268.45239 79.2 
" clip-path="url(#pd976ede3c9)" style="fill: none; stroke: #ffffff; stroke-linecap: round"/>
     </g>
     <g id="text_42">
      <!-- 60 -->
      <g style="fill: #262626" transform="translate(1262.335359 330.033594) scale(0.11 -0.11)">
       <use xlink:href="#ArialMT-36"/>
       <use xlink:href="#ArialMT-30" x="55.615234"/>
      </g>
     </g>
    </g>
    <g id="xtick_25">
     <g id="line2d_75">
      <path d="M 1323.724885 312.66 
L 1323.724885 79.2 
" clip-path="url(#pd976ede3c9)" style="fill: none; stroke: #ffffff; stroke-linecap: round"/>
     </g>
     <g id="text_43">
      <!-- 80 -->
      <g style="fill: #262626" transform="translate(1317.607854 330.033594) scale(0.11 -0.11)">
       <use xlink:href="#ArialMT-38"/>
       <use xlink:href="#ArialMT-30" x="55.615234"/>
      </g>
     </g>
    </g>
    <g id="text_44">
     <!-- $\theta$° -->
     <g style="fill: #262626" transform="translate(1220.878019 344.809219) scale(0.12 -0.12)">
      <use xlink:href="#DejaVuSans-Oblique-3b8" transform="translate(0 0.234375)"/>
      <use xlink:href="#ArialMT-b0" transform="translate(61.181641 0.234375)"/>
     </g>
    </g>
   </g>
   <g id="matplotlib.axis_10">
    <g id="ytick_37">
     <g id="line2d_76">
      <path d="M 1102.634906 312.66 
L 1351.361133 312.66 
" clip-path="url(#pd976ede3c9)" style="fill: none; stroke: #ffffff; stroke-linecap: round"/>
     </g>
    </g>
    <g id="ytick_38">
     <g id="line2d_77">
      <path d="M 1102.634906 283.4775 
L 1351.361133 283.4775 
" clip-path="url(#pd976ede3c9)" style="fill: none; stroke: #ffffff; stroke-linecap: round"/>
     </g>
    </g>
    <g id="ytick_39">
     <g id="line2d_78">
      <path d="M 1102.634906 254.295 
L 1351.361133 254.295 
" clip-path="url(#pd976ede3c9)" style="fill: none; stroke: #ffffff; stroke-linecap: round"/>
     </g>
    </g>
    <g id="ytick_40">
     <g id="line2d_79">
      <path d="M 1102.634906 225.1125 
L 1351.361133 225.1125 
" clip-path="url(#pd976ede3c9)" style="fill: none; stroke: #ffffff; stroke-linecap: round"/>
     </g>
    </g>
    <g id="ytick_41">
     <g id="line2d_80">
      <path d="M 1102.634906 195.93 
L 1351.361133 195.93 
" clip-path="url(#pd976ede3c9)" style="fill: none; stroke: #ffffff; stroke-linecap: round"/>
     </g>
    </g>
    <g id="ytick_42">
     <g id="line2d_81">
      <path d="M 1102.634906 166.7475 
L 1351.361133 166.7475 
" clip-path="url(#pd976ede3c9)" style="fill: none; stroke: #ffffff; stroke-linecap: round"/>
     </g>
    </g>
    <g id="ytick_43">
     <g id="line2d_82">
      <path d="M 1102.634906 137.565 
L 1351.361133 137.565 
" clip-path="url(#pd976ede3c9)" style="fill: none; stroke: #ffffff; stroke-linecap: round"/>
     </g>
    </g>
    <g id="ytick_44">
     <g id="line2d_83">
      <path d="M 1102.634906 108.3825 
L 1351.361133 108.3825 
" clip-path="url(#pd976ede3c9)" style="fill: none; stroke: #ffffff; stroke-linecap: round"/>
     </g>
    </g>
    <g id="ytick_45">
     <g id="line2d_84">
      <path d="M 1102.634906 79.2 
L 1351.361133 79.2 
" clip-path="url(#pd976ede3c9)" style="fill: none; stroke: #ffffff; stroke-linecap: round"/>
     </g>
    </g>
   </g>
   <g id="PolyCollection_9"/>
   <g id="PolyCollection_10"/>
   <g id="line2d_85">
    <path d="M 1102.634906 243.324262 
L 1105.398531 244.05481 
L 1108.162156 244.891075 
L 1110.92578 241.747115 
L 1113.689405 229.723598 
L 1116.45303 207.947013 
L 1119.216654 181.044274 
L 1121.980279 154.418728 
L 1124.743904 131.487918 
L 1127.507529 114.172661 
L 1130.271153 103.914266 
L 1133.034778 102.685026 
L 1135.798403 112.642821 
L 1138.562028 137.507893 
L 1141.325652 180.689447 
L 1144.089277 213.805685 
L 1146.852902 173.244122 
L 1149.616527 127.78348 
L 1152.380151 107.330123 
L 1155.143776 113.337023 
L 1157.907401 148.168061 
L 1160.671026 193.193301 
L 1163.43465 159.468571 
L 1166.198275 117.953179 
L 1168.9619 113.468637 
L 1171.725525 146.632986 
L 1174.489149 179.100394 
L 1177.252774 137.370565 
L 1180.016399 115.080718 
L 1182.780023 136.569371 
L 1185.543648 168.503271 
L 1188.307273 135.341961 
L 1191.070898 120.1527 
L 1193.834522 146.876794 
L 1196.598147 152.975743 
L 1199.361772 125.619534 
L 1202.125397 134.318776 
L 1204.889021 151.81293 
L 1207.652646 132.027361 
L 1210.416271 133.131816 
L 1213.179896 146.050941 
L 1215.94352 134.539269 
L 1218.707145 135.903213 
L 1221.47077 140.837465 
L 1224.234395 136.473992 
L 1226.998019 137.565 
L 1229.761644 137.060797 
L 1232.525269 140.501795 
L 1235.288894 134.219352 
L 1238.052518 139.599455 
L 1240.816143 139.586362 
L 1243.579768 131.858665 
L 1246.343392 147.425255 
L 1249.107017 129.201946 
L 1251.870642 144.723146 
L 1254.634267 135.602556 
L 1257.397891 134.574535 
L 1260.161516 146.269157 
L 1262.925141 126.82847 
L 1265.688766 153.410552 
L 1268.45239 124.586946 
L 1271.216015 153.159777 
L 1273.97964 126.664338 
L 1276.743265 148.240927 
L 1279.506889 130.760213 
L 1282.270514 142.823477 
L 1285.034139 134.782559 
L 1287.797764 139.021529 
L 1290.561388 137.420219 
L 1293.325013 137.2427 
L 1296.088638 138.306833 
L 1298.852263 137.113643 
L 1301.615887 137.864555 
L 1304.379512 137.889324 
L 1307.143137 137.02284 
L 1309.906761 138.501653 
L 1312.670386 136.998661 
L 1315.434011 137.585494 
L 1318.197636 139.194843 
L 1320.96126 133.871512 
L 1323.724885 145.244806 
L 1326.48851 127.058164 
L 1329.252135 157.333103 
L 1332.015759 118.389726 
L 1334.779384 179.116923 
L 1337.543009 110.017744 
L 1340.306634 218.318424 
L 1343.070258 103.751129 
L 1345.833883 297.866998 
L 1348.597508 100.490241 
L 1351.361133 137.565 
" clip-path="url(#pd976ede3c9)" style="fill: none; stroke: #4c72b0; stroke-width: 0.7; stroke-linecap: round"/>
   </g>
   <g id="line2d_86">
    <path d="M 1102.634906 99.960965 
L 1105.398531 99.859331 
L 1108.162156 99.695706 
L 1110.92578 99.893596 
L 1113.689405 101.249316 
L 1116.45303 104.739475 
L 1119.216654 111.739579 
L 1121.980279 124.209897 
L 1124.743904 145.033891 
L 1127.507529 178.332589 
L 1130.271153 224.671513 
L 1133.034778 238.84714 
L 1135.798403 186.427642 
L 1138.562028 138.258293 
L 1141.325652 109.610119 
L 1144.089277 100.060595 
L 1146.852902 111.775072 
L 1149.616527 152.144505 
L 1152.380151 228.329648 
L 1155.143776 196.109698 
L 1157.907401 126.314221 
L 1160.671026 100.871814 
L 1163.43465 116.176712 
L 1166.198275 184.939803 
L 1168.9619 214.976285 
L 1171.725525 125.803323 
L 1174.489149 101.14511 
L 1177.252774 137.903204 
L 1180.016399 232.744653 
L 1182.780023 139.704929 
L 1185.543648 101.43528 
L 1188.307273 143.099305 
L 1191.070898 222.401242 
L 1193.834522 119.353436 
L 1196.598147 108.710685 
L 1199.361772 200.427463 
L 1202.125397 149.542518 
L 1204.889021 102.8179 
L 1207.652646 170.720007 
L 1210.416271 164.988586 
L 1213.179896 103.177747 
L 1215.94352 169.449235 
L 1218.707145 156.484986 
L 1221.47077 105.184927 
L 1224.234395 191.060919 
L 1226.998019 131.778102 
L 1229.761644 116.140115 
L 1232.525269 204.549595 
L 1235.288894 109.736198 
L 1238.052518 152.94309 
L 1240.816143 150.267546 
L 1243.579768 112.90019 
L 1246.343392 195.420307 
L 1249.107017 110.601167 
L 1251.870642 164.643674 
L 1254.634267 131.344248 
L 1257.397891 129.879509 
L 1260.161516 161.073288 
L 1262.925141 115.171667 
L 1265.688766 177.634064 
L 1268.45239 113.653544 
L 1271.216015 171.019155 
L 1273.97964 119.046315 
L 1276.743265 156.852851 
L 1279.506889 126.685534 
L 1282.270514 145.829525 
L 1285.034139 133.302109 
L 1287.797764 139.547755 
L 1290.561388 137.239746 
L 1293.325013 137.00231 
L 1296.088638 138.426802 
L 1298.852263 136.869236 
L 1301.615887 137.826873 
L 1304.379512 137.852191 
L 1307.143137 136.803563 
L 1309.906761 138.570898 
L 1312.670386 136.784923 
L 1315.434011 137.529833 
L 1318.197636 139.20863 
L 1320.96126 133.526241 
L 1323.724885 145.649301 
L 1326.48851 126.470177 
L 1329.252135 158.201368 
L 1332.015759 117.769009 
L 1334.779384 180.435337 
L 1337.543009 109.554479 
L 1340.306634 220.004776 
L 1343.070258 103.500891 
L 1345.833883 299.791978 
L 1348.597508 100.380418 
L 1351.361133 137.565 
" clip-path="url(#pd976ede3c9)" style="fill: none; stroke: #dd8452; stroke-width: 0.7; stroke-linecap: round"/>
   </g>
   <g id="line2d_87">
    <path d="M 1102.634906 137.565 
L 1351.361133 137.565 
" clip-path="url(#pd976ede3c9)" style="fill: none; stroke-dasharray: 5.55,2.4; stroke-dashoffset: 0; stroke: #ff0000; stroke-width: 1.5"/>
   </g>
   <g id="patch_15">
    <path d="M 1102.634906 312.66 
L 1102.634906 79.2 
" style="fill: none; stroke: #ffffff; stroke-width: 1.25; stroke-linejoin: miter; stroke-linecap: square"/>
   </g>
   <g id="patch_16">
    <path d="M 1102.634906 312.66 
L 1351.361133 312.66 
" style="fill: none; stroke: #ffffff; stroke-width: 1.25; stroke-linejoin: miter; stroke-linecap: square"/>
   </g>
   <g id="text_45">
    <!-- kind = 1.5m -->
    <g style="fill: #262626" transform="translate(1358.720657 164.747813) rotate(-270) scale(0.12 -0.12)">
     <defs>
      <path id="ArialMT-6b" d="M 425 0 
L 425 4581 
L 988 4581 
L 988 1969 
L 2319 3319 
L 3047 3319 
L 1778 2088 
L 3175 0 
L 2481 0 
L 1384 1697 
L 988 1316 
L 988 0 
L 425 0 
z
" transform="scale(0.015625)"/>
      <path id="ArialMT-69" d="M 425 3934 
L 425 4581 
L 988 4581 
L 988 3934 
L 425 3934 
z
M 425 0 
L 425 3319 
L 988 3319 
L 988 0 
L 425 0 
z
" transform="scale(0.015625)"/>
      <path id="ArialMT-6e" d="M 422 0 
L 422 3319 
L 928 3319 
L 928 2847 
Q 1294 3394 1984 3394 
Q 2284 3394 2536 3286 
Q 2788 3178 2913 3003 
Q 3038 2828 3088 2588 
Q 3119 2431 3119 2041 
L 3119 0 
L 2556 0 
L 2556 2019 
Q 2556 2363 2490 2533 
Q 2425 2703 2258 2804 
Q 2091 2906 1866 2906 
Q 1506 2906 1245 2678 
Q 984 2450 984 1813 
L 984 0 
L 422 0 
z
" transform="scale(0.015625)"/>
      <path id="ArialMT-2e" d="M 581 0 
L 581 641 
L 1222 641 
L 1222 0 
L 581 0 
z
" transform="scale(0.015625)"/>
      <path id="ArialMT-35" d="M 266 1200 
L 856 1250 
Q 922 819 1161 601 
Q 1400 384 1738 384 
Q 2144 384 2425 690 
Q 2706 997 2706 1503 
Q 2706 1984 2436 2262 
Q 2166 2541 1728 2541 
Q 1456 2541 1237 2417 
Q 1019 2294 894 2097 
L 366 2166 
L 809 4519 
L 3088 4519 
L 3088 3981 
L 1259 3981 
L 1013 2750 
Q 1425 3038 1878 3038 
Q 2478 3038 2890 2622 
Q 3303 2206 3303 1553 
Q 3303 931 2941 478 
Q 2500 -78 1738 -78 
Q 1113 -78 717 272 
Q 322 622 266 1200 
z
" transform="scale(0.015625)"/>
      <path id="ArialMT-6d" d="M 422 0 
L 422 3319 
L 925 3319 
L 925 2853 
Q 1081 3097 1340 3245 
Q 1600 3394 1931 3394 
Q 2300 3394 2536 3241 
Q 2772 3088 2869 2813 
Q 3263 3394 3894 3394 
Q 4388 3394 4653 3120 
Q 4919 2847 4919 2278 
L 4919 0 
L 4359 0 
L 4359 2091 
Q 4359 2428 4304 2576 
Q 4250 2725 4106 2815 
Q 3963 2906 3769 2906 
Q 3419 2906 3187 2673 
Q 2956 2441 2956 1928 
L 2956 0 
L 2394 0 
L 2394 2156 
Q 2394 2531 2256 2718 
Q 2119 2906 1806 2906 
Q 1569 2906 1367 2781 
Q 1166 2656 1075 2415 
Q 984 2175 984 1722 
L 984 0 
L 422 0 
z
" transform="scale(0.015625)"/>
     </defs>
     <use xlink:href="#ArialMT-6b"/>
     <use xlink:href="#ArialMT-69" x="50"/>
     <use xlink:href="#ArialMT-6e" x="72.216797"/>
     <use xlink:href="#ArialMT-64" x="127.832031"/>
     <use xlink:href="#ArialMT-20" x="183.447266"/>
     <use xlink:href="#ArialMT-3d" x="211.230469"/>
     <use xlink:href="#ArialMT-20" x="269.628906"/>
     <use xlink:href="#ArialMT-31" x="297.412109"/>
     <use xlink:href="#ArialMT-2e" x="353.027344"/>
     <use xlink:href="#ArialMT-35" x="380.810547"/>
     <use xlink:href="#ArialMT-6d" x="436.425781"/>
    </g>
   </g>
   <g id="text_46">
    <!-- fMHz = 3000 -->
    <g style="fill: #262626" transform="translate(1192.815832 73.2) scale(0.12 -0.12)">
     <use xlink:href="#ArialMT-66"/>
     <use xlink:href="#ArialMT-4d" x="27.783203"/>
     <use xlink:href="#ArialMT-48" x="111.083984"/>
     <use xlink:href="#ArialMT-7a" x="183.300781"/>
     <use xlink:href="#ArialMT-20" x="233.300781"/>
     <use xlink:href="#ArialMT-3d" x="261.083984"/>
     <use xlink:href="#ArialMT-20" x="319.482422"/>
     <use xlink:href="#ArialMT-33" x="347.265625"/>
     <use xlink:href="#ArialMT-30" x="402.880859"/>
     <use xlink:href="#ArialMT-30" x="458.496094"/>
     <use xlink:href="#ArialMT-30" x="514.111328"/>
    </g>
   </g>
  </g>
  <g id="text_47">
   <!-- dB(err) for real ground, TM polarisation, 1 averaging point -->
   <g style="fill: #0000ff" transform="translate(517.966875 20.303437) scale(0.18 -0.18)">
    <defs>
     <path id="ArialMT-6f" d="M 213 1659 
Q 213 2581 725 3025 
Q 1153 3394 1769 3394 
Q 2453 3394 2887 2945 
Q 3322 2497 3322 1706 
Q 3322 1066 3130 698 
Q 2938 331 2570 128 
Q 2203 -75 1769 -75 
Q 1072 -75 642 372 
Q 213 819 213 1659 
z
M 791 1659 
Q 791 1022 1069 705 
Q 1347 388 1769 388 
Q 2188 388 2466 706 
Q 2744 1025 2744 1678 
Q 2744 2294 2464 2611 
Q 2184 2928 1769 2928 
Q 1347 2928 1069 2612 
Q 791 2297 791 1659 
z
" transform="scale(0.015625)"/>
     <path id="ArialMT-61" d="M 2588 409 
Q 2275 144 1986 34 
Q 1697 -75 1366 -75 
Q 819 -75 525 192 
Q 231 459 231 875 
Q 231 1119 342 1320 
Q 453 1522 633 1644 
Q 813 1766 1038 1828 
Q 1203 1872 1538 1913 
Q 2219 1994 2541 2106 
Q 2544 2222 2544 2253 
Q 2544 2597 2384 2738 
Q 2169 2928 1744 2928 
Q 1347 2928 1158 2789 
Q 969 2650 878 2297 
L 328 2372 
Q 403 2725 575 2942 
Q 747 3159 1072 3276 
Q 1397 3394 1825 3394 
Q 2250 3394 2515 3294 
Q 2781 3194 2906 3042 
Q 3031 2891 3081 2659 
Q 3109 2516 3109 2141 
L 3109 1391 
Q 3109 606 3145 398 
Q 3181 191 3288 0 
L 2700 0 
Q 2613 175 2588 409 
z
M 2541 1666 
Q 2234 1541 1622 1453 
Q 1275 1403 1131 1340 
Q 988 1278 909 1158 
Q 831 1038 831 891 
Q 831 666 1001 516 
Q 1172 366 1500 366 
Q 1825 366 2078 508 
Q 2331 650 2450 897 
Q 2541 1088 2541 1459 
L 2541 1666 
z
" transform="scale(0.015625)"/>
     <path id="ArialMT-6c" d="M 409 0 
L 409 4581 
L 972 4581 
L 972 0 
L 409 0 
z
" transform="scale(0.015625)"/>
     <path id="ArialMT-67" d="M 319 -275 
L 866 -356 
Q 900 -609 1056 -725 
Q 1266 -881 1628 -881 
Q 2019 -881 2231 -725 
Q 2444 -569 2519 -288 
Q 2563 -116 2559 434 
Q 2191 0 1641 0 
Q 956 0 581 494 
Q 206 988 206 1678 
Q 206 2153 378 2554 
Q 550 2956 876 3175 
Q 1203 3394 1644 3394 
Q 2231 3394 2613 2919 
L 2613 3319 
L 3131 3319 
L 3131 450 
Q 3131 -325 2973 -648 
Q 2816 -972 2473 -1159 
Q 2131 -1347 1631 -1347 
Q 1038 -1347 672 -1080 
Q 306 -813 319 -275 
z
M 784 1719 
Q 784 1066 1043 766 
Q 1303 466 1694 466 
Q 2081 466 2343 764 
Q 2606 1063 2606 1700 
Q 2606 2309 2336 2618 
Q 2066 2928 1684 2928 
Q 1309 2928 1046 2623 
Q 784 2319 784 1719 
z
" transform="scale(0.015625)"/>
     <path id="ArialMT-75" d="M 2597 0 
L 2597 488 
Q 2209 -75 1544 -75 
Q 1250 -75 995 37 
Q 741 150 617 320 
Q 494 491 444 738 
Q 409 903 409 1263 
L 409 3319 
L 972 3319 
L 972 1478 
Q 972 1038 1006 884 
Q 1059 663 1231 536 
Q 1403 409 1656 409 
Q 1909 409 2131 539 
Q 2353 669 2445 892 
Q 2538 1116 2538 1541 
L 2538 3319 
L 3100 3319 
L 3100 0 
L 2597 0 
z
" transform="scale(0.015625)"/>
     <path id="ArialMT-2c" d="M 569 0 
L 569 641 
L 1209 641 
L 1209 0 
Q 1209 -353 1084 -570 
Q 959 -788 688 -906 
L 531 -666 
Q 709 -588 793 -436 
Q 878 -284 888 0 
L 569 0 
z
" transform="scale(0.015625)"/>
     <path id="ArialMT-54" d="M 1659 0 
L 1659 4041 
L 150 4041 
L 150 4581 
L 3781 4581 
L 3781 4041 
L 2266 4041 
L 2266 0 
L 1659 0 
z
" transform="scale(0.015625)"/>
     <path id="ArialMT-70" d="M 422 -1272 
L 422 3319 
L 934 3319 
L 934 2888 
Q 1116 3141 1344 3267 
Q 1572 3394 1897 3394 
Q 2322 3394 2647 3175 
Q 2972 2956 3137 2557 
Q 3303 2159 3303 1684 
Q 3303 1175 3120 767 
Q 2938 359 2589 142 
Q 2241 -75 1856 -75 
Q 1575 -75 1351 44 
Q 1128 163 984 344 
L 984 -1272 
L 422 -1272 
z
M 931 1641 
Q 931 1000 1190 694 
Q 1450 388 1819 388 
Q 2194 388 2461 705 
Q 2728 1022 2728 1688 
Q 2728 2322 2467 2637 
Q 2206 2953 1844 2953 
Q 1484 2953 1207 2617 
Q 931 2281 931 1641 
z
" transform="scale(0.015625)"/>
     <path id="ArialMT-73" d="M 197 991 
L 753 1078 
Q 800 744 1014 566 
Q 1228 388 1613 388 
Q 2000 388 2187 545 
Q 2375 703 2375 916 
Q 2375 1106 2209 1216 
Q 2094 1291 1634 1406 
Q 1016 1563 777 1677 
Q 538 1791 414 1992 
Q 291 2194 291 2438 
Q 291 2659 392 2848 
Q 494 3038 669 3163 
Q 800 3259 1026 3326 
Q 1253 3394 1513 3394 
Q 1903 3394 2198 3281 
Q 2494 3169 2634 2976 
Q 2775 2784 2828 2463 
L 2278 2388 
Q 2241 2644 2061 2787 
Q 1881 2931 1553 2931 
Q 1166 2931 1000 2803 
Q 834 2675 834 2503 
Q 834 2394 903 2306 
Q 972 2216 1119 2156 
Q 1203 2125 1616 2013 
Q 2213 1853 2448 1751 
Q 2684 1650 2818 1456 
Q 2953 1263 2953 975 
Q 2953 694 2789 445 
Q 2625 197 2315 61 
Q 2006 -75 1616 -75 
Q 969 -75 630 194 
Q 291 463 197 991 
z
" transform="scale(0.015625)"/>
     <path id="ArialMT-74" d="M 1650 503 
L 1731 6 
Q 1494 -44 1306 -44 
Q 1000 -44 831 53 
Q 663 150 594 308 
Q 525 466 525 972 
L 525 2881 
L 113 2881 
L 113 3319 
L 525 3319 
L 525 4141 
L 1084 4478 
L 1084 3319 
L 1650 3319 
L 1650 2881 
L 1084 2881 
L 1084 941 
Q 1084 700 1114 631 
Q 1144 563 1211 522 
Q 1278 481 1403 481 
Q 1497 481 1650 503 
z
" transform="scale(0.015625)"/>
     <path id="ArialMT-76" d="M 1344 0 
L 81 3319 
L 675 3319 
L 1388 1331 
Q 1503 1009 1600 663 
Q 1675 925 1809 1294 
L 2547 3319 
L 3125 3319 
L 1869 0 
L 1344 0 
z
" transform="scale(0.015625)"/>
    </defs>
    <use xlink:href="#ArialMT-64"/>
    <use xlink:href="#ArialMT-42" x="55.615234"/>
    <use xlink:href="#ArialMT-28" x="122.314453"/>
    <use xlink:href="#ArialMT-65" x="155.615234"/>
    <use xlink:href="#ArialMT-72" x="211.230469"/>
    <use xlink:href="#ArialMT-72" x="244.53125"/>
    <use xlink:href="#ArialMT-29" x="277.832031"/>
    <use xlink:href="#ArialMT-20" x="311.132812"/>
    <use xlink:href="#ArialMT-66" x="338.916016"/>
    <use xlink:href="#ArialMT-6f" x="366.699219"/>
    <use xlink:href="#ArialMT-72" x="422.314453"/>
    <use xlink:href="#ArialMT-20" x="455.615234"/>
    <use xlink:href="#ArialMT-72" x="483.398438"/>
    <use xlink:href="#ArialMT-65" x="516.699219"/>
    <use xlink:href="#ArialMT-61" x="572.314453"/>
    <use xlink:href="#ArialMT-6c" x="627.929688"/>
    <use xlink:href="#ArialMT-20" x="650.146484"/>
    <use xlink:href="#ArialMT-67" x="677.929688"/>
    <use xlink:href="#ArialMT-72" x="733.544922"/>
    <use xlink:href="#ArialMT-6f" x="766.845703"/>
    <use xlink:href="#ArialMT-75" x="822.460938"/>
    <use xlink:href="#ArialMT-6e" x="878.076172"/>
    <use xlink:href="#ArialMT-64" x="933.691406"/>
    <use xlink:href="#ArialMT-2c" x="989.306641"/>
    <use xlink:href="#ArialMT-20" x="1017.089844"/>
    <use xlink:href="#ArialMT-54" x="1043.123047"/>
    <use xlink:href="#ArialMT-4d" x="1104.207031"/>
    <use xlink:href="#ArialMT-20" x="1187.507812"/>
    <use xlink:href="#ArialMT-70" x="1215.291016"/>
    <use xlink:href="#ArialMT-6f" x="1270.90625"/>
    <use xlink:href="#ArialMT-6c" x="1326.521484"/>
    <use xlink:href="#ArialMT-61" x="1348.738281"/>
    <use xlink:href="#ArialMT-72" x="1404.353516"/>
    <use xlink:href="#ArialMT-69" x="1437.654297"/>
    <use xlink:href="#ArialMT-73" x="1459.871094"/>
    <use xlink:href="#ArialMT-61" x="1509.871094"/>
    <use xlink:href="#ArialMT-74" x="1565.486328"/>
    <use xlink:href="#ArialMT-69" x="1593.269531"/>
    <use xlink:href="#ArialMT-6f" x="1615.486328"/>
    <use xlink:href="#ArialMT-6e" x="1671.101562"/>
    <use xlink:href="#ArialMT-2c" x="1726.716797"/>
    <use xlink:href="#ArialMT-20" x="1754.5"/>
    <use xlink:href="#ArialMT-31" x="1782.283203"/>
    <use xlink:href="#ArialMT-20" x="1837.898438"/>
    <use xlink:href="#ArialMT-61" x="1865.681641"/>
    <use xlink:href="#ArialMT-76" x="1921.296875"/>
    <use xlink:href="#ArialMT-65" x="1971.296875"/>
    <use xlink:href="#ArialMT-72" x="2026.912109"/>
    <use xlink:href="#ArialMT-61" x="2060.212891"/>
    <use xlink:href="#ArialMT-67" x="2115.828125"/>
    <use xlink:href="#ArialMT-69" x="2171.443359"/>
    <use xlink:href="#ArialMT-6e" x="2193.660156"/>
    <use xlink:href="#ArialMT-67" x="2249.275391"/>
    <use xlink:href="#ArialMT-20" x="2304.890625"/>
    <use xlink:href="#ArialMT-70" x="2332.673828"/>
    <use xlink:href="#ArialMT-6f" x="2388.289062"/>
    <use xlink:href="#ArialMT-69" x="2443.904297"/>
    <use xlink:href="#ArialMT-6e" x="2466.121094"/>
    <use xlink:href="#ArialMT-74" x="2521.736328"/>
   </g>
  </g>
  <g id="legend_1">
   <g id="text_48">
    <!-- Si -->
    <g style="fill: #262626" transform="translate(1456.533984 167.542344) scale(0.12 -0.12)">
     <defs>
      <path id="ArialMT-53" d="M 288 1472 
L 859 1522 
Q 900 1178 1048 958 
Q 1197 738 1509 602 
Q 1822 466 2213 466 
Q 2559 466 2825 569 
Q 3091 672 3220 851 
Q 3350 1031 3350 1244 
Q 3350 1459 3225 1620 
Q 3100 1781 2813 1891 
Q 2628 1963 1997 2114 
Q 1366 2266 1113 2400 
Q 784 2572 623 2826 
Q 463 3081 463 3397 
Q 463 3744 659 4045 
Q 856 4347 1234 4503 
Q 1613 4659 2075 4659 
Q 2584 4659 2973 4495 
Q 3363 4331 3572 4012 
Q 3781 3694 3797 3291 
L 3216 3247 
Q 3169 3681 2898 3903 
Q 2628 4125 2100 4125 
Q 1550 4125 1298 3923 
Q 1047 3722 1047 3438 
Q 1047 3191 1225 3031 
Q 1400 2872 2139 2705 
Q 2878 2538 3153 2413 
Q 3553 2228 3743 1945 
Q 3934 1663 3934 1294 
Q 3934 928 3725 604 
Q 3516 281 3123 101 
Q 2731 -78 2241 -78 
Q 1619 -78 1198 103 
Q 778 284 539 648 
Q 300 1013 288 1472 
z
" transform="scale(0.015625)"/>
     </defs>
     <use xlink:href="#ArialMT-53"/>
     <use xlink:href="#ArialMT-69" x="66.699219"/>
    </g>
   </g>
   <g id="line2d_88">
    <path d="M 1438.828594 179.450938 
L 1449.828594 179.450938 
L 1460.828594 179.450938 
" style="fill: none; stroke: #4c72b0; stroke-width: 0.7; stroke-linecap: round"/>
   </g>
   <g id="text_49">
    <!-- SE -->
    <g style="fill: #262626" transform="translate(1469.628594 183.300938) scale(0.11 -0.11)">
     <defs>
      <path id="ArialMT-45" d="M 506 0 
L 506 4581 
L 3819 4581 
L 3819 4041 
L 1113 4041 
L 1113 2638 
L 3647 2638 
L 3647 2100 
L 1113 2100 
L 1113 541 
L 3925 541 
L 3925 0 
L 506 0 
z
" transform="scale(0.015625)"/>
     </defs>
     <use xlink:href="#ArialMT-53"/>
     <use xlink:href="#ArialMT-45" x="66.699219"/>
    </g>
   </g>
   <g id="line2d_89">
    <path d="M 1438.828594 195.010781 
L 1449.828594 195.010781 
L 1460.828594 195.010781 
" style="fill: none; stroke: #dd8452; stroke-width: 0.7; stroke-linecap: round"/>
   </g>
   <g id="text_50">
    <!-- SH -->
    <g style="fill: #262626" transform="translate(1469.628594 198.860781) scale(0.11 -0.11)">
     <use xlink:href="#ArialMT-53"/>
     <use xlink:href="#ArialMT-48" x="66.699219"/>
    </g>
   </g>
  </g>
 </g>
 <defs>
  <clipPath id="pc9ce5e9dd3">
   <rect x="55.89" y="79.2" width="248.726227" height="233.46"/>
  </clipPath>
  <clipPath id="p1502ff92e3">
   <rect x="317.576227" y="79.2" width="248.726227" height="233.46"/>
  </clipPath>
  <clipPath id="p23ffda674b">
   <rect x="579.262453" y="79.2" width="248.726227" height="233.46"/>
  </clipPath>
  <clipPath id="pa8985f3b98">
   <rect x="840.94868" y="79.2" width="248.726227" height="233.46"/>
  </clipPath>
  <clipPath id="pd976ede3c9">
   <rect x="1102.634906" y="79.2" width="248.726227" height="233.46"/>
  </clipPath>
 </defs>
</svg>
