<?xml version="1.0" encoding="utf-8" standalone="no"?>
<!DOCTYPE svg PUBLIC "-//W3C//DTD SVG 1.1//EN"
  "http://www.w3.org/Graphics/SVG/1.1/DTD/svg11.dtd">
<svg xmlns:xlink="http://www.w3.org/1999/xlink" width="1494.81pt" height="360pt" viewBox="0 0 1494.81 360" xmlns="http://www.w3.org/2000/svg" version="1.1">
 <metadata>
  <rdf:RDF xmlns:dc="http://purl.org/dc/elements/1.1/" xmlns:cc="http://creativecommons.org/ns#" xmlns:rdf="http://www.w3.org/1999/02/22-rdf-syntax-ns#">
   <cc:Work>
    <dc:type rdf:resource="http://purl.org/dc/dcmitype/StillImage"/>
    <dc:date>2023-12-21T15:36:16.280784</dc:date>
    <dc:format>image/svg+xml</dc:format>
    <dc:creator>
     <cc:Agent>
      <dc:title>Matplotlib v3.8.1, https://matplotlib.org/</dc:title>
     </cc:Agent>
    </dc:creator>
   </cc:Work>
  </rdf:RDF>
 </metadata>
 <defs>
  <style type="text/css">*{stroke-linejoin: round; stroke-linecap: butt}</style>
 </defs>
 <g id="figure_1">
  <g id="patch_1">
   <path d="M 0 360 
L 1494.81 360 
L 1494.81 0 
L 0 0 
z
" style="fill: #ffffff"/>
  </g>
  <g id="axes_1">
   <g id="patch_2">
    <path d="M 49.5 312.66 
L 299.498932 312.66 
L 299.498932 79.2 
L 49.5 79.2 
z
" style="fill: #eaeaf2"/>
   </g>
   <g id="matplotlib.axis_1">
    <g id="xtick_1">
     <g id="line2d_1">
      <path d="M 49.5 312.66 
L 49.5 79.2 
" clip-path="url(#paba9d6b85c)" style="fill: none; stroke: #ffffff; stroke-linecap: round"/>
     </g>
     <g id="text_1">
      <!-- 0 -->
      <g style="fill: #262626" transform="translate(46.441484 330.033594) scale(0.11 -0.11)">
       <defs>
        <path id="ArialMT-30" d="M 266 2259 
Q 266 3072 433 3567 
Q 600 4063 929 4331 
Q 1259 4600 1759 4600 
Q 2128 4600 2406 4451 
Q 2684 4303 2865 4023 
Q 3047 3744 3150 3342 
Q 3253 2941 3253 2259 
Q 3253 1453 3087 958 
Q 2922 463 2592 192 
Q 2263 -78 1759 -78 
Q 1097 -78 719 397 
Q 266 969 266 2259 
z
M 844 2259 
Q 844 1131 1108 757 
Q 1372 384 1759 384 
Q 2147 384 2411 759 
Q 2675 1134 2675 2259 
Q 2675 3391 2411 3762 
Q 2147 4134 1753 4134 
Q 1366 4134 1134 3806 
Q 844 3388 844 2259 
z
" transform="scale(0.015625)"/>
       </defs>
       <use xlink:href="#ArialMT-30"/>
      </g>
     </g>
    </g>
    <g id="xtick_2">
     <g id="line2d_2">
      <path d="M 105.055318 312.66 
L 105.055318 79.2 
" clip-path="url(#paba9d6b85c)" style="fill: none; stroke: #ffffff; stroke-linecap: round"/>
     </g>
     <g id="text_2">
      <!-- 20 -->
      <g style="fill: #262626" transform="translate(98.938287 330.033594) scale(0.11 -0.11)">
       <defs>
        <path id="ArialMT-32" d="M 3222 541 
L 3222 0 
L 194 0 
Q 188 203 259 391 
Q 375 700 629 1000 
Q 884 1300 1366 1694 
Q 2113 2306 2375 2664 
Q 2638 3022 2638 3341 
Q 2638 3675 2398 3904 
Q 2159 4134 1775 4134 
Q 1369 4134 1125 3890 
Q 881 3647 878 3216 
L 300 3275 
Q 359 3922 746 4261 
Q 1134 4600 1788 4600 
Q 2447 4600 2831 4234 
Q 3216 3869 3216 3328 
Q 3216 3053 3103 2787 
Q 2991 2522 2730 2228 
Q 2469 1934 1863 1422 
Q 1356 997 1212 845 
Q 1069 694 975 541 
L 3222 541 
z
" transform="scale(0.015625)"/>
       </defs>
       <use xlink:href="#ArialMT-32"/>
       <use xlink:href="#ArialMT-30" x="55.615234"/>
      </g>
     </g>
    </g>
    <g id="xtick_3">
     <g id="line2d_3">
      <path d="M 160.610636 312.66 
L 160.610636 79.2 
" clip-path="url(#paba9d6b85c)" style="fill: none; stroke: #ffffff; stroke-linecap: round"/>
     </g>
     <g id="text_3">
      <!-- 40 -->
      <g style="fill: #262626" transform="translate(154.493605 330.033594) scale(0.11 -0.11)">
       <defs>
        <path id="ArialMT-34" d="M 2069 0 
L 2069 1097 
L 81 1097 
L 81 1613 
L 2172 4581 
L 2631 4581 
L 2631 1613 
L 3250 1613 
L 3250 1097 
L 2631 1097 
L 2631 0 
L 2069 0 
z
M 2069 1613 
L 2069 3678 
L 634 1613 
L 2069 1613 
z
" transform="scale(0.015625)"/>
       </defs>
       <use xlink:href="#ArialMT-34"/>
       <use xlink:href="#ArialMT-30" x="55.615234"/>
      </g>
     </g>
    </g>
    <g id="xtick_4">
     <g id="line2d_4">
      <path d="M 216.165955 312.66 
L 216.165955 79.2 
" clip-path="url(#paba9d6b85c)" style="fill: none; stroke: #ffffff; stroke-linecap: round"/>
     </g>
     <g id="text_4">
      <!-- 60 -->
      <g style="fill: #262626" transform="translate(210.048923 330.033594) scale(0.11 -0.11)">
       <defs>
        <path id="ArialMT-36" d="M 3184 3459 
L 2625 3416 
Q 2550 3747 2413 3897 
Q 2184 4138 1850 4138 
Q 1581 4138 1378 3988 
Q 1113 3794 959 3422 
Q 806 3050 800 2363 
Q 1003 2672 1297 2822 
Q 1591 2972 1913 2972 
Q 2475 2972 2870 2558 
Q 3266 2144 3266 1488 
Q 3266 1056 3080 686 
Q 2894 316 2569 119 
Q 2244 -78 1831 -78 
Q 1128 -78 684 439 
Q 241 956 241 2144 
Q 241 3472 731 4075 
Q 1159 4600 1884 4600 
Q 2425 4600 2770 4297 
Q 3116 3994 3184 3459 
z
M 888 1484 
Q 888 1194 1011 928 
Q 1134 663 1356 523 
Q 1578 384 1822 384 
Q 2178 384 2434 671 
Q 2691 959 2691 1453 
Q 2691 1928 2437 2201 
Q 2184 2475 1800 2475 
Q 1419 2475 1153 2201 
Q 888 1928 888 1484 
z
" transform="scale(0.015625)"/>
       </defs>
       <use xlink:href="#ArialMT-36"/>
       <use xlink:href="#ArialMT-30" x="55.615234"/>
      </g>
     </g>
    </g>
    <g id="xtick_5">
     <g id="line2d_5">
      <path d="M 271.721273 312.66 
L 271.721273 79.2 
" clip-path="url(#paba9d6b85c)" style="fill: none; stroke: #ffffff; stroke-linecap: round"/>
     </g>
     <g id="text_5">
      <!-- 80 -->
      <g style="fill: #262626" transform="translate(265.604242 330.033594) scale(0.11 -0.11)">
       <defs>
        <path id="ArialMT-38" d="M 1131 2484 
Q 781 2613 612 2850 
Q 444 3088 444 3419 
Q 444 3919 803 4259 
Q 1163 4600 1759 4600 
Q 2359 4600 2725 4251 
Q 3091 3903 3091 3403 
Q 3091 3084 2923 2848 
Q 2756 2613 2416 2484 
Q 2838 2347 3058 2040 
Q 3278 1734 3278 1309 
Q 3278 722 2862 322 
Q 2447 -78 1769 -78 
Q 1091 -78 675 323 
Q 259 725 259 1325 
Q 259 1772 486 2073 
Q 713 2375 1131 2484 
z
M 1019 3438 
Q 1019 3113 1228 2906 
Q 1438 2700 1772 2700 
Q 2097 2700 2305 2904 
Q 2513 3109 2513 3406 
Q 2513 3716 2298 3927 
Q 2084 4138 1766 4138 
Q 1444 4138 1231 3931 
Q 1019 3725 1019 3438 
z
M 838 1322 
Q 838 1081 952 856 
Q 1066 631 1291 507 
Q 1516 384 1775 384 
Q 2178 384 2440 643 
Q 2703 903 2703 1303 
Q 2703 1709 2433 1975 
Q 2163 2241 1756 2241 
Q 1359 2241 1098 1978 
Q 838 1716 838 1322 
z
" transform="scale(0.015625)"/>
       </defs>
       <use xlink:href="#ArialMT-38"/>
       <use xlink:href="#ArialMT-30" x="55.615234"/>
      </g>
     </g>
    </g>
    <g id="text_6">
     <!-- $\theta$° -->
     <g style="fill: #262626" transform="translate(168.379466 344.809219) scale(0.12 -0.12)">
      <defs>
       <path id="DejaVuSans-Oblique-3b8" d="M 2913 2219 
L 925 2219 
Q 791 1284 928 888 
Q 1100 400 1566 400 
Q 2034 400 2391 891 
Q 2703 1322 2913 2219 
z
M 3009 2750 
Q 3094 3638 2984 3950 
Q 2813 4444 2353 4444 
Q 1875 4444 1525 3956 
Q 1250 3563 1034 2750 
L 3009 2750 
z
M 2444 4913 
Q 3194 4913 3494 4250 
Q 3794 3591 3566 2422 
Q 3341 1256 2781 594 
Q 2225 -72 1475 -72 
Q 722 -72 425 594 
Q 128 1256 353 2422 
Q 581 3591 1134 4250 
Q 1691 4913 2444 4913 
z
" transform="scale(0.015625)"/>
       <path id="ArialMT-b0" d="M 400 3794 
Q 400 4153 654 4406 
Q 909 4659 1266 4659 
Q 1628 4659 1881 4406 
Q 2134 4153 2134 3794 
Q 2134 3434 1879 3179 
Q 1625 2925 1266 2925 
Q 909 2925 654 3178 
Q 400 3431 400 3794 
z
M 741 3794 
Q 741 3575 895 3420 
Q 1050 3266 1269 3266 
Q 1484 3266 1639 3420 
Q 1794 3575 1794 3794 
Q 1794 4013 1639 4167 
Q 1484 4322 1269 4322 
Q 1050 4322 895 4167 
Q 741 4013 741 3794 
z
" transform="scale(0.015625)"/>
      </defs>
      <use xlink:href="#DejaVuSans-Oblique-3b8" transform="translate(0 0.234375)"/>
      <use xlink:href="#ArialMT-b0" transform="translate(61.181641 0.234375)"/>
     </g>
    </g>
   </g>
   <g id="matplotlib.axis_2">
    <g id="ytick_1">
     <g id="line2d_6">
      <path d="M 49.5 312.66 
L 299.498932 312.66 
" clip-path="url(#paba9d6b85c)" style="fill: none; stroke: #ffffff; stroke-linecap: round"/>
     </g>
     <g id="text_7">
      <!-- −6 -->
      <g style="fill: #262626" transform="translate(27.458281 316.596797) scale(0.11 -0.11)">
       <defs>
        <path id="ArialMT-2212" d="M 3381 1997 
L 356 1997 
L 356 2522 
L 3381 2522 
L 3381 1997 
z
" transform="scale(0.015625)"/>
       </defs>
       <use xlink:href="#ArialMT-2212"/>
       <use xlink:href="#ArialMT-36" x="58.398438"/>
      </g>
     </g>
    </g>
    <g id="ytick_2">
     <g id="line2d_7">
      <path d="M 49.5 293.205 
L 299.498932 293.205 
" clip-path="url(#paba9d6b85c)" style="fill: none; stroke: #ffffff; stroke-linecap: round"/>
     </g>
     <g id="text_8">
      <!-- −5 -->
      <g style="fill: #262626" transform="translate(27.458281 297.141797) scale(0.11 -0.11)">
       <defs>
        <path id="ArialMT-35" d="M 266 1200 
L 856 1250 
Q 922 819 1161 601 
Q 1400 384 1738 384 
Q 2144 384 2425 690 
Q 2706 997 2706 1503 
Q 2706 1984 2436 2262 
Q 2166 2541 1728 2541 
Q 1456 2541 1237 2417 
Q 1019 2294 894 2097 
L 366 2166 
L 809 4519 
L 3088 4519 
L 3088 3981 
L 1259 3981 
L 1013 2750 
Q 1425 3038 1878 3038 
Q 2478 3038 2890 2622 
Q 3303 2206 3303 1553 
Q 3303 931 2941 478 
Q 2500 -78 1738 -78 
Q 1113 -78 717 272 
Q 322 622 266 1200 
z
" transform="scale(0.015625)"/>
       </defs>
       <use xlink:href="#ArialMT-2212"/>
       <use xlink:href="#ArialMT-35" x="58.398438"/>
      </g>
     </g>
    </g>
    <g id="ytick_3">
     <g id="line2d_8">
      <path d="M 49.5 273.75 
L 299.498932 273.75 
" clip-path="url(#paba9d6b85c)" style="fill: none; stroke: #ffffff; stroke-linecap: round"/>
     </g>
     <g id="text_9">
      <!-- −4 -->
      <g style="fill: #262626" transform="translate(27.458281 277.686797) scale(0.11 -0.11)">
       <use xlink:href="#ArialMT-2212"/>
       <use xlink:href="#ArialMT-34" x="58.398438"/>
      </g>
     </g>
    </g>
    <g id="ytick_4">
     <g id="line2d_9">
      <path d="M 49.5 254.295 
L 299.498932 254.295 
" clip-path="url(#paba9d6b85c)" style="fill: none; stroke: #ffffff; stroke-linecap: round"/>
     </g>
     <g id="text_10">
      <!-- −3 -->
      <g style="fill: #262626" transform="translate(27.458281 258.231797) scale(0.11 -0.11)">
       <defs>
        <path id="ArialMT-33" d="M 269 1209 
L 831 1284 
Q 928 806 1161 595 
Q 1394 384 1728 384 
Q 2125 384 2398 659 
Q 2672 934 2672 1341 
Q 2672 1728 2419 1979 
Q 2166 2231 1775 2231 
Q 1616 2231 1378 2169 
L 1441 2663 
Q 1497 2656 1531 2656 
Q 1891 2656 2178 2843 
Q 2466 3031 2466 3422 
Q 2466 3731 2256 3934 
Q 2047 4138 1716 4138 
Q 1388 4138 1169 3931 
Q 950 3725 888 3313 
L 325 3413 
Q 428 3978 793 4289 
Q 1159 4600 1703 4600 
Q 2078 4600 2393 4439 
Q 2709 4278 2876 4000 
Q 3044 3722 3044 3409 
Q 3044 3113 2884 2869 
Q 2725 2625 2413 2481 
Q 2819 2388 3044 2092 
Q 3269 1797 3269 1353 
Q 3269 753 2831 336 
Q 2394 -81 1725 -81 
Q 1122 -81 723 278 
Q 325 638 269 1209 
z
" transform="scale(0.015625)"/>
       </defs>
       <use xlink:href="#ArialMT-2212"/>
       <use xlink:href="#ArialMT-33" x="58.398438"/>
      </g>
     </g>
    </g>
    <g id="ytick_5">
     <g id="line2d_10">
      <path d="M 49.5 234.84 
L 299.498932 234.84 
" clip-path="url(#paba9d6b85c)" style="fill: none; stroke: #ffffff; stroke-linecap: round"/>
     </g>
     <g id="text_11">
      <!-- −2 -->
      <g style="fill: #262626" transform="translate(27.458281 238.776797) scale(0.11 -0.11)">
       <use xlink:href="#ArialMT-2212"/>
       <use xlink:href="#ArialMT-32" x="58.398438"/>
      </g>
     </g>
    </g>
    <g id="ytick_6">
     <g id="line2d_11">
      <path d="M 49.5 215.385 
L 299.498932 215.385 
" clip-path="url(#paba9d6b85c)" style="fill: none; stroke: #ffffff; stroke-linecap: round"/>
     </g>
     <g id="text_12">
      <!-- −1 -->
      <g style="fill: #262626" transform="translate(27.458281 219.321797) scale(0.11 -0.11)">
       <defs>
        <path id="ArialMT-31" d="M 2384 0 
L 1822 0 
L 1822 3584 
Q 1619 3391 1289 3197 
Q 959 3003 697 2906 
L 697 3450 
Q 1169 3672 1522 3987 
Q 1875 4303 2022 4600 
L 2384 4600 
L 2384 0 
z
" transform="scale(0.015625)"/>
       </defs>
       <use xlink:href="#ArialMT-2212"/>
       <use xlink:href="#ArialMT-31" x="58.398438"/>
      </g>
     </g>
    </g>
    <g id="ytick_7">
     <g id="line2d_12">
      <path d="M 49.5 195.93 
L 299.498932 195.93 
" clip-path="url(#paba9d6b85c)" style="fill: none; stroke: #ffffff; stroke-linecap: round"/>
     </g>
     <g id="text_13">
      <!-- 0 -->
      <g style="fill: #262626" transform="translate(33.882969 199.866797) scale(0.11 -0.11)">
       <use xlink:href="#ArialMT-30"/>
      </g>
     </g>
    </g>
    <g id="ytick_8">
     <g id="line2d_13">
      <path d="M 49.5 176.475 
L 299.498932 176.475 
" clip-path="url(#paba9d6b85c)" style="fill: none; stroke: #ffffff; stroke-linecap: round"/>
     </g>
     <g id="text_14">
      <!-- 1 -->
      <g style="fill: #262626" transform="translate(33.882969 180.411797) scale(0.11 -0.11)">
       <use xlink:href="#ArialMT-31"/>
      </g>
     </g>
    </g>
    <g id="ytick_9">
     <g id="line2d_14">
      <path d="M 49.5 157.02 
L 299.498932 157.02 
" clip-path="url(#paba9d6b85c)" style="fill: none; stroke: #ffffff; stroke-linecap: round"/>
     </g>
     <g id="text_15">
      <!-- 2 -->
      <g style="fill: #262626" transform="translate(33.882969 160.956797) scale(0.11 -0.11)">
       <use xlink:href="#ArialMT-32"/>
      </g>
     </g>
    </g>
    <g id="ytick_10">
     <g id="line2d_15">
      <path d="M 49.5 137.565 
L 299.498932 137.565 
" clip-path="url(#paba9d6b85c)" style="fill: none; stroke: #ffffff; stroke-linecap: round"/>
     </g>
     <g id="text_16">
      <!-- 3 -->
      <g style="fill: #262626" transform="translate(33.882969 141.501797) scale(0.11 -0.11)">
       <use xlink:href="#ArialMT-33"/>
      </g>
     </g>
    </g>
    <g id="ytick_11">
     <g id="line2d_16">
      <path d="M 49.5 118.11 
L 299.498932 118.11 
" clip-path="url(#paba9d6b85c)" style="fill: none; stroke: #ffffff; stroke-linecap: round"/>
     </g>
     <g id="text_17">
      <!-- 4 -->
      <g style="fill: #262626" transform="translate(33.882969 122.046797) scale(0.11 -0.11)">
       <use xlink:href="#ArialMT-34"/>
      </g>
     </g>
    </g>
    <g id="ytick_12">
     <g id="line2d_17">
      <path d="M 49.5 98.655 
L 299.498932 98.655 
" clip-path="url(#paba9d6b85c)" style="fill: none; stroke: #ffffff; stroke-linecap: round"/>
     </g>
     <g id="text_18">
      <!-- 5 -->
      <g style="fill: #262626" transform="translate(33.882969 102.591797) scale(0.11 -0.11)">
       <use xlink:href="#ArialMT-35"/>
      </g>
     </g>
    </g>
    <g id="ytick_13">
     <g id="line2d_18">
      <path d="M 49.5 79.2 
L 299.498932 79.2 
" clip-path="url(#paba9d6b85c)" style="fill: none; stroke: #ffffff; stroke-linecap: round"/>
     </g>
     <g id="text_19">
      <!-- 6 -->
      <g style="fill: #262626" transform="translate(33.882969 83.136797) scale(0.11 -0.11)">
       <use xlink:href="#ArialMT-36"/>
      </g>
     </g>
    </g>
    <g id="text_20">
     <!-- dB(err) -->
     <g style="fill: #262626" transform="translate(20.932656 214.596563) rotate(-90) scale(0.12 -0.12)">
      <defs>
       <path id="ArialMT-64" d="M 2575 0 
L 2575 419 
Q 2259 -75 1647 -75 
Q 1250 -75 917 144 
Q 584 363 401 755 
Q 219 1147 219 1656 
Q 219 2153 384 2558 
Q 550 2963 881 3178 
Q 1213 3394 1622 3394 
Q 1922 3394 2156 3267 
Q 2391 3141 2538 2938 
L 2538 4581 
L 3097 4581 
L 3097 0 
L 2575 0 
z
M 797 1656 
Q 797 1019 1065 703 
Q 1334 388 1700 388 
Q 2069 388 2326 689 
Q 2584 991 2584 1609 
Q 2584 2291 2321 2609 
Q 2059 2928 1675 2928 
Q 1300 2928 1048 2622 
Q 797 2316 797 1656 
z
" transform="scale(0.015625)"/>
       <path id="ArialMT-42" d="M 469 0 
L 469 4581 
L 2188 4581 
Q 2713 4581 3030 4442 
Q 3347 4303 3526 4014 
Q 3706 3725 3706 3409 
Q 3706 3116 3547 2856 
Q 3388 2597 3066 2438 
Q 3481 2316 3704 2022 
Q 3928 1728 3928 1328 
Q 3928 1006 3792 729 
Q 3656 453 3456 303 
Q 3256 153 2954 76 
Q 2653 0 2216 0 
L 469 0 
z
M 1075 2656 
L 2066 2656 
Q 2469 2656 2644 2709 
Q 2875 2778 2992 2937 
Q 3109 3097 3109 3338 
Q 3109 3566 3000 3739 
Q 2891 3913 2687 3977 
Q 2484 4041 1991 4041 
L 1075 4041 
L 1075 2656 
z
M 1075 541 
L 2216 541 
Q 2509 541 2628 563 
Q 2838 600 2978 687 
Q 3119 775 3209 942 
Q 3300 1109 3300 1328 
Q 3300 1584 3169 1773 
Q 3038 1963 2805 2039 
Q 2572 2116 2134 2116 
L 1075 2116 
L 1075 541 
z
" transform="scale(0.015625)"/>
       <path id="ArialMT-28" d="M 1497 -1347 
Q 1031 -759 709 28 
Q 388 816 388 1659 
Q 388 2403 628 3084 
Q 909 3875 1497 4659 
L 1900 4659 
Q 1522 4009 1400 3731 
Q 1209 3300 1100 2831 
Q 966 2247 966 1656 
Q 966 153 1900 -1347 
L 1497 -1347 
z
" transform="scale(0.015625)"/>
       <path id="ArialMT-65" d="M 2694 1069 
L 3275 997 
Q 3138 488 2766 206 
Q 2394 -75 1816 -75 
Q 1088 -75 661 373 
Q 234 822 234 1631 
Q 234 2469 665 2931 
Q 1097 3394 1784 3394 
Q 2450 3394 2872 2941 
Q 3294 2488 3294 1666 
Q 3294 1616 3291 1516 
L 816 1516 
Q 847 969 1125 678 
Q 1403 388 1819 388 
Q 2128 388 2347 550 
Q 2566 713 2694 1069 
z
M 847 1978 
L 2700 1978 
Q 2663 2397 2488 2606 
Q 2219 2931 1791 2931 
Q 1403 2931 1139 2672 
Q 875 2413 847 1978 
z
" transform="scale(0.015625)"/>
       <path id="ArialMT-72" d="M 416 0 
L 416 3319 
L 922 3319 
L 922 2816 
Q 1116 3169 1280 3281 
Q 1444 3394 1641 3394 
Q 1925 3394 2219 3213 
L 2025 2691 
Q 1819 2813 1613 2813 
Q 1428 2813 1281 2702 
Q 1134 2591 1072 2394 
Q 978 2094 978 1738 
L 978 0 
L 416 0 
z
" transform="scale(0.015625)"/>
       <path id="ArialMT-29" d="M 791 -1347 
L 388 -1347 
Q 1322 153 1322 1656 
Q 1322 2244 1188 2822 
Q 1081 3291 891 3722 
Q 769 4003 388 4659 
L 791 4659 
Q 1378 3875 1659 3084 
Q 1900 2403 1900 1659 
Q 1900 816 1576 28 
Q 1253 -759 791 -1347 
z
" transform="scale(0.015625)"/>
      </defs>
      <use xlink:href="#ArialMT-64"/>
      <use xlink:href="#ArialMT-42" x="55.615234"/>
      <use xlink:href="#ArialMT-28" x="122.314453"/>
      <use xlink:href="#ArialMT-65" x="155.615234"/>
      <use xlink:href="#ArialMT-72" x="211.230469"/>
      <use xlink:href="#ArialMT-72" x="244.53125"/>
      <use xlink:href="#ArialMT-29" x="277.832031"/>
     </g>
    </g>
   </g>
   <g id="PolyCollection_1"/>
   <g id="PolyCollection_2"/>
   <g id="line2d_19">
    <path d="M 49.5 285.916058 
L 52.277766 285.907875 
L 55.055532 285.883281 
L 57.833298 285.842141 
L 60.611064 285.78423 
L 63.38883 285.709232 
L 66.166595 285.616745 
L 68.944361 285.506273 
L 71.722127 285.377236 
L 74.499893 285.228965 
L 77.277659 285.060704 
L 80.055425 284.87161 
L 82.833191 284.660754 
L 85.610957 284.427125 
L 88.388723 284.169626 
L 91.166489 283.887078 
L 93.944255 283.578218 
L 96.722021 283.241703 
L 99.499786 282.87611 
L 102.277552 282.479935 
L 105.055318 282.051592 
L 107.833084 281.589421 
L 110.61085 281.091677 
L 113.388616 280.556541 
L 116.166382 279.982112 
L 118.944148 279.366411 
L 121.721914 278.707377 
L 124.49968 278.00287 
L 127.277446 277.250667 
L 130.055211 276.448461 
L 132.832977 275.59386 
L 135.610743 274.684384 
L 138.388509 273.717461 
L 141.166275 272.690425 
L 143.944041 271.600514 
L 146.721807 270.44486 
L 149.499573 269.220492 
L 152.277339 267.92432 
L 155.055105 266.553137 
L 157.832871 265.103608 
L 160.610636 263.572262 
L 163.388402 261.955479 
L 166.166168 260.249484 
L 168.943934 258.450332 
L 171.7217 256.553896 
L 174.499466 254.555849 
L 177.277232 252.451645 
L 180.054998 250.236507 
L 182.832764 247.905394 
L 185.61053 245.452985 
L 188.388296 242.873645 
L 191.166062 240.161394 
L 193.943827 237.309873 
L 196.721593 234.312298 
L 199.499359 231.161416 
L 202.277125 227.849449 
L 205.054891 224.368032 
L 207.832657 220.708141 
L 210.610423 216.860011 
L 213.388189 212.81304 
L 216.165955 208.555673 
L 218.943721 204.075278 
L 221.721487 199.357984 
L 224.499252 194.388503 
L 227.277018 189.149913 
L 230.054784 183.623395 
L 232.83255 177.787924 
L 235.610316 171.619888 
L 238.388082 165.092622 
L 241.165848 158.175837 
L 243.943614 150.834911 
L 246.72138 143.029989 
L 249.499146 134.714852 
L 252.276912 125.835448 
L 255.054678 116.327992 
L 257.832443 106.116439 
L 260.610209 95.109096 
L 263.387975 83.193962 
L 266.165741 70.232209 
L 268.943507 56.048824 
L 271.721273 40.418762 
L 274.499039 23.045791 
L 277.276805 3.528824 
L 277.842881 -1 
" clip-path="url(#paba9d6b85c)" style="fill: none; stroke: #4c72b0; stroke-width: 0.7; stroke-linecap: round"/>
   </g>
   <g id="line2d_20">
    <path d="M 49.5 285.916058 
L 52.277766 285.907875 
L 55.055532 285.883281 
L 57.833298 285.842141 
L 60.611064 285.78423 
L 63.38883 285.709232 
L 66.166595 285.616745 
L 68.944361 285.506273 
L 71.722127 285.377236 
L 74.499893 285.228965 
L 77.277659 285.060704 
L 80.055425 284.87161 
L 82.833191 284.660754 
L 85.610957 284.427125 
L 88.388723 284.169626 
L 91.166489 283.887078 
L 93.944255 283.578218 
L 96.722021 283.241703 
L 99.499786 282.87611 
L 102.277552 282.479935 
L 105.055318 282.051592 
L 107.833084 281.589421 
L 110.61085 281.091677 
L 113.388616 280.556541 
L 116.166382 279.982112 
L 118.944148 279.366411 
L 121.721914 278.707377 
L 124.49968 278.00287 
L 127.277446 277.250667 
L 130.055211 276.448461 
L 132.832977 275.59386 
L 135.610743 274.684384 
L 138.388509 273.717461 
L 141.166275 272.690425 
L 143.944041 271.600514 
L 146.721807 270.44486 
L 149.499573 269.220492 
L 152.277339 267.92432 
L 155.055105 266.553137 
L 157.832871 265.103608 
L 160.610636 263.572262 
L 163.388402 261.955479 
L 166.166168 260.249484 
L 168.943934 258.450332 
L 171.7217 256.553896 
L 174.499466 254.555849 
L 177.277232 252.451645 
L 180.054998 250.236507 
L 182.832764 247.905394 
L 185.61053 245.452985 
L 188.388296 242.873645 
L 191.166062 240.161394 
L 193.943827 237.309873 
L 196.721593 234.312298 
L 199.499359 231.161416 
L 202.277125 227.849449 
L 205.054891 224.368032 
L 207.832657 220.708141 
L 210.610423 216.860011 
L 213.388189 212.81304 
L 216.165955 208.555673 
L 218.943721 204.075278 
L 221.721487 199.357984 
L 224.499252 194.388503 
L 227.277018 189.149913 
L 230.054784 183.623395 
L 232.83255 177.787924 
L 235.610316 171.619888 
L 238.388082 165.092622 
L 241.165848 158.175837 
L 243.943614 150.834911 
L 246.72138 143.029989 
L 249.499146 134.714852 
L 252.276912 125.835448 
L 255.054678 116.327992 
L 257.832443 106.116439 
L 260.610209 95.109096 
L 263.387975 83.193962 
L 266.165741 70.232209 
L 268.943507 56.048824 
L 271.721273 40.418762 
L 274.499039 23.045791 
L 277.276805 3.528824 
L 277.842881 -1 
" clip-path="url(#paba9d6b85c)" style="fill: none; stroke: #dd8452; stroke-width: 0.7; stroke-linecap: round"/>
   </g>
   <g id="line2d_21"/>
   <g id="line2d_22"/>
   <g id="line2d_23">
    <path d="M 49.5 195.93 
L 299.498932 195.93 
" clip-path="url(#paba9d6b85c)" style="fill: none; stroke-dasharray: 5.55,2.4; stroke-dashoffset: 0; stroke: #ff0000; stroke-width: 1.5"/>
   </g>
   <g id="patch_3">
    <path d="M 49.5 312.66 
L 49.5 79.2 
" style="fill: none; stroke: #ffffff; stroke-width: 1.25; stroke-linejoin: miter; stroke-linecap: square"/>
   </g>
   <g id="patch_4">
    <path d="M 49.5 312.66 
L 299.498932 312.66 
" style="fill: none; stroke: #ffffff; stroke-width: 1.25; stroke-linejoin: miter; stroke-linecap: square"/>
   </g>
   <g id="text_21">
    <!-- fMHz = 30 -->
    <g style="fill: #262626" transform="translate(146.990404 73.2) scale(0.12 -0.12)">
     <defs>
      <path id="ArialMT-66" d="M 556 0 
L 556 2881 
L 59 2881 
L 59 3319 
L 556 3319 
L 556 3672 
Q 556 4006 616 4169 
Q 697 4388 901 4523 
Q 1106 4659 1475 4659 
Q 1713 4659 2000 4603 
L 1916 4113 
Q 1741 4144 1584 4144 
Q 1328 4144 1222 4034 
Q 1116 3925 1116 3625 
L 1116 3319 
L 1763 3319 
L 1763 2881 
L 1116 2881 
L 1116 0 
L 556 0 
z
" transform="scale(0.015625)"/>
      <path id="ArialMT-4d" d="M 475 0 
L 475 4581 
L 1388 4581 
L 2472 1338 
Q 2622 884 2691 659 
Q 2769 909 2934 1394 
L 4031 4581 
L 4847 4581 
L 4847 0 
L 4263 0 
L 4263 3834 
L 2931 0 
L 2384 0 
L 1059 3900 
L 1059 0 
L 475 0 
z
" transform="scale(0.015625)"/>
      <path id="ArialMT-48" d="M 513 0 
L 513 4581 
L 1119 4581 
L 1119 2700 
L 3500 2700 
L 3500 4581 
L 4106 4581 
L 4106 0 
L 3500 0 
L 3500 2159 
L 1119 2159 
L 1119 0 
L 513 0 
z
" transform="scale(0.015625)"/>
      <path id="ArialMT-7a" d="M 125 0 
L 125 456 
L 2238 2881 
Q 1878 2863 1603 2863 
L 250 2863 
L 250 3319 
L 2963 3319 
L 2963 2947 
L 1166 841 
L 819 456 
Q 1197 484 1528 484 
L 3063 484 
L 3063 0 
L 125 0 
z
" transform="scale(0.015625)"/>
      <path id="ArialMT-20" transform="scale(0.015625)"/>
      <path id="ArialMT-3d" d="M 3381 2694 
L 356 2694 
L 356 3219 
L 3381 3219 
L 3381 2694 
z
M 3381 1303 
L 356 1303 
L 356 1828 
L 3381 1828 
L 3381 1303 
z
" transform="scale(0.015625)"/>
     </defs>
     <use xlink:href="#ArialMT-66"/>
     <use xlink:href="#ArialMT-4d" x="27.783203"/>
     <use xlink:href="#ArialMT-48" x="111.083984"/>
     <use xlink:href="#ArialMT-7a" x="183.300781"/>
     <use xlink:href="#ArialMT-20" x="233.300781"/>
     <use xlink:href="#ArialMT-3d" x="261.083984"/>
     <use xlink:href="#ArialMT-20" x="319.482422"/>
     <use xlink:href="#ArialMT-33" x="347.265625"/>
     <use xlink:href="#ArialMT-30" x="402.880859"/>
    </g>
   </g>
  </g>
  <g id="axes_2">
   <g id="patch_5">
    <path d="M 312.458932 312.66 
L 562.457864 312.66 
L 562.457864 79.2 
L 312.458932 79.2 
z
" style="fill: #eaeaf2"/>
   </g>
   <g id="matplotlib.axis_3">
    <g id="xtick_6">
     <g id="line2d_24">
      <path d="M 312.458932 312.66 
L 312.458932 79.2 
" clip-path="url(#pce8627cae7)" style="fill: none; stroke: #ffffff; stroke-linecap: round"/>
     </g>
     <g id="text_22">
      <!-- 0 -->
      <g style="fill: #262626" transform="translate(309.400416 330.033594) scale(0.11 -0.11)">
       <use xlink:href="#ArialMT-30"/>
      </g>
     </g>
    </g>
    <g id="xtick_7">
     <g id="line2d_25">
      <path d="M 368.01425 312.66 
L 368.01425 79.2 
" clip-path="url(#pce8627cae7)" style="fill: none; stroke: #ffffff; stroke-linecap: round"/>
     </g>
     <g id="text_23">
      <!-- 20 -->
      <g style="fill: #262626" transform="translate(361.897219 330.033594) scale(0.11 -0.11)">
       <use xlink:href="#ArialMT-32"/>
       <use xlink:href="#ArialMT-30" x="55.615234"/>
      </g>
     </g>
    </g>
    <g id="xtick_8">
     <g id="line2d_26">
      <path d="M 423.569569 312.66 
L 423.569569 79.2 
" clip-path="url(#pce8627cae7)" style="fill: none; stroke: #ffffff; stroke-linecap: round"/>
     </g>
     <g id="text_24">
      <!-- 40 -->
      <g style="fill: #262626" transform="translate(417.452537 330.033594) scale(0.11 -0.11)">
       <use xlink:href="#ArialMT-34"/>
       <use xlink:href="#ArialMT-30" x="55.615234"/>
      </g>
     </g>
    </g>
    <g id="xtick_9">
     <g id="line2d_27">
      <path d="M 479.124887 312.66 
L 479.124887 79.2 
" clip-path="url(#pce8627cae7)" style="fill: none; stroke: #ffffff; stroke-linecap: round"/>
     </g>
     <g id="text_25">
      <!-- 60 -->
      <g style="fill: #262626" transform="translate(473.007856 330.033594) scale(0.11 -0.11)">
       <use xlink:href="#ArialMT-36"/>
       <use xlink:href="#ArialMT-30" x="55.615234"/>
      </g>
     </g>
    </g>
    <g id="xtick_10">
     <g id="line2d_28">
      <path d="M 534.680205 312.66 
L 534.680205 79.2 
" clip-path="url(#pce8627cae7)" style="fill: none; stroke: #ffffff; stroke-linecap: round"/>
     </g>
     <g id="text_26">
      <!-- 80 -->
      <g style="fill: #262626" transform="translate(528.563174 330.033594) scale(0.11 -0.11)">
       <use xlink:href="#ArialMT-38"/>
       <use xlink:href="#ArialMT-30" x="55.615234"/>
      </g>
     </g>
    </g>
    <g id="text_27">
     <!-- $\theta$° -->
     <g style="fill: #262626" transform="translate(431.338398 344.809219) scale(0.12 -0.12)">
      <use xlink:href="#DejaVuSans-Oblique-3b8" transform="translate(0 0.234375)"/>
      <use xlink:href="#ArialMT-b0" transform="translate(61.181641 0.234375)"/>
     </g>
    </g>
   </g>
   <g id="matplotlib.axis_4">
    <g id="ytick_14">
     <g id="line2d_29">
      <path d="M 312.458932 312.66 
L 562.457864 312.66 
" clip-path="url(#pce8627cae7)" style="fill: none; stroke: #ffffff; stroke-linecap: round"/>
     </g>
    </g>
    <g id="ytick_15">
     <g id="line2d_30">
      <path d="M 312.458932 293.205 
L 562.457864 293.205 
" clip-path="url(#pce8627cae7)" style="fill: none; stroke: #ffffff; stroke-linecap: round"/>
     </g>
    </g>
    <g id="ytick_16">
     <g id="line2d_31">
      <path d="M 312.458932 273.75 
L 562.457864 273.75 
" clip-path="url(#pce8627cae7)" style="fill: none; stroke: #ffffff; stroke-linecap: round"/>
     </g>
    </g>
    <g id="ytick_17">
     <g id="line2d_32">
      <path d="M 312.458932 254.295 
L 562.457864 254.295 
" clip-path="url(#pce8627cae7)" style="fill: none; stroke: #ffffff; stroke-linecap: round"/>
     </g>
    </g>
    <g id="ytick_18">
     <g id="line2d_33">
      <path d="M 312.458932 234.84 
L 562.457864 234.84 
" clip-path="url(#pce8627cae7)" style="fill: none; stroke: #ffffff; stroke-linecap: round"/>
     </g>
    </g>
    <g id="ytick_19">
     <g id="line2d_34">
      <path d="M 312.458932 215.385 
L 562.457864 215.385 
" clip-path="url(#pce8627cae7)" style="fill: none; stroke: #ffffff; stroke-linecap: round"/>
     </g>
    </g>
    <g id="ytick_20">
     <g id="line2d_35">
      <path d="M 312.458932 195.93 
L 562.457864 195.93 
" clip-path="url(#pce8627cae7)" style="fill: none; stroke: #ffffff; stroke-linecap: round"/>
     </g>
    </g>
    <g id="ytick_21">
     <g id="line2d_36">
      <path d="M 312.458932 176.475 
L 562.457864 176.475 
" clip-path="url(#pce8627cae7)" style="fill: none; stroke: #ffffff; stroke-linecap: round"/>
     </g>
    </g>
    <g id="ytick_22">
     <g id="line2d_37">
      <path d="M 312.458932 157.02 
L 562.457864 157.02 
" clip-path="url(#pce8627cae7)" style="fill: none; stroke: #ffffff; stroke-linecap: round"/>
     </g>
    </g>
    <g id="ytick_23">
     <g id="line2d_38">
      <path d="M 312.458932 137.565 
L 562.457864 137.565 
" clip-path="url(#pce8627cae7)" style="fill: none; stroke: #ffffff; stroke-linecap: round"/>
     </g>
    </g>
    <g id="ytick_24">
     <g id="line2d_39">
      <path d="M 312.458932 118.11 
L 562.457864 118.11 
" clip-path="url(#pce8627cae7)" style="fill: none; stroke: #ffffff; stroke-linecap: round"/>
     </g>
    </g>
    <g id="ytick_25">
     <g id="line2d_40">
      <path d="M 312.458932 98.655 
L 562.457864 98.655 
" clip-path="url(#pce8627cae7)" style="fill: none; stroke: #ffffff; stroke-linecap: round"/>
     </g>
    </g>
    <g id="ytick_26">
     <g id="line2d_41">
      <path d="M 312.458932 79.2 
L 562.457864 79.2 
" clip-path="url(#pce8627cae7)" style="fill: none; stroke: #ffffff; stroke-linecap: round"/>
     </g>
    </g>
   </g>
   <g id="PolyCollection_3"/>
   <g id="PolyCollection_4"/>
   <g id="line2d_42">
    <path d="M 312.458932 259.580882 
L 315.236698 259.5676 
L 318.014464 259.527774 
L 320.79223 259.461468 
L 323.569996 259.36879 
L 326.347762 259.2499 
L 329.125528 259.10502 
L 331.903293 258.934444 
L 334.681059 258.738552 
L 337.458825 258.517825 
L 340.236591 258.272863 
L 343.014357 258.004407 
L 345.792123 257.713356 
L 348.569889 257.400795 
L 351.347655 257.068014 
L 354.125421 256.716539 
L 356.903187 256.348149 
L 359.680953 255.964904 
L 362.458719 255.569169 
L 365.236484 255.163628 
L 368.01425 254.751307 
L 370.792016 254.730418 
L 373.569782 255.310733 
L 376.347548 255.919236 
L 379.125314 256.55486 
L 381.90308 257.216246 
L 384.680846 257.901719 
L 387.458612 258.609273 
L 390.236378 259.336553 
L 393.014144 260.080837 
L 395.791909 260.839029 
L 398.569675 261.607648 
L 401.347441 262.382821 
L 404.125207 263.160282 
L 406.902973 263.93537 
L 409.680739 264.703033 
L 412.458505 265.457832 
L 415.236271 266.193949 
L 418.014037 266.905193 
L 420.791803 267.585014 
L 423.569569 268.226513 
L 426.347334 268.822452 
L 429.1251 269.365266 
L 431.902866 269.847075 
L 434.680632 270.259694 
L 437.458398 270.594636 
L 440.236164 270.843124 
L 443.01393 270.99609 
L 445.791696 271.044174 
L 448.569462 270.977722 
L 451.347228 270.786772 
L 454.124994 270.461047 
L 456.90276 269.989926 
L 459.680525 269.362423 
L 462.458291 268.567153 
L 465.236057 267.592284 
L 468.013823 266.425491 
L 470.791589 265.053892 
L 473.569355 263.463967 
L 476.347121 261.641476 
L 479.124887 259.571346 
L 481.902653 257.237546 
L 484.680419 254.661036 
L 487.458185 252.964314 
L 490.23595 250.937186 
L 493.013716 248.55305 
L 495.791482 245.783621 
L 498.569248 242.598532 
L 501.347014 238.964856 
L 504.12478 234.846514 
L 506.902546 230.203542 
L 509.680312 224.991171 
L 512.458078 219.158669 
L 515.235844 212.647855 
L 518.01361 205.39117 
L 520.791376 197.309132 
L 523.569141 188.306923 
L 526.346907 178.269711 
L 529.124673 167.056115 
L 531.902439 154.488823 
L 534.680205 140.340734 
L 537.457971 124.313787 
L 540.235737 106.005279 
L 543.013503 84.851578 
L 545.791269 60.028174 
L 548.569035 30.257771 
L 550.924858 -1 
" clip-path="url(#pce8627cae7)" style="fill: none; stroke: #4c72b0; stroke-width: 0.7; stroke-linecap: round"/>
   </g>
   <g id="line2d_43">
    <path d="M 312.458932 259.580882 
L 315.236698 259.5676 
L 318.014464 259.527774 
L 320.79223 259.461468 
L 323.569996 259.36879 
L 326.347762 259.2499 
L 329.125528 259.10502 
L 331.903293 258.934444 
L 334.681059 258.738552 
L 337.458825 258.517825 
L 340.236591 258.272863 
L 343.014357 258.004407 
L 345.792123 257.713356 
L 348.569889 257.400795 
L 351.347655 257.068014 
L 354.125421 256.716539 
L 356.903187 256.348149 
L 359.680953 255.964904 
L 362.458719 255.569169 
L 365.236484 255.163628 
L 368.01425 254.751307 
L 370.792016 254.730418 
L 373.569782 255.310733 
L 376.347548 255.919236 
L 379.125314 256.55486 
L 381.90308 257.216246 
L 384.680846 257.901719 
L 387.458612 258.609273 
L 390.236378 259.336553 
L 393.014144 260.080837 
L 395.791909 260.839029 
L 398.569675 261.607648 
L 401.347441 262.382821 
L 404.125207 263.160282 
L 406.902973 263.93537 
L 409.680739 264.703033 
L 412.458505 265.457832 
L 415.236271 266.193949 
L 418.014037 266.905193 
L 420.791803 267.585014 
L 423.569569 268.226513 
L 426.347334 268.822452 
L 429.1251 269.365266 
L 431.902866 269.847075 
L 434.680632 270.259694 
L 437.458398 270.594636 
L 440.236164 270.843124 
L 443.01393 270.99609 
L 445.791696 271.044174 
L 448.569462 270.977722 
L 451.347228 270.786772 
L 454.124994 270.461047 
L 456.90276 269.989926 
L 459.680525 269.362423 
L 462.458291 268.567153 
L 465.236057 267.592284 
L 468.013823 266.425491 
L 470.791589 265.053892 
L 473.569355 263.463967 
L 476.347121 261.641476 
L 479.124887 259.571346 
L 481.902653 257.237546 
L 484.680419 254.661036 
L 487.458185 252.964314 
L 490.23595 250.937186 
L 493.013716 248.55305 
L 495.791482 245.783621 
L 498.569248 242.598532 
L 501.347014 238.964856 
L 504.12478 234.846514 
L 506.902546 230.203542 
L 509.680312 224.991171 
L 512.458078 219.158669 
L 515.235844 212.647855 
L 518.01361 205.39117 
L 520.791376 197.309132 
L 523.569141 188.306923 
L 526.346907 178.269711 
L 529.124673 167.056115 
L 531.902439 154.488823 
L 534.680205 140.340734 
L 537.457971 124.313787 
L 540.235737 106.005279 
L 543.013503 84.851578 
L 545.791269 60.028174 
L 548.569035 30.257771 
L 550.924858 -1 
" clip-path="url(#pce8627cae7)" style="fill: none; stroke: #dd8452; stroke-width: 0.7; stroke-linecap: round"/>
   </g>
   <g id="line2d_44">
    <path d="M 312.458932 195.93 
L 562.457864 195.93 
" clip-path="url(#pce8627cae7)" style="fill: none; stroke-dasharray: 5.55,2.4; stroke-dashoffset: 0; stroke: #ff0000; stroke-width: 1.5"/>
   </g>
   <g id="patch_6">
    <path d="M 312.458932 312.66 
L 312.458932 79.2 
" style="fill: none; stroke: #ffffff; stroke-width: 1.25; stroke-linejoin: miter; stroke-linecap: square"/>
   </g>
   <g id="patch_7">
    <path d="M 312.458932 312.66 
L 562.457864 312.66 
" style="fill: none; stroke: #ffffff; stroke-width: 1.25; stroke-linejoin: miter; stroke-linecap: square"/>
   </g>
   <g id="text_28">
    <!-- fMHz = 100 -->
    <g style="fill: #262626" transform="translate(406.612773 73.2) scale(0.12 -0.12)">
     <use xlink:href="#ArialMT-66"/>
     <use xlink:href="#ArialMT-4d" x="27.783203"/>
     <use xlink:href="#ArialMT-48" x="111.083984"/>
     <use xlink:href="#ArialMT-7a" x="183.300781"/>
     <use xlink:href="#ArialMT-20" x="233.300781"/>
     <use xlink:href="#ArialMT-3d" x="261.083984"/>
     <use xlink:href="#ArialMT-20" x="319.482422"/>
     <use xlink:href="#ArialMT-31" x="347.265625"/>
     <use xlink:href="#ArialMT-30" x="402.880859"/>
     <use xlink:href="#ArialMT-30" x="458.496094"/>
    </g>
   </g>
  </g>
  <g id="axes_3">
   <g id="patch_8">
    <path d="M 575.417864 312.66 
L 825.416796 312.66 
L 825.416796 79.2 
L 575.417864 79.2 
z
" style="fill: #eaeaf2"/>
   </g>
   <g id="matplotlib.axis_5">
    <g id="xtick_11">
     <g id="line2d_45">
      <path d="M 575.417864 312.66 
L 575.417864 79.2 
" clip-path="url(#pedebcfe141)" style="fill: none; stroke: #ffffff; stroke-linecap: round"/>
     </g>
     <g id="text_29">
      <!-- 0 -->
      <g style="fill: #262626" transform="translate(572.359349 330.033594) scale(0.11 -0.11)">
       <use xlink:href="#ArialMT-30"/>
      </g>
     </g>
    </g>
    <g id="xtick_12">
     <g id="line2d_46">
      <path d="M 630.973182 312.66 
L 630.973182 79.2 
" clip-path="url(#pedebcfe141)" style="fill: none; stroke: #ffffff; stroke-linecap: round"/>
     </g>
     <g id="text_30">
      <!-- 20 -->
      <g style="fill: #262626" transform="translate(624.856151 330.033594) scale(0.11 -0.11)">
       <use xlink:href="#ArialMT-32"/>
       <use xlink:href="#ArialMT-30" x="55.615234"/>
      </g>
     </g>
    </g>
    <g id="xtick_13">
     <g id="line2d_47">
      <path d="M 686.528501 312.66 
L 686.528501 79.2 
" clip-path="url(#pedebcfe141)" style="fill: none; stroke: #ffffff; stroke-linecap: round"/>
     </g>
     <g id="text_31">
      <!-- 40 -->
      <g style="fill: #262626" transform="translate(680.411469 330.033594) scale(0.11 -0.11)">
       <use xlink:href="#ArialMT-34"/>
       <use xlink:href="#ArialMT-30" x="55.615234"/>
      </g>
     </g>
    </g>
    <g id="xtick_14">
     <g id="line2d_48">
      <path d="M 742.083819 312.66 
L 742.083819 79.2 
" clip-path="url(#pedebcfe141)" style="fill: none; stroke: #ffffff; stroke-linecap: round"/>
     </g>
     <g id="text_32">
      <!-- 60 -->
      <g style="fill: #262626" transform="translate(735.966788 330.033594) scale(0.11 -0.11)">
       <use xlink:href="#ArialMT-36"/>
       <use xlink:href="#ArialMT-30" x="55.615234"/>
      </g>
     </g>
    </g>
    <g id="xtick_15">
     <g id="line2d_49">
      <path d="M 797.639137 312.66 
L 797.639137 79.2 
" clip-path="url(#pedebcfe141)" style="fill: none; stroke: #ffffff; stroke-linecap: round"/>
     </g>
     <g id="text_33">
      <!-- 80 -->
      <g style="fill: #262626" transform="translate(791.522106 330.033594) scale(0.11 -0.11)">
       <use xlink:href="#ArialMT-38"/>
       <use xlink:href="#ArialMT-30" x="55.615234"/>
      </g>
     </g>
    </g>
    <g id="text_34">
     <!-- $\theta$° -->
     <g style="fill: #262626" transform="translate(694.29733 344.809219) scale(0.12 -0.12)">
      <use xlink:href="#DejaVuSans-Oblique-3b8" transform="translate(0 0.234375)"/>
      <use xlink:href="#ArialMT-b0" transform="translate(61.181641 0.234375)"/>
     </g>
    </g>
   </g>
   <g id="matplotlib.axis_6">
    <g id="ytick_27">
     <g id="line2d_50">
      <path d="M 575.417864 312.66 
L 825.416796 312.66 
" clip-path="url(#pedebcfe141)" style="fill: none; stroke: #ffffff; stroke-linecap: round"/>
     </g>
    </g>
    <g id="ytick_28">
     <g id="line2d_51">
      <path d="M 575.417864 293.205 
L 825.416796 293.205 
" clip-path="url(#pedebcfe141)" style="fill: none; stroke: #ffffff; stroke-linecap: round"/>
     </g>
    </g>
    <g id="ytick_29">
     <g id="line2d_52">
      <path d="M 575.417864 273.75 
L 825.416796 273.75 
" clip-path="url(#pedebcfe141)" style="fill: none; stroke: #ffffff; stroke-linecap: round"/>
     </g>
    </g>
    <g id="ytick_30">
     <g id="line2d_53">
      <path d="M 575.417864 254.295 
L 825.416796 254.295 
" clip-path="url(#pedebcfe141)" style="fill: none; stroke: #ffffff; stroke-linecap: round"/>
     </g>
    </g>
    <g id="ytick_31">
     <g id="line2d_54">
      <path d="M 575.417864 234.84 
L 825.416796 234.84 
" clip-path="url(#pedebcfe141)" style="fill: none; stroke: #ffffff; stroke-linecap: round"/>
     </g>
    </g>
    <g id="ytick_32">
     <g id="line2d_55">
      <path d="M 575.417864 215.385 
L 825.416796 215.385 
" clip-path="url(#pedebcfe141)" style="fill: none; stroke: #ffffff; stroke-linecap: round"/>
     </g>
    </g>
    <g id="ytick_33">
     <g id="line2d_56">
      <path d="M 575.417864 195.93 
L 825.416796 195.93 
" clip-path="url(#pedebcfe141)" style="fill: none; stroke: #ffffff; stroke-linecap: round"/>
     </g>
    </g>
    <g id="ytick_34">
     <g id="line2d_57">
      <path d="M 575.417864 176.475 
L 825.416796 176.475 
" clip-path="url(#pedebcfe141)" style="fill: none; stroke: #ffffff; stroke-linecap: round"/>
     </g>
    </g>
    <g id="ytick_35">
     <g id="line2d_58">
      <path d="M 575.417864 157.02 
L 825.416796 157.02 
" clip-path="url(#pedebcfe141)" style="fill: none; stroke: #ffffff; stroke-linecap: round"/>
     </g>
    </g>
    <g id="ytick_36">
     <g id="line2d_59">
      <path d="M 575.417864 137.565 
L 825.416796 137.565 
" clip-path="url(#pedebcfe141)" style="fill: none; stroke: #ffffff; stroke-linecap: round"/>
     </g>
    </g>
    <g id="ytick_37">
     <g id="line2d_60">
      <path d="M 575.417864 118.11 
L 825.416796 118.11 
" clip-path="url(#pedebcfe141)" style="fill: none; stroke: #ffffff; stroke-linecap: round"/>
     </g>
    </g>
    <g id="ytick_38">
     <g id="line2d_61">
      <path d="M 575.417864 98.655 
L 825.416796 98.655 
" clip-path="url(#pedebcfe141)" style="fill: none; stroke: #ffffff; stroke-linecap: round"/>
     </g>
    </g>
    <g id="ytick_39">
     <g id="line2d_62">
      <path d="M 575.417864 79.2 
L 825.416796 79.2 
" clip-path="url(#pedebcfe141)" style="fill: none; stroke: #ffffff; stroke-linecap: round"/>
     </g>
    </g>
   </g>
   <g id="PolyCollection_5"/>
   <g id="PolyCollection_6"/>
   <g id="line2d_63">
    <path d="M 575.417864 258.475053 
L 578.19563 258.469653 
L 580.973396 258.453257 
L 583.751162 258.425281 
L 586.528928 258.384766 
L 589.306694 258.33041 
L 592.08446 258.260598 
L 594.862226 258.173459 
L 597.639991 258.066927 
L 600.417757 257.938827 
L 603.195523 257.786965 
L 605.973289 257.609251 
L 608.751055 257.403833 
L 611.528821 257.169246 
L 614.306587 256.904584 
L 617.084353 256.609685 
L 619.862119 256.285316 
L 622.639885 255.933364 
L 625.417651 255.557016 
L 628.195417 255.160903 
L 630.973182 254.751213 
L 633.750948 254.730228 
L 636.528714 255.305856 
L 639.30648 255.895748 
L 642.084246 256.487187 
L 644.862012 257.065158 
L 647.639778 257.612533 
L 650.417544 258.110392 
L 653.19531 258.538472 
L 655.973076 258.875764 
L 658.750842 259.101261 
L 661.528607 259.194848 
L 664.306373 259.138363 
L 667.084139 258.916801 
L 669.861905 258.519685 
L 672.639671 257.942571 
L 675.417437 257.188666 
L 678.195203 256.270476 
L 680.972969 255.211383 
L 683.750735 254.636293 
L 686.528501 254.832215 
L 689.306267 254.941841 
L 692.084033 254.960008 
L 694.861798 254.890711 
L 697.639564 254.747972 
L 700.41733 254.555849 
L 703.195096 254.347329 
L 705.972862 254.161917 
L 708.750628 254.041804 
L 711.528394 254.026769 
L 714.30616 254.148241 
L 717.083926 254.423278 
L 719.861692 255.641988 
L 722.639458 257.463923 
L 725.417223 259.120312 
L 728.194989 260.475087 
L 730.972755 261.405351 
L 733.750521 261.808607 
L 736.528287 261.609354 
L 739.306053 260.765783 
L 742.083819 259.277307 
L 744.861585 257.193334 
L 747.639351 254.661029 
L 750.417117 252.984327 
L 753.194883 251.134547 
L 755.972648 249.308235 
L 758.750414 247.752552 
L 761.52818 246.739586 
L 764.305946 246.523396 
L 767.083712 247.285673 
L 769.861478 249.08489 
L 772.639244 251.827783 
L 775.41701 255.322817 
L 778.194776 259.858712 
L 780.972542 264.102899 
L 783.750308 267.626417 
L 786.528074 270.049063 
L 789.305839 271.036434 
L 792.083605 270.285817 
L 794.861371 267.505781 
L 797.639137 262.391256 
L 800.416903 254.705995 
L 803.194669 244.239486 
L 805.972435 230.051245 
L 808.750201 211.291366 
L 811.527967 186.666398 
L 814.305733 154.027638 
L 817.083499 109.360836 
L 819.861264 43.664784 
L 820.93603 -1 
" clip-path="url(#pedebcfe141)" style="fill: none; stroke: #4c72b0; stroke-width: 0.7; stroke-linecap: round"/>
   </g>
   <g id="line2d_64">
    <path d="M 575.417864 258.475053 
L 578.19563 258.469653 
L 580.973396 258.453257 
L 583.751162 258.425281 
L 586.528928 258.384766 
L 589.306694 258.33041 
L 592.08446 258.260598 
L 594.862226 258.173459 
L 597.639991 258.066927 
L 600.417757 257.938827 
L 603.195523 257.786965 
L 605.973289 257.609251 
L 608.751055 257.403833 
L 611.528821 257.169246 
L 614.306587 256.904584 
L 617.084353 256.609685 
L 619.862119 256.285316 
L 622.639885 255.933364 
L 625.417651 255.557016 
L 628.195417 255.160903 
L 630.973182 254.751213 
L 633.750948 254.730228 
L 636.528714 255.305856 
L 639.30648 255.895748 
L 642.084246 256.487187 
L 644.862012 257.065158 
L 647.639778 257.612533 
L 650.417544 258.110392 
L 653.19531 258.538472 
L 655.973076 258.875764 
L 658.750842 259.101261 
L 661.528607 259.194848 
L 664.306373 259.138363 
L 667.084139 258.916801 
L 669.861905 258.519685 
L 672.639671 257.942571 
L 675.417437 257.188666 
L 678.195203 256.270476 
L 680.972969 255.211383 
L 683.750735 254.636293 
L 686.528501 254.832215 
L 689.306267 254.941841 
L 692.084033 254.960008 
L 694.861798 254.890711 
L 697.639564 254.747972 
L 700.41733 254.555849 
L 703.195096 254.347329 
L 705.972862 254.161917 
L 708.750628 254.041804 
L 711.528394 254.026769 
L 714.30616 254.148241 
L 717.083926 254.423278 
L 719.861692 255.641988 
L 722.639458 257.463923 
L 725.417223 259.120312 
L 728.194989 260.475087 
L 730.972755 261.405351 
L 733.750521 261.808607 
L 736.528287 261.609354 
L 739.306053 260.765783 
L 742.083819 259.277307 
L 744.861585 257.193334 
L 747.639351 254.661029 
L 750.417117 252.984327 
L 753.194883 251.134547 
L 755.972648 249.308235 
L 758.750414 247.752552 
L 761.52818 246.739586 
L 764.305946 246.523396 
L 767.083712 247.285673 
L 769.861478 249.08489 
L 772.639244 251.827783 
L 775.41701 255.322817 
L 778.194776 259.858712 
L 780.972542 264.102899 
L 783.750308 267.626417 
L 786.528074 270.049063 
L 789.305839 271.036434 
L 792.083605 270.285817 
L 794.861371 267.505781 
L 797.639137 262.391256 
L 800.416903 254.705995 
L 803.194669 244.239486 
L 805.972435 230.051245 
L 808.750201 211.291366 
L 811.527967 186.666398 
L 814.305733 154.027638 
L 817.083499 109.360836 
L 819.861264 43.664784 
L 820.93603 -1 
" clip-path="url(#pedebcfe141)" style="fill: none; stroke: #dd8452; stroke-width: 0.7; stroke-linecap: round"/>
   </g>
   <g id="line2d_65">
    <path d="M 575.417864 195.93 
L 825.416796 195.93 
" clip-path="url(#pedebcfe141)" style="fill: none; stroke-dasharray: 5.55,2.4; stroke-dashoffset: 0; stroke: #ff0000; stroke-width: 1.5"/>
   </g>
   <g id="patch_9">
    <path d="M 575.417864 312.66 
L 575.417864 79.2 
" style="fill: none; stroke: #ffffff; stroke-width: 1.25; stroke-linejoin: miter; stroke-linecap: square"/>
   </g>
   <g id="patch_10">
    <path d="M 575.417864 312.66 
L 825.416796 312.66 
" style="fill: none; stroke: #ffffff; stroke-width: 1.25; stroke-linejoin: miter; stroke-linecap: square"/>
   </g>
   <g id="text_35">
    <!-- fMHz = 300 -->
    <g style="fill: #262626" transform="translate(669.571705 73.2) scale(0.12 -0.12)">
     <use xlink:href="#ArialMT-66"/>
     <use xlink:href="#ArialMT-4d" x="27.783203"/>
     <use xlink:href="#ArialMT-48" x="111.083984"/>
     <use xlink:href="#ArialMT-7a" x="183.300781"/>
     <use xlink:href="#ArialMT-20" x="233.300781"/>
     <use xlink:href="#ArialMT-3d" x="261.083984"/>
     <use xlink:href="#ArialMT-20" x="319.482422"/>
     <use xlink:href="#ArialMT-33" x="347.265625"/>
     <use xlink:href="#ArialMT-30" x="402.880859"/>
     <use xlink:href="#ArialMT-30" x="458.496094"/>
    </g>
   </g>
  </g>
  <g id="axes_4">
   <g id="patch_11">
    <path d="M 838.376796 312.66 
L 1088.375728 312.66 
L 1088.375728 79.2 
L 838.376796 79.2 
z
" style="fill: #eaeaf2"/>
   </g>
   <g id="matplotlib.axis_7">
    <g id="xtick_16">
     <g id="line2d_66">
      <path d="M 838.376796 312.66 
L 838.376796 79.2 
" clip-path="url(#p02cf1bc882)" style="fill: none; stroke: #ffffff; stroke-linecap: round"/>
     </g>
     <g id="text_36">
      <!-- 0 -->
      <g style="fill: #262626" transform="translate(835.318281 330.033594) scale(0.11 -0.11)">
       <use xlink:href="#ArialMT-30"/>
      </g>
     </g>
    </g>
    <g id="xtick_17">
     <g id="line2d_67">
      <path d="M 893.932115 312.66 
L 893.932115 79.2 
" clip-path="url(#p02cf1bc882)" style="fill: none; stroke: #ffffff; stroke-linecap: round"/>
     </g>
     <g id="text_37">
      <!-- 20 -->
      <g style="fill: #262626" transform="translate(887.815083 330.033594) scale(0.11 -0.11)">
       <use xlink:href="#ArialMT-32"/>
       <use xlink:href="#ArialMT-30" x="55.615234"/>
      </g>
     </g>
    </g>
    <g id="xtick_18">
     <g id="line2d_68">
      <path d="M 949.487433 312.66 
L 949.487433 79.2 
" clip-path="url(#p02cf1bc882)" style="fill: none; stroke: #ffffff; stroke-linecap: round"/>
     </g>
     <g id="text_38">
      <!-- 40 -->
      <g style="fill: #262626" transform="translate(943.370402 330.033594) scale(0.11 -0.11)">
       <use xlink:href="#ArialMT-34"/>
       <use xlink:href="#ArialMT-30" x="55.615234"/>
      </g>
     </g>
    </g>
    <g id="xtick_19">
     <g id="line2d_69">
      <path d="M 1005.042751 312.66 
L 1005.042751 79.2 
" clip-path="url(#p02cf1bc882)" style="fill: none; stroke: #ffffff; stroke-linecap: round"/>
     </g>
     <g id="text_39">
      <!-- 60 -->
      <g style="fill: #262626" transform="translate(998.92572 330.033594) scale(0.11 -0.11)">
       <use xlink:href="#ArialMT-36"/>
       <use xlink:href="#ArialMT-30" x="55.615234"/>
      </g>
     </g>
    </g>
    <g id="xtick_20">
     <g id="line2d_70">
      <path d="M 1060.598069 312.66 
L 1060.598069 79.2 
" clip-path="url(#p02cf1bc882)" style="fill: none; stroke: #ffffff; stroke-linecap: round"/>
     </g>
     <g id="text_40">
      <!-- 80 -->
      <g style="fill: #262626" transform="translate(1054.481038 330.033594) scale(0.11 -0.11)">
       <use xlink:href="#ArialMT-38"/>
       <use xlink:href="#ArialMT-30" x="55.615234"/>
      </g>
     </g>
    </g>
    <g id="text_41">
     <!-- $\theta$° -->
     <g style="fill: #262626" transform="translate(957.256262 344.809219) scale(0.12 -0.12)">
      <use xlink:href="#DejaVuSans-Oblique-3b8" transform="translate(0 0.234375)"/>
      <use xlink:href="#ArialMT-b0" transform="translate(61.181641 0.234375)"/>
     </g>
    </g>
   </g>
   <g id="matplotlib.axis_8">
    <g id="ytick_40">
     <g id="line2d_71">
      <path d="M 838.376796 312.66 
L 1088.375728 312.66 
" clip-path="url(#p02cf1bc882)" style="fill: none; stroke: #ffffff; stroke-linecap: round"/>
     </g>
    </g>
    <g id="ytick_41">
     <g id="line2d_72">
      <path d="M 838.376796 293.205 
L 1088.375728 293.205 
" clip-path="url(#p02cf1bc882)" style="fill: none; stroke: #ffffff; stroke-linecap: round"/>
     </g>
    </g>
    <g id="ytick_42">
     <g id="line2d_73">
      <path d="M 838.376796 273.75 
L 1088.375728 273.75 
" clip-path="url(#p02cf1bc882)" style="fill: none; stroke: #ffffff; stroke-linecap: round"/>
     </g>
    </g>
    <g id="ytick_43">
     <g id="line2d_74">
      <path d="M 838.376796 254.295 
L 1088.375728 254.295 
" clip-path="url(#p02cf1bc882)" style="fill: none; stroke: #ffffff; stroke-linecap: round"/>
     </g>
    </g>
    <g id="ytick_44">
     <g id="line2d_75">
      <path d="M 838.376796 234.84 
L 1088.375728 234.84 
" clip-path="url(#p02cf1bc882)" style="fill: none; stroke: #ffffff; stroke-linecap: round"/>
     </g>
    </g>
    <g id="ytick_45">
     <g id="line2d_76">
      <path d="M 838.376796 215.385 
L 1088.375728 215.385 
" clip-path="url(#p02cf1bc882)" style="fill: none; stroke: #ffffff; stroke-linecap: round"/>
     </g>
    </g>
    <g id="ytick_46">
     <g id="line2d_77">
      <path d="M 838.376796 195.93 
L 1088.375728 195.93 
" clip-path="url(#p02cf1bc882)" style="fill: none; stroke: #ffffff; stroke-linecap: round"/>
     </g>
    </g>
    <g id="ytick_47">
     <g id="line2d_78">
      <path d="M 838.376796 176.475 
L 1088.375728 176.475 
" clip-path="url(#p02cf1bc882)" style="fill: none; stroke: #ffffff; stroke-linecap: round"/>
     </g>
    </g>
    <g id="ytick_48">
     <g id="line2d_79">
      <path d="M 838.376796 157.02 
L 1088.375728 157.02 
" clip-path="url(#p02cf1bc882)" style="fill: none; stroke: #ffffff; stroke-linecap: round"/>
     </g>
    </g>
    <g id="ytick_49">
     <g id="line2d_80">
      <path d="M 838.376796 137.565 
L 1088.375728 137.565 
" clip-path="url(#p02cf1bc882)" style="fill: none; stroke: #ffffff; stroke-linecap: round"/>
     </g>
    </g>
    <g id="ytick_50">
     <g id="line2d_81">
      <path d="M 838.376796 118.11 
L 1088.375728 118.11 
" clip-path="url(#p02cf1bc882)" style="fill: none; stroke: #ffffff; stroke-linecap: round"/>
     </g>
    </g>
    <g id="ytick_51">
     <g id="line2d_82">
      <path d="M 838.376796 98.655 
L 1088.375728 98.655 
" clip-path="url(#p02cf1bc882)" style="fill: none; stroke: #ffffff; stroke-linecap: round"/>
     </g>
    </g>
    <g id="ytick_52">
     <g id="line2d_83">
      <path d="M 838.376796 79.2 
L 1088.375728 79.2 
" clip-path="url(#p02cf1bc882)" style="fill: none; stroke: #ffffff; stroke-linecap: round"/>
     </g>
    </g>
   </g>
   <g id="PolyCollection_7"/>
   <g id="PolyCollection_8"/>
   <g id="line2d_84">
    <path d="M 838.376796 255.546632 
L 841.154562 255.540908 
L 843.932328 255.523041 
L 846.710094 255.490976 
L 849.48786 255.441416 
L 852.265626 255.370047 
L 855.043392 255.271914 
L 857.821158 255.142007 
L 860.598924 254.976097 
L 863.376689 254.771871 
L 866.154455 254.530334 
L 868.932221 254.720104 
L 871.709987 254.982419 
L 874.487753 255.23337 
L 877.265519 255.448112 
L 880.043285 255.598684 
L 882.821051 255.65762 
L 885.598817 255.603034 
L 888.376583 255.424739 
L 891.154349 255.130403 
L 893.932115 254.75013 
L 896.70988 254.728094 
L 899.487646 255.251519 
L 902.265412 255.643671 
L 905.043178 255.8028 
L 907.820944 255.660459 
L 910.59871 255.21026 
L 913.376476 254.529406 
L 916.154242 254.918959 
L 918.932008 255.208532 
L 921.709774 255.279586 
L 924.48754 255.110844 
L 927.265305 254.765025 
L 930.043071 254.879819 
L 932.820837 255.659908 
L 935.598603 255.957838 
L 938.376369 255.598116 
L 941.154135 254.67817 
L 943.931901 254.760235 
L 946.709667 254.878714 
L 949.487433 254.811361 
L 952.265199 254.635616 
L 955.042965 255.130962 
L 957.820731 256.034817 
L 960.598496 255.996859 
L 963.376262 254.959241 
L 966.154028 254.523562 
L 968.931794 254.429132 
L 971.70956 254.402247 
L 974.487326 254.551134 
L 977.265092 255.92284 
L 980.042858 256.372544 
L 982.820624 255.320124 
L 985.59839 254.289619 
L 988.376156 253.898522 
L 991.153921 254.031835 
L 993.931687 254.871869 
L 996.709453 256.539887 
L 999.487219 256.389957 
L 1002.264985 254.538117 
L 1005.042751 253.472813 
L 1007.820517 253.320378 
L 1010.598283 254.45062 
L 1013.376049 256.690645 
L 1016.153815 256.990023 
L 1018.931581 254.68866 
L 1021.709346 252.798532 
L 1024.487112 252.565256 
L 1027.264878 254.577584 
L 1030.042644 257.508221 
L 1032.82041 257.373248 
L 1035.598176 254.07998 
L 1038.375942 251.34926 
L 1041.153708 252.06108 
L 1043.931474 256.044013 
L 1046.70924 259.152898 
L 1049.487006 256.970539 
L 1052.264772 251.574404 
L 1055.042537 248.940753 
L 1057.820303 253.144798 
L 1060.598069 260.019619 
L 1063.375835 261.208066 
L 1066.153601 253.762696 
L 1068.931367 244.452174 
L 1071.709133 246.330848 
L 1074.486899 260.386318 
L 1077.264665 270.79366 
L 1080.042431 262.765596 
L 1082.820197 223.688764 
L 1085.597962 124.159916 
L 1085.862548 -1 
" clip-path="url(#p02cf1bc882)" style="fill: none; stroke: #4c72b0; stroke-width: 0.7; stroke-linecap: round"/>
   </g>
   <g id="line2d_85">
    <path d="M 838.376796 255.546632 
L 841.154562 255.540908 
L 843.932328 255.523041 
L 846.710094 255.490976 
L 849.48786 255.441416 
L 852.265626 255.370047 
L 855.043392 255.271914 
L 857.821158 255.142007 
L 860.598924 254.976097 
L 863.376689 254.771871 
L 866.154455 254.530334 
L 868.932221 254.720104 
L 871.709987 254.982419 
L 874.487753 255.23337 
L 877.265519 255.448112 
L 880.043285 255.598684 
L 882.821051 255.65762 
L 885.598817 255.603034 
L 888.376583 255.424739 
L 891.154349 255.130403 
L 893.932115 254.75013 
L 896.70988 254.728094 
L 899.487646 255.251519 
L 902.265412 255.643671 
L 905.043178 255.8028 
L 907.820944 255.660459 
L 910.59871 255.21026 
L 913.376476 254.529406 
L 916.154242 254.918959 
L 918.932008 255.208532 
L 921.709774 255.279586 
L 924.48754 255.110844 
L 927.265305 254.765025 
L 930.043071 254.879819 
L 932.820837 255.659908 
L 935.598603 255.957838 
L 938.376369 255.598116 
L 941.154135 254.67817 
L 943.931901 254.760235 
L 946.709667 254.878714 
L 949.487433 254.811361 
L 952.265199 254.635616 
L 955.042965 255.130962 
L 957.820731 256.034817 
L 960.598496 255.996859 
L 963.376262 254.959241 
L 966.154028 254.523562 
L 968.931794 254.429132 
L 971.70956 254.402247 
L 974.487326 254.551134 
L 977.265092 255.92284 
L 980.042858 256.372544 
L 982.820624 255.320124 
L 985.59839 254.289619 
L 988.376156 253.898522 
L 991.153921 254.031835 
L 993.931687 254.871869 
L 996.709453 256.539887 
L 999.487219 256.389957 
L 1002.264985 254.538117 
L 1005.042751 253.472813 
L 1007.820517 253.320378 
L 1010.598283 254.45062 
L 1013.376049 256.690645 
L 1016.153815 256.990023 
L 1018.931581 254.68866 
L 1021.709346 252.798532 
L 1024.487112 252.565256 
L 1027.264878 254.577584 
L 1030.042644 257.508221 
L 1032.82041 257.373248 
L 1035.598176 254.07998 
L 1038.375942 251.34926 
L 1041.153708 252.06108 
L 1043.931474 256.044013 
L 1046.70924 259.152898 
L 1049.487006 256.970539 
L 1052.264772 251.574404 
L 1055.042537 248.940753 
L 1057.820303 253.144798 
L 1060.598069 260.019619 
L 1063.375835 261.208066 
L 1066.153601 253.762696 
L 1068.931367 244.452174 
L 1071.709133 246.330848 
L 1074.486899 260.386318 
L 1077.264665 270.79366 
L 1080.042431 262.765596 
L 1082.820197 223.688764 
L 1085.597962 124.159916 
L 1085.862548 -1 
" clip-path="url(#p02cf1bc882)" style="fill: none; stroke: #dd8452; stroke-width: 0.7; stroke-linecap: round"/>
   </g>
   <g id="line2d_86">
    <path d="M 838.376796 195.93 
L 1088.375728 195.93 
" clip-path="url(#p02cf1bc882)" style="fill: none; stroke-dasharray: 5.55,2.4; stroke-dashoffset: 0; stroke: #ff0000; stroke-width: 1.5"/>
   </g>
   <g id="patch_12">
    <path d="M 838.376796 312.66 
L 838.376796 79.2 
" style="fill: none; stroke: #ffffff; stroke-width: 1.25; stroke-linejoin: miter; stroke-linecap: square"/>
   </g>
   <g id="patch_13">
    <path d="M 838.376796 312.66 
L 1088.375728 312.66 
" style="fill: none; stroke: #ffffff; stroke-width: 1.25; stroke-linejoin: miter; stroke-linecap: square"/>
   </g>
   <g id="text_42">
    <!-- fMHz = 1000 -->
    <g style="fill: #262626" transform="translate(929.194075 73.2) scale(0.12 -0.12)">
     <use xlink:href="#ArialMT-66"/>
     <use xlink:href="#ArialMT-4d" x="27.783203"/>
     <use xlink:href="#ArialMT-48" x="111.083984"/>
     <use xlink:href="#ArialMT-7a" x="183.300781"/>
     <use xlink:href="#ArialMT-20" x="233.300781"/>
     <use xlink:href="#ArialMT-3d" x="261.083984"/>
     <use xlink:href="#ArialMT-20" x="319.482422"/>
     <use xlink:href="#ArialMT-31" x="347.265625"/>
     <use xlink:href="#ArialMT-30" x="402.880859"/>
     <use xlink:href="#ArialMT-30" x="458.496094"/>
     <use xlink:href="#ArialMT-30" x="514.111328"/>
    </g>
   </g>
  </g>
  <g id="axes_5">
   <g id="patch_14">
    <path d="M 1101.335728 312.66 
L 1351.33466 312.66 
L 1351.33466 79.2 
L 1101.335728 79.2 
z
" style="fill: #eaeaf2"/>
   </g>
   <g id="matplotlib.axis_9">
    <g id="xtick_21">
     <g id="line2d_87">
      <path d="M 1101.335728 312.66 
L 1101.335728 79.2 
" clip-path="url(#pb5b70d9db1)" style="fill: none; stroke: #ffffff; stroke-linecap: round"/>
     </g>
     <g id="text_43">
      <!-- 0 -->
      <g style="fill: #262626" transform="translate(1098.277213 330.033594) scale(0.11 -0.11)">
       <use xlink:href="#ArialMT-30"/>
      </g>
     </g>
    </g>
    <g id="xtick_22">
     <g id="line2d_88">
      <path d="M 1156.891047 312.66 
L 1156.891047 79.2 
" clip-path="url(#pb5b70d9db1)" style="fill: none; stroke: #ffffff; stroke-linecap: round"/>
     </g>
     <g id="text_44">
      <!-- 20 -->
      <g style="fill: #262626" transform="translate(1150.774015 330.033594) scale(0.11 -0.11)">
       <use xlink:href="#ArialMT-32"/>
       <use xlink:href="#ArialMT-30" x="55.615234"/>
      </g>
     </g>
    </g>
    <g id="xtick_23">
     <g id="line2d_89">
      <path d="M 1212.446365 312.66 
L 1212.446365 79.2 
" clip-path="url(#pb5b70d9db1)" style="fill: none; stroke: #ffffff; stroke-linecap: round"/>
     </g>
     <g id="text_45">
      <!-- 40 -->
      <g style="fill: #262626" transform="translate(1206.329334 330.033594) scale(0.11 -0.11)">
       <use xlink:href="#ArialMT-34"/>
       <use xlink:href="#ArialMT-30" x="55.615234"/>
      </g>
     </g>
    </g>
    <g id="xtick_24">
     <g id="line2d_90">
      <path d="M 1268.001683 312.66 
L 1268.001683 79.2 
" clip-path="url(#pb5b70d9db1)" style="fill: none; stroke: #ffffff; stroke-linecap: round"/>
     </g>
     <g id="text_46">
      <!-- 60 -->
      <g style="fill: #262626" transform="translate(1261.884652 330.033594) scale(0.11 -0.11)">
       <use xlink:href="#ArialMT-36"/>
       <use xlink:href="#ArialMT-30" x="55.615234"/>
      </g>
     </g>
    </g>
    <g id="xtick_25">
     <g id="line2d_91">
      <path d="M 1323.557001 312.66 
L 1323.557001 79.2 
" clip-path="url(#pb5b70d9db1)" style="fill: none; stroke: #ffffff; stroke-linecap: round"/>
     </g>
     <g id="text_47">
      <!-- 80 -->
      <g style="fill: #262626" transform="translate(1317.43997 330.033594) scale(0.11 -0.11)">
       <use xlink:href="#ArialMT-38"/>
       <use xlink:href="#ArialMT-30" x="55.615234"/>
      </g>
     </g>
    </g>
    <g id="text_48">
     <!-- $\theta$° -->
     <g style="fill: #262626" transform="translate(1220.215194 344.809219) scale(0.12 -0.12)">
      <use xlink:href="#DejaVuSans-Oblique-3b8" transform="translate(0 0.234375)"/>
      <use xlink:href="#ArialMT-b0" transform="translate(61.181641 0.234375)"/>
     </g>
    </g>
   </g>
   <g id="matplotlib.axis_10">
    <g id="ytick_53">
     <g id="line2d_92">
      <path d="M 1101.335728 312.66 
L 1351.33466 312.66 
" clip-path="url(#pb5b70d9db1)" style="fill: none; stroke: #ffffff; stroke-linecap: round"/>
     </g>
    </g>
    <g id="ytick_54">
     <g id="line2d_93">
      <path d="M 1101.335728 293.205 
L 1351.33466 293.205 
" clip-path="url(#pb5b70d9db1)" style="fill: none; stroke: #ffffff; stroke-linecap: round"/>
     </g>
    </g>
    <g id="ytick_55">
     <g id="line2d_94">
      <path d="M 1101.335728 273.75 
L 1351.33466 273.75 
" clip-path="url(#pb5b70d9db1)" style="fill: none; stroke: #ffffff; stroke-linecap: round"/>
     </g>
    </g>
    <g id="ytick_56">
     <g id="line2d_95">
      <path d="M 1101.335728 254.295 
L 1351.33466 254.295 
" clip-path="url(#pb5b70d9db1)" style="fill: none; stroke: #ffffff; stroke-linecap: round"/>
     </g>
    </g>
    <g id="ytick_57">
     <g id="line2d_96">
      <path d="M 1101.335728 234.84 
L 1351.33466 234.84 
" clip-path="url(#pb5b70d9db1)" style="fill: none; stroke: #ffffff; stroke-linecap: round"/>
     </g>
    </g>
    <g id="ytick_58">
     <g id="line2d_97">
      <path d="M 1101.335728 215.385 
L 1351.33466 215.385 
" clip-path="url(#pb5b70d9db1)" style="fill: none; stroke: #ffffff; stroke-linecap: round"/>
     </g>
    </g>
    <g id="ytick_59">
     <g id="line2d_98">
      <path d="M 1101.335728 195.93 
L 1351.33466 195.93 
" clip-path="url(#pb5b70d9db1)" style="fill: none; stroke: #ffffff; stroke-linecap: round"/>
     </g>
    </g>
    <g id="ytick_60">
     <g id="line2d_99">
      <path d="M 1101.335728 176.475 
L 1351.33466 176.475 
" clip-path="url(#pb5b70d9db1)" style="fill: none; stroke: #ffffff; stroke-linecap: round"/>
     </g>
    </g>
    <g id="ytick_61">
     <g id="line2d_100">
      <path d="M 1101.335728 157.02 
L 1351.33466 157.02 
" clip-path="url(#pb5b70d9db1)" style="fill: none; stroke: #ffffff; stroke-linecap: round"/>
     </g>
    </g>
    <g id="ytick_62">
     <g id="line2d_101">
      <path d="M 1101.335728 137.565 
L 1351.33466 137.565 
" clip-path="url(#pb5b70d9db1)" style="fill: none; stroke: #ffffff; stroke-linecap: round"/>
     </g>
    </g>
    <g id="ytick_63">
     <g id="line2d_102">
      <path d="M 1101.335728 118.11 
L 1351.33466 118.11 
" clip-path="url(#pb5b70d9db1)" style="fill: none; stroke: #ffffff; stroke-linecap: round"/>
     </g>
    </g>
    <g id="ytick_64">
     <g id="line2d_103">
      <path d="M 1101.335728 98.655 
L 1351.33466 98.655 
" clip-path="url(#pb5b70d9db1)" style="fill: none; stroke: #ffffff; stroke-linecap: round"/>
     </g>
    </g>
    <g id="ytick_65">
     <g id="line2d_104">
      <path d="M 1101.335728 79.2 
L 1351.33466 79.2 
" clip-path="url(#pb5b70d9db1)" style="fill: none; stroke: #ffffff; stroke-linecap: round"/>
     </g>
    </g>
   </g>
   <g id="PolyCollection_9"/>
   <g id="PolyCollection_10"/>
   <g id="line2d_105">
    <path d="M 1101.335728 254.614035 
L 1104.113494 254.601258 
L 1106.89126 254.56278 
L 1109.669026 254.498889 
L 1112.446792 254.57949 
L 1115.224558 254.681634 
L 1118.002324 254.780738 
L 1120.78009 254.847542 
L 1123.557856 254.844847 
L 1126.335622 254.740315 
L 1129.113388 254.529568 
L 1131.891153 254.715842 
L 1134.668919 254.907158 
L 1137.446685 254.924002 
L 1140.224451 254.719779 
L 1143.002217 254.618168 
L 1145.779983 254.862813 
L 1148.557749 254.741181 
L 1151.335515 254.655827 
L 1154.113281 254.900285 
L 1156.891047 254.7412 
L 1159.668813 254.709532 
L 1162.446578 254.85565 
L 1165.224344 254.602417 
L 1168.00211 254.86339 
L 1170.779876 254.597671 
L 1173.557642 254.890856 
L 1176.335408 254.528739 
L 1179.113174 254.81826 
L 1181.89094 254.567413 
L 1184.668706 254.915115 
L 1187.446472 254.629147 
L 1190.224238 254.736235 
L 1193.002003 254.827193 
L 1195.779769 254.583826 
L 1198.557535 254.729602 
L 1201.335301 254.722469 
L 1204.113067 254.670416 
L 1206.890833 254.683964 
L 1209.668599 254.78933 
L 1212.446365 254.538882 
L 1215.224131 254.623021 
L 1218.001897 254.974093 
L 1220.779663 254.575257 
L 1223.557429 254.560289 
L 1226.335194 254.898182 
L 1229.11296 254.534777 
L 1231.890726 254.955433 
L 1234.668492 254.5268 
L 1237.446258 254.551158 
L 1240.224024 254.76133 
L 1243.00179 254.442465 
L 1245.779556 255.097986 
L 1248.557322 254.365009 
L 1251.335088 255.074805 
L 1254.112854 254.37005 
L 1256.890619 254.849757 
L 1259.668385 254.441278 
L 1262.446151 254.622773 
L 1265.223917 254.538122 
L 1268.001683 254.52666 
L 1270.779449 254.626621 
L 1273.557215 254.451334 
L 1276.334981 254.68352 
L 1279.112747 254.417723 
L 1281.890513 254.687804 
L 1284.668279 254.449566 
L 1287.446045 254.612313 
L 1290.22381 254.57759 
L 1293.001576 254.42337 
L 1295.779342 254.833486 
L 1298.557108 254.095392 
L 1301.334874 255.261162 
L 1304.11264 253.644862 
L 1306.890406 255.7751 
L 1309.668172 253.179298 
L 1312.445938 256.152838 
L 1315.223704 252.933871 
L 1318.00147 256.108344 
L 1320.779235 253.243867 
L 1323.557001 255.39602 
L 1326.334767 254.405527 
L 1329.112533 253.771441 
L 1331.890299 256.45649 
L 1334.668065 251.273999 
L 1337.445831 259.024674 
L 1340.223597 248.407007 
L 1343.001363 261.401643 
L 1345.779129 246.061116 
L 1348.556895 262.829702 
L 1349.061385 -1 
" clip-path="url(#pb5b70d9db1)" style="fill: none; stroke: #4c72b0; stroke-width: 0.7; stroke-linecap: round"/>
   </g>
   <g id="line2d_106">
    <path d="M 1101.335728 254.614035 
L 1104.113494 254.601258 
L 1106.89126 254.56278 
L 1109.669026 254.498889 
L 1112.446792 254.57949 
L 1115.224558 254.681634 
L 1118.002324 254.780738 
L 1120.78009 254.847542 
L 1123.557856 254.844847 
L 1126.335622 254.740315 
L 1129.113388 254.529568 
L 1131.891153 254.715842 
L 1134.668919 254.907158 
L 1137.446685 254.924002 
L 1140.224451 254.719779 
L 1143.002217 254.618168 
L 1145.779983 254.862813 
L 1148.557749 254.741181 
L 1151.335515 254.655827 
L 1154.113281 254.900285 
L 1156.891047 254.7412 
L 1159.668813 254.709532 
L 1162.446578 254.85565 
L 1165.224344 254.602417 
L 1168.00211 254.86339 
L 1170.779876 254.597671 
L 1173.557642 254.890856 
L 1176.335408 254.528739 
L 1179.113174 254.81826 
L 1181.89094 254.567413 
L 1184.668706 254.915115 
L 1187.446472 254.629147 
L 1190.224238 254.736235 
L 1193.002003 254.827193 
L 1195.779769 254.583826 
L 1198.557535 254.729602 
L 1201.335301 254.722469 
L 1204.113067 254.670416 
L 1206.890833 254.683964 
L 1209.668599 254.78933 
L 1212.446365 254.538882 
L 1215.224131 254.623021 
L 1218.001897 254.974093 
L 1220.779663 254.575257 
L 1223.557429 254.560289 
L 1226.335194 254.898182 
L 1229.11296 254.534777 
L 1231.890726 254.955433 
L 1234.668492 254.5268 
L 1237.446258 254.551158 
L 1240.224024 254.76133 
L 1243.00179 254.442465 
L 1245.779556 255.097986 
L 1248.557322 254.365009 
L 1251.335088 255.074805 
L 1254.112854 254.37005 
L 1256.890619 254.849757 
L 1259.668385 254.441278 
L 1262.446151 254.622773 
L 1265.223917 254.538122 
L 1268.001683 254.52666 
L 1270.779449 254.626621 
L 1273.557215 254.451334 
L 1276.334981 254.68352 
L 1279.112747 254.417723 
L 1281.890513 254.687804 
L 1284.668279 254.449566 
L 1287.446045 254.612313 
L 1290.22381 254.57759 
L 1293.001576 254.42337 
L 1295.779342 254.833486 
L 1298.557108 254.095392 
L 1301.334874 255.261162 
L 1304.11264 253.644862 
L 1306.890406 255.7751 
L 1309.668172 253.179298 
L 1312.445938 256.152838 
L 1315.223704 252.933871 
L 1318.00147 256.108344 
L 1320.779235 253.243867 
L 1323.557001 255.39602 
L 1326.334767 254.405527 
L 1329.112533 253.771441 
L 1331.890299 256.45649 
L 1334.668065 251.273999 
L 1337.445831 259.024674 
L 1340.223597 248.407007 
L 1343.001363 261.401643 
L 1345.779129 246.061116 
L 1348.556895 262.829702 
L 1349.061385 -1 
" clip-path="url(#pb5b70d9db1)" style="fill: none; stroke: #dd8452; stroke-width: 0.7; stroke-linecap: round"/>
   </g>
   <g id="line2d_107">
    <path d="M 1101.335728 195.93 
L 1351.33466 195.93 
" clip-path="url(#pb5b70d9db1)" style="fill: none; stroke-dasharray: 5.55,2.4; stroke-dashoffset: 0; stroke: #ff0000; stroke-width: 1.5"/>
   </g>
   <g id="patch_15">
    <path d="M 1101.335728 312.66 
L 1101.335728 79.2 
" style="fill: none; stroke: #ffffff; stroke-width: 1.25; stroke-linejoin: miter; stroke-linecap: square"/>
   </g>
   <g id="patch_16">
    <path d="M 1101.335728 312.66 
L 1351.33466 312.66 
" style="fill: none; stroke: #ffffff; stroke-width: 1.25; stroke-linejoin: miter; stroke-linecap: square"/>
   </g>
   <g id="text_49">
    <!-- kind = S0 -->
    <g style="fill: #262626" transform="translate(1358.719639 170.746875) rotate(-270) scale(0.12 -0.12)">
     <defs>
      <path id="ArialMT-6b" d="M 425 0 
L 425 4581 
L 988 4581 
L 988 1969 
L 2319 3319 
L 3047 3319 
L 1778 2088 
L 3175 0 
L 2481 0 
L 1384 1697 
L 988 1316 
L 988 0 
L 425 0 
z
" transform="scale(0.015625)"/>
      <path id="ArialMT-69" d="M 425 3934 
L 425 4581 
L 988 4581 
L 988 3934 
L 425 3934 
z
M 425 0 
L 425 3319 
L 988 3319 
L 988 0 
L 425 0 
z
" transform="scale(0.015625)"/>
      <path id="ArialMT-6e" d="M 422 0 
L 422 3319 
L 928 3319 
L 928 2847 
Q 1294 3394 1984 3394 
Q 2284 3394 2536 3286 
Q 2788 3178 2913 3003 
Q 3038 2828 3088 2588 
Q 3119 2431 3119 2041 
L 3119 0 
L 2556 0 
L 2556 2019 
Q 2556 2363 2490 2533 
Q 2425 2703 2258 2804 
Q 2091 2906 1866 2906 
Q 1506 2906 1245 2678 
Q 984 2450 984 1813 
L 984 0 
L 422 0 
z
" transform="scale(0.015625)"/>
      <path id="ArialMT-53" d="M 288 1472 
L 859 1522 
Q 900 1178 1048 958 
Q 1197 738 1509 602 
Q 1822 466 2213 466 
Q 2559 466 2825 569 
Q 3091 672 3220 851 
Q 3350 1031 3350 1244 
Q 3350 1459 3225 1620 
Q 3100 1781 2813 1891 
Q 2628 1963 1997 2114 
Q 1366 2266 1113 2400 
Q 784 2572 623 2826 
Q 463 3081 463 3397 
Q 463 3744 659 4045 
Q 856 4347 1234 4503 
Q 1613 4659 2075 4659 
Q 2584 4659 2973 4495 
Q 3363 4331 3572 4012 
Q 3781 3694 3797 3291 
L 3216 3247 
Q 3169 3681 2898 3903 
Q 2628 4125 2100 4125 
Q 1550 4125 1298 3923 
Q 1047 3722 1047 3438 
Q 1047 3191 1225 3031 
Q 1400 2872 2139 2705 
Q 2878 2538 3153 2413 
Q 3553 2228 3743 1945 
Q 3934 1663 3934 1294 
Q 3934 928 3725 604 
Q 3516 281 3123 101 
Q 2731 -78 2241 -78 
Q 1619 -78 1198 103 
Q 778 284 539 648 
Q 300 1013 288 1472 
z
" transform="scale(0.015625)"/>
     </defs>
     <use xlink:href="#ArialMT-6b"/>
     <use xlink:href="#ArialMT-69" x="50"/>
     <use xlink:href="#ArialMT-6e" x="72.216797"/>
     <use xlink:href="#ArialMT-64" x="127.832031"/>
     <use xlink:href="#ArialMT-20" x="183.447266"/>
     <use xlink:href="#ArialMT-3d" x="211.230469"/>
     <use xlink:href="#ArialMT-20" x="269.628906"/>
     <use xlink:href="#ArialMT-53" x="297.412109"/>
     <use xlink:href="#ArialMT-30" x="364.111328"/>
    </g>
   </g>
   <g id="text_50">
    <!-- fMHz = 3000 -->
    <g style="fill: #262626" transform="translate(1192.153007 73.2) scale(0.12 -0.12)">
     <use xlink:href="#ArialMT-66"/>
     <use xlink:href="#ArialMT-4d" x="27.783203"/>
     <use xlink:href="#ArialMT-48" x="111.083984"/>
     <use xlink:href="#ArialMT-7a" x="183.300781"/>
     <use xlink:href="#ArialMT-20" x="233.300781"/>
     <use xlink:href="#ArialMT-3d" x="261.083984"/>
     <use xlink:href="#ArialMT-20" x="319.482422"/>
     <use xlink:href="#ArialMT-33" x="347.265625"/>
     <use xlink:href="#ArialMT-30" x="402.880859"/>
     <use xlink:href="#ArialMT-30" x="458.496094"/>
     <use xlink:href="#ArialMT-30" x="514.111328"/>
    </g>
   </g>
  </g>
  <g id="text_51">
   <!-- dB(err) for PEC ground, TE polarisation, 1 averaging point -->
   <g style="fill: #0000ff" transform="translate(515.960156 20.303437) scale(0.18 -0.18)">
    <defs>
     <path id="ArialMT-6f" d="M 213 1659 
Q 213 2581 725 3025 
Q 1153 3394 1769 3394 
Q 2453 3394 2887 2945 
Q 3322 2497 3322 1706 
Q 3322 1066 3130 698 
Q 2938 331 2570 128 
Q 2203 -75 1769 -75 
Q 1072 -75 642 372 
Q 213 819 213 1659 
z
M 791 1659 
Q 791 1022 1069 705 
Q 1347 388 1769 388 
Q 2188 388 2466 706 
Q 2744 1025 2744 1678 
Q 2744 2294 2464 2611 
Q 2184 2928 1769 2928 
Q 1347 2928 1069 2612 
Q 791 2297 791 1659 
z
" transform="scale(0.015625)"/>
     <path id="ArialMT-50" d="M 494 0 
L 494 4581 
L 2222 4581 
Q 2678 4581 2919 4538 
Q 3256 4481 3484 4323 
Q 3713 4166 3852 3881 
Q 3991 3597 3991 3256 
Q 3991 2672 3619 2267 
Q 3247 1863 2275 1863 
L 1100 1863 
L 1100 0 
L 494 0 
z
M 1100 2403 
L 2284 2403 
Q 2872 2403 3119 2622 
Q 3366 2841 3366 3238 
Q 3366 3525 3220 3729 
Q 3075 3934 2838 4000 
Q 2684 4041 2272 4041 
L 1100 4041 
L 1100 2403 
z
" transform="scale(0.015625)"/>
     <path id="ArialMT-45" d="M 506 0 
L 506 4581 
L 3819 4581 
L 3819 4041 
L 1113 4041 
L 1113 2638 
L 3647 2638 
L 3647 2100 
L 1113 2100 
L 1113 541 
L 3925 541 
L 3925 0 
L 506 0 
z
" transform="scale(0.015625)"/>
     <path id="ArialMT-43" d="M 3763 1606 
L 4369 1453 
Q 4178 706 3683 314 
Q 3188 -78 2472 -78 
Q 1731 -78 1267 223 
Q 803 525 561 1097 
Q 319 1669 319 2325 
Q 319 3041 592 3573 
Q 866 4106 1370 4382 
Q 1875 4659 2481 4659 
Q 3169 4659 3637 4309 
Q 4106 3959 4291 3325 
L 3694 3184 
Q 3534 3684 3231 3912 
Q 2928 4141 2469 4141 
Q 1941 4141 1586 3887 
Q 1231 3634 1087 3207 
Q 944 2781 944 2328 
Q 944 1744 1114 1308 
Q 1284 872 1643 656 
Q 2003 441 2422 441 
Q 2931 441 3284 734 
Q 3638 1028 3763 1606 
z
" transform="scale(0.015625)"/>
     <path id="ArialMT-67" d="M 319 -275 
L 866 -356 
Q 900 -609 1056 -725 
Q 1266 -881 1628 -881 
Q 2019 -881 2231 -725 
Q 2444 -569 2519 -288 
Q 2563 -116 2559 434 
Q 2191 0 1641 0 
Q 956 0 581 494 
Q 206 988 206 1678 
Q 206 2153 378 2554 
Q 550 2956 876 3175 
Q 1203 3394 1644 3394 
Q 2231 3394 2613 2919 
L 2613 3319 
L 3131 3319 
L 3131 450 
Q 3131 -325 2973 -648 
Q 2816 -972 2473 -1159 
Q 2131 -1347 1631 -1347 
Q 1038 -1347 672 -1080 
Q 306 -813 319 -275 
z
M 784 1719 
Q 784 1066 1043 766 
Q 1303 466 1694 466 
Q 2081 466 2343 764 
Q 2606 1063 2606 1700 
Q 2606 2309 2336 2618 
Q 2066 2928 1684 2928 
Q 1309 2928 1046 2623 
Q 784 2319 784 1719 
z
" transform="scale(0.015625)"/>
     <path id="ArialMT-75" d="M 2597 0 
L 2597 488 
Q 2209 -75 1544 -75 
Q 1250 -75 995 37 
Q 741 150 617 320 
Q 494 491 444 738 
Q 409 903 409 1263 
L 409 3319 
L 972 3319 
L 972 1478 
Q 972 1038 1006 884 
Q 1059 663 1231 536 
Q 1403 409 1656 409 
Q 1909 409 2131 539 
Q 2353 669 2445 892 
Q 2538 1116 2538 1541 
L 2538 3319 
L 3100 3319 
L 3100 0 
L 2597 0 
z
" transform="scale(0.015625)"/>
     <path id="ArialMT-2c" d="M 569 0 
L 569 641 
L 1209 641 
L 1209 0 
Q 1209 -353 1084 -570 
Q 959 -788 688 -906 
L 531 -666 
Q 709 -588 793 -436 
Q 878 -284 888 0 
L 569 0 
z
" transform="scale(0.015625)"/>
     <path id="ArialMT-54" d="M 1659 0 
L 1659 4041 
L 150 4041 
L 150 4581 
L 3781 4581 
L 3781 4041 
L 2266 4041 
L 2266 0 
L 1659 0 
z
" transform="scale(0.015625)"/>
     <path id="ArialMT-70" d="M 422 -1272 
L 422 3319 
L 934 3319 
L 934 2888 
Q 1116 3141 1344 3267 
Q 1572 3394 1897 3394 
Q 2322 3394 2647 3175 
Q 2972 2956 3137 2557 
Q 3303 2159 3303 1684 
Q 3303 1175 3120 767 
Q 2938 359 2589 142 
Q 2241 -75 1856 -75 
Q 1575 -75 1351 44 
Q 1128 163 984 344 
L 984 -1272 
L 422 -1272 
z
M 931 1641 
Q 931 1000 1190 694 
Q 1450 388 1819 388 
Q 2194 388 2461 705 
Q 2728 1022 2728 1688 
Q 2728 2322 2467 2637 
Q 2206 2953 1844 2953 
Q 1484 2953 1207 2617 
Q 931 2281 931 1641 
z
" transform="scale(0.015625)"/>
     <path id="ArialMT-6c" d="M 409 0 
L 409 4581 
L 972 4581 
L 972 0 
L 409 0 
z
" transform="scale(0.015625)"/>
     <path id="ArialMT-61" d="M 2588 409 
Q 2275 144 1986 34 
Q 1697 -75 1366 -75 
Q 819 -75 525 192 
Q 231 459 231 875 
Q 231 1119 342 1320 
Q 453 1522 633 1644 
Q 813 1766 1038 1828 
Q 1203 1872 1538 1913 
Q 2219 1994 2541 2106 
Q 2544 2222 2544 2253 
Q 2544 2597 2384 2738 
Q 2169 2928 1744 2928 
Q 1347 2928 1158 2789 
Q 969 2650 878 2297 
L 328 2372 
Q 403 2725 575 2942 
Q 747 3159 1072 3276 
Q 1397 3394 1825 3394 
Q 2250 3394 2515 3294 
Q 2781 3194 2906 3042 
Q 3031 2891 3081 2659 
Q 3109 2516 3109 2141 
L 3109 1391 
Q 3109 606 3145 398 
Q 3181 191 3288 0 
L 2700 0 
Q 2613 175 2588 409 
z
M 2541 1666 
Q 2234 1541 1622 1453 
Q 1275 1403 1131 1340 
Q 988 1278 909 1158 
Q 831 1038 831 891 
Q 831 666 1001 516 
Q 1172 366 1500 366 
Q 1825 366 2078 508 
Q 2331 650 2450 897 
Q 2541 1088 2541 1459 
L 2541 1666 
z
" transform="scale(0.015625)"/>
     <path id="ArialMT-73" d="M 197 991 
L 753 1078 
Q 800 744 1014 566 
Q 1228 388 1613 388 
Q 2000 388 2187 545 
Q 2375 703 2375 916 
Q 2375 1106 2209 1216 
Q 2094 1291 1634 1406 
Q 1016 1563 777 1677 
Q 538 1791 414 1992 
Q 291 2194 291 2438 
Q 291 2659 392 2848 
Q 494 3038 669 3163 
Q 800 3259 1026 3326 
Q 1253 3394 1513 3394 
Q 1903 3394 2198 3281 
Q 2494 3169 2634 2976 
Q 2775 2784 2828 2463 
L 2278 2388 
Q 2241 2644 2061 2787 
Q 1881 2931 1553 2931 
Q 1166 2931 1000 2803 
Q 834 2675 834 2503 
Q 834 2394 903 2306 
Q 972 2216 1119 2156 
Q 1203 2125 1616 2013 
Q 2213 1853 2448 1751 
Q 2684 1650 2818 1456 
Q 2953 1263 2953 975 
Q 2953 694 2789 445 
Q 2625 197 2315 61 
Q 2006 -75 1616 -75 
Q 969 -75 630 194 
Q 291 463 197 991 
z
" transform="scale(0.015625)"/>
     <path id="ArialMT-74" d="M 1650 503 
L 1731 6 
Q 1494 -44 1306 -44 
Q 1000 -44 831 53 
Q 663 150 594 308 
Q 525 466 525 972 
L 525 2881 
L 113 2881 
L 113 3319 
L 525 3319 
L 525 4141 
L 1084 4478 
L 1084 3319 
L 1650 3319 
L 1650 2881 
L 1084 2881 
L 1084 941 
Q 1084 700 1114 631 
Q 1144 563 1211 522 
Q 1278 481 1403 481 
Q 1497 481 1650 503 
z
" transform="scale(0.015625)"/>
     <path id="ArialMT-76" d="M 1344 0 
L 81 3319 
L 675 3319 
L 1388 1331 
Q 1503 1009 1600 663 
Q 1675 925 1809 1294 
L 2547 3319 
L 3125 3319 
L 1869 0 
L 1344 0 
z
" transform="scale(0.015625)"/>
    </defs>
    <use xlink:href="#ArialMT-64"/>
    <use xlink:href="#ArialMT-42" x="55.615234"/>
    <use xlink:href="#ArialMT-28" x="122.314453"/>
    <use xlink:href="#ArialMT-65" x="155.615234"/>
    <use xlink:href="#ArialMT-72" x="211.230469"/>
    <use xlink:href="#ArialMT-72" x="244.53125"/>
    <use xlink:href="#ArialMT-29" x="277.832031"/>
    <use xlink:href="#ArialMT-20" x="311.132812"/>
    <use xlink:href="#ArialMT-66" x="338.916016"/>
    <use xlink:href="#ArialMT-6f" x="366.699219"/>
    <use xlink:href="#ArialMT-72" x="422.314453"/>
    <use xlink:href="#ArialMT-20" x="455.615234"/>
    <use xlink:href="#ArialMT-50" x="483.398438"/>
    <use xlink:href="#ArialMT-45" x="550.097656"/>
    <use xlink:href="#ArialMT-43" x="616.796875"/>
    <use xlink:href="#ArialMT-20" x="689.013672"/>
    <use xlink:href="#ArialMT-67" x="716.796875"/>
    <use xlink:href="#ArialMT-72" x="772.412109"/>
    <use xlink:href="#ArialMT-6f" x="805.712891"/>
    <use xlink:href="#ArialMT-75" x="861.328125"/>
    <use xlink:href="#ArialMT-6e" x="916.943359"/>
    <use xlink:href="#ArialMT-64" x="972.558594"/>
    <use xlink:href="#ArialMT-2c" x="1028.173828"/>
    <use xlink:href="#ArialMT-20" x="1055.957031"/>
    <use xlink:href="#ArialMT-54" x="1081.990234"/>
    <use xlink:href="#ArialMT-45" x="1143.074219"/>
    <use xlink:href="#ArialMT-20" x="1209.773438"/>
    <use xlink:href="#ArialMT-70" x="1237.556641"/>
    <use xlink:href="#ArialMT-6f" x="1293.171875"/>
    <use xlink:href="#ArialMT-6c" x="1348.787109"/>
    <use xlink:href="#ArialMT-61" x="1371.003906"/>
    <use xlink:href="#ArialMT-72" x="1426.619141"/>
    <use xlink:href="#ArialMT-69" x="1459.919922"/>
    <use xlink:href="#ArialMT-73" x="1482.136719"/>
    <use xlink:href="#ArialMT-61" x="1532.136719"/>
    <use xlink:href="#ArialMT-74" x="1587.751953"/>
    <use xlink:href="#ArialMT-69" x="1615.535156"/>
    <use xlink:href="#ArialMT-6f" x="1637.751953"/>
    <use xlink:href="#ArialMT-6e" x="1693.367188"/>
    <use xlink:href="#ArialMT-2c" x="1748.982422"/>
    <use xlink:href="#ArialMT-20" x="1776.765625"/>
    <use xlink:href="#ArialMT-31" x="1804.548828"/>
    <use xlink:href="#ArialMT-20" x="1860.164062"/>
    <use xlink:href="#ArialMT-61" x="1887.947266"/>
    <use xlink:href="#ArialMT-76" x="1943.5625"/>
    <use xlink:href="#ArialMT-65" x="1993.5625"/>
    <use xlink:href="#ArialMT-72" x="2049.177734"/>
    <use xlink:href="#ArialMT-61" x="2082.478516"/>
    <use xlink:href="#ArialMT-67" x="2138.09375"/>
    <use xlink:href="#ArialMT-69" x="2193.708984"/>
    <use xlink:href="#ArialMT-6e" x="2215.925781"/>
    <use xlink:href="#ArialMT-67" x="2271.541016"/>
    <use xlink:href="#ArialMT-20" x="2327.15625"/>
    <use xlink:href="#ArialMT-70" x="2354.939453"/>
    <use xlink:href="#ArialMT-6f" x="2410.554688"/>
    <use xlink:href="#ArialMT-69" x="2466.169922"/>
    <use xlink:href="#ArialMT-6e" x="2488.386719"/>
    <use xlink:href="#ArialMT-74" x="2544.001953"/>
   </g>
  </g>
  <g id="legend_1">
   <g id="text_52">
    <!-- Si -->
    <g style="fill: #262626" transform="translate(1456.533984 167.542344) scale(0.12 -0.12)">
     <use xlink:href="#ArialMT-53"/>
     <use xlink:href="#ArialMT-69" x="66.699219"/>
    </g>
   </g>
   <g id="line2d_108">
    <path d="M 1438.828594 179.450938 
L 1449.828594 179.450938 
L 1460.828594 179.450938 
" style="fill: none; stroke: #4c72b0; stroke-width: 0.7; stroke-linecap: round"/>
   </g>
   <g id="text_53">
    <!-- SE -->
    <g style="fill: #262626" transform="translate(1469.628594 183.300938) scale(0.11 -0.11)">
     <use xlink:href="#ArialMT-53"/>
     <use xlink:href="#ArialMT-45" x="66.699219"/>
    </g>
   </g>
   <g id="line2d_109">
    <path d="M 1438.828594 195.010781 
L 1449.828594 195.010781 
L 1460.828594 195.010781 
" style="fill: none; stroke: #dd8452; stroke-width: 0.7; stroke-linecap: round"/>
   </g>
   <g id="text_54">
    <!-- SH -->
    <g style="fill: #262626" transform="translate(1469.628594 198.860781) scale(0.11 -0.11)">
     <use xlink:href="#ArialMT-53"/>
     <use xlink:href="#ArialMT-48" x="66.699219"/>
    </g>
   </g>
  </g>
 </g>
 <defs>
  <clipPath id="paba9d6b85c">
   <rect x="49.5" y="79.2" width="249.998932" height="233.46"/>
  </clipPath>
  <clipPath id="pce8627cae7">
   <rect x="312.458932" y="79.2" width="249.998932" height="233.46"/>
  </clipPath>
  <clipPath id="pedebcfe141">
   <rect x="575.417864" y="79.2" width="249.998932" height="233.46"/>
  </clipPath>
  <clipPath id="p02cf1bc882">
   <rect x="838.376796" y="79.2" width="249.998932" height="233.46"/>
  </clipPath>
  <clipPath id="pb5b70d9db1">
   <rect x="1101.335728" y="79.2" width="249.998932" height="233.46"/>
  </clipPath>
 </defs>
</svg>
