<?xml version="1.0" encoding="utf-8" standalone="no"?>
<!DOCTYPE svg PUBLIC "-//W3C//DTD SVG 1.1//EN"
  "http://www.w3.org/Graphics/SVG/1.1/DTD/svg11.dtd">
<svg xmlns:xlink="http://www.w3.org/1999/xlink" width="576pt" height="360pt" viewBox="0 0 576 360" xmlns="http://www.w3.org/2000/svg" version="1.1">
 <metadata>
  <rdf:RDF xmlns:dc="http://purl.org/dc/elements/1.1/" xmlns:cc="http://creativecommons.org/ns#" xmlns:rdf="http://www.w3.org/1999/02/22-rdf-syntax-ns#">
   <cc:Work>
    <dc:type rdf:resource="http://purl.org/dc/dcmitype/StillImage"/>
    <dc:date>2023-07-03T15:41:07.240425</dc:date>
    <dc:format>image/svg+xml</dc:format>
    <dc:creator>
     <cc:Agent>
      <dc:title>Matplotlib v3.7.1, https://matplotlib.org/</dc:title>
     </cc:Agent>
    </dc:creator>
   </cc:Work>
  </rdf:RDF>
 </metadata>
 <defs>
  <style type="text/css">*{stroke-linejoin: round; stroke-linecap: butt}</style>
 </defs>
 <g id="figure_1">
  <g id="patch_1">
   <path d="M 0 360 
L 576 360 
L 576 0 
L 0 0 
z
" style="fill: #ffffff"/>
  </g>
  <g id="axes_1">
   <g id="patch_2">
    <path d="M 72 320.4 
L 274.909091 320.4 
L 274.909091 43.2 
L 72 43.2 
z
" style="fill: #eaeaf2"/>
   </g>
   <g id="matplotlib.axis_1">
    <g id="xtick_1">
     <g id="line2d_1">
      <path d="M 72 320.4 
L 72 43.2 
" clip-path="url(#pd88d733ef7)" style="fill: none; stroke: #ffffff; stroke-linecap: round"/>
     </g>
     <g id="text_1">
      <!-- 0 -->
      <g style="fill: #262626" transform="translate(68.941484 337.773594) scale(0.11 -0.11)">
       <defs>
        <path id="ArialMT-30" d="M 266 2259 
Q 266 3072 433 3567 
Q 600 4063 929 4331 
Q 1259 4600 1759 4600 
Q 2128 4600 2406 4451 
Q 2684 4303 2865 4023 
Q 3047 3744 3150 3342 
Q 3253 2941 3253 2259 
Q 3253 1453 3087 958 
Q 2922 463 2592 192 
Q 2263 -78 1759 -78 
Q 1097 -78 719 397 
Q 266 969 266 2259 
z
M 844 2259 
Q 844 1131 1108 757 
Q 1372 384 1759 384 
Q 2147 384 2411 759 
Q 2675 1134 2675 2259 
Q 2675 3391 2411 3762 
Q 2147 4134 1753 4134 
Q 1366 4134 1134 3806 
Q 844 3388 844 2259 
z
" transform="scale(0.015625)"/>
       </defs>
       <use xlink:href="#ArialMT-30"/>
      </g>
     </g>
    </g>
    <g id="xtick_2">
     <g id="line2d_2">
      <path d="M 122.727273 320.4 
L 122.727273 43.2 
" clip-path="url(#pd88d733ef7)" style="fill: none; stroke: #ffffff; stroke-linecap: round"/>
     </g>
     <g id="text_2">
      <!-- 20 -->
      <g style="fill: #262626" transform="translate(116.610241 337.773594) scale(0.11 -0.11)">
       <defs>
        <path id="ArialMT-32" d="M 3222 541 
L 3222 0 
L 194 0 
Q 188 203 259 391 
Q 375 700 629 1000 
Q 884 1300 1366 1694 
Q 2113 2306 2375 2664 
Q 2638 3022 2638 3341 
Q 2638 3675 2398 3904 
Q 2159 4134 1775 4134 
Q 1369 4134 1125 3890 
Q 881 3647 878 3216 
L 300 3275 
Q 359 3922 746 4261 
Q 1134 4600 1788 4600 
Q 2447 4600 2831 4234 
Q 3216 3869 3216 3328 
Q 3216 3053 3103 2787 
Q 2991 2522 2730 2228 
Q 2469 1934 1863 1422 
Q 1356 997 1212 845 
Q 1069 694 975 541 
L 3222 541 
z
" transform="scale(0.015625)"/>
       </defs>
       <use xlink:href="#ArialMT-32"/>
       <use xlink:href="#ArialMT-30" x="55.615234"/>
      </g>
     </g>
    </g>
    <g id="xtick_3">
     <g id="line2d_3">
      <path d="M 173.454545 320.4 
L 173.454545 43.2 
" clip-path="url(#pd88d733ef7)" style="fill: none; stroke: #ffffff; stroke-linecap: round"/>
     </g>
     <g id="text_3">
      <!-- 40 -->
      <g style="fill: #262626" transform="translate(167.337514 337.773594) scale(0.11 -0.11)">
       <defs>
        <path id="ArialMT-34" d="M 2069 0 
L 2069 1097 
L 81 1097 
L 81 1613 
L 2172 4581 
L 2631 4581 
L 2631 1613 
L 3250 1613 
L 3250 1097 
L 2631 1097 
L 2631 0 
L 2069 0 
z
M 2069 1613 
L 2069 3678 
L 634 1613 
L 2069 1613 
z
" transform="scale(0.015625)"/>
       </defs>
       <use xlink:href="#ArialMT-34"/>
       <use xlink:href="#ArialMT-30" x="55.615234"/>
      </g>
     </g>
    </g>
    <g id="xtick_4">
     <g id="line2d_4">
      <path d="M 224.181818 320.4 
L 224.181818 43.2 
" clip-path="url(#pd88d733ef7)" style="fill: none; stroke: #ffffff; stroke-linecap: round"/>
     </g>
     <g id="text_4">
      <!-- 60 -->
      <g style="fill: #262626" transform="translate(218.064787 337.773594) scale(0.11 -0.11)">
       <defs>
        <path id="ArialMT-36" d="M 3184 3459 
L 2625 3416 
Q 2550 3747 2413 3897 
Q 2184 4138 1850 4138 
Q 1581 4138 1378 3988 
Q 1113 3794 959 3422 
Q 806 3050 800 2363 
Q 1003 2672 1297 2822 
Q 1591 2972 1913 2972 
Q 2475 2972 2870 2558 
Q 3266 2144 3266 1488 
Q 3266 1056 3080 686 
Q 2894 316 2569 119 
Q 2244 -78 1831 -78 
Q 1128 -78 684 439 
Q 241 956 241 2144 
Q 241 3472 731 4075 
Q 1159 4600 1884 4600 
Q 2425 4600 2770 4297 
Q 3116 3994 3184 3459 
z
M 888 1484 
Q 888 1194 1011 928 
Q 1134 663 1356 523 
Q 1578 384 1822 384 
Q 2178 384 2434 671 
Q 2691 959 2691 1453 
Q 2691 1928 2437 2201 
Q 2184 2475 1800 2475 
Q 1419 2475 1153 2201 
Q 888 1928 888 1484 
z
" transform="scale(0.015625)"/>
       </defs>
       <use xlink:href="#ArialMT-36"/>
       <use xlink:href="#ArialMT-30" x="55.615234"/>
      </g>
     </g>
    </g>
    <g id="xtick_5">
     <g id="line2d_5">
      <path d="M 274.909091 320.4 
L 274.909091 43.2 
" clip-path="url(#pd88d733ef7)" style="fill: none; stroke: #ffffff; stroke-linecap: round"/>
     </g>
     <g id="text_5">
      <!-- 80 -->
      <g style="fill: #262626" transform="translate(268.79206 337.773594) scale(0.11 -0.11)">
       <defs>
        <path id="ArialMT-38" d="M 1131 2484 
Q 781 2613 612 2850 
Q 444 3088 444 3419 
Q 444 3919 803 4259 
Q 1163 4600 1759 4600 
Q 2359 4600 2725 4251 
Q 3091 3903 3091 3403 
Q 3091 3084 2923 2848 
Q 2756 2613 2416 2484 
Q 2838 2347 3058 2040 
Q 3278 1734 3278 1309 
Q 3278 722 2862 322 
Q 2447 -78 1769 -78 
Q 1091 -78 675 323 
Q 259 725 259 1325 
Q 259 1772 486 2073 
Q 713 2375 1131 2484 
z
M 1019 3438 
Q 1019 3113 1228 2906 
Q 1438 2700 1772 2700 
Q 2097 2700 2305 2904 
Q 2513 3109 2513 3406 
Q 2513 3716 2298 3927 
Q 2084 4138 1766 4138 
Q 1444 4138 1231 3931 
Q 1019 3725 1019 3438 
z
M 838 1322 
Q 838 1081 952 856 
Q 1066 631 1291 507 
Q 1516 384 1775 384 
Q 2178 384 2440 643 
Q 2703 903 2703 1303 
Q 2703 1709 2433 1975 
Q 2163 2241 1756 2241 
Q 1359 2241 1098 1978 
Q 838 1716 838 1322 
z
" transform="scale(0.015625)"/>
       </defs>
       <use xlink:href="#ArialMT-38"/>
       <use xlink:href="#ArialMT-30" x="55.615234"/>
      </g>
     </g>
    </g>
    <g id="text_6">
     <!-- S (mW/m²) -->
     <g style="fill: #262626" transform="translate(144.466108 352.695469) scale(0.12 -0.12)">
      <defs>
       <path id="ArialMT-53" d="M 288 1472 
L 859 1522 
Q 900 1178 1048 958 
Q 1197 738 1509 602 
Q 1822 466 2213 466 
Q 2559 466 2825 569 
Q 3091 672 3220 851 
Q 3350 1031 3350 1244 
Q 3350 1459 3225 1620 
Q 3100 1781 2813 1891 
Q 2628 1963 1997 2114 
Q 1366 2266 1113 2400 
Q 784 2572 623 2826 
Q 463 3081 463 3397 
Q 463 3744 659 4045 
Q 856 4347 1234 4503 
Q 1613 4659 2075 4659 
Q 2584 4659 2973 4495 
Q 3363 4331 3572 4012 
Q 3781 3694 3797 3291 
L 3216 3247 
Q 3169 3681 2898 3903 
Q 2628 4125 2100 4125 
Q 1550 4125 1298 3923 
Q 1047 3722 1047 3438 
Q 1047 3191 1225 3031 
Q 1400 2872 2139 2705 
Q 2878 2538 3153 2413 
Q 3553 2228 3743 1945 
Q 3934 1663 3934 1294 
Q 3934 928 3725 604 
Q 3516 281 3123 101 
Q 2731 -78 2241 -78 
Q 1619 -78 1198 103 
Q 778 284 539 648 
Q 300 1013 288 1472 
z
" transform="scale(0.015625)"/>
       <path id="ArialMT-20" transform="scale(0.015625)"/>
       <path id="ArialMT-28" d="M 1497 -1347 
Q 1031 -759 709 28 
Q 388 816 388 1659 
Q 388 2403 628 3084 
Q 909 3875 1497 4659 
L 1900 4659 
Q 1522 4009 1400 3731 
Q 1209 3300 1100 2831 
Q 966 2247 966 1656 
Q 966 153 1900 -1347 
L 1497 -1347 
z
" transform="scale(0.015625)"/>
       <path id="ArialMT-6d" d="M 422 0 
L 422 3319 
L 925 3319 
L 925 2853 
Q 1081 3097 1340 3245 
Q 1600 3394 1931 3394 
Q 2300 3394 2536 3241 
Q 2772 3088 2869 2813 
Q 3263 3394 3894 3394 
Q 4388 3394 4653 3120 
Q 4919 2847 4919 2278 
L 4919 0 
L 4359 0 
L 4359 2091 
Q 4359 2428 4304 2576 
Q 4250 2725 4106 2815 
Q 3963 2906 3769 2906 
Q 3419 2906 3187 2673 
Q 2956 2441 2956 1928 
L 2956 0 
L 2394 0 
L 2394 2156 
Q 2394 2531 2256 2718 
Q 2119 2906 1806 2906 
Q 1569 2906 1367 2781 
Q 1166 2656 1075 2415 
Q 984 2175 984 1722 
L 984 0 
L 422 0 
z
" transform="scale(0.015625)"/>
       <path id="ArialMT-57" d="M 1294 0 
L 78 4581 
L 700 4581 
L 1397 1578 
Q 1509 1106 1591 641 
Q 1766 1375 1797 1488 
L 2669 4581 
L 3400 4581 
L 4056 2263 
Q 4303 1400 4413 641 
Q 4500 1075 4641 1638 
L 5359 4581 
L 5969 4581 
L 4713 0 
L 4128 0 
L 3163 3491 
Q 3041 3928 3019 4028 
Q 2947 3713 2884 3491 
L 1913 0 
L 1294 0 
z
" transform="scale(0.015625)"/>
       <path id="ArialMT-2f" d="M 0 -78 
L 1328 4659 
L 1778 4659 
L 453 -78 
L 0 -78 
z
" transform="scale(0.015625)"/>
       <path id="ArialMT-b2" d="M 78 2291 
Q 97 2469 225 2647 
Q 422 2916 872 3242 
Q 1322 3569 1406 3663 
Q 1522 3791 1522 3925 
Q 1522 4075 1412 4172 
Q 1303 4269 1091 4269 
Q 884 4269 782 4195 
Q 681 4122 616 3913 
L 144 3963 
Q 234 4309 457 4473 
Q 681 4638 1100 4638 
Q 1572 4638 1792 4453 
Q 2013 4269 2013 4003 
Q 2013 3741 1828 3506 
Q 1688 3331 1188 2972 
Q 928 2781 819 2669 
L 2025 2669 
L 2025 2291 
L 78 2291 
z
" transform="scale(0.015625)"/>
       <path id="ArialMT-29" d="M 791 -1347 
L 388 -1347 
Q 1322 153 1322 1656 
Q 1322 2244 1188 2822 
Q 1081 3291 891 3722 
Q 769 4003 388 4659 
L 791 4659 
Q 1378 3875 1659 3084 
Q 1900 2403 1900 1659 
Q 1900 816 1576 28 
Q 1253 -759 791 -1347 
z
" transform="scale(0.015625)"/>
      </defs>
      <use xlink:href="#ArialMT-53"/>
      <use xlink:href="#ArialMT-20" x="66.699219"/>
      <use xlink:href="#ArialMT-28" x="94.482422"/>
      <use xlink:href="#ArialMT-6d" x="127.783203"/>
      <use xlink:href="#ArialMT-57" x="211.083984"/>
      <use xlink:href="#ArialMT-2f" x="305.46875"/>
      <use xlink:href="#ArialMT-6d" x="333.251953"/>
      <use xlink:href="#ArialMT-b2" x="416.552734"/>
      <use xlink:href="#ArialMT-29" x="449.853516"/>
     </g>
    </g>
   </g>
   <g id="matplotlib.axis_2">
    <g id="ytick_1">
     <g id="line2d_6">
      <path d="M 72 320.4 
L 274.909091 320.4 
" clip-path="url(#pd88d733ef7)" style="fill: none; stroke: #ffffff; stroke-linecap: round"/>
     </g>
     <g id="text_7">
      <!-- 0.0 -->
      <g style="fill: #262626" transform="translate(47.21 324.336797) scale(0.11 -0.11)">
       <defs>
        <path id="ArialMT-2e" d="M 581 0 
L 581 641 
L 1222 641 
L 1222 0 
L 581 0 
z
" transform="scale(0.015625)"/>
       </defs>
       <use xlink:href="#ArialMT-30"/>
       <use xlink:href="#ArialMT-2e" x="55.615234"/>
       <use xlink:href="#ArialMT-30" x="83.398438"/>
      </g>
     </g>
    </g>
    <g id="ytick_2">
     <g id="line2d_7">
      <path d="M 72 292.68 
L 274.909091 292.68 
" clip-path="url(#pd88d733ef7)" style="fill: none; stroke: #ffffff; stroke-linecap: round"/>
     </g>
     <g id="text_8">
      <!-- 0.2 -->
      <g style="fill: #262626" transform="translate(47.21 296.616797) scale(0.11 -0.11)">
       <use xlink:href="#ArialMT-30"/>
       <use xlink:href="#ArialMT-2e" x="55.615234"/>
       <use xlink:href="#ArialMT-32" x="83.398438"/>
      </g>
     </g>
    </g>
    <g id="ytick_3">
     <g id="line2d_8">
      <path d="M 72 264.96 
L 274.909091 264.96 
" clip-path="url(#pd88d733ef7)" style="fill: none; stroke: #ffffff; stroke-linecap: round"/>
     </g>
     <g id="text_9">
      <!-- 0.4 -->
      <g style="fill: #262626" transform="translate(47.21 268.896797) scale(0.11 -0.11)">
       <use xlink:href="#ArialMT-30"/>
       <use xlink:href="#ArialMT-2e" x="55.615234"/>
       <use xlink:href="#ArialMT-34" x="83.398438"/>
      </g>
     </g>
    </g>
    <g id="ytick_4">
     <g id="line2d_9">
      <path d="M 72 237.24 
L 274.909091 237.24 
" clip-path="url(#pd88d733ef7)" style="fill: none; stroke: #ffffff; stroke-linecap: round"/>
     </g>
     <g id="text_10">
      <!-- 0.6 -->
      <g style="fill: #262626" transform="translate(47.21 241.176797) scale(0.11 -0.11)">
       <use xlink:href="#ArialMT-30"/>
       <use xlink:href="#ArialMT-2e" x="55.615234"/>
       <use xlink:href="#ArialMT-36" x="83.398438"/>
      </g>
     </g>
    </g>
    <g id="ytick_5">
     <g id="line2d_10">
      <path d="M 72 209.52 
L 274.909091 209.52 
" clip-path="url(#pd88d733ef7)" style="fill: none; stroke: #ffffff; stroke-linecap: round"/>
     </g>
     <g id="text_11">
      <!-- 0.8 -->
      <g style="fill: #262626" transform="translate(47.21 213.456797) scale(0.11 -0.11)">
       <use xlink:href="#ArialMT-30"/>
       <use xlink:href="#ArialMT-2e" x="55.615234"/>
       <use xlink:href="#ArialMT-38" x="83.398438"/>
      </g>
     </g>
    </g>
    <g id="ytick_6">
     <g id="line2d_11">
      <path d="M 72 181.8 
L 274.909091 181.8 
" clip-path="url(#pd88d733ef7)" style="fill: none; stroke: #ffffff; stroke-linecap: round"/>
     </g>
     <g id="text_12">
      <!-- 1.0 -->
      <g style="fill: #262626" transform="translate(47.21 185.736797) scale(0.11 -0.11)">
       <defs>
        <path id="ArialMT-31" d="M 2384 0 
L 1822 0 
L 1822 3584 
Q 1619 3391 1289 3197 
Q 959 3003 697 2906 
L 697 3450 
Q 1169 3672 1522 3987 
Q 1875 4303 2022 4600 
L 2384 4600 
L 2384 0 
z
" transform="scale(0.015625)"/>
       </defs>
       <use xlink:href="#ArialMT-31"/>
       <use xlink:href="#ArialMT-2e" x="55.615234"/>
       <use xlink:href="#ArialMT-30" x="83.398438"/>
      </g>
     </g>
    </g>
    <g id="ytick_7">
     <g id="line2d_12">
      <path d="M 72 154.08 
L 274.909091 154.08 
" clip-path="url(#pd88d733ef7)" style="fill: none; stroke: #ffffff; stroke-linecap: round"/>
     </g>
     <g id="text_13">
      <!-- 1.2 -->
      <g style="fill: #262626" transform="translate(47.21 158.016797) scale(0.11 -0.11)">
       <use xlink:href="#ArialMT-31"/>
       <use xlink:href="#ArialMT-2e" x="55.615234"/>
       <use xlink:href="#ArialMT-32" x="83.398438"/>
      </g>
     </g>
    </g>
    <g id="ytick_8">
     <g id="line2d_13">
      <path d="M 72 126.36 
L 274.909091 126.36 
" clip-path="url(#pd88d733ef7)" style="fill: none; stroke: #ffffff; stroke-linecap: round"/>
     </g>
     <g id="text_14">
      <!-- 1.4 -->
      <g style="fill: #262626" transform="translate(47.21 130.296797) scale(0.11 -0.11)">
       <use xlink:href="#ArialMT-31"/>
       <use xlink:href="#ArialMT-2e" x="55.615234"/>
       <use xlink:href="#ArialMT-34" x="83.398438"/>
      </g>
     </g>
    </g>
    <g id="ytick_9">
     <g id="line2d_14">
      <path d="M 72 98.64 
L 274.909091 98.64 
" clip-path="url(#pd88d733ef7)" style="fill: none; stroke: #ffffff; stroke-linecap: round"/>
     </g>
     <g id="text_15">
      <!-- 1.6 -->
      <g style="fill: #262626" transform="translate(47.21 102.576797) scale(0.11 -0.11)">
       <use xlink:href="#ArialMT-31"/>
       <use xlink:href="#ArialMT-2e" x="55.615234"/>
       <use xlink:href="#ArialMT-36" x="83.398438"/>
      </g>
     </g>
    </g>
    <g id="ytick_10">
     <g id="line2d_15">
      <path d="M 72 70.92 
L 274.909091 70.92 
" clip-path="url(#pd88d733ef7)" style="fill: none; stroke: #ffffff; stroke-linecap: round"/>
     </g>
     <g id="text_16">
      <!-- 1.8 -->
      <g style="fill: #262626" transform="translate(47.21 74.856797) scale(0.11 -0.11)">
       <use xlink:href="#ArialMT-31"/>
       <use xlink:href="#ArialMT-2e" x="55.615234"/>
       <use xlink:href="#ArialMT-38" x="83.398438"/>
      </g>
     </g>
    </g>
    <g id="ytick_11">
     <g id="line2d_16">
      <path d="M 72 43.2 
L 274.909091 43.2 
" clip-path="url(#pd88d733ef7)" style="fill: none; stroke: #ffffff; stroke-linecap: round"/>
     </g>
     <g id="text_17">
      <!-- 2.0 -->
      <g style="fill: #262626" transform="translate(47.21 47.136797) scale(0.11 -0.11)">
       <use xlink:href="#ArialMT-32"/>
       <use xlink:href="#ArialMT-2e" x="55.615234"/>
       <use xlink:href="#ArialMT-30" x="83.398438"/>
      </g>
     </g>
    </g>
    <g id="text_18">
     <!-- z (m) -->
     <g style="fill: #262626" transform="translate(40.684375 195.460312) rotate(-90) scale(0.12 -0.12)">
      <defs>
       <path id="ArialMT-7a" d="M 125 0 
L 125 456 
L 2238 2881 
Q 1878 2863 1603 2863 
L 250 2863 
L 250 3319 
L 2963 3319 
L 2963 2947 
L 1166 841 
L 819 456 
Q 1197 484 1528 484 
L 3063 484 
L 3063 0 
L 125 0 
z
" transform="scale(0.015625)"/>
      </defs>
      <use xlink:href="#ArialMT-7a"/>
      <use xlink:href="#ArialMT-20" x="50"/>
      <use xlink:href="#ArialMT-28" x="77.783203"/>
      <use xlink:href="#ArialMT-6d" x="111.083984"/>
      <use xlink:href="#ArialMT-29" x="194.384766"/>
     </g>
    </g>
   </g>
   <g id="line2d_17">
    <path d="M 80.585464 320.4 
L 81.108 319.014 
L 83.4221 317.628 
L 85.961773 316.242 
L 85.956227 314.856 
L 83.988668 313.47 
L 82.865682 312.084 
L 82.911992 310.698 
L 83.787168 309.312 
L 86.256542 307.926 
L 88.157056 306.54 
L 87.538647 305.154 
L 85.825911 303.768 
L 85.231773 302.382 
L 85.457242 300.996 
L 86.736877 299.61 
L 89.194634 298.224 
L 90.437491 296.838 
L 89.430273 295.452 
L 88.088984 294.066 
L 87.847322 292.68 
L 88.293424 291.294 
L 89.960963 289.908 
L 92.243852 288.522 
L 92.867078 287.136 
L 91.68761 285.75 
L 90.734709 284.364 
L 90.74081 282.978 
L 91.481764 281.592 
L 95.4316 278.82 
L 95.524276 277.434 
L 94.351039 276.048 
L 93.748608 274.662 
L 93.970469 273.276 
L 95.066761 271.89 
L 97.229676 270.504 
L 98.805307 269.118 
L 98.492178 267.732 
L 97.450463 266.346 
L 97.146079 264.96 
L 97.606498 263.574 
L 99.077984 262.188 
L 101.289738 260.802 
L 102.430067 259.416 
L 101.8508 258.03 
L 101.012834 256.644 
L 100.969528 255.258 
L 101.717487 253.872 
L 103.537227 252.486 
L 105.667033 251.1 
L 106.384469 249.714 
L 105.07157 246.942 
L 105.27932 245.556 
L 106.364026 244.17 
L 110.407616 241.398 
L 110.753779 240.012 
L 110.023549 238.626 
L 109.670172 237.24 
L 110.145662 235.854 
L 111.597029 234.468 
L 113.887416 233.082 
L 115.572978 231.696 
L 115.625142 230.31 
L 114.963874 228.924 
L 114.863921 227.538 
L 115.639928 226.152 
L 117.459055 224.766 
L 119.839885 223.38 
L 121.23607 221.994 
L 121.081933 220.608 
L 120.55249 219.222 
L 120.716131 217.836 
L 121.828696 216.45 
L 123.987634 215.064 
L 126.367486 213.678 
L 127.475608 212.292 
L 126.847233 209.52 
L 127.292433 208.134 
L 128.768942 206.748 
L 133.523157 203.976 
L 134.369271 202.59 
L 134.052744 201.204 
L 133.904078 199.818 
L 134.653193 198.432 
L 136.505204 197.046 
L 139.181045 195.66 
L 141.360893 194.274 
L 141.98765 192.888 
L 141.691569 191.502 
L 141.7713 190.116 
L 142.846212 188.73 
L 145.066167 187.344 
L 147.903315 185.958 
L 149.928504 184.572 
L 150.384737 183.186 
L 150.156902 181.8 
L 150.481543 180.414 
L 151.897357 179.028 
L 154.459617 177.642 
L 157.396051 176.256 
L 159.256404 174.87 
L 159.588821 173.484 
L 159.46168 172.098 
L 160.041048 170.712 
L 161.799202 169.326 
L 167.646225 166.554 
L 169.343513 165.168 
L 169.590639 163.782 
L 169.581163 162.396 
L 170.413326 161.01 
L 172.499088 159.624 
L 178.598232 156.852 
L 180.139516 155.466 
L 180.432826 152.694 
L 181.502352 151.308 
L 183.880366 149.922 
L 187.1893 148.536 
L 190.133176 147.15 
L 191.523561 145.764 
L 191.858041 142.992 
L 193.126768 141.606 
L 195.740282 140.22 
L 199.173346 138.834 
L 202.041367 137.448 
L 203.276791 136.062 
L 203.338775 134.676 
L 203.590058 133.29 
L 204.994343 131.904 
L 207.762092 130.518 
L 211.24052 129.132 
L 213.990189 127.746 
L 215.050471 126.36 
L 215.000677 124.974 
L 215.225783 123.588 
L 216.668677 122.202 
L 219.481964 120.816 
L 222.911267 119.43 
L 225.488987 118.044 
L 226.33419 116.658 
L 226.100754 115.272 
L 226.189945 113.886 
L 227.538299 112.5 
L 230.255313 111.114 
L 233.519945 109.728 
L 235.853447 108.342 
L 236.419077 106.956 
L 235.899753 105.57 
L 235.707094 104.184 
L 236.787039 102.798 
L 239.230489 101.412 
L 242.186926 100.026 
L 244.180557 98.64 
L 244.378317 97.254 
L 243.444282 95.868 
L 242.791508 94.482 
L 243.389652 93.096 
L 245.344605 91.71 
L 247.816561 90.324 
L 249.349619 88.938 
L 249.073347 87.552 
L 247.579251 86.166 
L 246.264975 84.78 
L 246.143852 83.394 
L 247.364146 82.008 
L 249.148208 80.622 
L 250.078215 79.236 
L 249.217304 77.85 
L 244.858213 75.078 
L 243.777621 73.692 
L 244.013699 72.306 
L 244.893361 70.92 
L 245.076605 69.534 
L 243.544565 68.148 
L 237.415142 65.376 
L 235.196246 63.99 
L 234.246786 62.604 
L 234.041103 61.218 
L 233.370351 59.832 
L 231.15015 58.446 
L 227.422098 57.06 
L 223.294612 55.674 
L 219.912988 54.288 
L 217.726529 52.902 
L 216.387442 51.516 
L 214.873992 50.13 
L 212.095717 48.744 
L 207.852087 47.358 
L 203.032531 45.972 
L 198.763993 44.586 
L 195.602133 43.2 
L 195.602133 43.2 
" clip-path="url(#pd88d733ef7)" style="fill: none; stroke: #008000; stroke-opacity: 0.7; stroke-linecap: round"/>
   </g>
   <g id="line2d_18">
    <path d="M 74.080797 320.4 
L 81.477495 319.014 
L 97.609178 317.628 
L 109.491586 316.242 
L 107.601568 314.856 
L 79.043031 312.084 
L 75.875537 310.698 
L 86.838231 309.312 
L 103.17934 307.926 
L 111.78239 306.54 
L 105.82508 305.154 
L 90.32249 303.768 
L 78.049996 302.382 
L 79.163894 300.996 
L 92.95033 299.61 
L 108.405343 298.224 
L 113.174742 296.838 
L 103.589689 295.452 
L 87.646512 294.066 
L 78.511951 292.68 
L 83.830821 291.294 
L 99.517098 289.908 
L 113.071418 288.522 
L 113.72979 287.136 
L 101.202135 285.75 
L 85.909014 284.364 
L 80.525128 282.978 
L 89.690805 281.592 
L 106.247027 280.206 
L 117.041654 278.82 
L 113.600815 277.434 
L 85.384539 274.662 
L 84.098926 273.276 
L 96.509221 271.89 
L 112.880658 270.504 
L 120.271339 269.118 
L 113.020308 267.732 
L 97.339081 266.346 
L 86.279328 264.96 
L 89.162515 263.574 
L 119.215433 260.802 
L 122.809171 259.416 
L 112.27977 258.03 
L 96.537061 256.644 
L 88.722563 255.258 
L 95.577954 253.872 
L 111.990119 252.486 
L 125.122848 251.1 
L 124.792809 249.714 
L 111.703611 248.328 
L 96.879597 246.942 
L 92.762368 245.556 
L 103.160697 244.17 
L 120.171818 242.784 
L 130.558624 241.398 
L 126.433015 240.012 
L 111.62258 238.626 
L 98.587295 237.24 
L 98.372291 235.854 
L 111.702935 234.468 
L 128.396309 233.082 
L 135.564076 231.696 
L 127.99457 230.31 
L 112.350331 228.924 
L 101.810276 227.538 
L 105.463518 226.152 
L 136.551905 223.38 
L 140.257762 221.994 
L 129.7707 220.608 
L 114.159442 219.222 
L 106.624523 217.836 
L 113.901982 216.45 
L 130.856063 215.064 
L 144.598099 213.678 
L 144.821102 212.292 
L 132.060026 210.906 
L 117.265731 209.52 
L 113.03536 208.134 
L 123.526226 206.748 
L 141.132015 205.362 
L 152.563957 203.976 
L 149.47795 202.59 
L 121.818235 199.818 
L 120.98531 198.432 
L 134.165408 197.046 
L 151.720868 195.66 
L 160.537078 194.274 
L 154.472607 192.888 
L 139.24959 191.502 
L 127.892402 190.116 
L 130.365488 188.73 
L 145.65184 187.344 
L 162.566974 185.958 
L 168.646612 184.572 
L 160.041594 183.186 
L 144.564576 181.8 
L 135.48793 180.414 
L 141.024778 179.028 
L 173.650808 176.256 
L 177.041364 174.87 
L 166.389279 173.484 
L 151.188535 172.098 
L 144.530873 170.712 
L 152.774754 169.326 
L 170.5429 167.94 
L 184.975701 166.554 
L 185.86141 165.168 
L 173.663815 163.782 
L 159.139453 162.396 
L 154.870851 161.01 
L 165.391746 159.624 
L 183.645391 158.238 
L 196.539569 156.852 
L 195.206618 155.466 
L 168.333869 152.694 
L 166.277835 151.308 
L 178.607069 149.922 
L 196.957808 148.536 
L 208.303519 147.15 
L 205.103656 145.764 
L 191.150485 144.378 
L 178.581254 142.992 
L 178.433038 141.606 
L 192.090382 140.22 
L 210.246677 138.834 
L 220.150409 137.448 
L 215.468423 136.062 
L 201.1521 134.676 
L 189.56281 133.29 
L 190.915017 131.904 
L 205.421627 130.518 
L 223.183621 129.132 
L 231.840581 127.746 
L 226.066586 126.36 
L 211.608377 124.974 
L 200.819038 123.588 
L 203.176096 122.202 
L 218.060079 120.816 
L 235.295946 119.43 
L 242.96299 118.044 
L 236.475896 116.658 
L 222.008353 115.272 
L 211.726585 113.886 
L 214.521227 112.5 
L 229.306315 111.114 
L 245.922856 109.728 
L 252.886444 108.342 
L 246.044306 106.956 
L 231.634107 105.57 
L 221.48535 104.184 
L 224.091392 102.798 
L 238.275354 101.412 
L 254.179516 100.026 
L 260.719673 98.64 
L 253.863732 97.254 
L 239.543437 95.868 
L 229.116372 94.482 
L 230.864894 93.096 
L 243.900195 91.71 
L 258.945137 90.324 
L 265.304218 88.938 
L 258.761143 87.552 
L 244.580957 86.166 
L 233.486555 84.78 
L 233.703765 83.394 
L 244.982185 82.008 
L 258.926309 80.622 
L 265.261809 79.236 
L 259.347295 77.85 
L 245.433 76.464 
L 233.395038 75.078 
L 231.471783 73.692 
L 240.345251 72.306 
L 252.814857 70.92 
L 259.158663 69.534 
L 254.170802 68.148 
L 227.747984 65.376 
L 223.265323 63.99 
L 229.129 62.604 
L 239.640768 61.218 
L 245.866644 59.832 
L 242.055053 58.446 
L 229.61131 57.06 
L 215.88272 55.674 
L 208.798528 54.288 
L 211.280245 52.902 
L 219.362652 51.516 
L 225.213023 50.13 
L 222.750792 48.744 
L 211.830621 47.358 
L 198.133879 45.972 
L 188.997631 44.586 
L 188.260185 43.2 
L 188.260185 43.2 
" clip-path="url(#pd88d733ef7)" style="fill: none; stroke-dasharray: 2.22,0.96; stroke-dashoffset: 0; stroke: #4c72b0; stroke-width: 0.6"/>
   </g>
   <g id="line2d_19">
    <path d="M 107.427001 320.4 
L 101.407847 319.014 
L 87.97211 317.628 
L 78.172099 316.242 
L 80.106591 314.856 
L 105.064023 312.084 
L 108.086824 310.698 
L 99.104153 309.312 
L 85.578135 307.926 
L 78.667795 306.54 
L 84.157902 305.154 
L 97.758565 303.768 
L 108.593921 302.382 
L 108.042912 300.996 
L 96.744706 299.61 
L 84.077703 298.224 
L 80.536695 296.838 
L 89.205707 295.452 
L 103.25359 294.066 
L 111.485672 292.68 
L 107.439308 291.294 
L 94.632028 289.908 
L 83.702814 288.522 
L 83.770687 287.136 
L 95.029514 285.75 
L 108.592194 284.364 
L 113.708341 282.978 
L 106.491609 281.592 
L 93.073398 280.206 
L 84.624573 278.82 
L 88.289226 277.434 
L 113.596199 274.662 
L 115.316451 273.276 
L 105.46736 271.89 
L 92.356413 270.504 
L 86.94278 269.118 
L 93.952154 267.732 
L 108.04747 266.346 
L 118.15668 264.96 
L 116.445558 263.574 
L 92.727669 260.802 
L 90.683803 259.416 
L 100.578214 258.03 
L 114.799814 256.644 
L 122.243891 255.258 
L 117.298889 253.872 
L 104.385202 252.486 
L 94.376882 251.1 
L 95.806504 249.714 
L 107.967325 248.328 
L 121.487956 246.942 
L 125.907758 245.556 
L 118.128771 244.17 
L 104.915216 242.784 
L 97.428111 241.398 
L 102.213942 240.012 
L 115.923369 238.626 
L 128.017641 237.24 
L 129.272374 235.854 
L 119.21502 234.468 
L 106.501909 233.082 
L 101.937872 231.696 
L 109.771091 230.31 
L 124.274898 228.924 
L 134.364643 227.538 
L 132.521822 226.152 
L 109.340662 223.38 
L 107.900116 221.994 
L 118.322882 220.608 
L 132.891415 219.222 
L 140.573702 217.836 
L 135.882345 216.45 
L 123.274109 215.064 
L 113.565918 213.678 
L 115.255949 212.292 
L 127.713296 210.906 
L 141.693492 209.52 
L 146.750521 208.134 
L 139.600868 206.748 
L 126.742842 205.362 
L 119.248519 203.976 
L 123.905697 202.59 
L 150.655349 199.818 
L 153.046851 198.432 
L 143.921827 197.046 
L 131.425637 195.66 
L 126.395795 194.274 
L 133.72256 192.888 
L 148.464657 191.502 
L 159.799067 190.116 
L 159.640723 188.73 
L 149.065404 187.344 
L 137.437609 185.958 
L 134.957046 184.572 
L 144.562197 183.186 
L 159.614702 181.8 
L 169.18315 180.414 
L 166.713433 179.028 
L 155.207174 177.642 
L 144.823585 176.256 
L 144.826952 174.87 
L 156.268344 173.484 
L 171.178222 172.098 
L 178.881436 170.712 
L 174.423567 169.326 
L 162.458459 167.94 
L 153.552051 166.554 
L 155.847769 165.168 
L 168.671111 163.782 
L 183.089802 162.396 
L 188.957179 161.01 
L 182.880715 159.624 
L 170.848751 158.238 
L 163.508271 156.852 
L 167.806809 155.466 
L 195.266526 152.694 
L 199.435716 151.308 
L 192.116208 149.922 
L 180.308496 148.536 
L 174.486018 147.15 
L 180.426935 145.764 
L 194.746761 144.378 
L 207.577895 142.992 
L 210.262535 141.606 
L 202.053969 140.22 
L 190.649766 138.834 
L 186.175158 137.448 
L 193.34922 136.062 
L 207.87184 134.676 
L 219.80498 133.29 
L 221.267223 131.904 
L 212.481589 130.518 
L 201.545622 129.132 
L 198.143033 127.746 
L 206.107582 126.36 
L 220.53267 124.974 
L 231.597692 123.588 
L 232.120923 122.202 
L 223.013051 120.816 
L 212.507379 119.43 
L 209.813507 118.044 
L 218.102455 116.658 
L 232.160738 115.272 
L 242.427958 113.886 
L 242.295372 112.5 
L 233.059903 111.114 
L 222.86188 109.728 
L 220.444687 108.342 
L 228.568429 106.956 
L 241.998919 105.57 
L 251.547632 104.184 
L 251.020119 102.798 
L 241.805332 101.412 
L 231.731798 100.026 
L 229.118224 98.64 
L 236.560952 97.254 
L 249.087397 95.868 
L 257.971623 94.482 
L 257.273922 93.096 
L 248.193043 91.71 
L 238.043684 90.324 
L 234.74857 88.938 
L 240.976356 87.552 
L 252.276732 86.166 
L 260.488522 84.78 
L 259.803375 83.394 
L 250.959459 82.008 
L 240.567569 80.622 
L 236.146263 79.236 
L 240.628557 77.85 
L 250.327726 76.464 
L 257.776307 75.078 
L 257.219693 73.692 
L 248.73881 72.306 
L 238.033486 70.92 
L 232.161407 69.534 
L 234.431505 68.148 
L 242.126967 66.762 
L 248.629468 65.376 
L 248.261938 63.99 
L 240.314012 62.604 
L 229.389524 61.218 
L 221.965605 59.832 
L 221.735926 58.446 
L 232.425406 55.674 
L 232.262352 54.288 
L 225.08316 52.902 
L 214.269039 51.516 
L 205.544228 50.13 
L 202.880325 48.744 
L 205.790738 47.358 
L 209.851324 45.972 
L 209.95119 44.586 
L 203.889476 43.2 
L 203.889476 43.2 
" clip-path="url(#pd88d733ef7)" style="fill: none; stroke-dasharray: 2.22,0.96; stroke-dashoffset: 0; stroke: #dd8452; stroke-width: 0.6"/>
   </g>
   <g id="patch_3">
    <path d="M 72 320.4 
L 72 43.2 
" style="fill: none; stroke: #ffffff; stroke-width: 1.25; stroke-linejoin: miter; stroke-linecap: square"/>
   </g>
   <g id="patch_4">
    <path d="M 274.909091 320.4 
L 274.909091 43.2 
" style="fill: none; stroke: #ffffff; stroke-width: 1.25; stroke-linejoin: miter; stroke-linecap: square"/>
   </g>
   <g id="patch_5">
    <path d="M 72 320.4 
L 274.909091 320.4 
" style="fill: none; stroke: #ffffff; stroke-width: 1.25; stroke-linejoin: miter; stroke-linecap: square"/>
   </g>
   <g id="patch_6">
    <path d="M 72 43.2 
L 274.909091 43.2 
" style="fill: none; stroke: #ffffff; stroke-width: 1.25; stroke-linejoin: miter; stroke-linecap: square"/>
   </g>
   <g id="legend_1">
    <g id="patch_7">
     <path d="M 79.7 98.86 
L 127.99 98.86 
Q 130.19 98.86 130.19 96.66 
L 130.19 50.9 
Q 130.19 48.7 127.99 48.7 
L 79.7 48.7 
Q 77.5 48.7 77.5 50.9 
L 77.5 96.66 
Q 77.5 98.86 79.7 98.86 
z
" style="fill: #eaeaf2; opacity: 0.8; stroke: #cccccc; stroke-linejoin: miter"/>
    </g>
    <g id="line2d_20">
     <path d="M 81.9 57.18375 
L 92.9 57.18375 
L 103.9 57.18375 
" style="fill: none; stroke: #008000; stroke-opacity: 0.7; stroke-linecap: round"/>
    </g>
    <g id="text_19">
     <!-- $S_P$ -->
     <g style="fill: #262626" transform="translate(112.7 61.03375) scale(0.11 -0.11)">
      <defs>
       <path id="DejaVuSans-Oblique-53" d="M 3859 4513 
L 3738 3897 
Q 3422 4066 3111 4152 
Q 2800 4238 2509 4238 
Q 1944 4238 1609 3991 
Q 1275 3744 1275 3334 
Q 1275 3109 1398 2989 
Q 1522 2869 2034 2731 
L 2413 2638 
Q 3053 2472 3303 2217 
Q 3553 1963 3553 1503 
Q 3553 797 2998 353 
Q 2444 -91 1538 -91 
Q 1166 -91 791 -17 
Q 416 56 38 206 
L 166 856 
Q 513 641 861 531 
Q 1209 422 1556 422 
Q 2147 422 2503 684 
Q 2859 947 2859 1369 
Q 2859 1650 2717 1795 
Q 2575 1941 2106 2059 
L 1728 2156 
Q 1081 2325 845 2545 
Q 609 2766 609 3163 
Q 609 3859 1145 4304 
Q 1681 4750 2541 4750 
Q 2875 4750 3203 4690 
Q 3531 4631 3859 4513 
z
" transform="scale(0.015625)"/>
       <path id="DejaVuSans-Oblique-50" d="M 1081 4666 
L 2541 4666 
Q 3178 4666 3512 4369 
Q 3847 4072 3847 3500 
Q 3847 2731 3353 2303 
Q 2859 1875 1966 1875 
L 1172 1875 
L 806 0 
L 172 0 
L 1081 4666 
z
M 1613 4147 
L 1275 2394 
L 2069 2394 
Q 2606 2394 2893 2669 
Q 3181 2944 3181 3456 
Q 3181 3784 2986 3965 
Q 2791 4147 2438 4147 
L 1613 4147 
z
" transform="scale(0.015625)"/>
      </defs>
      <use xlink:href="#DejaVuSans-Oblique-53" transform="translate(0 0.78125)"/>
      <use xlink:href="#DejaVuSans-Oblique-50" transform="translate(63.476562 -15.625) scale(0.7)"/>
     </g>
    </g>
    <g id="line2d_21">
     <path d="M 81.9 72.80375 
L 92.9 72.80375 
L 103.9 72.80375 
" style="fill: none; stroke-dasharray: 2.22,0.96; stroke-dashoffset: 0; stroke: #4c72b0; stroke-width: 0.6"/>
    </g>
    <g id="text_20">
     <!-- $S_E$ -->
     <g style="fill: #262626" transform="translate(112.7 76.65375) scale(0.11 -0.11)">
      <defs>
       <path id="DejaVuSans-Oblique-45" d="M 1081 4666 
L 4031 4666 
L 3928 4134 
L 1606 4134 
L 1338 2753 
L 3566 2753 
L 3463 2222 
L 1234 2222 
L 909 531 
L 3284 531 
L 3181 0 
L 172 0 
L 1081 4666 
z
" transform="scale(0.015625)"/>
      </defs>
      <use xlink:href="#DejaVuSans-Oblique-53" transform="translate(0 0.78125)"/>
      <use xlink:href="#DejaVuSans-Oblique-45" transform="translate(63.476562 -15.625) scale(0.7)"/>
     </g>
    </g>
    <g id="line2d_22">
     <path d="M 81.9 88.42375 
L 92.9 88.42375 
L 103.9 88.42375 
" style="fill: none; stroke-dasharray: 2.22,0.96; stroke-dashoffset: 0; stroke: #dd8452; stroke-width: 0.6"/>
    </g>
    <g id="text_21">
     <!-- $S_H$ -->
     <g style="fill: #262626" transform="translate(112.7 92.27375) scale(0.11 -0.11)">
      <defs>
       <path id="DejaVuSans-Oblique-48" d="M 1081 4666 
L 1716 4666 
L 1344 2753 
L 3634 2753 
L 4006 4666 
L 4641 4666 
L 3731 0 
L 3097 0 
L 3531 2222 
L 1241 2222 
L 806 0 
L 172 0 
L 1081 4666 
z
" transform="scale(0.015625)"/>
      </defs>
      <use xlink:href="#DejaVuSans-Oblique-53" transform="translate(0 0.78125)"/>
      <use xlink:href="#DejaVuSans-Oblique-48" transform="translate(63.476562 -15.625) scale(0.7)"/>
     </g>
    </g>
   </g>
  </g>
  <g id="axes_2">
   <g id="patch_8">
    <path d="M 315.490909 320.4 
L 518.4 320.4 
L 518.4 43.2 
L 315.490909 43.2 
z
" style="fill: #eaeaf2"/>
   </g>
   <g id="matplotlib.axis_3">
    <g id="xtick_6">
     <g id="line2d_23">
      <path d="M 315.490909 320.4 
L 315.490909 43.2 
" clip-path="url(#pef9bc608ac)" style="fill: none; stroke: #ffffff; stroke-linecap: round"/>
     </g>
     <g id="text_22">
      <!-- 0 -->
      <g style="fill: #262626" transform="translate(312.432393 337.773594) scale(0.11 -0.11)">
       <use xlink:href="#ArialMT-30"/>
      </g>
     </g>
    </g>
    <g id="xtick_7">
     <g id="line2d_24">
      <path d="M 366.218182 320.4 
L 366.218182 43.2 
" clip-path="url(#pef9bc608ac)" style="fill: none; stroke: #ffffff; stroke-linecap: round"/>
     </g>
     <g id="text_23">
      <!-- 20 -->
      <g style="fill: #262626" transform="translate(360.101151 337.773594) scale(0.11 -0.11)">
       <use xlink:href="#ArialMT-32"/>
       <use xlink:href="#ArialMT-30" x="55.615234"/>
      </g>
     </g>
    </g>
    <g id="xtick_8">
     <g id="line2d_25">
      <path d="M 416.945455 320.4 
L 416.945455 43.2 
" clip-path="url(#pef9bc608ac)" style="fill: none; stroke: #ffffff; stroke-linecap: round"/>
     </g>
     <g id="text_24">
      <!-- 40 -->
      <g style="fill: #262626" transform="translate(410.828423 337.773594) scale(0.11 -0.11)">
       <use xlink:href="#ArialMT-34"/>
       <use xlink:href="#ArialMT-30" x="55.615234"/>
      </g>
     </g>
    </g>
    <g id="xtick_9">
     <g id="line2d_26">
      <path d="M 467.672727 320.4 
L 467.672727 43.2 
" clip-path="url(#pef9bc608ac)" style="fill: none; stroke: #ffffff; stroke-linecap: round"/>
     </g>
     <g id="text_25">
      <!-- 60 -->
      <g style="fill: #262626" transform="translate(461.555696 337.773594) scale(0.11 -0.11)">
       <use xlink:href="#ArialMT-36"/>
       <use xlink:href="#ArialMT-30" x="55.615234"/>
      </g>
     </g>
    </g>
    <g id="xtick_10">
     <g id="line2d_27">
      <path d="M 518.4 320.4 
L 518.4 43.2 
" clip-path="url(#pef9bc608ac)" style="fill: none; stroke: #ffffff; stroke-linecap: round"/>
     </g>
     <g id="text_26">
      <!-- 80 -->
      <g style="fill: #262626" transform="translate(512.282969 337.773594) scale(0.11 -0.11)">
       <use xlink:href="#ArialMT-38"/>
       <use xlink:href="#ArialMT-30" x="55.615234"/>
      </g>
     </g>
    </g>
    <g id="text_27">
     <!-- S (mW/m²) -->
     <g style="fill: #262626" transform="translate(387.957017 352.695469) scale(0.12 -0.12)">
      <use xlink:href="#ArialMT-53"/>
      <use xlink:href="#ArialMT-20" x="66.699219"/>
      <use xlink:href="#ArialMT-28" x="94.482422"/>
      <use xlink:href="#ArialMT-6d" x="127.783203"/>
      <use xlink:href="#ArialMT-57" x="211.083984"/>
      <use xlink:href="#ArialMT-2f" x="305.46875"/>
      <use xlink:href="#ArialMT-6d" x="333.251953"/>
      <use xlink:href="#ArialMT-b2" x="416.552734"/>
      <use xlink:href="#ArialMT-29" x="449.853516"/>
     </g>
    </g>
   </g>
   <g id="matplotlib.axis_4">
    <g id="ytick_12">
     <g id="line2d_28">
      <path d="M 315.490909 320.4 
L 518.4 320.4 
" clip-path="url(#pef9bc608ac)" style="fill: none; stroke: #ffffff; stroke-linecap: round"/>
     </g>
    </g>
    <g id="ytick_13">
     <g id="line2d_29">
      <path d="M 315.490909 292.68 
L 518.4 292.68 
" clip-path="url(#pef9bc608ac)" style="fill: none; stroke: #ffffff; stroke-linecap: round"/>
     </g>
    </g>
    <g id="ytick_14">
     <g id="line2d_30">
      <path d="M 315.490909 264.96 
L 518.4 264.96 
" clip-path="url(#pef9bc608ac)" style="fill: none; stroke: #ffffff; stroke-linecap: round"/>
     </g>
    </g>
    <g id="ytick_15">
     <g id="line2d_31">
      <path d="M 315.490909 237.24 
L 518.4 237.24 
" clip-path="url(#pef9bc608ac)" style="fill: none; stroke: #ffffff; stroke-linecap: round"/>
     </g>
    </g>
    <g id="ytick_16">
     <g id="line2d_32">
      <path d="M 315.490909 209.52 
L 518.4 209.52 
" clip-path="url(#pef9bc608ac)" style="fill: none; stroke: #ffffff; stroke-linecap: round"/>
     </g>
    </g>
    <g id="ytick_17">
     <g id="line2d_33">
      <path d="M 315.490909 181.8 
L 518.4 181.8 
" clip-path="url(#pef9bc608ac)" style="fill: none; stroke: #ffffff; stroke-linecap: round"/>
     </g>
    </g>
    <g id="ytick_18">
     <g id="line2d_34">
      <path d="M 315.490909 154.08 
L 518.4 154.08 
" clip-path="url(#pef9bc608ac)" style="fill: none; stroke: #ffffff; stroke-linecap: round"/>
     </g>
    </g>
    <g id="ytick_19">
     <g id="line2d_35">
      <path d="M 315.490909 126.36 
L 518.4 126.36 
" clip-path="url(#pef9bc608ac)" style="fill: none; stroke: #ffffff; stroke-linecap: round"/>
     </g>
    </g>
    <g id="ytick_20">
     <g id="line2d_36">
      <path d="M 315.490909 98.64 
L 518.4 98.64 
" clip-path="url(#pef9bc608ac)" style="fill: none; stroke: #ffffff; stroke-linecap: round"/>
     </g>
    </g>
    <g id="ytick_21">
     <g id="line2d_37">
      <path d="M 315.490909 70.92 
L 518.4 70.92 
" clip-path="url(#pef9bc608ac)" style="fill: none; stroke: #ffffff; stroke-linecap: round"/>
     </g>
    </g>
    <g id="ytick_22">
     <g id="line2d_38">
      <path d="M 315.490909 43.2 
L 518.4 43.2 
" clip-path="url(#pef9bc608ac)" style="fill: none; stroke: #ffffff; stroke-linecap: round"/>
     </g>
    </g>
   </g>
   <g id="line2d_39">
    <path d="M 324.076373 320.4 
L 324.598909 319.014 
L 326.913009 317.628 
L 329.452682 316.242 
L 329.447136 314.856 
L 327.479577 313.47 
L 326.356591 312.084 
L 326.402901 310.698 
L 327.278078 309.312 
L 329.747452 307.926 
L 331.647965 306.54 
L 331.029556 305.154 
L 329.31682 303.768 
L 328.722682 302.382 
L 328.948151 300.996 
L 330.227786 299.61 
L 332.685543 298.224 
L 333.9284 296.838 
L 332.921182 295.452 
L 331.579893 294.066 
L 331.338231 292.68 
L 331.784333 291.294 
L 333.451872 289.908 
L 335.734761 288.522 
L 336.357987 287.136 
L 335.178519 285.75 
L 334.225618 284.364 
L 334.23172 282.978 
L 334.972674 281.592 
L 338.922509 278.82 
L 339.015185 277.434 
L 337.841948 276.048 
L 337.239517 274.662 
L 337.461378 273.276 
L 338.55767 271.89 
L 340.720585 270.504 
L 342.296216 269.118 
L 341.983087 267.732 
L 340.941372 266.346 
L 340.636988 264.96 
L 341.097407 263.574 
L 342.568893 262.188 
L 344.780647 260.802 
L 345.920976 259.416 
L 345.341709 258.03 
L 344.503743 256.644 
L 344.460437 255.258 
L 345.208396 253.872 
L 347.028136 252.486 
L 349.157942 251.1 
L 349.875378 249.714 
L 348.562479 246.942 
L 348.770229 245.556 
L 349.854935 244.17 
L 353.898525 241.398 
L 354.244688 240.012 
L 353.514458 238.626 
L 353.161082 237.24 
L 353.636571 235.854 
L 355.087938 234.468 
L 357.378325 233.082 
L 359.063887 231.696 
L 359.116051 230.31 
L 358.454783 228.924 
L 358.35483 227.538 
L 359.130837 226.152 
L 360.949964 224.766 
L 363.330794 223.38 
L 364.726979 221.994 
L 364.572842 220.608 
L 364.0434 219.222 
L 364.20704 217.836 
L 365.319605 216.45 
L 367.478543 215.064 
L 369.858395 213.678 
L 370.966517 212.292 
L 370.338142 209.52 
L 370.783342 208.134 
L 372.259851 206.748 
L 377.014066 203.976 
L 377.86018 202.59 
L 377.543654 201.204 
L 377.394987 199.818 
L 378.144102 198.432 
L 379.996113 197.046 
L 382.671954 195.66 
L 384.851803 194.274 
L 385.478559 192.888 
L 385.182479 191.502 
L 385.262209 190.116 
L 386.337121 188.73 
L 388.557076 187.344 
L 391.394224 185.958 
L 393.419413 184.572 
L 393.875647 183.186 
L 393.647811 181.8 
L 393.972452 180.414 
L 395.388266 179.028 
L 397.950526 177.642 
L 400.88696 176.256 
L 402.747313 174.87 
L 403.07973 173.484 
L 402.952589 172.098 
L 403.531957 170.712 
L 405.290111 169.326 
L 411.137134 166.554 
L 412.834422 165.168 
L 413.081548 163.782 
L 413.072072 162.396 
L 413.904235 161.01 
L 415.989997 159.624 
L 422.089141 156.852 
L 423.630425 155.466 
L 423.923735 152.694 
L 424.993262 151.308 
L 427.371275 149.922 
L 430.68021 148.536 
L 433.624085 147.15 
L 435.01447 145.764 
L 435.34895 142.992 
L 436.617677 141.606 
L 439.231191 140.22 
L 442.664255 138.834 
L 445.532276 137.448 
L 446.7677 136.062 
L 446.829684 134.676 
L 447.080967 133.29 
L 448.485252 131.904 
L 451.253001 130.518 
L 454.731429 129.132 
L 457.481098 127.746 
L 458.54138 126.36 
L 458.491586 124.974 
L 458.716692 123.588 
L 460.159586 122.202 
L 462.972873 120.816 
L 466.402176 119.43 
L 468.979896 118.044 
L 469.825099 116.658 
L 469.591663 115.272 
L 469.680854 113.886 
L 471.029208 112.5 
L 473.746222 111.114 
L 477.010854 109.728 
L 479.344356 108.342 
L 479.909986 106.956 
L 479.390662 105.57 
L 479.198003 104.184 
L 480.277948 102.798 
L 482.721398 101.412 
L 485.677836 100.026 
L 487.671467 98.64 
L 487.869226 97.254 
L 486.935191 95.868 
L 486.282417 94.482 
L 486.880562 93.096 
L 488.835514 91.71 
L 491.30747 90.324 
L 492.840528 88.938 
L 492.564256 87.552 
L 491.07016 86.166 
L 489.755884 84.78 
L 489.634761 83.394 
L 490.855056 82.008 
L 492.639117 80.622 
L 493.569124 79.236 
L 492.708213 77.85 
L 488.349122 75.078 
L 487.268531 73.692 
L 487.504608 72.306 
L 488.38427 70.92 
L 488.567514 69.534 
L 487.035474 68.148 
L 480.906051 65.376 
L 478.687155 63.99 
L 477.737695 62.604 
L 477.532012 61.218 
L 476.86126 59.832 
L 474.641059 58.446 
L 470.913007 57.06 
L 466.785521 55.674 
L 463.403897 54.288 
L 461.217439 52.902 
L 459.878351 51.516 
L 458.364901 50.13 
L 455.586627 48.744 
L 451.342996 47.358 
L 446.52344 45.972 
L 442.254902 44.586 
L 439.093042 43.2 
L 439.093042 43.2 
" clip-path="url(#pef9bc608ac)" style="fill: none; stroke: #008000; stroke-opacity: 0.7; stroke-width: 1.5; stroke-linecap: round"/>
   </g>
   <g id="line2d_40">
    <path d="M 324.076738 320.4 
L 332.185539 319.014 
L 335.715517 317.628 
L 330.702787 316.242 
L 332.479339 314.856 
L 336.457734 313.47 
L 330.750988 312.084 
L 327.316984 310.698 
L 335.545256 309.312 
L 336.066555 307.926 
L 331.777705 306.54 
L 335.770109 305.154 
L 337.215582 303.768 
L 330.3702 302.382 
L 331.559816 300.996 
L 338.259408 299.61 
L 336.459708 298.224 
L 334.239165 296.838 
L 338.804588 295.452 
L 337.604421 294.066 
L 331.526148 292.68 
L 340.446233 289.908 
L 337.414696 288.522 
L 337.653728 287.136 
L 341.423608 285.75 
L 338.051098 284.364 
L 334.347412 282.978 
L 340.192798 281.592 
L 342.355328 280.206 
L 339.336925 278.82 
L 343.661348 276.048 
L 339.086389 274.662 
L 338.383762 273.276 
L 344.131031 271.89 
L 344.338547 270.504 
L 342.348058 269.118 
L 345.498982 267.732 
L 345.713623 266.346 
L 341.163717 264.96 
L 343.109784 263.574 
L 347.835108 262.188 
L 346.774532 260.802 
L 346.301773 259.416 
L 349.419183 258.03 
L 347.897424 256.644 
L 344.477187 255.258 
L 348.171959 253.872 
L 351.478205 252.486 
L 349.968742 251.1 
L 350.942387 249.714 
L 353.280205 248.328 
L 350.579912 246.942 
L 348.946076 245.556 
L 353.404052 244.17 
L 355.310362 242.784 
L 354.078894 241.398 
L 356.045104 240.012 
L 357.208626 238.626 
L 354.083043 237.24 
L 354.354816 235.854 
L 358.787238 234.468 
L 359.601889 233.082 
L 359.11407 231.696 
L 361.479649 230.31 
L 361.41815 228.924 
L 358.60831 227.538 
L 360.494028 226.152 
L 364.409889 224.766 
L 364.586811 223.38 
L 364.993086 221.994 
L 367.221954 220.608 
L 366.158029 219.222 
L 364.218152 217.836 
L 370.425253 215.064 
L 370.423732 213.678 
L 371.615257 212.292 
L 373.336743 210.906 
L 371.657936 209.52 
L 370.875198 208.134 
L 374.509756 206.748 
L 377.009022 205.362 
L 377.187937 203.976 
L 378.906656 202.59 
L 379.947544 201.204 
L 378.088722 199.818 
L 378.499755 198.432 
L 382.356723 197.046 
L 384.320156 195.66 
L 384.888469 194.274 
L 386.837998 192.888 
L 387.200176 191.502 
L 385.542921 190.116 
L 387.011479 188.73 
L 390.830349 187.344 
L 392.47442 185.958 
L 393.494531 184.572 
L 395.418926 183.186 
L 395.226219 181.8 
L 394.040455 180.414 
L 396.345946 179.028 
L 399.998173 177.642 
L 404.676258 173.484 
L 403.537297 170.712 
L 406.448106 169.326 
L 409.905122 167.94 
L 414.627279 163.782 
L 413.8798 162.396 
L 413.941249 161.01 
L 420.543622 158.238 
L 422.244818 156.852 
L 424.137086 155.466 
L 425.244409 154.08 
L 424.461964 152.694 
L 425.101521 151.308 
L 428.651218 149.922 
L 431.826998 148.536 
L 435.624353 145.764 
L 436.42655 144.378 
L 435.698905 142.992 
L 436.798899 141.606 
L 440.464411 140.22 
L 443.565166 138.834 
L 447.43712 136.062 
L 447.960008 134.676 
L 447.310708 133.29 
L 448.720245 131.904 
L 452.397526 130.518 
L 455.43761 129.132 
L 457.486185 127.746 
L 459.232153 126.36 
L 459.491545 124.974 
L 458.875545 123.588 
L 460.418446 122.202 
L 464.007188 120.816 
L 466.965012 119.43 
L 468.9868 118.044 
L 470.508634 116.658 
L 470.492165 115.272 
L 469.806766 113.886 
L 471.28168 112.5 
L 474.663074 111.114 
L 477.473873 109.728 
L 479.356259 108.342 
L 480.565751 106.956 
L 480.226287 105.57 
L 479.320323 104.184 
L 480.498234 102.798 
L 483.52215 101.412 
L 486.078228 100.026 
L 487.686538 98.64 
L 488.487364 97.254 
L 487.739847 95.868 
L 486.426903 94.482 
L 487.053539 93.096 
L 489.524098 91.71 
L 491.676552 90.324 
L 492.861085 88.938 
L 493.136807 87.552 
L 491.87753 86.166 
L 489.957298 84.78 
L 489.756128 83.394 
L 493.00012 80.622 
L 493.601469 79.236 
L 493.232279 77.85 
L 491.354397 76.464 
L 488.648122 75.078 
L 487.355596 73.692 
L 487.982886 72.306 
L 488.756813 70.92 
L 488.625037 69.534 
L 487.508944 68.148 
L 484.942943 66.762 
L 481.351078 65.376 
L 478.777426 63.99 
L 478.115643 62.604 
L 477.924814 61.218 
L 476.965199 59.832 
L 475.063064 58.446 
L 471.835525 57.06 
L 467.420128 55.674 
L 463.557377 54.288 
L 461.509331 52.902 
L 460.284157 51.516 
L 458.53217 50.13 
L 455.955127 48.744 
L 452.268301 47.358 
L 442.534183 44.586 
L 439.318858 43.2 
L 439.318858 43.2 
" clip-path="url(#pef9bc608ac)" style="fill: none; stroke-dasharray: 1.85,0.8; stroke-dashoffset: 0; stroke: #ff0000; stroke-width: 0.5"/>
   </g>
   <g id="patch_9">
    <path d="M 315.490909 320.4 
L 315.490909 43.2 
" style="fill: none; stroke: #ffffff; stroke-width: 1.25; stroke-linejoin: miter; stroke-linecap: square"/>
   </g>
   <g id="patch_10">
    <path d="M 518.4 320.4 
L 518.4 43.2 
" style="fill: none; stroke: #ffffff; stroke-width: 1.25; stroke-linejoin: miter; stroke-linecap: square"/>
   </g>
   <g id="patch_11">
    <path d="M 315.490909 320.4 
L 518.4 320.4 
" style="fill: none; stroke: #ffffff; stroke-width: 1.25; stroke-linejoin: miter; stroke-linecap: square"/>
   </g>
   <g id="patch_12">
    <path d="M 315.490909 43.2 
L 518.4 43.2 
" style="fill: none; stroke: #ffffff; stroke-width: 1.25; stroke-linejoin: miter; stroke-linecap: square"/>
   </g>
   <g id="legend_2">
    <g id="patch_13">
     <path d="M 323.190909 83.24 
L 376.430909 83.24 
Q 378.630909 83.24 378.630909 81.04 
L 378.630909 50.9 
Q 378.630909 48.7 376.430909 48.7 
L 323.190909 48.7 
Q 320.990909 48.7 320.990909 50.9 
L 320.990909 81.04 
Q 320.990909 83.24 323.190909 83.24 
z
" style="fill: #eaeaf2; opacity: 0.8; stroke: #cccccc; stroke-linejoin: miter"/>
    </g>
    <g id="line2d_41">
     <path d="M 325.390909 57.18375 
L 336.390909 57.18375 
L 347.390909 57.18375 
" style="fill: none; stroke: #008000; stroke-opacity: 0.7; stroke-width: 1.5; stroke-linecap: round"/>
    </g>
    <g id="text_28">
     <!-- $S_P$ -->
     <g style="fill: #262626" transform="translate(356.190909 61.03375) scale(0.11 -0.11)">
      <use xlink:href="#DejaVuSans-Oblique-53" transform="translate(0 0.78125)"/>
      <use xlink:href="#DejaVuSans-Oblique-50" transform="translate(63.476562 -15.625) scale(0.7)"/>
     </g>
    </g>
    <g id="line2d_42">
     <path d="M 325.390909 72.80375 
L 336.390909 72.80375 
L 347.390909 72.80375 
" style="fill: none; stroke-dasharray: 1.85,0.8; stroke-dashoffset: 0; stroke: #ff0000; stroke-width: 0.5"/>
    </g>
    <g id="text_29">
     <!-- $S_{EH}$ -->
     <g style="fill: #262626" transform="translate(356.190909 76.65375) scale(0.11 -0.11)">
      <use xlink:href="#DejaVuSans-Oblique-53" transform="translate(0 0.78125)"/>
      <use xlink:href="#DejaVuSans-Oblique-45" transform="translate(63.476562 -15.625) scale(0.7)"/>
      <use xlink:href="#DejaVuSans-Oblique-48" transform="translate(107.705078 -15.625) scale(0.7)"/>
     </g>
    </g>
   </g>
  </g>
  <g id="text_30">
   <!-- At x = 1m -->
   <g style="fill: #262626" transform="translate(257.389875 17.50725) scale(0.144 -0.144)">
    <defs>
     <path id="ArialMT-41" d="M -9 0 
L 1750 4581 
L 2403 4581 
L 4278 0 
L 3588 0 
L 3053 1388 
L 1138 1388 
L 634 0 
L -9 0 
z
M 1313 1881 
L 2866 1881 
L 2388 3150 
Q 2169 3728 2063 4100 
Q 1975 3659 1816 3225 
L 1313 1881 
z
" transform="scale(0.015625)"/>
     <path id="ArialMT-74" d="M 1650 503 
L 1731 6 
Q 1494 -44 1306 -44 
Q 1000 -44 831 53 
Q 663 150 594 308 
Q 525 466 525 972 
L 525 2881 
L 113 2881 
L 113 3319 
L 525 3319 
L 525 4141 
L 1084 4478 
L 1084 3319 
L 1650 3319 
L 1650 2881 
L 1084 2881 
L 1084 941 
Q 1084 700 1114 631 
Q 1144 563 1211 522 
Q 1278 481 1403 481 
Q 1497 481 1650 503 
z
" transform="scale(0.015625)"/>
     <path id="ArialMT-78" d="M 47 0 
L 1259 1725 
L 138 3319 
L 841 3319 
L 1350 2541 
Q 1494 2319 1581 2169 
Q 1719 2375 1834 2534 
L 2394 3319 
L 3066 3319 
L 1919 1756 
L 3153 0 
L 2463 0 
L 1781 1031 
L 1600 1309 
L 728 0 
L 47 0 
z
" transform="scale(0.015625)"/>
     <path id="ArialMT-3d" d="M 3381 2694 
L 356 2694 
L 356 3219 
L 3381 3219 
L 3381 2694 
z
M 3381 1303 
L 356 1303 
L 356 1828 
L 3381 1828 
L 3381 1303 
z
" transform="scale(0.015625)"/>
    </defs>
    <use xlink:href="#ArialMT-41"/>
    <use xlink:href="#ArialMT-74" x="66.699219"/>
    <use xlink:href="#ArialMT-20" x="94.482422"/>
    <use xlink:href="#ArialMT-78" x="122.265625"/>
    <use xlink:href="#ArialMT-20" x="172.265625"/>
    <use xlink:href="#ArialMT-3d" x="200.048828"/>
    <use xlink:href="#ArialMT-20" x="258.447266"/>
    <use xlink:href="#ArialMT-31" x="286.230469"/>
    <use xlink:href="#ArialMT-6d" x="341.845703"/>
   </g>
  </g>
 </g>
 <defs>
  <clipPath id="pd88d733ef7">
   <rect x="72" y="43.2" width="202.909091" height="277.2"/>
  </clipPath>
  <clipPath id="pef9bc608ac">
   <rect x="315.490909" y="43.2" width="202.909091" height="277.2"/>
  </clipPath>
 </defs>
</svg>
